<?xml version="1.0" encoding="utf-8"?>
<!-- Generator: Adobe Illustrator 25.2.1, SVG Export Plug-In . SVG Version: 6.00 Build 0)  -->
<svg version="1.1" id="Capa_1" xmlns="http://www.w3.org/2000/svg" xmlns:xlink="http://www.w3.org/1999/xlink" x="0px" y="0px"
	 viewBox="0 0 192.69 180.69" style="enable-background:new 0 0 192.69 180.69;" xml:space="preserve">
<style type="text/css">
	.st0{fill:#F6F7F9;}
	.st1{fill:#6E6E6E;}
	.st2{fill:#FFFFFF;}
	.st3{fill:#DCDCDC;}
	.st4{fill:url(#Trazado_26198_4_);}
	.st5{fill:url(#Trazado_26199_4_);}
	.st6{fill:url(#Trazado_26200_4_);}
	.st7{fill:url(#Trazado_26201_4_);}
	.st8{fill:url(#Trazado_26202_4_);}
	.st9{fill:url(#Trazado_26203_4_);}
	.st10{fill:url(#Trazado_26204_4_);}
	.st11{fill:url(#Trazado_26205_4_);}
	.st12{fill:url(#Trazado_26206_4_);}
	.st13{fill:url(#Trazado_26207_4_);}
	.st14{fill:url(#Trazado_26208_4_);}
	.st15{fill:url(#Trazado_26209_4_);}
	.st16{fill:url(#Trazado_26210_4_);}
	.st17{fill:url(#Trazado_26211_4_);}
	.st18{fill:url(#Trazado_26212_4_);}
	.st19{fill:url(#Trazado_26213_4_);}
	.st20{fill:url(#Trazado_26214_4_);}
	.st21{fill:url(#Trazado_26215_4_);}
	.st22{fill:url(#Trazado_24566_9_);}
	.st23{fill:url(#Trazado_24567_9_);}
	.st24{fill:url(#Trazado_24568_9_);}
	.st25{fill:url(#Trazado_24569_9_);}
	.st26{fill:url(#Trazado_24570_9_);}
	.st27{fill:url(#Trazado_24571_9_);}
	.st28{fill:url(#Trazado_24572_9_);}
	.st29{fill:url(#Trazado_26216_4_);}
	.st30{fill:url(#Trazado_26217_4_);}
	.st31{fill:url(#Trazado_26218_4_);}
	.st32{fill:url(#Trazado_26336_1_);}
	.st33{fill:url(#Unión_52_1_);}
	.st34{fill:url(#Trazado_904_4_);}
	.st35{fill:url(#Trazado_905_4_);}
	.st36{fill:url(#Trazado_906_4_);}
	.st37{fill:url(#Trazado_24631_4_);}
	.st38{fill:url(#Trazado_24632_4_);}
	.st39{fill:url(#Trazado_24633_4_);}
	.st40{fill:url(#Trazado_24634_4_);}
	.st41{fill:url(#Trazado_24635_4_);}
	.st42{fill:url(#Trazado_24636_4_);}
	.st43{fill:url(#Trazado_24637_4_);}
	.st44{fill:url(#Trazado_24638_4_);}
	.st45{fill:url(#Trazado_24639_4_);}
	.st46{fill:url(#Trazado_24640_4_);}
	.st47{fill:url(#Trazado_884_3_);}
	.st48{fill:url(#Trazado_24616_3_);}
	.st49{fill:url(#Trazado_24617_3_);}
	.st50{fill:url(#Trazado_24618_3_);}
	.st51{fill:url(#Trazado_24619_3_);}
	.st52{fill:url(#Trazado_24620_3_);}
	.st53{fill:url(#Trazado_24621_3_);}
	.st54{fill:url(#Trazado_24622_3_);}
	.st55{fill:none;stroke:#CCCCCC;}
	.st56{fill:url(#Trazado_904-2_2_);}
	.st57{fill:url(#Trazado_905-2_2_);}
	.st58{fill:url(#Trazado_906-2_2_);}
	.st59{fill:url(#Trazado_24631-2_2_);}
	.st60{fill:url(#Trazado_24632-2_2_);}
	.st61{fill:url(#Trazado_24633-2_2_);}
	.st62{fill:url(#Trazado_24634-2_2_);}
	.st63{fill:url(#Trazado_24635-2_2_);}
	.st64{fill:url(#Trazado_24636-2_2_);}
	.st65{fill:url(#Trazado_24637-2_2_);}
	.st66{fill:url(#Trazado_24638-2_2_);}
	.st67{fill:url(#Trazado_24639-2_2_);}
	.st68{fill:url(#Trazado_24640-2_2_);}
	.st69{fill:url(#Trazado_884-2_1_);}
	.st70{fill:url(#Trazado_24616-2_1_);}
	.st71{fill:url(#Trazado_24617-2_1_);}
	.st72{fill:url(#Trazado_24618-2_1_);}
	.st73{fill:url(#Trazado_24619-2_1_);}
	.st74{fill:url(#Trazado_24620-2_1_);}
	.st75{fill:url(#Trazado_24621-2_1_);}
	.st76{fill:url(#Trazado_24622-2_1_);}
	.st77{fill:url(#Trazado_26355_1_);}
	.st78{opacity:0.2;fill:#26F70F;}
	.st79{fill:#F90D0D;}
	.st80{fill:none;stroke:#F90D0D;stroke-miterlimit:10;}
	.st81{fill:none;stroke:#FF2929;stroke-miterlimit:10;}
	.st82{opacity:0.2;}
	.st83{fill:#FF2929;}
	.st84{opacity:0.2;fill:#FF2929;}
	.st85{fill:#3366CC;}
	.st86{fill:none;stroke:#FFFFFF;}
	.st87{fill:#0070BA;}
	.st88{fill:#E3134D;}
	.st89{fill:#FEC20A;}
	.st90{fill:#70AF3D;}
	.st91{fill:#9B156E;}
	.st92{fill:#FBD015;}
	.st93{fill:#05569E;}
	.st94{fill:#D11F3E;}
	.st95{fill:none;}
	.st96{fill-rule:evenodd;clip-rule:evenodd;fill:#3366CC;}
	.st97{fill:none;stroke:#707070;}
	.st98{stroke:#FF2929;stroke-width:4;stroke-miterlimit:10;}
	.st99{fill:none;stroke:#FF2929;stroke-width:4;stroke-miterlimit:10;}
	.st100{fill:none;stroke:#000000;stroke-miterlimit:10;}
	.st101{fill:#41D78C;}
	.st102{fill:url(#Trazado_24869_3_);}
	.st103{fill:url(#Trazado_26191_3_);}
	.st104{fill:url(#Trazado_26192_3_);}
	.st105{fill:url(#Trazado_26193_3_);}
	.st106{fill:url(#Trazado_26194_3_);}
	.st107{fill:url(#Trazado_26195_3_);}
	.st108{fill:url(#Trazado_26196_3_);}
	.st109{fill:url(#Trazado_26197_3_);}
	.st110{fill:url(#Trazado_26198_5_);}
	.st111{fill:url(#Trazado_26199_5_);}
	.st112{fill:url(#Trazado_26200_5_);}
	.st113{fill:url(#Trazado_26201_5_);}
	.st114{fill:url(#Trazado_26202_5_);}
	.st115{fill:url(#Trazado_26203_5_);}
	.st116{fill:url(#Trazado_26204_5_);}
	.st117{fill:url(#Trazado_26205_5_);}
	.st118{fill:url(#Trazado_26206_5_);}
	.st119{fill:url(#Trazado_26207_5_);}
	.st120{fill:url(#Trazado_26208_5_);}
	.st121{fill:url(#Trazado_26209_5_);}
	.st122{fill:url(#Trazado_26210_5_);}
	.st123{fill:url(#Trazado_26211_5_);}
	.st124{fill:url(#Trazado_26212_5_);}
	.st125{fill:url(#Trazado_26213_5_);}
	.st126{fill:url(#Trazado_26214_5_);}
	.st127{fill:url(#Trazado_26215_5_);}
	.st128{fill:url(#Trazado_26216_5_);}
	.st129{fill:url(#Trazado_26217_5_);}
	.st130{fill:url(#Trazado_26218_5_);}
	.st131{fill:url(#Trazado_24566_11_);}
	.st132{fill:url(#Trazado_24567_11_);}
	.st133{fill:url(#Trazado_24568_11_);}
	.st134{fill:url(#Trazado_24569_11_);}
	.st135{fill:url(#Trazado_24570_11_);}
	.st136{fill:url(#Trazado_24571_11_);}
	.st137{fill:url(#Trazado_24572_11_);}
	.st138{fill:url(#Unión_55_1_);}
	.st139{fill:url(#Trazado_904_5_);}
	.st140{fill:url(#Trazado_905_5_);}
	.st141{fill:url(#Trazado_906_5_);}
	.st142{fill:url(#Trazado_24631_5_);}
	.st143{fill:url(#Trazado_24632_5_);}
	.st144{fill:url(#Trazado_24633_5_);}
	.st145{fill:url(#Trazado_24634_5_);}
	.st146{fill:url(#Trazado_24635_5_);}
	.st147{fill:url(#Trazado_24636_5_);}
	.st148{fill:url(#Trazado_24637_5_);}
	.st149{fill:url(#Trazado_24638_5_);}
	.st150{fill:url(#Trazado_24639_5_);}
	.st151{fill:url(#Trazado_24640_5_);}
	.st152{fill:url(#Rectángulo_3914-2_1_);}
	.st153{clip-path:url(#SVGID_6_);fill:#EBEEF0;}
	.st154{clip-path:url(#SVGID_6_);}
	.st155{opacity:0.2;clip-path:url(#SVGID_6_);fill:#26F70F;}
	.st156{opacity:0.1;clip-path:url(#SVGID_6_);}
	.st157{opacity:0.2;fill:#F90D0D;}
	.st158{fill:none;stroke:#FF0000;stroke-width:5;stroke-miterlimit:10;}
	.st159{clip-path:url(#SVGID_14_);fill:#EBEEF0;}
	.st160{clip-path:url(#SVGID_14_);}
	.st161{opacity:0.2;clip-path:url(#SVGID_14_);fill:#26F70F;}
	.st162{fill:none;stroke:#26F70F;stroke-width:7;stroke-miterlimit:10;}
	.st163{fill:url(#Rectángulo_3928_2_);}
	.st164{fill:#F0F2F4;}
	.st165{opacity:0.28;fill:none;stroke:#BEC8D2;enable-background:new    ;}
	.st166{fill:none;stroke:#E2E7EB;}
	.st167{fill:#00B4DC;}
	.st168{fill:url(#Trazado_24687_4_);}
	.st169{fill:url(#Trazado_24688_4_);}
	.st170{fill:url(#Trazado_24689_4_);}
	.st171{fill:url(#Trazado_24690_4_);}
	.st172{fill:url(#Rectángulo_1733_4_);}
	.st173{fill:url(#Rectángulo_1734_4_);}
	.st174{fill:url(#Rectángulo_1735_4_);}
	.st175{fill:url(#Trazado_24687_5_);}
	.st176{fill:url(#Trazado_24688_5_);}
	.st177{fill:url(#Trazado_24689_5_);}
	.st178{fill:url(#Trazado_24690_5_);}
	.st179{fill:url(#Rectángulo_1733_5_);}
	.st180{fill:url(#Rectángulo_1734_5_);}
	.st181{fill:url(#Rectángulo_1735_5_);}
	.st182{fill:url(#Trazado_24566_12_);}
	.st183{fill:url(#Trazado_24567_12_);}
	.st184{fill:url(#Trazado_24568_12_);}
	.st185{fill:url(#Trazado_24569_12_);}
	.st186{fill:url(#Trazado_24570_12_);}
	.st187{fill:url(#Trazado_24571_12_);}
	.st188{fill:url(#Trazado_24572_12_);}
	.st189{fill:url(#Trazado_26237_4_);}
	.st190{fill:url(#Trazado_26238_4_);}
	.st191{fill:url(#Trazado_26242_4_);}
	.st192{fill:url(#Trazado_26243_4_);}
	.st193{fill:url(#Trazado_26244_4_);}
	.st194{fill:url(#Trazado_26245_4_);}
	.st195{fill:url(#Trazado_26246_4_);}
	.st196{fill:url(#Trazado_26247_4_);}
	.st197{fill:url(#Trazado_26248_4_);}
	.st198{fill:url(#Trazado_26249_4_);}
	.st199{fill:url(#Trazado_26250_4_);}
	.st200{fill:url(#Trazado_26251_4_);}
	.st201{fill:url(#Trazado_26252_4_);}
	.st202{fill:url(#Trazado_26253_4_);}
	.st203{fill:url(#Trazado_26254_4_);}
	.st204{fill:url(#Trazado_26255_4_);}
	.st205{fill:url(#Trazado_26256_4_);}
	.st206{fill:url(#Trazado_26257_4_);}
	.st207{fill:url(#Trazado_26258_4_);}
	.st208{fill:url(#Trazado_26259_4_);}
	.st209{fill:url(#Trazado_26260_4_);}
	.st210{fill:url(#Trazado_26261_4_);}
	.st211{fill:url(#Trazado_26262_4_);}
	.st212{fill:url(#Trazado_26263_4_);}
	.st213{fill:url(#Trazado_26264_4_);}
	.st214{fill:url(#Trazado_26265_4_);}
	.st215{fill:url(#Trazado_26266_4_);}
	.st216{fill:url(#Trazado_26267_4_);}
	.st217{fill:url(#Trazado_26268_4_);}
	.st218{fill:url(#Trazado_26269_4_);}
	.st219{fill:url(#Trazado_26270_4_);}
	.st220{fill:url(#Trazado_26271_4_);}
	.st221{fill:url(#Trazado_26272_4_);}
	.st222{fill:url(#Trazado_26273_4_);}
	.st223{fill:url(#Trazado_26274_4_);}
	.st224{fill:url(#Trazado_26275_4_);}
	.st225{fill:url(#Trazado_26276_4_);}
	.st226{fill:url(#Trazado_26277_4_);}
	.st227{fill:url(#Trazado_26278_4_);}
	.st228{fill:url(#Trazado_26279_4_);}
	.st229{fill:url(#Trazado_26284_3_);}
	.st230{fill:url(#Trazado_26285_3_);}
	.st231{fill:url(#Trazado_26230_5_);}
	.st232{fill:url(#Trazado_26231_5_);}
	.st233{fill:url(#Trazado_26232_5_);}
	.st234{fill:url(#Rectángulo_3918_5_);}
	.st235{fill:url(#Rectángulo_3919_5_);}
	.st236{fill:url(#Rectángulo_3920_5_);}
	.st237{fill:url(#Rectángulo_3921_5_);}
	.st238{fill:url(#Rectángulo_3922_5_);}
	.st239{fill:url(#Rectángulo_3923_5_);}
	.st240{fill:url(#Rectángulo_3924_5_);}
	.st241{fill:url(#Rectángulo_3925_5_);}
	.st242{fill:url(#Rectángulo_3928_3_);}
	.st243{fill:url(#Trazado_24566_13_);}
	.st244{fill:url(#Trazado_24567_13_);}
	.st245{fill:url(#Trazado_24568_13_);}
	.st246{fill:url(#Trazado_24569_13_);}
	.st247{fill:url(#Trazado_24570_13_);}
	.st248{fill:url(#Trazado_24571_13_);}
	.st249{fill:url(#Trazado_24572_13_);}
	.st250{fill:url(#Trazado_26233_2_);}
	.st251{fill:url(#Trazado_26234_2_);}
	.st252{fill:url(#Trazado_26235_2_);}
	.st253{fill:url(#Trazado_26236_2_);}
	.st254{fill:url(#Trazado_26237_5_);}
	.st255{fill:url(#Trazado_26238_5_);}
	.st256{fill:url(#Trazado_26242_5_);}
	.st257{fill:url(#Trazado_26243_5_);}
	.st258{fill:url(#Trazado_26244_5_);}
	.st259{fill:url(#Trazado_26245_5_);}
	.st260{fill:url(#Trazado_26246_5_);}
	.st261{fill:url(#Trazado_26247_5_);}
	.st262{fill:url(#Trazado_26248_5_);}
	.st263{fill:url(#Trazado_26249_5_);}
	.st264{fill:url(#Trazado_26250_5_);}
	.st265{fill:url(#Trazado_26251_5_);}
	.st266{fill:url(#Trazado_26252_5_);}
	.st267{fill:url(#Trazado_26253_5_);}
	.st268{fill:url(#Trazado_26254_5_);}
	.st269{fill:url(#Trazado_26255_5_);}
	.st270{fill:url(#Trazado_26256_5_);}
	.st271{fill:url(#Trazado_26257_5_);}
	.st272{fill:url(#Trazado_26258_5_);}
	.st273{fill:url(#Trazado_26259_5_);}
	.st274{fill:url(#Trazado_26260_5_);}
	.st275{fill:url(#Trazado_26261_5_);}
	.st276{fill:url(#Trazado_26262_5_);}
	.st277{fill:url(#Trazado_26263_5_);}
	.st278{fill:url(#Trazado_26264_5_);}
	.st279{fill:url(#Trazado_26265_5_);}
	.st280{fill:url(#Trazado_26266_5_);}
	.st281{fill:url(#Trazado_26267_5_);}
	.st282{fill:url(#Trazado_26268_5_);}
	.st283{fill:url(#Trazado_26269_5_);}
	.st284{fill:url(#Trazado_26270_5_);}
	.st285{fill:url(#Trazado_26271_5_);}
	.st286{fill:url(#Trazado_26272_5_);}
	.st287{fill:url(#Trazado_26273_5_);}
	.st288{fill:url(#Trazado_26274_5_);}
	.st289{fill:url(#Trazado_26275_5_);}
	.st290{fill:url(#Trazado_26276_5_);}
	.st291{fill:url(#Trazado_26277_5_);}
	.st292{fill:url(#Trazado_26278_5_);}
	.st293{fill:url(#Trazado_26279_5_);}
	.st294{fill:url(#Trazado_26284_4_);}
	.st295{fill:url(#Trazado_26285_4_);}
	.st296{fill:url(#Trazado_26230_6_);}
	.st297{fill:url(#Trazado_26231_6_);}
	.st298{fill:url(#Trazado_26232_6_);}
	.st299{fill:url(#Rectángulo_3918_6_);}
	.st300{fill:url(#Rectángulo_3919_6_);}
	.st301{fill:url(#Rectángulo_3920_6_);}
	.st302{fill:url(#Rectángulo_3921_6_);}
	.st303{fill:url(#Rectángulo_3922_6_);}
	.st304{fill:url(#Rectángulo_3923_6_);}
	.st305{fill:url(#Rectángulo_3924_6_);}
	.st306{fill:url(#Rectángulo_3925_6_);}
	.st307{fill:none;stroke:#006495;stroke-linecap:square;stroke-miterlimit:10;stroke-dasharray:2,2;}
	.st308{fill:#262944;}
	.st309{fill:none;stroke:#FFFFFF;stroke-miterlimit:10;}
	.st310{fill:url(#Trazado_24869_4_);}
	.st311{fill:url(#Trazado_26191_5_);}
	.st312{fill:url(#Trazado_26192_5_);}
	.st313{fill:url(#Trazado_26193_5_);}
	.st314{fill:url(#Trazado_26194_5_);}
	.st315{fill:url(#Trazado_26195_5_);}
	.st316{fill:url(#Trazado_26196_5_);}
	.st317{fill:url(#Trazado_26197_5_);}
	.st318{fill:url(#Trazado_26198_6_);}
	.st319{fill:url(#Trazado_26199_6_);}
	.st320{fill:url(#Trazado_26200_6_);}
	.st321{fill:url(#Trazado_26201_6_);}
	.st322{fill:url(#Trazado_26202_6_);}
	.st323{fill:url(#Trazado_26203_6_);}
	.st324{fill:url(#Trazado_26204_6_);}
	.st325{fill:url(#Trazado_26205_6_);}
	.st326{fill:url(#Trazado_26206_6_);}
	.st327{fill:url(#Trazado_26207_6_);}
	.st328{fill:url(#Trazado_26208_6_);}
	.st329{fill:url(#Trazado_26209_6_);}
	.st330{fill:url(#Trazado_26210_6_);}
	.st331{fill:url(#Trazado_26211_6_);}
	.st332{fill:url(#Trazado_26212_6_);}
	.st333{fill:url(#Trazado_26213_6_);}
	.st334{fill:url(#Trazado_26214_6_);}
	.st335{fill:url(#Trazado_26215_6_);}
	.st336{fill:url(#Trazado_26216_6_);}
	.st337{fill:url(#Trazado_26217_6_);}
	.st338{fill:url(#Trazado_26218_6_);}
	.st339{fill:url(#Trazado_24566_14_);}
	.st340{fill:url(#Trazado_24567_14_);}
	.st341{fill:url(#Trazado_24568_14_);}
	.st342{fill:url(#Trazado_24569_14_);}
	.st343{fill:url(#Trazado_24570_14_);}
	.st344{fill:url(#Trazado_24571_14_);}
	.st345{fill:url(#Trazado_24572_14_);}
	.st346{fill:url(#Trazado_26354_3_);}
	.st347{fill:url(#Trazado_904_6_);}
	.st348{fill:url(#Trazado_905_6_);}
	.st349{fill:url(#Trazado_906_6_);}
	.st350{fill:url(#Trazado_24631_6_);}
	.st351{fill:url(#Trazado_24632_6_);}
	.st352{fill:url(#Trazado_24633_6_);}
	.st353{fill:url(#Trazado_24634_6_);}
	.st354{fill:url(#Trazado_24635_6_);}
	.st355{fill:url(#Trazado_24636_6_);}
	.st356{fill:url(#Trazado_24637_6_);}
	.st357{fill:url(#Trazado_24638_6_);}
	.st358{fill:url(#Trazado_24639_6_);}
	.st359{fill:url(#Trazado_24640_6_);}
	.st360{fill:url(#Trazado_884_5_);}
	.st361{fill:url(#Trazado_24616_4_);}
	.st362{fill:url(#Trazado_24617_4_);}
	.st363{fill:url(#Trazado_24618_4_);}
	.st364{fill:url(#Trazado_24619_4_);}
	.st365{fill:url(#Trazado_24620_4_);}
	.st366{fill:url(#Trazado_24621_4_);}
	.st367{fill:url(#Trazado_24622_4_);}
	.st368{fill:#FF6161;}
	.st369{fill:url(#Trazado_26233_5_);}
	.st370{fill:url(#Trazado_26234_5_);}
	.st371{fill:url(#Trazado_26235_5_);}
	.st372{fill:url(#Trazado_26236_5_);}
	.st373{fill:url(#Trazado_24566_15_);}
	.st374{fill:url(#Trazado_24567_15_);}
	.st375{fill:url(#Trazado_24568_15_);}
	.st376{fill:url(#Trazado_24569_15_);}
	.st377{fill:url(#Trazado_24570_15_);}
	.st378{fill:url(#Trazado_24571_15_);}
	.st379{fill:url(#Trazado_24572_15_);}
	.st380{fill:url(#Trazado_24566_16_);}
	.st381{fill:url(#Trazado_24567_16_);}
	.st382{fill:url(#Trazado_24568_16_);}
	.st383{fill:url(#Trazado_24569_16_);}
	.st384{fill:url(#Trazado_24570_16_);}
	.st385{fill:url(#Trazado_24571_16_);}
	.st386{fill:url(#Trazado_24572_16_);}
	.st387{fill:url(#Trazado_26237_6_);}
	.st388{fill:url(#Trazado_26238_6_);}
	.st389{fill:url(#Trazado_26242_6_);}
	.st390{fill:url(#Trazado_26243_6_);}
	.st391{fill:url(#Trazado_26244_6_);}
	.st392{fill:url(#Trazado_26245_6_);}
	.st393{fill:url(#Trazado_26246_6_);}
	.st394{fill:url(#Trazado_26247_6_);}
	.st395{fill:url(#Trazado_26248_6_);}
	.st396{fill:url(#Trazado_26249_6_);}
	.st397{fill:url(#Trazado_26250_6_);}
	.st398{fill:url(#Trazado_26251_6_);}
	.st399{fill:url(#Trazado_26252_6_);}
	.st400{fill:url(#Trazado_26253_6_);}
	.st401{fill:url(#Trazado_26254_6_);}
	.st402{fill:url(#Trazado_26255_6_);}
	.st403{fill:url(#Trazado_26256_6_);}
	.st404{fill:url(#Trazado_26257_6_);}
	.st405{fill:url(#Trazado_26258_6_);}
	.st406{fill:url(#Trazado_26259_6_);}
	.st407{fill:url(#Trazado_26260_6_);}
	.st408{fill:url(#Trazado_26261_6_);}
	.st409{fill:url(#Trazado_26262_6_);}
	.st410{fill:url(#Trazado_26263_6_);}
	.st411{fill:url(#Trazado_26264_6_);}
	.st412{fill:url(#Trazado_26265_6_);}
	.st413{fill:url(#Trazado_26266_6_);}
	.st414{fill:url(#Trazado_26267_6_);}
	.st415{fill:url(#Trazado_26268_6_);}
	.st416{fill:url(#Trazado_26269_6_);}
	.st417{fill:url(#Trazado_26270_6_);}
	.st418{fill:url(#Trazado_26271_6_);}
	.st419{fill:url(#Trazado_26272_6_);}
	.st420{fill:url(#Trazado_26273_6_);}
	.st421{fill:url(#Trazado_26274_6_);}
	.st422{fill:url(#Trazado_26275_6_);}
	.st423{fill:url(#Trazado_26276_6_);}
	.st424{fill:url(#Trazado_26277_6_);}
	.st425{fill:url(#Trazado_26278_6_);}
	.st426{fill:url(#Trazado_26279_6_);}
	.st427{fill:url(#Trazado_26284_6_);}
	.st428{fill:url(#Trazado_26285_6_);}
	.st429{fill:url(#Trazado_26230_7_);}
	.st430{fill:url(#Trazado_26231_7_);}
	.st431{fill:url(#Trazado_26232_7_);}
	.st432{fill:url(#Rectángulo_3918_7_);}
	.st433{fill:url(#Rectángulo_3919_7_);}
	.st434{fill:url(#Rectángulo_3920_7_);}
	.st435{fill:url(#Rectángulo_3921_7_);}
	.st436{fill:url(#Rectángulo_3922_7_);}
	.st437{fill:url(#Rectángulo_3923_7_);}
	.st438{fill:url(#Rectángulo_3924_7_);}
	.st439{fill:url(#Rectángulo_3925_7_);}
	.st440{opacity:0.1;fill:#FF2929;}
	.st441{fill:#CCF0F8;}
	.st442{opacity:0.2;fill:#D31A1A;}
	.st443{fill:#E2E7EB;}
	.st444{fill:none;stroke:#BEC8D2;}
	.st445{fill:#D5F4E6;}
	.st446{fill-rule:evenodd;clip-rule:evenodd;fill:#262944;}
	.st447{fill:url(#Trazado_26409_3_);}
	.st448{fill:url(#Trazado_26410_1_);}
	.st449{fill:url(#Trazado_26411_1_);}
	.st450{fill:url(#Trazado_26412_1_);}
	.st451{fill:url(#Trazado_26413_1_);}
	.st452{fill:url(#Trazado_26414_1_);}
	.st453{fill:url(#Trazado_26415_1_);}
	.st454{fill:url(#Trazado_26416_2_);}
	.st455{fill:url(#Trazado_26417_2_);}
	.st456{fill:url(#Trazado_26418_2_);}
	.st457{fill:url(#Trazado_26419_2_);}
	.st458{fill:url(#Trazado_26420_2_);}
	.st459{fill:url(#Trazado_26421_2_);}
	.st460{fill:url(#Trazado_26516_3_);}
	.st461{fill:url(#Trazado_26517_3_);}
	.st462{fill:url(#Trazado_26518_3_);}
	.st463{fill:url(#Trazado_26519_3_);}
	.st464{fill:url(#Trazado_26520_3_);}
	.st465{fill:url(#Trazado_26521_3_);}
	.st466{fill:url(#Trazado_26522_3_);}
	.st467{fill:url(#Trazado_24566_17_);}
	.st468{fill:url(#Trazado_24567_17_);}
	.st469{fill:url(#Trazado_24568_17_);}
	.st470{fill:url(#Trazado_24569_17_);}
	.st471{fill:url(#Trazado_24570_17_);}
	.st472{fill:url(#Trazado_24571_17_);}
	.st473{fill:url(#Trazado_24572_17_);}
	.st474{fill:url(#Trazado_884_6_);}
	.st475{fill:url(#Trazado_26366_3_);}
	.st476{fill:url(#Trazado_26367_2_);}
	.st477{fill:url(#Trazado_26368_1_);}
	.st478{fill:url(#Trazado_26369_1_);}
	.st479{fill:url(#Trazado_26370_1_);}
	.st480{fill:url(#Trazado_1691_3_);}
	.st481{fill:url(#Trazado_1692_2_);}
	.st482{fill:url(#Trazado_1691_4_);}
	.st483{fill:url(#Trazado_1692_3_);}
</style>
<g id="Grupo_7367_1_" transform="translate(-2793 -55)">
	<g id="Grupo_7366_1_" transform="translate(2793 55)">
		<g id="documento_10_">
			<g id="Grupo_2882_10_">
				<g id="Grupo_2881_10_">
					
						<linearGradient id="Trazado_24566_9_" gradientUnits="userSpaceOnUse" x1="-4042.3572" y1="4518.46" x2="-4042.3572" y2="4517.5811" gradientTransform="matrix(92.5474 0 0 -113.7391 374161.8125 513936.4688)">
						<stop  offset="0" style="stop-color:#41D78C"/>
						<stop  offset="1" style="stop-color:#1DB5D9"/>
					</linearGradient>
					<path id="Trazado_24566_10_" class="st22" d="M30.89,18.73v8.15c-0.01,2.16-1.76,3.91-3.92,3.92h-8.15L30.89,18.73z
						 M17.81,106.7c-1.24,0-1.83-0.52-1.83-1.76l0,0V35.13h11.48c4.66-0.02,8.42-3.82,8.4-8.48V15.26h50.57
						c1.24,0.01,2.24,1.01,2.23,2.25v9.3l0.06,0.1c0.73,1.17,2.26,1.52,3.43,0.8c0.36-0.22,0.65-0.53,0.85-0.89l0,0v-9.2
						c-0.01-3.7-3.01-6.7-6.71-6.7H33.54c-0.59-0.01-1.16,0.23-1.58,0.64L12.28,31.2c-0.42,0.42-0.65,0.99-0.65,1.58l0,0v71.43
						c0.01,3.7,3.01,6.7,6.71,6.7h62.3l0.03-0.01c1.56-0.5,1.54-3.74-0.03-4.21H17.81L17.81,106.7z"/>
				</g>
			</g>
			<g id="Grupo_2884_10_" transform="translate(16.35 52.981)">
				<g id="Grupo_2883_10_">
					
						<linearGradient id="Trazado_24567_9_" gradientUnits="userSpaceOnUse" x1="-3933.874" y1="5197.6567" x2="-3933.874" y2="5196.7773" gradientTransform="matrix(22.9333 0 0 -4.9522 90236.6562 25744.4766)">
						<stop  offset="0" style="stop-color:#41D78C"/>
						<stop  offset="1" style="stop-color:#1DB5D9"/>
					</linearGradient>
					<path id="Trazado_24567_10_" class="st23" d="M27.65,4.52H11.96c-1.2-0.07-2.23,0.86-2.29,2.06c-0.07,1.2,0.85,2.23,2.06,2.29
						c0.08,0,0.16,0,0.24,0h15.69c1.2,0,2.17-0.97,2.17-2.17C29.82,5.49,28.85,4.52,27.65,4.52L27.65,4.52z"/>
				</g>
			</g>
			<g id="Grupo_2886_10_" transform="translate(16.666 89.716)">
				<g id="Grupo_2885_10_">
					
						<linearGradient id="Trazado_24568_9_" gradientUnits="userSpaceOnUse" x1="-4018.2112" y1="5161.6289" x2="-4018.2112" y2="5160.7495" gradientTransform="matrix(46.4417 0 0 -4.9534 186642.4062 25567.9219)">
						<stop  offset="0" style="stop-color:#41D78C"/>
						<stop  offset="1" style="stop-color:#1DB5D9"/>
					</linearGradient>
					<path id="Trazado_24568_10_" class="st24" d="M48.15,0.08H11.92c-1.2-0.07-2.23,0.86-2.29,2.06c-0.07,1.2,0.85,2.23,2.06,2.29
						c0.08,0,0.16,0,0.24,0h36.25c1.2,0.06,2.22-0.87,2.28-2.07c0.06-1.2-0.87-2.22-2.07-2.28C48.31,0.08,48.23,0.08,48.15,0.08
						L48.15,0.08z"/>
				</g>
			</g>
			<g id="Grupo_2888_10_" transform="translate(70.249 89.795)">
				<g id="Grupo_2887_10_">
					
						<linearGradient id="Trazado_24569_9_" gradientUnits="userSpaceOnUse" x1="-3405.5752" y1="5141.7964" x2="-3405.5752" y2="5140.9175" gradientTransform="matrix(5.0791 0 0 -5.0845 17302.6465 26143.7832)">
						<stop  offset="0" style="stop-color:#41D78C"/>
						<stop  offset="1" style="stop-color:#1DB5D9"/>
					</linearGradient>
					<path id="Trazado_24569_10_" class="st25" d="M6.97,0.71C6.55,0.29,5.98,0.06,5.39,0.07C4.79,0.08,4.23,0.31,3.8,0.71
						C3.38,1.13,3.14,1.71,3.15,2.3C3.16,2.89,3.39,3.46,3.8,3.89c0.42,0.42,0.99,0.66,1.59,0.65C5.97,4.53,6.54,4.3,6.97,3.89
						C7.83,3.01,7.83,1.6,6.97,0.71L6.97,0.71z"/>
				</g>
			</g>
			<g id="Grupo_2890_10_" transform="translate(16.349 71.348)">
				<g id="Grupo_2889_10_">
					
						<linearGradient id="Trazado_24570_9_" gradientUnits="userSpaceOnUse" x1="-3933.3162" y1="5179.1763" x2="-3933.3162" y2="5178.2969" gradientTransform="matrix(22.8567 0 0 -4.9559 89922.2578 25669.5469)">
						<stop  offset="0" style="stop-color:#41D78C"/>
						<stop  offset="1" style="stop-color:#1DB5D9"/>
					</linearGradient>
					<path id="Trazado_24570_10_" class="st26" d="M27.65,2.3H11.96c-1.2-0.09-2.24,0.82-2.33,2.02c-0.09,1.2,0.82,2.24,2.02,2.33
						c0.02,0,0.05,0,0.07,0c0.08,0,0.16,0,0.24,0h15.69c1.21-0.07,2.14-1.12,2.07-2.33c-0.02-0.39-0.15-0.77-0.38-1.1
						C28.97,2.63,28.33,2.29,27.65,2.3L27.65,2.3z"/>
				</g>
			</g>
			<g id="Grupo_2892_10_" transform="translate(18.167 16.248)">
				<g id="Grupo_2891_10_">
					
						<linearGradient id="Trazado_24571_9_" gradientUnits="userSpaceOnUse" x1="-4036.2124" y1="4631.313" x2="-4036.2124" y2="4630.4341" gradientTransform="matrix(58.1443 0 0 -23.3182 234717.6719 108002.9375)">
						<stop  offset="0" style="stop-color:#41D78C"/>
						<stop  offset="1" style="stop-color:#1DB5D9"/>
					</linearGradient>
					<path id="Trazado_24571_10_" class="st27" d="M58.37,8.95H25.86c-1.2-0.03-2.21,0.88-2.31,2.08c-0.05,1.2,0.87,2.22,2.07,2.27
						c0.03,0,0.06,0,0.1,0H56.2v11.8H11.72c-1.2-0.07-2.23,0.86-2.29,2.06c-0.07,1.2,0.86,2.23,2.06,2.29l0,0c0.08,0,0.16,0,0.24,0
						h46.59c1.24,0,2.24-1,2.24-2.24V11.13C60.54,9.93,59.57,8.96,58.37,8.95z"/>
				</g>
			</g>
			<g id="Grupo_2894_10_" transform="translate(45.92 52.984)">
				<g id="Grupo_2893_10_">
					
						<linearGradient id="Trazado_24572_9_" gradientUnits="userSpaceOnUse" x1="-4004.2229" y1="4594.79" x2="-4004.2229" y2="4593.9106" gradientTransform="matrix(30.374 0 0 -23.315 121643.8047 107132.0859)">
						<stop  offset="0" style="stop-color:#41D78C"/>
						<stop  offset="1" style="stop-color:#1DB5D9"/>
					</linearGradient>
					<path id="Trazado_24572_10_" class="st28" d="M30.53,4.51H8.32c-1.23,0-2.23,1-2.23,2.22c0,0,0,0,0,0l0,0v16.04
						c0,1.23,1,2.24,2.24,2.24h22.24c1.23,0,2.23-1,2.23-2.23l0,0V6.75c0-1.24-1-2.24-2.24-2.24L30.53,4.51z M27.82,20.66H10.44
						V8.86h17.39L27.82,20.66z"/>
				</g>
			</g>
		</g>
	</g>
	<g id="facturador-electronico_4_" transform="translate(2859.176 73.453)">
		<g id="Grupo_942_4_" transform="translate(0 0)">
			<g id="Grupo_941_4_">
				
					<linearGradient id="Trazado_884_3_" gradientUnits="userSpaceOnUse" x1="-4119.6445" y1="4490.0752" x2="-4119.6445" y2="4489.1958" gradientTransform="matrix(126.5112 0 0 -162.2365 521240.5312 728462.5)">
					<stop  offset="0" style="stop-color:#20CBA9"/>
					<stop  offset="1" style="stop-color:#1DB5D9"/>
				</linearGradient>
				<path id="Trazado_884_4_" class="st47" d="M103.91,108.36l-15.12-4.62c0.11-1.92-0.94-3.72-2.66-4.56l-9.35-4.64v-6.62
					c7.15-4.91,11.92-12.59,13.15-21.18h0.84c4.02,0.04,7.43-2.93,7.94-6.92c0.34-3.27-1.44-6.4-4.42-7.79V28.74
					c0.02-8.57-6.9-15.53-15.47-15.56h-0.35c-4.54-3.07-9.92-4.64-15.4-4.48c-13.03,0-19.02,2.73-25.95,5.9
					c-4.18,2.01-8.52,3.69-12.96,5.03c-1.11,0.33-1.73,1.5-1.41,2.61l0,0c0.02,0.07,0.05,0.15,0.08,0.22
					c0.86,1.83,2.01,3.51,3.39,4.97c-1.04,1.29-3,4.57-3,11.04v13.66c-3.82,1.79-5.49,6.32-3.73,10.15
					c1.23,2.72,3.95,4.47,6.94,4.46h2.19c1.23,8.59,6,16.27,13.15,21.18v6.62l-9.35,4.64c-1.72,0.85-2.77,2.64-2.66,4.56
					l-15.12,4.62c-6.52,1.95-10.99,7.95-10.98,14.76v25.93c-0.03,0.92,0.54,1.75,1.4,2.06c1.08,0.36,2.26-0.22,2.62-1.31
					c0.07-0.22,0.11-0.44,0.11-0.67v-26.14c-0.03-4.93,3.16-9.31,7.87-10.77l15.44-4.8l2.73,3.68l-3.1,3.13
					c-1.97,2-2.46,5.03-1.21,7.54l5.9,11.92H29.4v-2.29c0.03-0.92-0.54-1.75-1.4-2.06c-1.09-0.36-2.26,0.23-2.62,1.31
					c-0.07,0.22-0.11,0.44-0.11,0.67l0,0v2.37h-9.21c-1.16-0.01-2.11,0.92-2.12,2.08l0,0v13.34c0,1.15,0.93,2.08,2.09,2.08h22.61
					c1.15,0,2.08-0.93,2.07-2.08c0,0,0,0,0,0l0,0v-4.53l2.73,5.47c0.55,1,1.81,1.36,2.81,0.81c0,0,0.01-0.01,0.01-0.01
					c0.93-0.53,1.31-1.68,0.88-2.66l-14.09-28.3c-0.46-0.91-0.28-2.01,0.44-2.73l4.4-4.41c0.73-0.73,0.81-1.89,0.19-2.71l-4.7-6.3
					c-0.21-0.28-0.15-0.69,0.13-0.9l0,0c0.03-0.02,0.06-0.04,0.1-0.06l8.17-4.1l5.77,19.86c0.24,1.12,1.35,1.83,2.47,1.59
					c1.12-0.24,1.83-1.35,1.59-2.47c-0.01-0.03-0.01-0.06-0.02-0.08c-0.01-0.07-0.03-0.13-0.06-0.19l-0.91-3.13
					c5.16,1.8,10.78,1.8,15.95,0l-7.98,27.45l-4.47-15.41c-0.3-1.11-1.44-1.76-2.55-1.46c-1.06,0.29-1.71,1.35-1.49,2.43
					c0.02,0.07,0.04,0.13,0.06,0.19l6.47,22.27c0.33,1.1,1.48,1.72,2.58,1.39c0.67-0.2,1.19-0.72,1.39-1.39l14.83-51.04l8.17,4.1
					c0.32,0.16,0.44,0.54,0.29,0.86c-0.02,0.03-0.04,0.07-0.06,0.1l-4.7,6.3c-0.62,0.83-0.54,1.98,0.19,2.72l4.4,4.41
					c0.72,0.72,0.9,1.82,0.44,2.73l-14.09,28.3c-0.51,1.03-0.09,2.28,0.93,2.8c1.02,0.51,2.27,0.1,2.78-0.93c0,0,0-0.01,0.01-0.01
					l0,0l14.09-28.3c1.25-2.52,0.76-5.55-1.22-7.54l-3.12-3.13l2.75-3.68l15.55,4.8c4.73,1.45,7.95,5.83,7.93,10.77v26.27
					c0,0,1.62,2.09,2.77,2.09s2.38-2.09,2.38-2.09v-26.13C114.88,116.31,110.42,110.31,103.91,108.36z M36.61,147.08H18.06v-9.27
					h7.21v0.14c0,0,0.92,2.08,2.06,2.08c1.14-0.01,2.07-0.94,2.06-2.08c0,0,0,0,0,0l0,0v-0.14h7.21v9.27L36.61,147.08z M39.05,18.33
					c6.76-2.62,12.1-5.04,24.24-5.04c7.7,0,14.58,3.22,16,7.47c0.38,1.09,1.57,1.66,2.66,1.28c1.05-0.37,1.63-1.49,1.31-2.56
					l-0.01-0.04c-0.12-0.36-0.26-0.71-0.43-1.06c4.5,1.56,7.47,5.86,7.33,10.62v22.28h-2.19c-1.31,0.13-2.37-0.93-2.96-2.24v-2.23
					c0.58-9.66-6.42-16.76-6.72-17.06c-0.55-0.55-1.36-0.75-2.1-0.52c-11.59,3.65-27.92,6.73-39.95,0.66
					c-3.21-1.57-6-3.88-8.13-6.74C31.92,21.95,35.59,20.33,39.05,18.33L39.05,18.33z M72.65,95.57l-3.95,13.5
					c-5.9,3.15-12.98,3.15-18.89,0l-3.95-13.5v-5.12c8.46,4.09,18.32,4.09,26.78,0L72.65,95.57z M59.26,90.3
					c-14.75,0-26.72-12.45-26.75-27.82c0.05-1.15-0.84-2.11-1.99-2.16c-1.15-0.05-2.11,0.84-2.16,1.99c0,0.06,0,0.11,0,0.17v0.13
					h-0.58c-0.96,0.02-1.89-0.26-2.69-0.78c-1.12-0.66-1.75-1.91-1.62-3.2c0.3-1.91,1.99-3.3,3.92-3.23h2.75
					c3.56,0,6.45-2.88,6.46-6.45v-7.65c0.03-0.92-0.54-1.76-1.41-2.07c-1.08-0.36-2.25,0.23-2.61,1.32c-0.07,0.21-0.1,0.42-0.1,0.64
					v7.76c-0.01,1.29-1.06,2.33-2.35,2.33h-2.8V38.66c0-4.79,1.3-7.19,1.9-8.03c1.41,1.1,2.91,2.06,4.5,2.88
					c5.18,2.55,10.87,3.93,16.65,4.01c8.57,0.1,17.11-1.2,25.26-3.84c1.65,1.98,5.25,7.01,5.25,13.06v2.21
					c0.02,3.58,2.93,6.48,6.52,6.47h4.01c1.95,0.04,3.51,1.65,3.47,3.6c0,0.13-0.01,0.25-0.02,0.38c-0.25,1.88-1.87,3.27-3.77,3.23
					h-0.94V62.5c0.02-1.17-0.9-2.13-2.07-2.16l0,0c-1.17,0.02-2.09,0.99-2.07,2.16C85.98,77.86,74.01,90.31,59.26,90.3L59.26,90.3z"
					/>
			</g>
		</g>
	</g>
</g>
</svg>
