<?xml version="1.0" encoding="utf-8"?>
<!-- Generator: Adobe Illustrator 25.2.1, SVG Export Plug-In . SVG Version: 6.00 Build 0)  -->
<svg version="1.1" id="Capa_1" xmlns="http://www.w3.org/2000/svg" xmlns:xlink="http://www.w3.org/1999/xlink" x="0px" y="0px"
	 viewBox="0 0 139.52 148.57" style="enable-background:new 0 0 139.52 148.57;" xml:space="preserve">
<style type="text/css">
	.st0{fill:#777777;}
	.st1{fill:#FFFFFF;}
	.st2{fill:#F6F8F9;}
	.st3{fill:none;stroke:#707070;}
	.st4{fill:#6E6E6E;}
	.st5{opacity:0.9;fill:#FFFFFF;enable-background:new    ;}
	.st6{fill:#272944;}
	.st7{fill:#62B883;}
	.st8{fill:none;stroke:#62B883;stroke-width:5;}
	.st9{fill:none;stroke:#00B3DC;stroke-width:2;}
	.st10{fill:url(#);}
	.st11{clip-path:url(#SVGID_2_);}
	.st12{fill:url(#Rectangle_6_6_);}
	.st13{fill:url(#Path_57_6_);}
	.st14{fill:url(#Rectangle_7_6_);}
	.st15{fill:url(#Path_58_6_);}
	.st16{fill:#03B2DC;}
	.st17{fill:#6F6E6E;}
	.st18{fill:#3C63AB;}
	.st19{fill:#FBD016;}
	.st20{fill:#06579E;}
	.st21{fill:#D21E3F;}
	.st22{opacity:0.58;fill:none;stroke:#A5ADB4;enable-background:new    ;}
	.st23{clip-path:url(#SVGID_4_);}
	.st24{fill:#F6F7F9;}
	.st25{opacity:0.19;fill:#FFFFFF;enable-background:new    ;}
	.st26{fill:#FCEAE9;}
	.st27{fill:#EFF2F4;}
	.st28{fill:#E2E7EB;}
	.st29{fill:none;stroke:#CCCBCB;}
	.st30{fill:#262944;}
	.st31{fill:none;}
	.st32{fill:#CCCBCB;}
	.st33{fill:#00B3DC;}
	.st34{opacity:0.45;fill:#E42320;enable-background:new    ;}
	.st35{fill:#EE7F80;}
	.st36{fill:#E42320;}
	.st37{fill-rule:evenodd;clip-rule:evenodd;fill:#272944;}
	.st38{opacity:0.11;fill:#E95044;enable-background:new    ;}
	.st39{clip-path:url(#SVGID_6_);}
	.st40{fill:url(#Rectangle_6_7_);}
	.st41{fill:url(#Path_57_7_);}
	.st42{fill:url(#Rectangle_7_7_);}
	.st43{fill:url(#Path_58_7_);}
	.st44{clip-path:url(#SVGID_8_);}
	.st45{fill-rule:evenodd;clip-rule:evenodd;fill:#62B883;}
	.st46{clip-path:url(#SVGID_10_);}
	.st47{fill:url(#Rectangle_6_8_);}
	.st48{fill:url(#Path_57_8_);}
	.st49{fill:url(#Rectangle_7_8_);}
	.st50{fill:url(#Path_58_8_);}
	.st51{clip-path:url(#SVGID_12_);}
	.st52{fill:#E95044;}
	.st53{fill:#41D78C;}
	.st54{fill:none;stroke:#CCCCCC;}
	.st55{fill:#666666;}
	.st56{opacity:0.8;}
	.st57{opacity:0.75;fill:#41D78C;enable-background:new    ;}
	.st58{opacity:0.5;fill:#41D78C;enable-background:new    ;}
	.st59{fill-rule:evenodd;clip-rule:evenodd;fill:#41D78C;}
	.st60{fill:none;stroke:#41D78C;stroke-width:2;}
	.st61{opacity:0.39;fill:#FF0000;enable-background:new    ;}
	.st62{fill:#FF9C9C;}
	.st63{fill:none;stroke:#0DB4DC;stroke-width:2;}
	.st64{fill:#FFA2A2;}
	.st65{fill:#FFFFFF;stroke:#0DB4DC;stroke-width:2;}
	.st66{clip-path:url(#SVGID_14_);}
	.st67{clip-path:url(#SVGID_16_);}
	.st68{opacity:0.898;fill:none;stroke:#CCCCCC;stroke-miterlimit:10;enable-background:new    ;}
	.st69{opacity:0.898;fill:#FFFFFF;stroke:#CCCCCC;enable-background:new    ;}
	.st70{fill:url(#Path_24603_3_);}
	.st71{fill:url(#Path_24607_3_);}
	.st72{fill:url(#Path_24609_3_);}
	.st73{opacity:0.5;fill:#41D78C;}
	.st74{fill:#FF0000;}
	.st75{opacity:0.15;fill:#262944;}
	.st76{opacity:0.5;fill:none;stroke:#41D78C;stroke-miterlimit:10;}
	.st77{fill:none;stroke:#FF0000;stroke-miterlimit:10;}
	.st78{opacity:0.5;fill:#FFFFFF;}
	.st79{fill:#CCCCCC;}
	.st80{opacity:0.25;fill:#FFFFFF;}
	.st81{fill:#F54E41;}
	.st82{fill:#2240EF;}
	.st83{fill:#F0F2F4;}
	.st84{fill:none;stroke:#BEC8D2;}
	.st85{fill:#20A861;}
	.st86{fill:url(#Path_24853_1_);}
	.st87{fill:url(#Path_24852_1_);}
	.st88{fill:url(#Path_24865_1_);}
	.st89{fill:#CCF0F8;}
	.st90{fill-rule:evenodd;clip-rule:evenodd;fill:url(#Path_24778_2_);}
	.st91{fill:url(#Trazado_1691_6_);}
	.st92{fill:url(#Path_24928_2_);}
	.st93{fill:url(#Path_24929_2_);}
	.st94{fill:#2B323D;}
	.st95{opacity:0.349;fill:#BEC8D2;enable-background:new    ;}
	.st96{opacity:0.349;fill:#F6F7F9;enable-background:new    ;}
	.st97{clip-path:url(#SVGID_18_);}
	.st98{clip-path:url(#SVGID_20_);}
	.st99{opacity:0.898;fill:none;stroke:#CCCCCC;enable-background:new    ;}
	.st100{fill:#D5F4E6;}
	.st101{clip-path:url(#SVGID_22_);}
	.st102{clip-path:url(#SVGID_24_);}
	.st103{clip-path:url(#SVGID_26_);}
	.st104{fill:url(#Trazado_1691_7_);}
	.st105{fill:url(#Trazado_1692_5_);}
	.st106{fill:url(#SVGID_27_);}
	.st107{fill:url(#SVGID_28_);}
	.st108{fill:url(#SVGID_29_);}
	.st109{fill:url(#Path_24915_1_);}
	.st110{fill:url(#Path_24916_1_);}
	.st111{fill:url(#Path_24917_1_);}
	.st112{fill:url(#Path_24918_1_);}
	.st113{fill:url(#SVGID_30_);}
	.st114{fill:url(#SVGID_31_);}
	.st115{fill:url(#SVGID_32_);}
	.st116{fill:#F9F9F9;}
	.st117{fill:#00B4DC;}
	.st118{fill:#ED1111;}
	.st119{fill:#FED064;}
	.st120{fill:#C98802;}
	.st121{fill:#FCD5D3;}
	.st122{fill:none;stroke:#41D78C;stroke-width:5;}
	.st123{fill:none;stroke:#00B4DC;stroke-width:2;}
	.st124{clip-path:url(#SVGID_34_);}
	.st125{fill:url(#Rectangle_6_9_);}
	.st126{fill:url(#Path_57_9_);}
	.st127{fill:url(#Rectangle_7_9_);}
	.st128{fill:url(#Path_58_9_);}
	.st129{fill:#0DB3DC;}
	.st130{fill:#3366CC;}
	.st131{fill:#FBD015;}
	.st132{fill:#05569E;}
	.st133{fill:#D11F3E;}
	.st134{opacity:0.58;fill:none;stroke:#A6ADB4;enable-background:new    ;}
	.st135{clip-path:url(#SVGID_36_);}
	.st136{fill:none;stroke:#F54E41;stroke-width:2;}
	.st137{clip-path:url(#SVGID_38_);}
	.st138{clip-path:url(#SVGID_40_);}
	.st139{clip-path:url(#SVGID_42_);}
	.st140{fill:url(#Rectangle_6_10_);}
	.st141{fill:url(#Path_57_10_);}
	.st142{fill:url(#Rectangle_7_10_);}
	.st143{fill:url(#Path_58_10_);}
	.st144{clip-path:url(#SVGID_44_);}
	.st145{clip-path:url(#SVGID_46_);}
	.st146{clip-path:url(#SVGID_48_);}
	.st147{clip-path:url(#SVGID_50_);}
	.st148{fill:#FFFFFF;stroke:#0DB4DC;stroke-width:2;stroke-miterlimit:10;}
	.st149{fill:url(#Path_24603_4_);}
	.st150{fill:url(#Path_24607_4_);}
	.st151{fill:url(#Path_24609_4_);}
	.st152{fill-rule:evenodd;clip-rule:evenodd;fill:#262944;}
	.st153{fill:url(#Path_24603_5_);}
	.st154{fill:url(#Path_24607_5_);}
	.st155{fill:url(#Path_24609_5_);}
	.st156{clip-path:url(#SVGID_52_);}
	.st157{clip-path:url(#SVGID_54_);}
	.st158{clip-path:url(#SVGID_56_);}
	.st159{fill-rule:evenodd;clip-rule:evenodd;fill:url(#Path_24778_3_);}
	.st160{fill:url(#Trazado_1691_8_);}
	.st161{fill:url(#Trazado_1692_6_);}
	.st162{fill:url(#Trazado_1691_9_);}
	.st163{fill:url(#Trazado_1692_7_);}
	.st164{fill:#FBF0D7;}
	.st165{clip-path:url(#SVGID_58_);}
	.st166{clip-path:url(#SVGID_60_);}
	.st167{clip-path:url(#SVGID_62_);}
	.st168{clip-path:url(#SVGID_64_);}
	.st169{clip-path:url(#SVGID_66_);}
	.st170{clip-path:url(#SVGID_68_);}
	.st171{clip-path:url(#SVGID_70_);}
	.st172{clip-path:url(#SVGID_72_);}
	.st173{clip-path:url(#SVGID_74_);}
	.st174{clip-path:url(#SVGID_76_);}
	.st175{fill:url(#Rectangle_6_11_);}
	.st176{fill:url(#Path_57_11_);}
	.st177{fill:url(#Rectangle_7_11_);}
	.st178{fill:url(#Path_58_11_);}
	.st179{clip-path:url(#SVGID_78_);}
	.st180{fill:url(#Trazado_1691_10_);}
	.st181{fill:url(#Trazado_1692_8_);}
	.st182{fill:url(#peligro_11_);}
	.st183{fill:url(#peligro_12_);}
	.st184{fill:#FFFFFF;stroke:#CCCCCC;}
	.st185{fill:#F40C0C;}
	.st186{fill:url(#peligro_13_);}
	.st187{fill:url(#SVGID_79_);}
	.st188{fill:url(#SVGID_80_);}
	.st189{fill:#00AC57;}
	.st190{fill:url(#peligro_14_);}
	.st191{fill:url(#peligro_15_);}
	.st192{fill:url(#Trazado_1691_11_);}
	.st193{fill:url(#Trazado_1692_9_);}
	.st194{fill:url(#peligro_16_);}
	.st195{fill:url(#Trazado_26367_1_);}
</style>
<g>
	
		<linearGradient id="Trazado_26367_1_" gradientUnits="userSpaceOnUse" x1="-2130.3262" y1="3919.7266" x2="-2130.3262" y2="3918.7395" gradientTransform="matrix(102.334 0 0 -134.1437 218074.5312 525812.9375)">
		<stop  offset="0" style="stop-color:#41D78C"/>
		<stop  offset="1" style="stop-color:#00B4DC"/>
	</linearGradient>
	<path id="Trazado_26367" class="st195" d="M71.83,139.35c0,1.1-0.9,2-2,2c-1.1,0-2-0.9-2-2s0.9-2,2-2c0.53,0,1.04,0.21,1.41,0.58
		C71.61,138.3,71.83,138.81,71.83,139.35z M120.93,118.03v13.49c0,1.1-0.89,1.99-1.99,2h-15.77v5.87l0,0c0,1.08-0.88,1.96-1.96,1.96
		c0,0,0,0,0,0H77.81c-1.04,0.09-1.96-0.67-2.05-1.71c-0.02-0.23,0-0.47,0.06-0.69c0.3-0.77,1.05-1.27,1.88-1.25h10.34v-8.04l0,0
		c0.1-1.12,1.08-1.94,2.2-1.84c0.1,0.01,0.19,0.02,0.29,0.05c1,0.19,1.71,1.07,1.69,2.08v7.75H99v-5.59c-0.09-0.52-0.09-1.05,0-1.57
		v-2.24c0.12-6.78-4.52-12.72-11.12-14.25l-9.84-2.35l-6.34,14.42c-0.32,0.73-1.04,1.2-1.84,1.2l0,0c-0.8,0-1.52-0.47-1.84-1.2
		l-6.35-14.44l-9.87,2.36c-6.6,1.58-11.26,7.46-11.29,14.25v8.89h6.79v-9.19c-0.02-1.15,0.9-2.1,2.06-2.12
		c1.15-0.02,2.1,0.9,2.12,2.06c0,0.03,0,0.06,0,0.09v9.17h9.32c1.15-0.02,2.1,0.9,2.12,2.06c0.02,1.15-0.9,2.1-2.06,2.12
		c-0.03,0-0.06,0-0.09,0H38.87c-1.11,0-2.01-0.9-2.01-2c0,0,0,0,0,0v-5.83H20.6c-1.11,0-2.01-0.9-2.01-2.01v-13.77
		c-0.02-6.4,4.38-11.97,10.61-13.44l6.62-1.58v-2.66c-3.9-2.45-6.26-6.73-6.27-11.34v-7.39c0-7.32,5.93-13.26,13.25-13.26
		c3.82,0,7.45,1.64,9.97,4.51c2.18-7.59,9.12-12.81,17.01-12.82l0,0c7.88,0.01,14.8,5.22,16.99,12.79c4.85-5.49,13.23-6,18.71-1.15
		c2.85,2.52,4.48,6.14,4.48,9.94v7.39c0,4.6-2.37,8.88-6.27,11.34v2.78l6.62,1.6C116.58,105.97,120.97,111.59,120.93,118.03z
		 M87.7,78.54c3.76,2.16,8.01,3.3,12.35,3.29h5.74v-0.7c0-5.1-4.13-9.23-9.23-9.23C92.46,71.9,88.86,74.6,87.7,78.54L87.7,78.54z
		 M87.51,88.45v0.33c0,5.05,4.09,9.14,9.14,9.14c5.05,0,9.14-4.09,9.14-9.14v-2.77h-5.68c-4.37,0-8.67-1.01-12.58-2.96
		C87.52,83.05,87.52,88.24,87.51,88.45z M56.19,79.22h5.62c4.48,0,8.72-1.99,11.58-5.43c0.62-0.75,1.7-0.94,2.54-0.44l7.41,4.37
		v-0.05c0.06-7.18-5.41-13.19-12.56-13.81c-7.49-0.54-14.01,5.09-14.56,12.58c-0.02,0.34-0.04,0.68-0.04,1.02L56.19,79.22z
		 M34.26,81.83h5.23c4.33,0.16,8.61-0.91,12.35-3.1c-1.45-4.89-6.59-7.69-11.48-6.24c-3.92,1.16-6.61,4.75-6.62,8.84L34.26,81.83
		L34.26,81.83z M42.78,97.91c5.07,0.02,9.2-4.07,9.22-9.14c0,0,0,0,0,0v-5.73c-3.91,1.95-8.22,2.96-12.59,2.96h-5.68v2.77
		C33.76,93.78,37.78,97.84,42.78,97.91L42.78,97.91z M36.34,128.3c-0.01-4.32,1.45-8.52,4.13-11.9l-4.17-10.11l-6.39,1.54
		c-4.53,1.11-7.7,5.18-7.67,9.84v11.67h4.18v-8.91c0.03-1.15,0.99-2.07,2.14-2.04s2.07,0.99,2.04,2.14v8.81h5.74L36.34,128.3
		L36.34,128.3z M46.28,104.33c-0.01-0.07-0.01-0.13-0.01-0.2v-2.62c-2.06,0.49-4.21,0.49-6.27,0v2.63c0,0.05-0.01,0.1-0.01,0.15
		l3.15,7.54L46.28,104.33z M57.24,108.62c-0.47-0.19-0.95-0.35-1.44-0.46l-6.36-1.53l-1.95,4.68c1.09-0.5,2.23-0.89,3.4-1.17
		L57.24,108.62z M60.88,103.04c-2.88-1.73-5.23-4.23-6.76-7.23c-1.07,1.69-2.51,3.12-4.2,4.19v2.67l6.81,1.63
		c1.47,0.35,2.87,0.94,4.16,1.73L60.88,103.04z M74.98,108.98v-4.14c-3.24,0.96-6.69,0.96-9.92-0.02v4.14l4.96,11.41L74.98,108.98
		L74.98,108.98z M69.77,101.68c7.33-0.03,13.32-5.84,13.57-13.17v-5.98l-8.03-4.74c-3.57,3.59-8.43,5.61-13.5,5.6h-5.62v4.64
		C56.18,95.55,62.26,101.65,69.77,101.68L69.77,101.68z M78.64,103.08v2.96c1.29-0.8,2.7-1.39,4.17-1.74l6.79-1.63v-2.66
		c-1.68-1.06-3.1-2.47-4.17-4.15C83.89,98.85,81.54,101.35,78.64,103.08L78.64,103.08L78.64,103.08z M88.81,110.03
		c1.18,0.28,2.33,0.68,3.44,1.18l-1.96-4.7l-6.34,1.52c-0.5,0.12-1,0.28-1.48,0.48L88.81,110.03L88.81,110.03z M96.89,111.85
		l3.16-7.57c0-0.04-0.01-0.07-0.01-0.11v-2.63c-2.06,0.49-4.21,0.49-6.27,0v2.61c0,0.08,0,0.15-0.01,0.23L96.89,111.85z
		 M117.28,117.86c0.01-4.61-3.16-8.62-7.65-9.68l-6.39-1.52l-4.17,9.97c2.67,3.32,4.12,7.44,4.11,11.7v1.02h5.74v-8.91
		c0.03-1.15,0.99-2.07,2.14-2.04s2.07,0.99,2.04,2.14v8.81h4.18L117.28,117.86z M29.96,68.03c1.68-1.48,3.68-2.55,5.84-3.13
		c-0.08-0.01-0.17-0.02-0.25-0.02h-9.97c-1.22,0-2.22-0.99-2.22-2.22v-8.88c0-1.22,0.99-2.22,2.22-2.22h9.96
		c1.02,0,1.91-0.69,2.16-1.67c0.78-3.01,1.97-5.9,3.55-8.58c0.52-0.87,0.38-1.98-0.34-2.7l-7.05-7.05c-0.87-0.87-0.87-2.27,0-3.14
		l6.28-6.28c0.87-0.87,2.27-0.87,3.14,0l7.05,7.05c0.72,0.72,1.83,0.86,2.7,0.34c2.68-1.58,5.57-2.78,8.58-3.55
		c0.98-0.25,1.67-1.14,1.67-2.16v-9.96c0-1.22,0.99-2.21,2.22-2.22h8.87c1.22,0,2.22,0.99,2.22,2.22v8.53
		c0,1.01,0.67,1.89,1.64,2.15c3.03,0.83,5.93,2.09,8.6,3.76c0.87,0.55,2,0.4,2.7-0.36l7.05-7.45c0.84-0.87,2.23-0.89,3.1-0.04
		c0.01,0.01,0.03,0.03,0.04,0.04l6.28,6.63c0.86,0.94,0.86,2.38,0,3.32l-7.14,7.54c-0.67,0.71-0.81,1.77-0.33,2.62
		c1.64,2.91,2.86,6.02,3.65,9.27c0.24,1,1.14,1.69,2.16,1.69h9.94c1.26,0.04,2.25,1.08,2.22,2.34v9.36c0.03,1.26-0.96,2.3-2.22,2.34
		h-8.5c1.93,0.86,3.66,2.12,5.06,3.7h3.44c3.67-0.01,6.65-2.98,6.65-6.66v-8.87c0-3.67-2.98-6.65-6.65-6.65h-8.3
		c-0.69-2.27-1.6-4.46-2.71-6.56l5.87-5.86c2.6-2.6,2.6-6.81,0-9.41l-6.28-6.28c-2.63-2.51-6.78-2.51-9.41,0l-5.86,5.86
		c-2.1-1.11-4.29-2.02-6.56-2.72v-8.3c0-3.67-2.98-6.65-6.65-6.65h-8.87c-3.67,0-6.65,2.98-6.65,6.65v8.3
		c-2.27,0.7-4.46,1.61-6.56,2.72l-5.87-5.87c-2.6-2.6-6.81-2.6-9.41,0l-6.27,6.28c-2.59,2.6-2.59,6.81,0,9.41l5.86,5.87
		c-1.11,2.1-2.02,4.29-2.71,6.56h-8.3c-3.67,0-6.65,2.98-6.65,6.65v8.87c0.01,3.67,2.98,6.65,6.65,6.65h3.1
		C29.08,68.85,29.51,68.42,29.96,68.03L29.96,68.03z M54.21,58.54c-0.04-8.63,6.91-15.65,15.54-15.7
		c8.63-0.04,15.65,6.91,15.7,15.54c0.01,1.3-0.15,2.6-0.47,3.87c1.22,1.48,2.22,3.14,2.96,4.91c4.78-10.01,0.54-21.99-9.46-26.77
		c-10.01-4.78-21.99-0.54-26.77,9.46c-2.6,5.44-2.62,11.77-0.04,17.22c0.75-1.77,1.76-3.41,2.99-4.89
		C54.36,60.98,54.21,59.76,54.21,58.54L54.21,58.54z"/>
</g>
</svg>
