<?xml version="1.0" encoding="utf-8"?>
<!-- Generator: Adobe Illustrator 25.2.1, SVG Export Plug-In . SVG Version: 6.00 Build 0)  -->
<svg version="1.1" id="Capa_1" xmlns="http://www.w3.org/2000/svg" xmlns:xlink="http://www.w3.org/1999/xlink" x="0px" y="0px"
	 viewBox="0 0 138.86 151.29" style="enable-background:new 0 0 138.86 151.29;" xml:space="preserve">
<style type="text/css">
	.st0{fill:#1D1D1B;}
</style>
<g id="Group_6503_2_" transform="translate(-1076.409 -448.982)">
	<path id="Path_24609_2_" class="st0" d="M1105.06,530.13c0-1.01,0.82-1.84,1.83-1.84h54.45c1.01-0.02,1.85,0.78,1.88,1.79
		s-0.78,1.85-1.79,1.88c-0.03,0-0.06,0-0.08,0h-54.44C1105.88,531.96,1105.06,531.14,1105.06,530.13
		C1105.06,530.13,1105.06,530.13,1105.06,530.13z M1106.89,520.02h54.45c1.01-0.02,1.82-0.86,1.79-1.88
		c-0.02-0.98-0.81-1.77-1.79-1.79h-54.45c-1.01,0-1.83,0.82-1.83,1.84l0,0C1105.06,519.2,1105.88,520.02,1106.89,520.02z
		 M1106.89,543.9h44.52c1.01,0.02,1.85-0.78,1.88-1.79c0.02-1.01-0.78-1.85-1.79-1.88c-0.03,0-0.06,0-0.08,0h-44.52
		c-1.01,0.02-1.82,0.86-1.79,1.88C1105.12,543.09,1105.91,543.88,1106.89,543.9z M1210.45,489.39l-7.99,26.77
		c-0.29,0.97-1.31,1.52-2.28,1.23c-0.97-0.29-1.52-1.31-1.23-2.28l7.46-25.01l-4.35-1.3l-8.54,28.62c-0.29,0.97-1.31,1.52-2.28,1.24
		c-0.97-0.29-1.53-1.31-1.24-2.29l9.07-30.37l0-0.02l1.62-5.44c0.03-0.09,0.02-0.18-0.03-0.26c-0.04-0.08-0.11-0.14-0.2-0.16l0,0
		l-9.52-2.85c-0.18-0.05-0.37,0.06-0.43,0.24l-3.56,11.92l-3.67,12.3l-14.43,48.33l10.18,3.04l4.25-14.24l3.67-12.3l0.65-2.17
		c0.29-0.97,1.31-1.52,2.28-1.23c0.97,0.29,1.52,1.31,1.23,2.28l-4.17,13.95v44.45c0,1.9-1.54,3.45-3.45,3.45h-67.93
		c-1.01-0.02-1.82-0.86-1.79-1.88c0.02-0.98,0.81-1.77,1.79-1.79h67.7v-31.93l-1.26,4.22c0,0.02-0.01,0.03-0.02,0.05
		c-0.01,0.03-0.02,0.07-0.04,0.1c0,0.01-0.01,0.03-0.01,0.04c-0.02,0.05-0.04,0.09-0.06,0.13c0,0.01-0.01,0.02-0.01,0.03l-0.07,0.11
		l-0.03,0.04c-0.03,0.04-0.06,0.08-0.09,0.12l-0.02,0.03l-5.82,7.03l-5.42,6.52l-0.05,0.06c-0.13,0.14-0.26,0.28-0.41,0.4
		c-0.01,0.01-0.01,0.01-0.02,0.02l0,0c-0.21,0.2-0.47,0.34-0.75,0.42l-0.03,0.01c-0.01,0.01-0.03,0.01-0.04,0.01l-0.02,0.01l0,0
		l-0.03,0.01c-0.1,0.02-0.19,0.03-0.29,0.04c-0.02,0-0.04,0-0.06,0c-4.26,0.37-6.18-2.75-7.21-4.43c-0.09-0.14-0.19-0.3-0.28-0.46
		c-0.17,0.27-0.35,0.59-0.5,0.86c-0.5,0.93-1.07,1.82-1.71,2.67c-0.8,1.17-2.07,1.94-3.48,2.09c-0.08,0-0.16,0.01-0.23,0.01
		c-1.73,0-3.13-1.16-4.27-2.3c-0.52-0.52-0.77-0.56-0.77-0.56c-0.37,0.21-0.71,0.46-1.01,0.76c-1.27,1.11-3.92,3.41-7.67-0.05
		c-0.75-0.69-0.79-1.85-0.11-2.59s1.85-0.79,2.59-0.11c0.64,0.59,1.21,0.91,1.51,0.85c0.48-0.2,0.9-0.5,1.26-0.87
		c1.18-1.03,3.63-3.16,6.78-0.03c1.2,1.2,1.62,1.24,1.7,1.23c0.09-0.01,0.38-0.16,0.81-0.7c0.52-0.69,0.99-1.42,1.4-2.19
		c0.77-1.37,1.57-2.8,3.27-3.12c2.01-0.39,3.07,1.34,3.84,2.6c0.45,0.88,1.08,1.65,1.85,2.27l0,0l-1.74-15.49v-0.01l-0.01-0.08
		c0-0.04,0-0.08,0-0.12s0-0.08,0-0.12c0-0.05,0.01-0.09,0.01-0.14c0-0.04,0.01-0.07,0.02-0.1s0.02-0.09,0.03-0.13
		c0-0.01,0-0.02,0.01-0.03l18.47-61.88v-2.3H1172c-4.58-0.01-8.3-3.72-8.3-8.31l0.01-10.37h-71.39V583.6h15.09
		c1.01,0.02,1.82,0.86,1.79,1.88c-0.02,0.98-0.81,1.77-1.79,1.79h-15.32c-1.9,0-3.44-1.55-3.44-3.45V467.68
		c0-1.9,1.54-3.45,3.44-3.45h73.03c0.37,0,0.73,0.07,1.07,0.21c0.04,0.01,0.08,0.03,0.11,0.05h0.01l0.01,0.01
		c0.04,0.02,0.09,0.04,0.13,0.07l0,0l0.01,0.01c0.04,0.02,0.08,0.05,0.12,0.08c0.36,0.24,0.69,0.52,0.99,0.83l0.26,0.26l17.39,16.6
		l1.76-5.89c0.44-1.44,1.63-2.51,3.11-2.79l2.04-6.82c1.08-3.6,4.87-5.65,8.47-4.57s5.65,4.87,4.57,8.47l0,0l-2.04,6.82
		c1.08,1.05,1.49,2.61,1.06,4.05l-1.1,3.69l6.11,1.83l0,0C1210.19,487.4,1210.74,488.42,1210.45,489.39L1210.45,489.39z
		 M1180.54,482.91l-13.16-12.56l0,0l-0.01,7.92c0,2.56,2.08,4.63,4.63,4.64H1180.54z M1106.89,555.84h14.86
		c1.01,0.02,1.85-0.78,1.88-1.79c0.02-1.01-0.78-1.85-1.79-1.88c-0.03,0-0.06,0-0.08,0h-14.86c-1.01,0.02-1.82,0.86-1.79,1.88
		C1105.12,555.03,1105.91,555.82,1106.89,555.84z M1105.31,479.34v14.21c0,1.09,0.89,1.98,1.98,1.98l0,0h41.17c0.07,0,0.14,0,0.21,0
		c1.06-0.07,1.86-0.99,1.79-2.05c-0.07-1.04-0.96-1.83-2-1.79h-39.3v-10.43h26.94c1.06,0,1.92-0.86,1.92-1.92c0-0.03,0-0.06,0-0.09
		c-0.09-1.06-0.98-1.86-2.04-1.83h-28.73C1106.18,477.42,1105.32,478.28,1105.31,479.34L1105.31,479.34z M1105.44,507.88
		c0-1.01,0.82-1.84,1.83-1.84c0,0,0,0,0,0h54.45c1.01-0.02,1.85,0.78,1.88,1.79s-0.78,1.85-1.79,1.88c-0.03,0-0.06,0-0.08,0h-54.44
		C1106.26,509.71,1105.44,508.89,1105.44,507.88z"/>
</g>
</svg>
