<?xml version="1.0" encoding="utf-8"?>
<!-- Generator: Adobe Illustrator 25.2.1, SVG Export Plug-In . SVG Version: 6.00 Build 0)  -->
<svg version="1.1" id="Capa_1" xmlns="http://www.w3.org/2000/svg" xmlns:xlink="http://www.w3.org/1999/xlink" x="0px" y="0px"
	 viewBox="0 0 138.86 151.29" style="enable-background:new 0 0 138.86 151.29;" xml:space="preserve">
<style type="text/css">
	.st0{fill:#1D1D1B;}
</style>
<path id="Path_24603_2_" class="st0" d="M111.6,13.58H46.12c-0.74-0.01-1.44,0.28-1.97,0.8L19.73,38.77
	c-0.52,0.52-0.81,1.23-0.8,1.96l0,0v88.66c0.01,4.59,3.73,8.31,8.33,8.32h84.34c4.59,0,8.32-3.72,8.33-8.32V21.89
	C119.92,17.3,116.19,13.58,111.6,13.58z M42.83,23.28v10.11c-0.01,2.68-2.18,4.85-4.86,4.86H27.86L42.83,23.28z M114.14,130
	c0,1.44-2.77,3.08-2.77,3.08H27.11c-1.54,0-2.79-1.25-2.79-2.79V43.65h14.25c5.79-0.03,10.45-4.74,10.43-10.52c0,0,0,0,0,0V18.98
	h62.77c1.54,0.01,2.78,1.26,2.77,2.8c0,0,0,0,0,0V130L114.14,130z M61.8,74.1c0,1.49-1.21,2.7-2.7,2.7H39.62
	c-0.1,0.01-0.2,0.01-0.29,0c-1.49-0.08-2.63-1.36-2.55-2.85c0.08-1.49,1.36-2.63,2.85-2.55H59.1C60.59,71.41,61.79,72.61,61.8,74.1
	L61.8,74.1z M84.94,111.5c0.1-0.01,0.2-0.01,0.29,0c1.49,0.07,2.64,1.34,2.57,2.83c-0.07,1.49-1.34,2.64-2.83,2.57h-45
	c-1.49,0-2.7-1.21-2.7-2.7c0-1.49,1.21-2.7,2.7-2.7H84.94L84.94,111.5z M100.34,112.39c1.07,1.1,1.07,2.84,0,3.94
	c-0.53,0.5-1.24,0.79-1.97,0.8c-0.74,0.01-1.45-0.28-1.97-0.8c-0.5-0.53-0.79-1.24-0.8-1.97c-0.01-0.74,0.28-1.45,0.8-1.97
	c0.53-0.5,1.24-0.79,1.97-0.8C99.11,111.57,99.82,111.86,100.34,112.39L100.34,112.39z M59.1,91.45c0.85-0.01,1.64,0.42,2.1,1.13
	c0.85,1.25,0.52,2.95-0.73,3.8c-0.41,0.28-0.88,0.44-1.37,0.47H39.62c-1.49,0-2.7-1.21-2.7-2.7c0-1.49,1.21-2.7,2.7-2.7L59.1,91.45z
	 M102.2,34.03v19.96c0,1.53-1.24,2.78-2.78,2.78H41.59c-0.1,0.01-0.19,0.01-0.29,0c-1.49-0.08-2.63-1.35-2.55-2.85
	c0.08-1.49,1.35-2.63,2.85-2.55H96.8V36.71H58.96c-1.49,0-2.7-1.21-2.69-2.71c0-0.04,0-0.08,0-0.12c0.13-1.48,1.38-2.61,2.87-2.58
	h40.35C100.98,31.32,102.19,32.53,102.2,34.03L102.2,34.03z M99.39,71.41H71.81c-1.53,0-2.76,1.24-2.76,2.76l0,0v19.9
	c0,1.53,1.24,2.78,2.78,2.78h27.61c1.53,0,2.76-1.24,2.76-2.76c0,0,0,0,0,0l0,0v-19.9c0-1.53-1.24-2.78-2.78-2.78H99.39z
	 M96.03,91.45H74.45V76.8h21.59L96.03,91.45z"/>
</svg>
