<?xml version="1.0" encoding="utf-8"?>
<!-- Generator: Adobe Illustrator 25.2.1, SVG Export Plug-In . SVG Version: 6.00 Build 0)  -->
<svg version="1.1" id="Capa_1" xmlns="http://www.w3.org/2000/svg" xmlns:xlink="http://www.w3.org/1999/xlink" x="0px" y="0px"
	 viewBox="0 0 138.86 151.29" style="enable-background:new 0 0 138.86 151.29;" xml:space="preserve">
<style type="text/css">
	.st0{fill:#1D1D1B;}
</style>
<path id="Path_24607_2_" class="st0" d="M112.09,94.99c0,1.3-1.39,2.35-3.1,2.35H86.62c-0.11,0-0.23,0-0.34,0
	c-1.71-0.07-3.02-1.18-2.93-2.48s1.56-2.29,3.27-2.22h22.37C110.69,92.66,112.07,93.7,112.09,94.99z M108.98,105.39H86.61
	c-1.71-0.07-3.18,0.92-3.27,2.22s1.22,2.41,2.93,2.48c0.11,0,0.23,0,0.34,0h22.37c1.71,0,3.1-1.05,3.1-2.35
	C112.07,106.45,110.69,105.4,108.98,105.39L108.98,105.39z M113.23,25.75H75.12c-1.29-0.03-2.39,0.95-2.5,2.24
	c-0.06,1.29,0.94,2.39,2.24,2.45c0.04,0,0.07,0,0.11,0h35.93v12.75H85.8c-1.3-0.07-2.41,0.93-2.48,2.22
	c-0.07,1.3,0.93,2.41,2.22,2.48c0.08,0.01,0.17,0.01,0.25,0h27.38c1.33,0,2.42-1.08,2.42-2.42c0,0,0,0,0,0V28.11
	C115.59,26.81,114.53,25.75,113.23,25.75L113.23,25.75z M52.52,55.78h-29.4c-0.06,0-0.12,0-0.18-0.01c-3.33-0.2-6.59,1.02-8.96,3.37
	c-1.73,1.85-2.68,4.31-2.64,6.84v49.67c0,1.13,0.91,2.04,2.04,2.04l0,0l0,0c1.13,0,2.04-0.91,2.04-2.04l0,0V66.1
	c0-0.09,0.01-0.17,0.02-0.26c0.12-0.94,1.03-5.97,6.58-5.97h40.34c0,0,5.39-0.11,6.11,6c0.01,0.08,0.01,0.16,0.01,0.25v60.67
	c0,0,0.33,6.67-6.61,6.61H23.42c-0.06,0-0.11,0-0.17,0.01c-0.76,0.06-6.84,0.37-7.81-6.03c-0.02-0.1-0.02-0.21-0.02-0.31v-0.78
	c0-1.13-0.91-2.04-2.04-2.04l0,0l0,0c-1.13,0-2.04,0.91-2.04,2.04l0,0v2.67c0,0.22,0.03,0.44,0.1,0.64c0.47,1.42,2.6,6.83,8.01,7.62
	c0.1,0.01,0.2,0.02,0.3,0.02h43.05c3.02-0.1,5.85-1.52,7.73-3.89c0,0,2.04-2.08,2.04-9.73V64.3c0-0.25-0.05-0.5-0.14-0.73
	c-0.62-1.61-3.41-7.78-10.07-7.78L52.52,55.78z M127.52,22.06v93.54c-0.01,4-3.25,7.23-7.25,7.24H81.9c-1.11,0-2.01-0.9-2.01-2.01
	c0,0,0,0,0,0l0,0c0-1.11,0.9-2.01,2.01-2.01h38.18c0,0,2.41-1.43,2.41-2.68h0.34V21.96c0.01-1.34-1.07-2.43-2.41-2.43H65.8v12.31
	c0.02,5.03-4.04,9.13-9.07,9.16c0,0,0,0,0,0h-12.4v5.03c0,1.3-1.05,2.35-2.35,2.35l0,0l0,0c-1.3,0-2.35-1.05-2.35-2.35c0,0,0,0,0,0
	v-7.57c-0.01-0.64,0.25-1.26,0.7-1.71l21.25-21.22c0.45-0.45,1.07-0.7,1.71-0.7h56.98C124.27,14.83,127.51,18.07,127.52,22.06
	L127.52,22.06z M60.43,23.26L47.4,36.29h8.8c2.33-0.01,4.22-1.9,4.23-4.23L60.43,23.26z M22.86,65.81h37.57
	c1.11,0,2.01,0.9,2.01,2.01v10.06c0,1.11-0.9,2.01-2.01,2.01H22.86c-1.11,0-2.01-0.9-2.01-2.01V67.82
	C20.85,66.71,21.75,65.81,22.86,65.81L22.86,65.81z M59.09,68.49H24.21v8.72h34.89V68.49z M31.18,86.59v6.04
	c0,1.11-0.9,2.01-2.01,2.01h-6.06c-1.11,0-2.01-0.9-2.01-2.01v-6.04c0-1.11,0.9-2.01,2.01-2.01h6.06
	C30.28,84.58,31.18,85.48,31.18,86.59C31.18,86.59,31.18,86.59,31.18,86.59L31.18,86.59z M28.49,91.78v-4.35h-4.72v4.35L28.49,91.78
	z M46.69,86.59v6.04c0,1.11-0.9,2.01-2.01,2.01h-6.06c-1.11,0-2.01-0.9-2.01-2.01v-6.04c0-1.11,0.9-2.01,2.01-2.01h6.06
	C45.79,84.58,46.69,85.48,46.69,86.59C46.69,86.59,46.69,86.6,46.69,86.59L46.69,86.59z M44.01,91.78v-4.35h-4.72v4.35L44.01,91.78z
	 M62.21,86.59v6.04c0,1.11-0.9,2.01-2.01,2.01h-6.06c-1.11,0-2.01-0.9-2.01-2.01v-6.04c0-1.11,0.9-2.01,2.01-2.01h6.06
	C61.31,84.58,62.21,85.49,62.21,86.59C62.2,86.6,62.2,86.6,62.21,86.59L62.21,86.59z M59.53,91.78v-4.35h-4.72v4.35L59.53,91.78z
	 M31.19,102.6v6.04c0,1.11-0.9,2.01-2.01,2.01h-6.06c-1.11,0-2.01-0.9-2.01-2.01v-6.04c0-1.11,0.9-2.01,2.01-2.01h6.06
	C30.28,100.59,31.18,101.5,31.19,102.6C31.18,102.61,31.18,102.61,31.19,102.6L31.19,102.6z M28.5,107.8v-4.35h-4.72v4.35H28.5z
	 M46.7,102.6v6.04c0,1.11-0.9,2.01-2.01,2.01h-6.06c-1.11,0-2.01-0.9-2.01-2.01v-6.04c0-1.11,0.9-2.01,2.01-2.01h6.06
	c1.11,0.01,2.01,0.91,2,2.02L46.7,102.6z M44.02,107.8v-4.35H39.3v4.35H44.02z M62.22,102.6v6.04c0,1.11-0.9,2.01-2.01,2.01h-6.06
	c-1.11,0-2.01-0.9-2.01-2.01v-6.04c0-1.11,0.9-2.01,2.01-2.01h6.06c1.11,0.01,2,0.91,2,2.02L62.22,102.6z M59.53,107.8v-4.35h-4.72
	v4.35H59.53z M31.19,119.12v6.04c0,1.11-0.9,2.01-2.01,2.01h-6.06c-1.11,0-2.01-0.9-2.01-2.01v-6.04c0-1.11,0.9-2.01,2.01-2.01h6.06
	c1.11,0.01,2,0.91,2,2.02L31.19,119.12z M28.51,124.31v-4.35h-4.72v4.35H28.51z M46.71,119.12v6.04c0,1.11-0.9,2.01-2.01,2.01h-6.06
	c-1.11,0-2.01-0.9-2.01-2.01v-6.04c0-1.11,0.9-2.01,2.01-2.01h6.06c1.11,0.01,2,0.91,2,2.02L46.71,119.12z M44.02,124.31v-4.35
	h-4.72v4.35H44.02z M62.22,119.12v6.04c0,1.11-0.9,2.01-2.01,2.01h-6.06c-1.11,0-2.01-0.9-2.01-2.01v-6.04
	c0-1.11,0.9-2.01,2.01-2.01h6.06c1.11,0.01,2,0.91,1.99,2.02L62.22,119.12z M59.54,124.31v-4.35h-4.72v4.35H59.54z M112.11,69.81
	c0,7.78-6.31,14.09-14.09,14.09c-7.78,0-14.09-6.31-14.09-14.09s6.31-14.09,14.09-14.09c7.77,0.01,14.07,6.32,14.07,14.09
	L112.11,69.81z M108.59,69.81c0-5.84-4.73-10.57-10.57-10.57c-5.84,0-10.57,4.73-10.57,10.57s4.73,10.57,10.57,10.57
	c5.83-0.01,10.54-4.74,10.54-10.56L108.59,69.81z M101.35,69.72c-0.69-0.67-1.61-1.05-2.57-1.04h-1.19
	c-0.59-0.02-1.06-0.51-1.05-1.1V67.1c0-0.56,0.45-1.02,1.01-1.02c0.02,0,0.03,0,0.05,0h1.12c0.35-0.02,0.65,0.24,0.67,0.59
	c0,0,0,0,0,0c0.05,0.72,0.68,1.25,1.39,1.2c0.64-0.05,1.15-0.56,1.2-1.2c-0.02-1.55-1.13-2.86-2.66-3.13v-0.83
	c0.06-0.72-0.48-1.34-1.19-1.4c-0.72-0.06-1.34,0.48-1.4,1.19c-0.01,0.07-0.01,0.14,0,0.2v0.88c-0.64,0.15-1.23,0.48-1.71,0.94
	c-0.7,0.67-1.1,1.6-1.1,2.57v0.47c-0.01,2.03,1.62,3.68,3.65,3.69h1.19c0.57-0.02,1.05,0.43,1.06,1c0,0.01,0,0.01,0,0.02v0.32
	c-0.01,0.55-0.46,1-1.01,0.99c-0.02,0-0.03,0-0.05,0h-1.93c-0.33,0.02-0.62-0.23-0.64-0.56c0-0.01,0-0.02,0-0.03
	c0.06-0.72-0.48-1.34-1.19-1.4c-0.72-0.06-1.34,0.48-1.4,1.19c-0.01,0.07-0.01,0.14,0,0.2c0,1.73,1.38,3.14,3.11,3.17v0.72
	c0.06,0.72,0.68,1.25,1.4,1.19c0.64-0.05,1.14-0.56,1.19-1.19v-0.75c1.78-0.23,3.12-1.75,3.11-3.54V72.3c0-0.97-0.39-1.9-1.08-2.58
	L101.35,69.72z"/>
</svg>
