<?xml version="1.0" encoding="utf-8"?>
<!-- Generator: Adobe Illustrator 25.2.1, SVG Export Plug-In . SVG Version: 6.00 Build 0)  -->
<svg version="1.1" id="Capa_1" xmlns="http://www.w3.org/2000/svg" xmlns:xlink="http://www.w3.org/1999/xlink" x="0px" y="0px"
	 viewBox="0 0 80 80" style="enable-background:new 0 0 80 80;" xml:space="preserve">
<style type="text/css">
	.st0{fill:#6E6E6E;}
	.st1{fill:#F6F7F9;}
	.st2{fill:#FFFFFF;}
	.st3{fill:#DCDCDC;}
	.st4{fill:url(#Trazado_26198_4_);}
	.st5{fill:url(#Trazado_26199_4_);}
	.st6{fill:url(#Trazado_26200_4_);}
	.st7{fill:url(#Trazado_26201_4_);}
	.st8{fill:url(#Trazado_26202_4_);}
	.st9{fill:url(#Trazado_26203_4_);}
	.st10{fill:url(#Trazado_26204_4_);}
	.st11{fill:url(#Trazado_26205_4_);}
	.st12{fill:url(#Trazado_26206_4_);}
	.st13{fill:url(#Trazado_26207_4_);}
	.st14{fill:url(#Trazado_26208_4_);}
	.st15{fill:url(#Trazado_26209_4_);}
	.st16{fill:url(#Trazado_26210_4_);}
	.st17{fill:url(#Trazado_26211_4_);}
	.st18{fill:url(#Trazado_26212_4_);}
	.st19{fill:url(#Trazado_26213_4_);}
	.st20{fill:url(#Trazado_26214_4_);}
	.st21{fill:url(#Trazado_26215_4_);}
	.st22{fill:url(#Trazado_24566_6_);}
	.st23{fill:url(#Trazado_24567_6_);}
	.st24{fill:url(#Trazado_24568_6_);}
	.st25{fill:url(#Trazado_24569_6_);}
	.st26{fill:url(#Trazado_24570_6_);}
	.st27{fill:url(#Trazado_24571_6_);}
	.st28{fill:url(#Trazado_24572_6_);}
	.st29{fill:url(#Trazado_26216_4_);}
	.st30{fill:url(#Trazado_26217_4_);}
	.st31{fill:url(#Trazado_26218_4_);}
	.st32{fill:url(#Trazado_26336_1_);}
	.st33{fill:url(#Unión_52_1_);}
	.st34{fill:url(#Trazado_904_2_);}
	.st35{fill:url(#Trazado_905_2_);}
	.st36{fill:url(#Trazado_906_2_);}
	.st37{fill:url(#Trazado_24631_2_);}
	.st38{fill:url(#Trazado_24632_2_);}
	.st39{fill:url(#Trazado_24633_2_);}
	.st40{fill:url(#Trazado_24634_2_);}
	.st41{fill:url(#Trazado_24635_2_);}
	.st42{fill:url(#Trazado_24636_2_);}
	.st43{fill:url(#Trazado_24637_2_);}
	.st44{fill:url(#Trazado_24638_2_);}
	.st45{fill:url(#Trazado_24639_2_);}
	.st46{fill:url(#Trazado_24640_2_);}
	.st47{fill:url(#Trazado_884_1_);}
	.st48{fill:url(#Trazado_24616_1_);}
	.st49{fill:url(#Trazado_24617_1_);}
	.st50{fill:url(#Trazado_24618_1_);}
	.st51{fill:url(#Trazado_24619_1_);}
	.st52{fill:url(#Trazado_24620_1_);}
	.st53{fill:url(#Trazado_24621_1_);}
	.st54{fill:url(#Trazado_24622_1_);}
	.st55{fill:none;stroke:#CCCCCC;}
	.st56{fill:url(#Trazado_904-2_2_);}
	.st57{fill:url(#Trazado_905-2_2_);}
	.st58{fill:url(#Trazado_906-2_2_);}
	.st59{fill:url(#Trazado_24631-2_2_);}
	.st60{fill:url(#Trazado_24632-2_2_);}
	.st61{fill:url(#Trazado_24633-2_2_);}
	.st62{fill:url(#Trazado_24634-2_2_);}
	.st63{fill:url(#Trazado_24635-2_2_);}
	.st64{fill:url(#Trazado_24636-2_2_);}
	.st65{fill:url(#Trazado_24637-2_2_);}
	.st66{fill:url(#Trazado_24638-2_2_);}
	.st67{fill:url(#Trazado_24639-2_2_);}
	.st68{fill:url(#Trazado_24640-2_2_);}
	.st69{fill:url(#Trazado_884-2_1_);}
	.st70{fill:url(#Trazado_24616-2_1_);}
	.st71{fill:url(#Trazado_24617-2_1_);}
	.st72{fill:url(#Trazado_24618-2_1_);}
	.st73{fill:url(#Trazado_24619-2_1_);}
	.st74{fill:url(#Trazado_24620-2_1_);}
	.st75{fill:url(#Trazado_24621-2_1_);}
	.st76{fill:url(#Trazado_24622-2_1_);}
	.st77{fill:url(#Trazado_26355_1_);}
	.st78{opacity:0.2;fill:#26F70F;}
	.st79{fill:#F90D0D;}
	.st80{fill:none;stroke:#F90D0D;stroke-miterlimit:10;}
	.st81{fill:none;stroke:#FF2929;stroke-miterlimit:10;}
	.st82{opacity:0.2;}
	.st83{fill:#FF2929;}
	.st84{opacity:0.2;fill:#FF2929;}
	.st85{fill:#3366CC;}
	.st86{fill:none;stroke:#FFFFFF;}
	.st87{fill:#0070BA;}
	.st88{fill:#E3134D;}
	.st89{fill:#FEC20A;}
	.st90{fill:#70AF3D;}
	.st91{fill:#9B156E;}
	.st92{fill:#FBD015;}
	.st93{fill:#05569E;}
	.st94{fill:#D11F3E;}
	.st95{fill:none;}
	.st96{fill-rule:evenodd;clip-rule:evenodd;fill:#3366CC;}
	.st97{fill:none;stroke:#707070;}
	.st98{stroke:#FF2929;stroke-width:4;stroke-miterlimit:10;}
	.st99{fill:none;stroke:#FF2929;stroke-width:4;stroke-miterlimit:10;}
	.st100{fill:none;stroke:#000000;stroke-miterlimit:10;}
	.st101{fill:#41D78C;}
	.st102{fill:url(#Trazado_24869_3_);}
	.st103{fill:url(#Trazado_26191_4_);}
	.st104{fill:url(#Trazado_26192_4_);}
	.st105{fill:url(#Trazado_26193_4_);}
	.st106{fill:url(#Trazado_26194_4_);}
	.st107{fill:url(#Trazado_26195_4_);}
	.st108{fill:url(#Trazado_26196_4_);}
	.st109{fill:url(#Trazado_26197_4_);}
	.st110{fill:url(#Trazado_26198_5_);}
	.st111{fill:url(#Trazado_26199_5_);}
	.st112{fill:url(#Trazado_26200_5_);}
	.st113{fill:url(#Trazado_26201_5_);}
	.st114{fill:url(#Trazado_26202_5_);}
	.st115{fill:url(#Trazado_26203_5_);}
	.st116{fill:url(#Trazado_26204_5_);}
	.st117{fill:url(#Trazado_26205_5_);}
	.st118{fill:url(#Trazado_26206_5_);}
	.st119{fill:url(#Trazado_26207_5_);}
	.st120{fill:url(#Trazado_26208_5_);}
	.st121{fill:url(#Trazado_26209_5_);}
	.st122{fill:url(#Trazado_26210_5_);}
	.st123{fill:url(#Trazado_26211_5_);}
	.st124{fill:url(#Trazado_26212_5_);}
	.st125{fill:url(#Trazado_26213_5_);}
	.st126{fill:url(#Trazado_26214_5_);}
	.st127{fill:url(#Trazado_26215_5_);}
	.st128{fill:url(#Trazado_26216_5_);}
	.st129{fill:url(#Trazado_26217_5_);}
	.st130{fill:url(#Trazado_26218_5_);}
	.st131{fill:url(#Trazado_24566_7_);}
	.st132{fill:url(#Trazado_24567_7_);}
	.st133{fill:url(#Trazado_24568_7_);}
	.st134{fill:url(#Trazado_24569_7_);}
	.st135{fill:url(#Trazado_24570_7_);}
	.st136{fill:url(#Trazado_24571_7_);}
	.st137{fill:url(#Trazado_24572_7_);}
	.st138{fill:url(#Unión_55_1_);}
	.st139{fill:url(#Trazado_904_3_);}
	.st140{fill:url(#Trazado_905_3_);}
	.st141{fill:url(#Trazado_906_3_);}
	.st142{fill:url(#Trazado_24631_3_);}
	.st143{fill:url(#Trazado_24632_3_);}
	.st144{fill:url(#Trazado_24633_3_);}
	.st145{fill:url(#Trazado_24634_3_);}
	.st146{fill:url(#Trazado_24635_3_);}
	.st147{fill:url(#Trazado_24636_3_);}
	.st148{fill:url(#Trazado_24637_3_);}
	.st149{fill:url(#Trazado_24638_3_);}
	.st150{fill:url(#Trazado_24639_3_);}
	.st151{fill:url(#Trazado_24640_3_);}
	.st152{fill:url(#Rectángulo_3914-2_1_);}
	.st153{clip-path:url(#SVGID_6_);fill:#EBEEF0;}
	.st154{clip-path:url(#SVGID_6_);}
	.st155{opacity:0.2;clip-path:url(#SVGID_6_);fill:#26F70F;}
	.st156{opacity:0.1;clip-path:url(#SVGID_6_);}
	.st157{opacity:0.2;fill:#F90D0D;}
	.st158{fill:none;stroke:#FF0000;stroke-width:5;stroke-miterlimit:10;}
	.st159{clip-path:url(#SVGID_14_);fill:#EBEEF0;}
	.st160{clip-path:url(#SVGID_14_);}
	.st161{opacity:0.2;clip-path:url(#SVGID_14_);fill:#26F70F;}
	.st162{fill:none;stroke:#26F70F;stroke-width:7;stroke-miterlimit:10;}
	.st163{fill:url(#Rectángulo_3928_2_);}
	.st164{fill:#F0F2F4;}
	.st165{opacity:0.28;fill:none;stroke:#BEC8D2;enable-background:new    ;}
	.st166{fill:none;stroke:#E2E7EB;}
	.st167{fill:#00B4DC;}
	.st168{fill:url(#Trazado_24687_2_);}
	.st169{fill:url(#Trazado_24688_2_);}
	.st170{fill:url(#Trazado_24689_2_);}
	.st171{fill:url(#Trazado_24690_2_);}
	.st172{fill:url(#Rectángulo_1733_2_);}
	.st173{fill:url(#Rectángulo_1734_2_);}
	.st174{fill:url(#Rectángulo_1735_2_);}
	.st175{fill:url(#Trazado_24566_8_);}
	.st176{fill:url(#Trazado_24567_8_);}
	.st177{fill:url(#Trazado_24568_8_);}
	.st178{fill:url(#Trazado_24569_8_);}
	.st179{fill:url(#Trazado_24570_8_);}
	.st180{fill:url(#Trazado_24571_8_);}
	.st181{fill:url(#Trazado_24572_8_);}
	.st182{fill:url(#Trazado_26237_2_);}
	.st183{fill:url(#Trazado_26238_2_);}
	.st184{fill:url(#Trazado_26242_2_);}
	.st185{fill:url(#Trazado_26243_2_);}
	.st186{fill:url(#Trazado_26244_2_);}
	.st187{fill:url(#Trazado_26245_2_);}
	.st188{fill:url(#Trazado_26246_2_);}
	.st189{fill:url(#Trazado_26247_2_);}
	.st190{fill:url(#Trazado_26248_2_);}
	.st191{fill:url(#Trazado_26249_2_);}
	.st192{fill:url(#Trazado_26250_2_);}
	.st193{fill:url(#Trazado_26251_2_);}
	.st194{fill:url(#Trazado_26252_2_);}
	.st195{fill:url(#Trazado_26253_2_);}
	.st196{fill:url(#Trazado_26254_2_);}
	.st197{fill:url(#Trazado_26255_2_);}
	.st198{fill:url(#Trazado_26256_2_);}
	.st199{fill:url(#Trazado_26257_2_);}
	.st200{fill:url(#Trazado_26258_2_);}
	.st201{fill:url(#Trazado_26259_2_);}
	.st202{fill:url(#Trazado_26260_2_);}
	.st203{fill:url(#Trazado_26261_2_);}
	.st204{fill:url(#Trazado_26262_2_);}
	.st205{fill:url(#Trazado_26263_2_);}
	.st206{fill:url(#Trazado_26264_2_);}
	.st207{fill:url(#Trazado_26265_2_);}
	.st208{fill:url(#Trazado_26266_2_);}
	.st209{fill:url(#Trazado_26267_2_);}
	.st210{fill:url(#Trazado_26268_2_);}
	.st211{fill:url(#Trazado_26269_2_);}
	.st212{fill:url(#Trazado_26270_2_);}
	.st213{fill:url(#Trazado_26271_2_);}
	.st214{fill:url(#Trazado_26272_2_);}
	.st215{fill:url(#Trazado_26273_2_);}
	.st216{fill:url(#Trazado_26274_2_);}
	.st217{fill:url(#Trazado_26275_2_);}
	.st218{fill:url(#Trazado_26276_2_);}
	.st219{fill:url(#Trazado_26277_2_);}
	.st220{fill:url(#Trazado_26278_2_);}
	.st221{fill:url(#Trazado_26279_2_);}
	.st222{fill:url(#Trazado_26284_2_);}
	.st223{fill:url(#Trazado_26285_2_);}
	.st224{fill:url(#Trazado_26230_2_);}
	.st225{fill:url(#Trazado_26231_2_);}
	.st226{fill:url(#Trazado_26232_2_);}
	.st227{fill:url(#Rectángulo_3918_2_);}
	.st228{fill:url(#Rectángulo_3919_2_);}
	.st229{fill:url(#Rectángulo_3920_2_);}
	.st230{fill:url(#Rectángulo_3921_2_);}
	.st231{fill:url(#Rectángulo_3922_2_);}
	.st232{fill:url(#Rectángulo_3923_2_);}
	.st233{fill:url(#Rectángulo_3924_2_);}
	.st234{fill:url(#Rectángulo_3925_2_);}
	.st235{fill:url(#Rectángulo_3928_3_);}
	.st236{fill:url(#Trazado_24566_9_);}
	.st237{fill:url(#Trazado_24567_9_);}
	.st238{fill:url(#Trazado_24568_9_);}
	.st239{fill:url(#Trazado_24569_9_);}
	.st240{fill:url(#Trazado_24570_9_);}
	.st241{fill:url(#Trazado_24571_9_);}
	.st242{fill:url(#Trazado_24572_9_);}
	.st243{fill:url(#Trazado_26233_2_);}
	.st244{fill:url(#Trazado_26234_2_);}
	.st245{fill:url(#Trazado_26235_2_);}
	.st246{fill:url(#Trazado_26236_2_);}
	.st247{fill:url(#Trazado_26237_3_);}
	.st248{fill:url(#Trazado_26238_3_);}
	.st249{fill:url(#Trazado_26242_3_);}
	.st250{fill:url(#Trazado_26243_3_);}
	.st251{fill:url(#Trazado_26244_3_);}
	.st252{fill:url(#Trazado_26245_3_);}
	.st253{fill:url(#Trazado_26246_3_);}
	.st254{fill:url(#Trazado_26247_3_);}
	.st255{fill:url(#Trazado_26248_3_);}
	.st256{fill:url(#Trazado_26249_3_);}
	.st257{fill:url(#Trazado_26250_3_);}
	.st258{fill:url(#Trazado_26251_3_);}
	.st259{fill:url(#Trazado_26252_3_);}
	.st260{fill:url(#Trazado_26253_3_);}
	.st261{fill:url(#Trazado_26254_3_);}
	.st262{fill:url(#Trazado_26255_3_);}
	.st263{fill:url(#Trazado_26256_3_);}
	.st264{fill:url(#Trazado_26257_3_);}
	.st265{fill:url(#Trazado_26258_3_);}
	.st266{fill:url(#Trazado_26259_3_);}
	.st267{fill:url(#Trazado_26260_3_);}
	.st268{fill:url(#Trazado_26261_3_);}
	.st269{fill:url(#Trazado_26262_3_);}
	.st270{fill:url(#Trazado_26263_3_);}
	.st271{fill:url(#Trazado_26264_3_);}
	.st272{fill:url(#Trazado_26265_3_);}
	.st273{fill:url(#Trazado_26266_3_);}
	.st274{fill:url(#Trazado_26267_3_);}
	.st275{fill:url(#Trazado_26268_3_);}
	.st276{fill:url(#Trazado_26269_3_);}
	.st277{fill:url(#Trazado_26270_3_);}
	.st278{fill:url(#Trazado_26271_3_);}
	.st279{fill:url(#Trazado_26272_3_);}
	.st280{fill:url(#Trazado_26273_3_);}
	.st281{fill:url(#Trazado_26274_3_);}
	.st282{fill:url(#Trazado_26275_3_);}
	.st283{fill:url(#Trazado_26276_3_);}
	.st284{fill:url(#Trazado_26277_3_);}
	.st285{fill:url(#Trazado_26278_3_);}
	.st286{fill:url(#Trazado_26279_3_);}
	.st287{fill:url(#Trazado_26284_3_);}
	.st288{fill:url(#Trazado_26285_3_);}
	.st289{fill:url(#Trazado_26230_3_);}
	.st290{fill:url(#Trazado_26231_3_);}
	.st291{fill:url(#Trazado_26232_3_);}
	.st292{fill:url(#Rectángulo_3918_3_);}
	.st293{fill:url(#Rectángulo_3919_3_);}
	.st294{fill:url(#Rectángulo_3920_3_);}
	.st295{fill:url(#Rectángulo_3921_3_);}
	.st296{fill:url(#Rectángulo_3922_3_);}
	.st297{fill:url(#Rectángulo_3923_3_);}
	.st298{fill:url(#Rectángulo_3924_3_);}
	.st299{fill:url(#Rectángulo_3925_3_);}
	.st300{fill:none;stroke:#006495;stroke-linecap:square;stroke-miterlimit:10;stroke-dasharray:2,2;}
	.st301{fill:#262944;}
	.st302{fill:none;stroke:#FFFFFF;stroke-miterlimit:10;}
	.st303{fill:url(#Trazado_24869_4_);}
	.st304{fill:url(#Trazado_26191_5_);}
	.st305{fill:url(#Trazado_26192_5_);}
	.st306{fill:url(#Trazado_26193_5_);}
	.st307{fill:url(#Trazado_26194_5_);}
	.st308{fill:url(#Trazado_26195_5_);}
	.st309{fill:url(#Trazado_26196_5_);}
	.st310{fill:url(#Trazado_26197_5_);}
	.st311{fill:url(#Trazado_26198_6_);}
	.st312{fill:url(#Trazado_26199_6_);}
	.st313{fill:url(#Trazado_26200_6_);}
	.st314{fill:url(#Trazado_26201_6_);}
	.st315{fill:url(#Trazado_26202_6_);}
	.st316{fill:url(#Trazado_26203_6_);}
	.st317{fill:url(#Trazado_26204_6_);}
	.st318{fill:url(#Trazado_26205_6_);}
	.st319{fill:url(#Trazado_26206_6_);}
	.st320{fill:url(#Trazado_26207_6_);}
	.st321{fill:url(#Trazado_26208_6_);}
	.st322{fill:url(#Trazado_26209_6_);}
	.st323{fill:url(#Trazado_26210_6_);}
	.st324{fill:url(#Trazado_26211_6_);}
	.st325{fill:url(#Trazado_26212_6_);}
	.st326{fill:url(#Trazado_26213_6_);}
	.st327{fill:url(#Trazado_26214_6_);}
	.st328{fill:url(#Trazado_26215_6_);}
	.st329{fill:url(#Trazado_26216_6_);}
	.st330{fill:url(#Trazado_26217_6_);}
	.st331{fill:url(#Trazado_26218_6_);}
	.st332{fill:url(#Trazado_24566_10_);}
	.st333{fill:url(#Trazado_24567_10_);}
	.st334{fill:url(#Trazado_24568_10_);}
	.st335{fill:url(#Trazado_24569_10_);}
	.st336{fill:url(#Trazado_24570_10_);}
	.st337{fill:url(#Trazado_24571_10_);}
	.st338{fill:url(#Trazado_24572_10_);}
	.st339{fill:url(#Trazado_26354_3_);}
</style>
<g id="administrador_1_" transform="translate(1)">
	<path id="Trazado_26198_3_" class="st2" d="M54.15,44.66c-0.83,0-1.64,0.23-2.35,0.66l-6.78-6.78c0.41-0.62,0.7-1.31,0.85-2.04
		h8.44c0.64,2.49,3.19,3.99,5.68,3.35c2.49-0.64,3.99-3.19,3.35-5.68c-0.64-2.49-3.19-3.99-5.68-3.35
		c-1.64,0.42-2.93,1.71-3.35,3.35h-8.44c-0.15-0.73-0.44-1.42-0.85-2.04l6.78-6.78c0.71,0.43,1.52,0.66,2.35,0.66
		c2.58,0,4.66-2.09,4.66-4.66s-2.09-4.66-4.66-4.66c-2.58,0-4.66,2.09-4.66,4.66c0,0.83,0.23,1.64,0.66,2.35l-6.78,6.78
		c-2.68-1.78-6.3-1.05-8.08,1.64c-1.78,2.68-1.05,6.3,1.64,8.08c1.95,1.29,4.49,1.29,6.44,0l6.78,6.78
		c-0.43,0.71-0.66,1.52-0.66,2.35c0,2.58,2.08,4.66,4.66,4.67c2.58,0,4.66-2.08,4.67-4.66C58.82,46.76,56.73,44.67,54.15,44.66
		C54.15,44.66,54.15,44.66,54.15,44.66z M58.81,33.01c1.29,0,2.33,1.04,2.33,2.33s-1.04,2.33-2.33,2.33c-1.29,0-2.33-1.04-2.33-2.33
		v0C56.48,34.05,57.53,33.01,58.81,33.01z M54.15,19.02c1.29,0,2.33,1.04,2.33,2.33s-1.04,2.33-2.33,2.33
		c-1.29,0-2.33-1.04-2.33-2.33v0C51.82,20.06,52.86,19.02,54.15,19.02z M40.17,38.83c-1.93,0-3.5-1.57-3.5-3.5s1.57-3.5,3.5-3.5
		s3.5,1.57,3.5,3.5C43.66,37.27,42.1,38.83,40.17,38.83C40.17,38.84,40.17,38.84,40.17,38.83L40.17,38.83z M54.15,51.65
		c-1.29,0-2.33-1.04-2.33-2.33s1.04-2.33,2.33-2.33c1.29,0,2.33,1.04,2.33,2.33v0C56.48,50.61,55.44,51.65,54.15,51.65
		C54.15,51.66,54.15,51.66,54.15,51.65L54.15,51.65z"/>
	<path id="Trazado_26199_3_" class="st2" d="M70.47,5.04H37.83c-1.93,0-3.5,1.57-3.5,3.5v19.81h2.33V14.36h34.96v31.47
		c0,0.64-0.52,1.17-1.17,1.17l0,0h-9.32v2.33h9.32c1.93,0,3.5-1.57,3.5-3.5V8.53C73.96,6.6,72.4,5.04,70.47,5.04z M36.67,12.03v-3.5
		c0-0.64,0.52-1.17,1.17-1.17l0,0h32.63c0.64,0,1.17,0.52,1.17,1.17c0,0,0,0,0,0v3.5H36.67z"/>
	<path id="Trazado_26200_3_" class="st2" d="M37.83,49.32h9.32v-2.33h-9.32c-0.64,0-1.17-0.52-1.17-1.17v-3.5h-2.33v3.5
		C34.34,47.76,35.9,49.32,37.83,49.32z"/>
	<path id="Trazado_26201_3_" class="st2" d="M52.99,62.14H41.33v2.33h12.82c0.64,0,1.17-0.52,1.17-1.16v-6.99h-2.33V62.14z"/>
	<path id="Trazado_26202_3_" class="st2" d="M41.33,66.81h2.33v2.33h-2.33V66.81z"/>
	<path id="Trazado_26203_3_" class="st2" d="M45.99,66.81h2.33v2.33h-2.33V66.81z"/>
	<path id="Trazado_26204_3_" class="st2" d="M57.65,56.32h2.33v2.33h-2.33V56.32z"/>
	<path id="Trazado_26205_3_" class="st2" d="M57.65,60.98h2.33v2.33h-2.33V60.98z"/>
	<path id="Trazado_26206_3_" class="st2" d="M50.66,66.81h2.33v2.33h-2.33V66.81z"/>
	<path id="Trazado_26207_3_" class="st2" d="M13.36,16.69v2.33h11.17l-1.51,1.51l1.65,1.65l3.5-3.5c0.46-0.46,0.46-1.19,0-1.65
		l-3.5-3.5l-1.65,1.65l1.51,1.51H13.36z"/>
	<path id="Trazado_26208_3_" class="st2" d="M39,8.53h2.33v2.33H39V8.53z"/>
	<path id="Trazado_26209_3_" class="st2" d="M43.66,8.53h2.33v2.33h-2.33V8.53z"/>
	<path id="Trazado_26210_3_" class="st2" d="M48.32,8.53h2.33v2.33h-2.33V8.53z"/>
	<path id="Trazado_26211_3_" class="st2" d="M8.7,16.69h2.33v2.33H8.7V16.69z"/>
	<path id="Trazado_26212_3_" class="st2" d="M4.04,16.69h2.33v2.33H4.04V16.69z"/>
	<path id="Trazado_26213_3_" class="st2" d="M12.2,9.7h6.99v2.33H12.2V9.7z"/>
	<path id="Trazado_26214_3_" class="st2" d="M7.53,9.7h2.33v2.33H7.53V9.7z"/>
	<path id="Trazado_26215_3_" class="st2" d="M32.99,53.78l-6.82-1.85v-1.75c2.19-1.52,3.5-4.02,3.5-6.69v-1.16
		c0.64,0,1.17-0.52,1.17-1.17l0,0v-3.5c-0.01-5.14-4.17-9.31-9.32-9.32H11.03c-1.29,0-2.33,1.04-2.33,2.33v5.83
		c-0.01,2.65,1.78,4.97,4.35,5.63c0.1,0.03,0.21,0.04,0.32,0.06v1.3c0,2.67,1.31,5.16,3.5,6.69v1.75l-6.82,1.85
		c-3.54,0.98-5.99,4.2-6,7.87V73.8c0,0.64,0.52,1.17,1.17,1.17c0,0,0,0,0,0h32.63c0.64,0,1.17-0.52,1.17-1.17l0,0V61.65
		C38.99,57.98,36.53,54.76,32.99,53.78z M11.03,36.5v-5.83h10.49c3.86,0,6.99,3.13,6.99,6.99V40h-0.77c-1.07,0-2-0.73-2.26-1.76
		l-0.5-2.02c-0.11-0.44-0.46-0.77-0.9-0.86c-0.08-0.02-0.15-0.02-0.23-0.02c-0.37,0-0.71,0.17-0.93,0.47l-0.7,0.93
		c-0.42,0.55-0.9,1.04-1.44,1.48C19.34,39.37,17.54,40,15.69,40h-1.17c-0.3,0-0.59-0.04-0.87-0.12
		C12.11,39.49,11.03,38.1,11.03,36.5z M15.69,43.5v-1.17c2.39,0,4.7-0.81,6.56-2.31c0.37-0.3,0.72-0.62,1.05-0.96
		c0.57,1.8,2.17,3.08,4.05,3.24v1.2c0,3.22-2.61,5.83-5.83,5.83S15.7,46.72,15.69,43.5L15.69,43.5L15.69,43.5z M21.52,51.65
		c0.79,0,1.57-0.12,2.33-0.35v1.52c0,0.34,0.15,0.66,0.41,0.87l-2.74,2.27l-2.74-2.27c0.26-0.22,0.41-0.54,0.41-0.87V51.3
		C19.94,51.53,20.73,51.65,21.52,51.65z M36.67,72.63h-3.5V62.14h-2.33v10.49H12.2V62.14H9.86v10.49h-3.5V61.65
		c0.01-2.62,1.76-4.92,4.29-5.62l5.5-1.49l4.62,3.85c0.43,0.36,1.06,0.36,1.49,0l4.62-3.85l5.49,1.49c2.53,0.7,4.29,3,4.3,5.62
		L36.67,72.63z"/>
</g>
</svg>
