<?xml version="1.0" encoding="utf-8"?>
<!-- Generator: Adobe Illustrator 25.2.1, SVG Export Plug-In . SVG Version: 6.00 Build 0)  -->
<svg version="1.1" id="Capa_1" xmlns="http://www.w3.org/2000/svg" xmlns:xlink="http://www.w3.org/1999/xlink" x="0px" y="0px"
	 viewBox="0 0 80 80" style="enable-background:new 0 0 80 80;" xml:space="preserve">
<style type="text/css">
	.st0{fill:#6E6E6E;}
	.st1{fill:#F6F7F9;}
	.st2{fill:#FFFFFF;}
	.st3{fill:#DCDCDC;}
	.st4{fill:url(#Trazado_26198_4_);}
	.st5{fill:url(#Trazado_26199_4_);}
	.st6{fill:url(#Trazado_26200_4_);}
	.st7{fill:url(#Trazado_26201_4_);}
	.st8{fill:url(#Trazado_26202_4_);}
	.st9{fill:url(#Trazado_26203_4_);}
	.st10{fill:url(#Trazado_26204_4_);}
	.st11{fill:url(#Trazado_26205_4_);}
	.st12{fill:url(#Trazado_26206_4_);}
	.st13{fill:url(#Trazado_26207_4_);}
	.st14{fill:url(#Trazado_26208_4_);}
	.st15{fill:url(#Trazado_26209_4_);}
	.st16{fill:url(#Trazado_26210_4_);}
	.st17{fill:url(#Trazado_26211_4_);}
	.st18{fill:url(#Trazado_26212_4_);}
	.st19{fill:url(#Trazado_26213_4_);}
	.st20{fill:url(#Trazado_26214_4_);}
	.st21{fill:url(#Trazado_26215_4_);}
	.st22{fill:url(#Trazado_24566_6_);}
	.st23{fill:url(#Trazado_24567_6_);}
	.st24{fill:url(#Trazado_24568_6_);}
	.st25{fill:url(#Trazado_24569_6_);}
	.st26{fill:url(#Trazado_24570_6_);}
	.st27{fill:url(#Trazado_24571_6_);}
	.st28{fill:url(#Trazado_24572_6_);}
	.st29{fill:url(#Trazado_26216_4_);}
	.st30{fill:url(#Trazado_26217_4_);}
	.st31{fill:url(#Trazado_26218_4_);}
	.st32{fill:url(#Trazado_26336_1_);}
	.st33{fill:url(#Unión_52_1_);}
	.st34{fill:url(#Trazado_904_2_);}
	.st35{fill:url(#Trazado_905_2_);}
	.st36{fill:url(#Trazado_906_2_);}
	.st37{fill:url(#Trazado_24631_2_);}
	.st38{fill:url(#Trazado_24632_2_);}
	.st39{fill:url(#Trazado_24633_2_);}
	.st40{fill:url(#Trazado_24634_2_);}
	.st41{fill:url(#Trazado_24635_2_);}
	.st42{fill:url(#Trazado_24636_2_);}
	.st43{fill:url(#Trazado_24637_2_);}
	.st44{fill:url(#Trazado_24638_2_);}
	.st45{fill:url(#Trazado_24639_2_);}
	.st46{fill:url(#Trazado_24640_2_);}
	.st47{fill:url(#Trazado_884_1_);}
	.st48{fill:url(#Trazado_24616_1_);}
	.st49{fill:url(#Trazado_24617_1_);}
	.st50{fill:url(#Trazado_24618_1_);}
	.st51{fill:url(#Trazado_24619_1_);}
	.st52{fill:url(#Trazado_24620_1_);}
	.st53{fill:url(#Trazado_24621_1_);}
	.st54{fill:url(#Trazado_24622_1_);}
	.st55{fill:none;stroke:#CCCCCC;}
	.st56{fill:url(#Trazado_904-2_2_);}
	.st57{fill:url(#Trazado_905-2_2_);}
	.st58{fill:url(#Trazado_906-2_2_);}
	.st59{fill:url(#Trazado_24631-2_2_);}
	.st60{fill:url(#Trazado_24632-2_2_);}
	.st61{fill:url(#Trazado_24633-2_2_);}
	.st62{fill:url(#Trazado_24634-2_2_);}
	.st63{fill:url(#Trazado_24635-2_2_);}
	.st64{fill:url(#Trazado_24636-2_2_);}
	.st65{fill:url(#Trazado_24637-2_2_);}
	.st66{fill:url(#Trazado_24638-2_2_);}
	.st67{fill:url(#Trazado_24639-2_2_);}
	.st68{fill:url(#Trazado_24640-2_2_);}
	.st69{fill:url(#Trazado_884-2_1_);}
	.st70{fill:url(#Trazado_24616-2_1_);}
	.st71{fill:url(#Trazado_24617-2_1_);}
	.st72{fill:url(#Trazado_24618-2_1_);}
	.st73{fill:url(#Trazado_24619-2_1_);}
	.st74{fill:url(#Trazado_24620-2_1_);}
	.st75{fill:url(#Trazado_24621-2_1_);}
	.st76{fill:url(#Trazado_24622-2_1_);}
	.st77{fill:url(#Trazado_26355_1_);}
	.st78{opacity:0.2;fill:#26F70F;}
	.st79{fill:#F90D0D;}
	.st80{fill:none;stroke:#F90D0D;stroke-miterlimit:10;}
	.st81{fill:none;stroke:#FF2929;stroke-miterlimit:10;}
	.st82{opacity:0.2;}
	.st83{fill:#FF2929;}
	.st84{opacity:0.2;fill:#FF2929;}
	.st85{fill:#3366CC;}
	.st86{fill:none;stroke:#FFFFFF;}
	.st87{fill:#0070BA;}
	.st88{fill:#E3134D;}
	.st89{fill:#FEC20A;}
	.st90{fill:#70AF3D;}
	.st91{fill:#9B156E;}
	.st92{fill:#FBD015;}
	.st93{fill:#05569E;}
	.st94{fill:#D11F3E;}
	.st95{fill:none;}
	.st96{fill-rule:evenodd;clip-rule:evenodd;fill:#3366CC;}
	.st97{fill:none;stroke:#707070;}
	.st98{stroke:#FF2929;stroke-width:4;stroke-miterlimit:10;}
	.st99{fill:none;stroke:#FF2929;stroke-width:4;stroke-miterlimit:10;}
	.st100{fill:none;stroke:#000000;stroke-miterlimit:10;}
	.st101{fill:#41D78C;}
	.st102{fill:url(#Trazado_24869_3_);}
	.st103{fill:url(#Trazado_26191_4_);}
	.st104{fill:url(#Trazado_26192_4_);}
	.st105{fill:url(#Trazado_26193_4_);}
	.st106{fill:url(#Trazado_26194_4_);}
	.st107{fill:url(#Trazado_26195_4_);}
	.st108{fill:url(#Trazado_26196_4_);}
	.st109{fill:url(#Trazado_26197_4_);}
	.st110{fill:url(#Trazado_26198_5_);}
	.st111{fill:url(#Trazado_26199_5_);}
	.st112{fill:url(#Trazado_26200_5_);}
	.st113{fill:url(#Trazado_26201_5_);}
	.st114{fill:url(#Trazado_26202_5_);}
	.st115{fill:url(#Trazado_26203_5_);}
	.st116{fill:url(#Trazado_26204_5_);}
	.st117{fill:url(#Trazado_26205_5_);}
	.st118{fill:url(#Trazado_26206_5_);}
	.st119{fill:url(#Trazado_26207_5_);}
	.st120{fill:url(#Trazado_26208_5_);}
	.st121{fill:url(#Trazado_26209_5_);}
	.st122{fill:url(#Trazado_26210_5_);}
	.st123{fill:url(#Trazado_26211_5_);}
	.st124{fill:url(#Trazado_26212_5_);}
	.st125{fill:url(#Trazado_26213_5_);}
	.st126{fill:url(#Trazado_26214_5_);}
	.st127{fill:url(#Trazado_26215_5_);}
	.st128{fill:url(#Trazado_26216_5_);}
	.st129{fill:url(#Trazado_26217_5_);}
	.st130{fill:url(#Trazado_26218_5_);}
	.st131{fill:url(#Trazado_24566_7_);}
	.st132{fill:url(#Trazado_24567_7_);}
	.st133{fill:url(#Trazado_24568_7_);}
	.st134{fill:url(#Trazado_24569_7_);}
	.st135{fill:url(#Trazado_24570_7_);}
	.st136{fill:url(#Trazado_24571_7_);}
	.st137{fill:url(#Trazado_24572_7_);}
	.st138{fill:url(#Unión_55_1_);}
	.st139{fill:url(#Trazado_904_3_);}
	.st140{fill:url(#Trazado_905_3_);}
	.st141{fill:url(#Trazado_906_3_);}
	.st142{fill:url(#Trazado_24631_3_);}
	.st143{fill:url(#Trazado_24632_3_);}
	.st144{fill:url(#Trazado_24633_3_);}
	.st145{fill:url(#Trazado_24634_3_);}
	.st146{fill:url(#Trazado_24635_3_);}
	.st147{fill:url(#Trazado_24636_3_);}
	.st148{fill:url(#Trazado_24637_3_);}
	.st149{fill:url(#Trazado_24638_3_);}
	.st150{fill:url(#Trazado_24639_3_);}
	.st151{fill:url(#Trazado_24640_3_);}
	.st152{fill:url(#Rectángulo_3914-2_1_);}
	.st153{clip-path:url(#SVGID_6_);fill:#EBEEF0;}
	.st154{clip-path:url(#SVGID_6_);}
	.st155{opacity:0.2;clip-path:url(#SVGID_6_);fill:#26F70F;}
	.st156{opacity:0.1;clip-path:url(#SVGID_6_);}
	.st157{opacity:0.2;fill:#F90D0D;}
	.st158{fill:none;stroke:#FF0000;stroke-width:5;stroke-miterlimit:10;}
	.st159{clip-path:url(#SVGID_14_);fill:#EBEEF0;}
	.st160{clip-path:url(#SVGID_14_);}
	.st161{opacity:0.2;clip-path:url(#SVGID_14_);fill:#26F70F;}
	.st162{fill:none;stroke:#26F70F;stroke-width:7;stroke-miterlimit:10;}
	.st163{fill:url(#Rectángulo_3928_2_);}
	.st164{fill:#F0F2F4;}
	.st165{opacity:0.28;fill:none;stroke:#BEC8D2;enable-background:new    ;}
	.st166{fill:none;stroke:#E2E7EB;}
	.st167{fill:#00B4DC;}
	.st168{fill:url(#Trazado_24687_2_);}
	.st169{fill:url(#Trazado_24688_2_);}
	.st170{fill:url(#Trazado_24689_2_);}
	.st171{fill:url(#Trazado_24690_2_);}
	.st172{fill:url(#Rectángulo_1733_2_);}
	.st173{fill:url(#Rectángulo_1734_2_);}
	.st174{fill:url(#Rectángulo_1735_2_);}
	.st175{fill:url(#Trazado_24566_8_);}
	.st176{fill:url(#Trazado_24567_8_);}
	.st177{fill:url(#Trazado_24568_8_);}
	.st178{fill:url(#Trazado_24569_8_);}
	.st179{fill:url(#Trazado_24570_8_);}
	.st180{fill:url(#Trazado_24571_8_);}
	.st181{fill:url(#Trazado_24572_8_);}
	.st182{fill:url(#Trazado_26237_2_);}
	.st183{fill:url(#Trazado_26238_2_);}
	.st184{fill:url(#Trazado_26242_2_);}
	.st185{fill:url(#Trazado_26243_2_);}
	.st186{fill:url(#Trazado_26244_2_);}
	.st187{fill:url(#Trazado_26245_2_);}
	.st188{fill:url(#Trazado_26246_2_);}
	.st189{fill:url(#Trazado_26247_2_);}
	.st190{fill:url(#Trazado_26248_2_);}
	.st191{fill:url(#Trazado_26249_2_);}
	.st192{fill:url(#Trazado_26250_2_);}
	.st193{fill:url(#Trazado_26251_2_);}
	.st194{fill:url(#Trazado_26252_2_);}
	.st195{fill:url(#Trazado_26253_2_);}
	.st196{fill:url(#Trazado_26254_2_);}
	.st197{fill:url(#Trazado_26255_2_);}
	.st198{fill:url(#Trazado_26256_2_);}
	.st199{fill:url(#Trazado_26257_2_);}
	.st200{fill:url(#Trazado_26258_2_);}
	.st201{fill:url(#Trazado_26259_2_);}
	.st202{fill:url(#Trazado_26260_2_);}
	.st203{fill:url(#Trazado_26261_2_);}
	.st204{fill:url(#Trazado_26262_2_);}
	.st205{fill:url(#Trazado_26263_2_);}
	.st206{fill:url(#Trazado_26264_2_);}
	.st207{fill:url(#Trazado_26265_2_);}
	.st208{fill:url(#Trazado_26266_2_);}
	.st209{fill:url(#Trazado_26267_2_);}
	.st210{fill:url(#Trazado_26268_2_);}
	.st211{fill:url(#Trazado_26269_2_);}
	.st212{fill:url(#Trazado_26270_2_);}
	.st213{fill:url(#Trazado_26271_2_);}
	.st214{fill:url(#Trazado_26272_2_);}
	.st215{fill:url(#Trazado_26273_2_);}
	.st216{fill:url(#Trazado_26274_2_);}
	.st217{fill:url(#Trazado_26275_2_);}
	.st218{fill:url(#Trazado_26276_2_);}
	.st219{fill:url(#Trazado_26277_2_);}
	.st220{fill:url(#Trazado_26278_2_);}
	.st221{fill:url(#Trazado_26279_2_);}
	.st222{fill:url(#Trazado_26284_2_);}
	.st223{fill:url(#Trazado_26285_2_);}
	.st224{fill:url(#Trazado_26230_2_);}
	.st225{fill:url(#Trazado_26231_2_);}
	.st226{fill:url(#Trazado_26232_2_);}
	.st227{fill:url(#Rectángulo_3918_2_);}
	.st228{fill:url(#Rectángulo_3919_2_);}
	.st229{fill:url(#Rectángulo_3920_2_);}
	.st230{fill:url(#Rectángulo_3921_2_);}
	.st231{fill:url(#Rectángulo_3922_2_);}
	.st232{fill:url(#Rectángulo_3923_2_);}
	.st233{fill:url(#Rectángulo_3924_2_);}
	.st234{fill:url(#Rectángulo_3925_2_);}
	.st235{fill:url(#Rectángulo_3928_3_);}
	.st236{fill:url(#Trazado_24566_9_);}
	.st237{fill:url(#Trazado_24567_9_);}
	.st238{fill:url(#Trazado_24568_9_);}
	.st239{fill:url(#Trazado_24569_9_);}
	.st240{fill:url(#Trazado_24570_9_);}
	.st241{fill:url(#Trazado_24571_9_);}
	.st242{fill:url(#Trazado_24572_9_);}
	.st243{fill:url(#Trazado_26233_2_);}
	.st244{fill:url(#Trazado_26234_2_);}
	.st245{fill:url(#Trazado_26235_2_);}
	.st246{fill:url(#Trazado_26236_2_);}
	.st247{fill:url(#Trazado_26237_3_);}
	.st248{fill:url(#Trazado_26238_3_);}
	.st249{fill:url(#Trazado_26242_3_);}
	.st250{fill:url(#Trazado_26243_3_);}
	.st251{fill:url(#Trazado_26244_3_);}
	.st252{fill:url(#Trazado_26245_3_);}
	.st253{fill:url(#Trazado_26246_3_);}
	.st254{fill:url(#Trazado_26247_3_);}
	.st255{fill:url(#Trazado_26248_3_);}
	.st256{fill:url(#Trazado_26249_3_);}
	.st257{fill:url(#Trazado_26250_3_);}
	.st258{fill:url(#Trazado_26251_3_);}
	.st259{fill:url(#Trazado_26252_3_);}
	.st260{fill:url(#Trazado_26253_3_);}
	.st261{fill:url(#Trazado_26254_3_);}
	.st262{fill:url(#Trazado_26255_3_);}
	.st263{fill:url(#Trazado_26256_3_);}
	.st264{fill:url(#Trazado_26257_3_);}
	.st265{fill:url(#Trazado_26258_3_);}
	.st266{fill:url(#Trazado_26259_3_);}
	.st267{fill:url(#Trazado_26260_3_);}
	.st268{fill:url(#Trazado_26261_3_);}
	.st269{fill:url(#Trazado_26262_3_);}
	.st270{fill:url(#Trazado_26263_3_);}
	.st271{fill:url(#Trazado_26264_3_);}
	.st272{fill:url(#Trazado_26265_3_);}
	.st273{fill:url(#Trazado_26266_3_);}
	.st274{fill:url(#Trazado_26267_3_);}
	.st275{fill:url(#Trazado_26268_3_);}
	.st276{fill:url(#Trazado_26269_3_);}
	.st277{fill:url(#Trazado_26270_3_);}
	.st278{fill:url(#Trazado_26271_3_);}
	.st279{fill:url(#Trazado_26272_3_);}
	.st280{fill:url(#Trazado_26273_3_);}
	.st281{fill:url(#Trazado_26274_3_);}
	.st282{fill:url(#Trazado_26275_3_);}
	.st283{fill:url(#Trazado_26276_3_);}
	.st284{fill:url(#Trazado_26277_3_);}
	.st285{fill:url(#Trazado_26278_3_);}
	.st286{fill:url(#Trazado_26279_3_);}
	.st287{fill:url(#Trazado_26284_3_);}
	.st288{fill:url(#Trazado_26285_3_);}
	.st289{fill:url(#Trazado_26230_3_);}
	.st290{fill:url(#Trazado_26231_3_);}
	.st291{fill:url(#Trazado_26232_3_);}
	.st292{fill:url(#Rectángulo_3918_3_);}
	.st293{fill:url(#Rectángulo_3919_3_);}
	.st294{fill:url(#Rectángulo_3920_3_);}
	.st295{fill:url(#Rectángulo_3921_3_);}
	.st296{fill:url(#Rectángulo_3922_3_);}
	.st297{fill:url(#Rectángulo_3923_3_);}
	.st298{fill:url(#Rectángulo_3924_3_);}
	.st299{fill:url(#Rectángulo_3925_3_);}
	.st300{fill:none;stroke:#006495;stroke-linecap:square;stroke-miterlimit:10;stroke-dasharray:2,2;}
	.st301{fill:#262944;}
	.st302{fill:none;stroke:#FFFFFF;stroke-miterlimit:10;}
	.st303{fill:url(#Trazado_24869_4_);}
	.st304{fill:url(#Trazado_26191_5_);}
	.st305{fill:url(#Trazado_26192_5_);}
	.st306{fill:url(#Trazado_26193_5_);}
	.st307{fill:url(#Trazado_26194_5_);}
	.st308{fill:url(#Trazado_26195_5_);}
	.st309{fill:url(#Trazado_26196_5_);}
	.st310{fill:url(#Trazado_26197_5_);}
	.st311{fill:url(#Trazado_26198_6_);}
	.st312{fill:url(#Trazado_26199_6_);}
	.st313{fill:url(#Trazado_26200_6_);}
	.st314{fill:url(#Trazado_26201_6_);}
	.st315{fill:url(#Trazado_26202_6_);}
	.st316{fill:url(#Trazado_26203_6_);}
	.st317{fill:url(#Trazado_26204_6_);}
	.st318{fill:url(#Trazado_26205_6_);}
	.st319{fill:url(#Trazado_26206_6_);}
	.st320{fill:url(#Trazado_26207_6_);}
	.st321{fill:url(#Trazado_26208_6_);}
	.st322{fill:url(#Trazado_26209_6_);}
	.st323{fill:url(#Trazado_26210_6_);}
	.st324{fill:url(#Trazado_26211_6_);}
	.st325{fill:url(#Trazado_26212_6_);}
	.st326{fill:url(#Trazado_26213_6_);}
	.st327{fill:url(#Trazado_26214_6_);}
	.st328{fill:url(#Trazado_26215_6_);}
	.st329{fill:url(#Trazado_26216_6_);}
	.st330{fill:url(#Trazado_26217_6_);}
	.st331{fill:url(#Trazado_26218_6_);}
	.st332{fill:url(#Trazado_24566_10_);}
	.st333{fill:url(#Trazado_24567_10_);}
	.st334{fill:url(#Trazado_24568_10_);}
	.st335{fill:url(#Trazado_24569_10_);}
	.st336{fill:url(#Trazado_24570_10_);}
	.st337{fill:url(#Trazado_24571_10_);}
	.st338{fill:url(#Trazado_24572_10_);}
	.st339{fill:url(#Trazado_26354_3_);}
</style>
<path id="Trazado_26354_1_" class="st2" d="M15.76,42.97c0-0.55,0.45-1,1-1l0,0h29.62c0.55,0,1,0.45,1,1c0,0.55-0.45,1-1,1
	c0,0,0,0,0,0H16.76C16.21,43.97,15.76,43.53,15.76,42.97C15.76,42.97,15.76,42.97,15.76,42.97z M16.76,37.47h29.62
	c0.55,0,1-0.45,1-1c0-0.55-0.45-1-1-1H16.76c-0.55,0-1,0.45-1,1c0,0,0,0,0,0l0,0C15.76,37.02,16.21,37.47,16.76,37.47
	C16.76,37.47,16.76,37.47,16.76,37.47L16.76,37.47z M16.76,50.46h24.22c0.55,0,1-0.45,1-1c0-0.55-0.45-1-1-1H16.76
	c-0.55,0-1,0.45-1,1C15.76,50.01,16.21,50.46,16.76,50.46L16.76,50.46z M73.1,20.8l-4.35,14.56c-0.16,0.53-0.71,0.83-1.24,0.67
	c-0.53-0.16-0.83-0.71-0.67-1.24l0,0l4.06-13.61l-2.37-0.7l-4.65,15.58c-0.16,0.53-0.72,0.83-1.25,0.68
	c-0.53-0.16-0.83-0.72-0.68-1.25l0,0l4.93-16.53v-0.01l0.88-2.96c0.02-0.05,0.01-0.1-0.01-0.14c-0.02-0.04-0.06-0.08-0.11-0.09l0,0
	l-5.18-1.55c-0.1-0.03-0.2,0.03-0.23,0.13l-1.94,6.49l-2,6.69l-7.85,26.3L56,55.47l2.31-7.75l2-6.69l0.35-1.18
	c0.16-0.53,0.71-0.83,1.24-0.67c0.53,0.16,0.83,0.71,0.67,1.24l-2.27,7.59v24.18c0,1.04-0.84,1.88-1.88,1.88H21.48
	c-0.55,0-1-0.45-1-1s0.45-1,1-1h36.84V54.69l-0.69,2.3c0,0.01-0.01,0.02-0.01,0.03c-0.01,0.02-0.01,0.04-0.02,0.05
	c0,0.01,0,0.01,0,0.02c-0.01,0.02-0.02,0.05-0.03,0.07c0,0,0,0.01,0,0.01l-0.04,0.06l-0.01,0.02c-0.01,0.02-0.03,0.04-0.05,0.06
	l-0.01,0.02l-3.17,3.82l-2.95,3.55l-0.03,0.03c-0.07,0.08-0.14,0.15-0.22,0.22h-0.01l0,0c-0.12,0.11-0.26,0.18-0.41,0.23h-0.02
	h-0.02h-0.01l0,0h-0.02c-0.05,0.01-0.1,0.02-0.16,0.02h-0.03c-1.68,0.09-3.25-0.87-3.93-2.41c-0.05-0.08-0.1-0.17-0.16-0.25
	c-0.09,0.14-0.19,0.32-0.27,0.47c-0.27,0.51-0.58,0.99-0.93,1.45c-0.43,0.64-1.12,1.06-1.89,1.14h-0.13
	c-0.91-0.09-1.75-0.54-2.33-1.25c-0.28-0.28-0.42-0.31-0.42-0.31c-0.2,0.11-0.38,0.25-0.55,0.41c-0.97,1.15-2.68,1.29-3.83,0.32
	c-0.13-0.11-0.24-0.22-0.34-0.35c-0.41-0.37-0.43-1.01-0.06-1.41c0.37-0.41,1.01-0.43,1.41-0.06c0.35,0.32,0.66,0.49,0.82,0.47
	c0.26-0.11,0.49-0.27,0.69-0.48c0.81-1.02,2.3-1.19,3.33-0.38c0.13,0.11,0.26,0.23,0.36,0.36c0.65,0.65,0.87,0.67,0.92,0.67
	s0.21-0.09,0.44-0.38c0.28-0.38,0.54-0.77,0.76-1.19c0.42-0.75,0.85-1.52,1.78-1.7c1.1-0.21,1.67,0.73,2.1,1.41
	c0.24,0.48,0.59,0.9,1,1.23l0,0l-0.95-8.43l0,0v-0.05c0-0.02,0-0.04,0-0.06s0-0.04,0-0.07c0-0.03,0-0.05,0-0.08
	c0-0.02,0-0.04,0.01-0.06s0.01-0.05,0.02-0.07v-0.02l10.05-33.67v-1.25H52.2c-2.49,0-4.52-2.03-4.52-4.52V9.07H8.84v62.96h8.22
	c0.55,0,1,0.45,1,1c0,0.55-0.45,1-1,1H8.72c-1.04,0-1.87-0.84-1.87-1.88V8.99c0-1.04,0.84-1.88,1.87-1.88h39.74
	c0.2,0,0.4,0.04,0.58,0.11l0.06,0.03l0,0l0,0l0.07,0.03l0,0l0,0l0.07,0.04c0.19,0.13,0.37,0.28,0.54,0.45l0.14,0.14l9.46,9.03
	l0.96-3.2c0.24-0.78,0.89-1.37,1.69-1.52l1.11-3.71c0.62-1.95,2.71-3.02,4.65-2.4c1.9,0.61,2.97,2.6,2.44,4.52l-1.11,3.71
	c0.59,0.57,0.81,1.42,0.58,2.2l-0.6,2.01l3.32,0.99l0,0c0.53,0.15,0.83,0.71,0.68,1.24C73.11,20.79,73.11,20.79,73.1,20.8L73.1,20.8
	z M56.83,17.28l-7.17-6.83l0,0v4.31c0,1.39,1.13,2.52,2.52,2.52H56.83z M16.76,56.96h8.09c0.55,0,1-0.45,1-1c0-0.55-0.45-1-1-1
	h-8.08c-0.55,0-1,0.45-1,1C15.76,56.51,16.21,56.96,16.76,56.96L16.76,56.96z M15.9,15.34v7.73c0,0.59,0.48,1.08,1.08,1.08h22.4
	c0.04,0,0.08,0,0.11,0c0.58-0.03,1.02-0.53,0.99-1.11c-0.03-0.58-0.53-1.02-1.11-0.99H17.99v-5.67h14.66c0.58,0,1.05-0.47,1.05-1.05
	c0-0.01,0-0.03,0-0.04c-0.05-0.57-0.54-1.01-1.11-1H16.94c-0.58,0-1.05,0.47-1.05,1.05C15.89,15.33,15.89,15.33,15.9,15.34
	L15.9,15.34z M15.97,30.86c0-0.55,0.45-1,1-1l0,0h29.62c0.55,0,1,0.45,1,1c0,0.55-0.45,1-1,1c0,0,0,0,0,0H16.97
	C16.42,31.86,15.97,31.41,15.97,30.86C15.97,30.86,15.97,30.86,15.97,30.86L15.97,30.86z"/>
</svg>
