<?xml version="1.0" encoding="utf-8"?>
<!-- Generator: Adobe Illustrator 25.2.1, SVG Export Plug-In . SVG Version: 6.00 Build 0)  -->
<svg version="1.1" id="Capa_1" xmlns="http://www.w3.org/2000/svg" xmlns:xlink="http://www.w3.org/1999/xlink" x="0px" y="0px"
	 viewBox="0 0 143.18 143.19" style="enable-background:new 0 0 143.18 143.19;" xml:space="preserve">
<style type="text/css">
	.st0{fill:#F6F7F9;}
	.st1{fill:#6E6E6E;}
	.st2{fill:#FFFFFF;}
	.st3{fill:#DCDCDC;}
	.st4{fill:url(#Trazado_26198_4_);}
	.st5{fill:url(#Trazado_26199_4_);}
	.st6{fill:url(#Trazado_26200_4_);}
	.st7{fill:url(#Trazado_26201_4_);}
	.st8{fill:url(#Trazado_26202_4_);}
	.st9{fill:url(#Trazado_26203_4_);}
	.st10{fill:url(#Trazado_26204_4_);}
	.st11{fill:url(#Trazado_26205_4_);}
	.st12{fill:url(#Trazado_26206_4_);}
	.st13{fill:url(#Trazado_26207_4_);}
	.st14{fill:url(#Trazado_26208_4_);}
	.st15{fill:url(#Trazado_26209_4_);}
	.st16{fill:url(#Trazado_26210_4_);}
	.st17{fill:url(#Trazado_26211_4_);}
	.st18{fill:url(#Trazado_26212_4_);}
	.st19{fill:url(#Trazado_26213_4_);}
	.st20{fill:url(#Trazado_26214_4_);}
	.st21{fill:url(#Trazado_26215_4_);}
	.st22{fill:url(#Trazado_24566_9_);}
	.st23{fill:url(#Trazado_24567_9_);}
	.st24{fill:url(#Trazado_24568_9_);}
	.st25{fill:url(#Trazado_24569_9_);}
	.st26{fill:url(#Trazado_24570_9_);}
	.st27{fill:url(#Trazado_24571_9_);}
	.st28{fill:url(#Trazado_24572_9_);}
	.st29{fill:url(#Trazado_26216_4_);}
	.st30{fill:url(#Trazado_26217_4_);}
	.st31{fill:url(#Trazado_26218_4_);}
	.st32{fill:url(#Trazado_26336_1_);}
	.st33{fill:url(#Unión_52_1_);}
	.st34{fill:url(#Trazado_904_4_);}
	.st35{fill:url(#Trazado_905_4_);}
	.st36{fill:url(#Trazado_906_4_);}
	.st37{fill:url(#Trazado_24631_4_);}
	.st38{fill:url(#Trazado_24632_4_);}
	.st39{fill:url(#Trazado_24633_4_);}
	.st40{fill:url(#Trazado_24634_4_);}
	.st41{fill:url(#Trazado_24635_4_);}
	.st42{fill:url(#Trazado_24636_4_);}
	.st43{fill:url(#Trazado_24637_4_);}
	.st44{fill:url(#Trazado_24638_4_);}
	.st45{fill:url(#Trazado_24639_4_);}
	.st46{fill:url(#Trazado_24640_4_);}
	.st47{fill:url(#Trazado_884_3_);}
	.st48{fill:url(#Trazado_24616_3_);}
	.st49{fill:url(#Trazado_24617_3_);}
	.st50{fill:url(#Trazado_24618_3_);}
	.st51{fill:url(#Trazado_24619_3_);}
	.st52{fill:url(#Trazado_24620_3_);}
	.st53{fill:url(#Trazado_24621_3_);}
	.st54{fill:url(#Trazado_24622_3_);}
	.st55{fill:none;stroke:#CCCCCC;}
	.st56{fill:url(#Trazado_904-2_2_);}
	.st57{fill:url(#Trazado_905-2_2_);}
	.st58{fill:url(#Trazado_906-2_2_);}
	.st59{fill:url(#Trazado_24631-2_2_);}
	.st60{fill:url(#Trazado_24632-2_2_);}
	.st61{fill:url(#Trazado_24633-2_2_);}
	.st62{fill:url(#Trazado_24634-2_2_);}
	.st63{fill:url(#Trazado_24635-2_2_);}
	.st64{fill:url(#Trazado_24636-2_2_);}
	.st65{fill:url(#Trazado_24637-2_2_);}
	.st66{fill:url(#Trazado_24638-2_2_);}
	.st67{fill:url(#Trazado_24639-2_2_);}
	.st68{fill:url(#Trazado_24640-2_2_);}
	.st69{fill:url(#Trazado_884-2_1_);}
	.st70{fill:url(#Trazado_24616-2_1_);}
	.st71{fill:url(#Trazado_24617-2_1_);}
	.st72{fill:url(#Trazado_24618-2_1_);}
	.st73{fill:url(#Trazado_24619-2_1_);}
	.st74{fill:url(#Trazado_24620-2_1_);}
	.st75{fill:url(#Trazado_24621-2_1_);}
	.st76{fill:url(#Trazado_24622-2_1_);}
	.st77{fill:url(#Trazado_26355_1_);}
	.st78{opacity:0.2;fill:#26F70F;}
	.st79{fill:#F90D0D;}
	.st80{fill:none;stroke:#F90D0D;stroke-miterlimit:10;}
	.st81{fill:none;stroke:#FF2929;stroke-miterlimit:10;}
	.st82{opacity:0.2;}
	.st83{fill:#FF2929;}
	.st84{opacity:0.2;fill:#FF2929;}
	.st85{fill:#3366CC;}
	.st86{fill:none;stroke:#FFFFFF;}
	.st87{fill:#0070BA;}
	.st88{fill:#E3134D;}
	.st89{fill:#FEC20A;}
	.st90{fill:#70AF3D;}
	.st91{fill:#9B156E;}
	.st92{fill:#FBD015;}
	.st93{fill:#05569E;}
	.st94{fill:#D11F3E;}
	.st95{fill:none;}
	.st96{fill-rule:evenodd;clip-rule:evenodd;fill:#3366CC;}
	.st97{fill:none;stroke:#707070;}
	.st98{stroke:#FF2929;stroke-width:4;stroke-miterlimit:10;}
	.st99{fill:none;stroke:#FF2929;stroke-width:4;stroke-miterlimit:10;}
	.st100{fill:none;stroke:#000000;stroke-miterlimit:10;}
	.st101{fill:#41D78C;}
	.st102{fill:url(#Trazado_24869_3_);}
	.st103{fill:url(#Trazado_26191_3_);}
	.st104{fill:url(#Trazado_26192_3_);}
	.st105{fill:url(#Trazado_26193_3_);}
	.st106{fill:url(#Trazado_26194_3_);}
	.st107{fill:url(#Trazado_26195_3_);}
	.st108{fill:url(#Trazado_26196_3_);}
	.st109{fill:url(#Trazado_26197_3_);}
	.st110{fill:url(#Trazado_26198_5_);}
	.st111{fill:url(#Trazado_26199_5_);}
	.st112{fill:url(#Trazado_26200_5_);}
	.st113{fill:url(#Trazado_26201_5_);}
	.st114{fill:url(#Trazado_26202_5_);}
	.st115{fill:url(#Trazado_26203_5_);}
	.st116{fill:url(#Trazado_26204_5_);}
	.st117{fill:url(#Trazado_26205_5_);}
	.st118{fill:url(#Trazado_26206_5_);}
	.st119{fill:url(#Trazado_26207_5_);}
	.st120{fill:url(#Trazado_26208_5_);}
	.st121{fill:url(#Trazado_26209_5_);}
	.st122{fill:url(#Trazado_26210_5_);}
	.st123{fill:url(#Trazado_26211_5_);}
	.st124{fill:url(#Trazado_26212_5_);}
	.st125{fill:url(#Trazado_26213_5_);}
	.st126{fill:url(#Trazado_26214_5_);}
	.st127{fill:url(#Trazado_26215_5_);}
	.st128{fill:url(#Trazado_26216_5_);}
	.st129{fill:url(#Trazado_26217_5_);}
	.st130{fill:url(#Trazado_26218_5_);}
	.st131{fill:url(#Trazado_24566_10_);}
	.st132{fill:url(#Trazado_24567_10_);}
	.st133{fill:url(#Trazado_24568_10_);}
	.st134{fill:url(#Trazado_24569_10_);}
	.st135{fill:url(#Trazado_24570_10_);}
	.st136{fill:url(#Trazado_24571_10_);}
	.st137{fill:url(#Trazado_24572_10_);}
	.st138{fill:url(#Unión_55_1_);}
	.st139{fill:url(#Trazado_904_5_);}
	.st140{fill:url(#Trazado_905_5_);}
	.st141{fill:url(#Trazado_906_5_);}
	.st142{fill:url(#Trazado_24631_5_);}
	.st143{fill:url(#Trazado_24632_5_);}
	.st144{fill:url(#Trazado_24633_5_);}
	.st145{fill:url(#Trazado_24634_5_);}
	.st146{fill:url(#Trazado_24635_5_);}
	.st147{fill:url(#Trazado_24636_5_);}
	.st148{fill:url(#Trazado_24637_5_);}
	.st149{fill:url(#Trazado_24638_5_);}
	.st150{fill:url(#Trazado_24639_5_);}
	.st151{fill:url(#Trazado_24640_5_);}
	.st152{fill:url(#Rectángulo_3914-2_1_);}
	.st153{clip-path:url(#SVGID_6_);fill:#EBEEF0;}
	.st154{clip-path:url(#SVGID_6_);}
	.st155{opacity:0.2;clip-path:url(#SVGID_6_);fill:#26F70F;}
	.st156{opacity:0.1;clip-path:url(#SVGID_6_);}
	.st157{opacity:0.2;fill:#F90D0D;}
	.st158{fill:none;stroke:#FF0000;stroke-width:5;stroke-miterlimit:10;}
	.st159{clip-path:url(#SVGID_14_);fill:#EBEEF0;}
	.st160{clip-path:url(#SVGID_14_);}
	.st161{opacity:0.2;clip-path:url(#SVGID_14_);fill:#26F70F;}
	.st162{fill:none;stroke:#26F70F;stroke-width:7;stroke-miterlimit:10;}
	.st163{fill:url(#Rectángulo_3928_2_);}
	.st164{fill:#F0F2F4;}
	.st165{opacity:0.28;fill:none;stroke:#BEC8D2;enable-background:new    ;}
	.st166{fill:none;stroke:#E2E7EB;}
	.st167{fill:#00B4DC;}
	.st168{fill:url(#Trazado_24687_4_);}
	.st169{fill:url(#Trazado_24688_4_);}
	.st170{fill:url(#Trazado_24689_4_);}
	.st171{fill:url(#Trazado_24690_4_);}
	.st172{fill:url(#Rectángulo_1733_4_);}
	.st173{fill:url(#Rectángulo_1734_4_);}
	.st174{fill:url(#Rectángulo_1735_4_);}
	.st175{fill:url(#Trazado_24687_5_);}
	.st176{fill:url(#Trazado_24688_5_);}
	.st177{fill:url(#Trazado_24689_5_);}
	.st178{fill:url(#Trazado_24690_5_);}
	.st179{fill:url(#Rectángulo_1733_5_);}
	.st180{fill:url(#Rectángulo_1734_5_);}
	.st181{fill:url(#Rectángulo_1735_5_);}
	.st182{fill:url(#Trazado_24566_11_);}
	.st183{fill:url(#Trazado_24567_11_);}
	.st184{fill:url(#Trazado_24568_11_);}
	.st185{fill:url(#Trazado_24569_11_);}
	.st186{fill:url(#Trazado_24570_11_);}
	.st187{fill:url(#Trazado_24571_11_);}
	.st188{fill:url(#Trazado_24572_11_);}
	.st189{fill:url(#Trazado_26237_4_);}
	.st190{fill:url(#Trazado_26238_4_);}
	.st191{fill:url(#Trazado_26242_4_);}
	.st192{fill:url(#Trazado_26243_4_);}
	.st193{fill:url(#Trazado_26244_4_);}
	.st194{fill:url(#Trazado_26245_4_);}
	.st195{fill:url(#Trazado_26246_4_);}
	.st196{fill:url(#Trazado_26247_4_);}
	.st197{fill:url(#Trazado_26248_4_);}
	.st198{fill:url(#Trazado_26249_4_);}
	.st199{fill:url(#Trazado_26250_4_);}
	.st200{fill:url(#Trazado_26251_4_);}
	.st201{fill:url(#Trazado_26252_4_);}
	.st202{fill:url(#Trazado_26253_4_);}
	.st203{fill:url(#Trazado_26254_4_);}
	.st204{fill:url(#Trazado_26255_4_);}
	.st205{fill:url(#Trazado_26256_4_);}
	.st206{fill:url(#Trazado_26257_4_);}
	.st207{fill:url(#Trazado_26258_4_);}
	.st208{fill:url(#Trazado_26259_4_);}
	.st209{fill:url(#Trazado_26260_4_);}
	.st210{fill:url(#Trazado_26261_4_);}
	.st211{fill:url(#Trazado_26262_4_);}
	.st212{fill:url(#Trazado_26263_4_);}
	.st213{fill:url(#Trazado_26264_4_);}
	.st214{fill:url(#Trazado_26265_4_);}
	.st215{fill:url(#Trazado_26266_4_);}
	.st216{fill:url(#Trazado_26267_4_);}
	.st217{fill:url(#Trazado_26268_4_);}
	.st218{fill:url(#Trazado_26269_4_);}
	.st219{fill:url(#Trazado_26270_4_);}
	.st220{fill:url(#Trazado_26271_4_);}
	.st221{fill:url(#Trazado_26272_4_);}
	.st222{fill:url(#Trazado_26273_4_);}
	.st223{fill:url(#Trazado_26274_4_);}
	.st224{fill:url(#Trazado_26275_4_);}
	.st225{fill:url(#Trazado_26276_4_);}
	.st226{fill:url(#Trazado_26277_4_);}
	.st227{fill:url(#Trazado_26278_4_);}
	.st228{fill:url(#Trazado_26279_4_);}
	.st229{fill:url(#Trazado_26284_3_);}
	.st230{fill:url(#Trazado_26285_3_);}
	.st231{fill:url(#Trazado_26230_5_);}
	.st232{fill:url(#Trazado_26231_5_);}
	.st233{fill:url(#Trazado_26232_5_);}
	.st234{fill:url(#Rectángulo_3918_5_);}
	.st235{fill:url(#Rectángulo_3919_5_);}
	.st236{fill:url(#Rectángulo_3920_5_);}
	.st237{fill:url(#Rectángulo_3921_5_);}
	.st238{fill:url(#Rectángulo_3922_5_);}
	.st239{fill:url(#Rectángulo_3923_5_);}
	.st240{fill:url(#Rectángulo_3924_5_);}
	.st241{fill:url(#Rectángulo_3925_5_);}
	.st242{fill:url(#Rectángulo_3928_3_);}
	.st243{fill:url(#Trazado_24566_12_);}
	.st244{fill:url(#Trazado_24567_12_);}
	.st245{fill:url(#Trazado_24568_12_);}
	.st246{fill:url(#Trazado_24569_12_);}
	.st247{fill:url(#Trazado_24570_12_);}
	.st248{fill:url(#Trazado_24571_12_);}
	.st249{fill:url(#Trazado_24572_12_);}
	.st250{fill:url(#Trazado_26233_2_);}
	.st251{fill:url(#Trazado_26234_2_);}
	.st252{fill:url(#Trazado_26235_2_);}
	.st253{fill:url(#Trazado_26236_2_);}
	.st254{fill:url(#Trazado_26237_5_);}
	.st255{fill:url(#Trazado_26238_5_);}
	.st256{fill:url(#Trazado_26242_5_);}
	.st257{fill:url(#Trazado_26243_5_);}
	.st258{fill:url(#Trazado_26244_5_);}
	.st259{fill:url(#Trazado_26245_5_);}
	.st260{fill:url(#Trazado_26246_5_);}
	.st261{fill:url(#Trazado_26247_5_);}
	.st262{fill:url(#Trazado_26248_5_);}
	.st263{fill:url(#Trazado_26249_5_);}
	.st264{fill:url(#Trazado_26250_5_);}
	.st265{fill:url(#Trazado_26251_5_);}
	.st266{fill:url(#Trazado_26252_5_);}
	.st267{fill:url(#Trazado_26253_5_);}
	.st268{fill:url(#Trazado_26254_5_);}
	.st269{fill:url(#Trazado_26255_5_);}
	.st270{fill:url(#Trazado_26256_5_);}
	.st271{fill:url(#Trazado_26257_5_);}
	.st272{fill:url(#Trazado_26258_5_);}
	.st273{fill:url(#Trazado_26259_5_);}
	.st274{fill:url(#Trazado_26260_5_);}
	.st275{fill:url(#Trazado_26261_5_);}
	.st276{fill:url(#Trazado_26262_5_);}
	.st277{fill:url(#Trazado_26263_5_);}
	.st278{fill:url(#Trazado_26264_5_);}
	.st279{fill:url(#Trazado_26265_5_);}
	.st280{fill:url(#Trazado_26266_5_);}
	.st281{fill:url(#Trazado_26267_5_);}
	.st282{fill:url(#Trazado_26268_5_);}
	.st283{fill:url(#Trazado_26269_5_);}
	.st284{fill:url(#Trazado_26270_5_);}
	.st285{fill:url(#Trazado_26271_5_);}
	.st286{fill:url(#Trazado_26272_5_);}
	.st287{fill:url(#Trazado_26273_5_);}
	.st288{fill:url(#Trazado_26274_5_);}
	.st289{fill:url(#Trazado_26275_5_);}
	.st290{fill:url(#Trazado_26276_5_);}
	.st291{fill:url(#Trazado_26277_5_);}
	.st292{fill:url(#Trazado_26278_5_);}
	.st293{fill:url(#Trazado_26279_5_);}
	.st294{fill:url(#Trazado_26284_4_);}
	.st295{fill:url(#Trazado_26285_4_);}
	.st296{fill:url(#Trazado_26230_6_);}
	.st297{fill:url(#Trazado_26231_6_);}
	.st298{fill:url(#Trazado_26232_6_);}
	.st299{fill:url(#Rectángulo_3918_6_);}
	.st300{fill:url(#Rectángulo_3919_6_);}
	.st301{fill:url(#Rectángulo_3920_6_);}
	.st302{fill:url(#Rectángulo_3921_6_);}
	.st303{fill:url(#Rectángulo_3922_6_);}
	.st304{fill:url(#Rectángulo_3923_6_);}
	.st305{fill:url(#Rectángulo_3924_6_);}
	.st306{fill:url(#Rectángulo_3925_6_);}
	.st307{fill:none;stroke:#006495;stroke-linecap:square;stroke-miterlimit:10;stroke-dasharray:2,2;}
	.st308{fill:#262944;}
	.st309{fill:none;stroke:#FFFFFF;stroke-miterlimit:10;}
	.st310{fill:url(#Trazado_24869_4_);}
	.st311{fill:url(#Trazado_26191_5_);}
	.st312{fill:url(#Trazado_26192_5_);}
	.st313{fill:url(#Trazado_26193_5_);}
	.st314{fill:url(#Trazado_26194_5_);}
	.st315{fill:url(#Trazado_26195_5_);}
	.st316{fill:url(#Trazado_26196_5_);}
	.st317{fill:url(#Trazado_26197_5_);}
	.st318{fill:url(#Trazado_26198_6_);}
	.st319{fill:url(#Trazado_26199_6_);}
	.st320{fill:url(#Trazado_26200_6_);}
	.st321{fill:url(#Trazado_26201_6_);}
	.st322{fill:url(#Trazado_26202_6_);}
	.st323{fill:url(#Trazado_26203_6_);}
	.st324{fill:url(#Trazado_26204_6_);}
	.st325{fill:url(#Trazado_26205_6_);}
	.st326{fill:url(#Trazado_26206_6_);}
	.st327{fill:url(#Trazado_26207_6_);}
	.st328{fill:url(#Trazado_26208_6_);}
	.st329{fill:url(#Trazado_26209_6_);}
	.st330{fill:url(#Trazado_26210_6_);}
	.st331{fill:url(#Trazado_26211_6_);}
	.st332{fill:url(#Trazado_26212_6_);}
	.st333{fill:url(#Trazado_26213_6_);}
	.st334{fill:url(#Trazado_26214_6_);}
	.st335{fill:url(#Trazado_26215_6_);}
	.st336{fill:url(#Trazado_26216_6_);}
	.st337{fill:url(#Trazado_26217_6_);}
	.st338{fill:url(#Trazado_26218_6_);}
	.st339{fill:url(#Trazado_24566_13_);}
	.st340{fill:url(#Trazado_24567_13_);}
	.st341{fill:url(#Trazado_24568_13_);}
	.st342{fill:url(#Trazado_24569_13_);}
	.st343{fill:url(#Trazado_24570_13_);}
	.st344{fill:url(#Trazado_24571_13_);}
	.st345{fill:url(#Trazado_24572_13_);}
	.st346{fill:url(#Trazado_26354_3_);}
	.st347{fill:url(#Trazado_904_6_);}
	.st348{fill:url(#Trazado_905_6_);}
	.st349{fill:url(#Trazado_906_6_);}
	.st350{fill:url(#Trazado_24631_6_);}
	.st351{fill:url(#Trazado_24632_6_);}
	.st352{fill:url(#Trazado_24633_6_);}
	.st353{fill:url(#Trazado_24634_6_);}
	.st354{fill:url(#Trazado_24635_6_);}
	.st355{fill:url(#Trazado_24636_6_);}
	.st356{fill:url(#Trazado_24637_6_);}
	.st357{fill:url(#Trazado_24638_6_);}
	.st358{fill:url(#Trazado_24639_6_);}
	.st359{fill:url(#Trazado_24640_6_);}
	.st360{fill:url(#Trazado_884_4_);}
	.st361{fill:url(#Trazado_24616_4_);}
	.st362{fill:url(#Trazado_24617_4_);}
	.st363{fill:url(#Trazado_24618_4_);}
	.st364{fill:url(#Trazado_24619_4_);}
	.st365{fill:url(#Trazado_24620_4_);}
	.st366{fill:url(#Trazado_24621_4_);}
	.st367{fill:url(#Trazado_24622_4_);}
	.st368{fill:#FF6161;}
	.st369{fill:url(#Trazado_26233_5_);}
	.st370{fill:url(#Trazado_26234_5_);}
	.st371{fill:url(#Trazado_26235_5_);}
	.st372{fill:url(#Trazado_26236_5_);}
	.st373{fill:url(#Trazado_24566_14_);}
	.st374{fill:url(#Trazado_24567_14_);}
	.st375{fill:url(#Trazado_24568_14_);}
	.st376{fill:url(#Trazado_24569_14_);}
	.st377{fill:url(#Trazado_24570_14_);}
	.st378{fill:url(#Trazado_24571_14_);}
	.st379{fill:url(#Trazado_24572_14_);}
	.st380{fill:url(#Trazado_24566_15_);}
	.st381{fill:url(#Trazado_24567_15_);}
	.st382{fill:url(#Trazado_24568_15_);}
	.st383{fill:url(#Trazado_24569_15_);}
	.st384{fill:url(#Trazado_24570_15_);}
	.st385{fill:url(#Trazado_24571_15_);}
	.st386{fill:url(#Trazado_24572_15_);}
	.st387{fill:url(#Trazado_26237_6_);}
	.st388{fill:url(#Trazado_26238_6_);}
	.st389{fill:url(#Trazado_26242_6_);}
	.st390{fill:url(#Trazado_26243_6_);}
	.st391{fill:url(#Trazado_26244_6_);}
	.st392{fill:url(#Trazado_26245_6_);}
	.st393{fill:url(#Trazado_26246_6_);}
	.st394{fill:url(#Trazado_26247_6_);}
	.st395{fill:url(#Trazado_26248_6_);}
	.st396{fill:url(#Trazado_26249_6_);}
	.st397{fill:url(#Trazado_26250_6_);}
	.st398{fill:url(#Trazado_26251_6_);}
	.st399{fill:url(#Trazado_26252_6_);}
	.st400{fill:url(#Trazado_26253_6_);}
	.st401{fill:url(#Trazado_26254_6_);}
	.st402{fill:url(#Trazado_26255_6_);}
	.st403{fill:url(#Trazado_26256_6_);}
	.st404{fill:url(#Trazado_26257_6_);}
	.st405{fill:url(#Trazado_26258_6_);}
	.st406{fill:url(#Trazado_26259_6_);}
	.st407{fill:url(#Trazado_26260_6_);}
	.st408{fill:url(#Trazado_26261_6_);}
	.st409{fill:url(#Trazado_26262_6_);}
	.st410{fill:url(#Trazado_26263_6_);}
	.st411{fill:url(#Trazado_26264_6_);}
	.st412{fill:url(#Trazado_26265_6_);}
	.st413{fill:url(#Trazado_26266_6_);}
	.st414{fill:url(#Trazado_26267_6_);}
	.st415{fill:url(#Trazado_26268_6_);}
	.st416{fill:url(#Trazado_26269_6_);}
	.st417{fill:url(#Trazado_26270_6_);}
	.st418{fill:url(#Trazado_26271_6_);}
	.st419{fill:url(#Trazado_26272_6_);}
	.st420{fill:url(#Trazado_26273_6_);}
	.st421{fill:url(#Trazado_26274_6_);}
	.st422{fill:url(#Trazado_26275_6_);}
	.st423{fill:url(#Trazado_26276_6_);}
	.st424{fill:url(#Trazado_26277_6_);}
	.st425{fill:url(#Trazado_26278_6_);}
	.st426{fill:url(#Trazado_26279_6_);}
	.st427{fill:url(#Trazado_26284_6_);}
	.st428{fill:url(#Trazado_26285_6_);}
	.st429{fill:url(#Trazado_26230_7_);}
	.st430{fill:url(#Trazado_26231_7_);}
	.st431{fill:url(#Trazado_26232_7_);}
	.st432{fill:url(#Rectángulo_3918_7_);}
	.st433{fill:url(#Rectángulo_3919_7_);}
	.st434{fill:url(#Rectángulo_3920_7_);}
	.st435{fill:url(#Rectángulo_3921_7_);}
	.st436{fill:url(#Rectángulo_3922_7_);}
	.st437{fill:url(#Rectángulo_3923_7_);}
	.st438{fill:url(#Rectángulo_3924_7_);}
	.st439{fill:url(#Rectángulo_3925_7_);}
	.st440{opacity:0.1;fill:#FF2929;}
	.st441{fill:#CCF0F8;}
	.st442{opacity:0.2;fill:#D31A1A;}
	.st443{fill:#E2E7EB;}
	.st444{fill:none;stroke:#BEC8D2;}
	.st445{fill:#D5F4E6;}
	.st446{fill-rule:evenodd;clip-rule:evenodd;fill:#262944;}
	.st447{fill:url(#Trazado_26409_3_);}
	.st448{fill:url(#Trazado_26410_2_);}
	.st449{fill:url(#Trazado_26411_2_);}
	.st450{fill:url(#Trazado_26412_2_);}
	.st451{fill:url(#Trazado_26413_2_);}
	.st452{fill:url(#Trazado_26414_2_);}
	.st453{fill:url(#Trazado_26415_2_);}
	.st454{fill:url(#Trazado_26416_2_);}
	.st455{fill:url(#Trazado_26417_2_);}
	.st456{fill:url(#Trazado_26418_2_);}
	.st457{fill:url(#Trazado_26419_2_);}
	.st458{fill:url(#Trazado_26420_2_);}
	.st459{fill:url(#Trazado_26421_2_);}
	.st460{fill:url(#Trazado_26516_3_);}
	.st461{fill:url(#Trazado_26517_3_);}
	.st462{fill:url(#Trazado_26518_3_);}
	.st463{fill:url(#Trazado_26519_3_);}
	.st464{fill:url(#Trazado_26520_3_);}
	.st465{fill:url(#Trazado_26521_3_);}
	.st466{fill:url(#Trazado_26522_3_);}
</style>
<g id="Grupo_7740" transform="translate(-3283.038 -450.559)">
	<path id="Trazado_26416" class="st2" d="M3320.16,527.65h49.63c0.98,0.02,1.8-0.76,1.82-1.74c0.02-0.98-0.76-1.8-1.74-1.82
		c-0.03,0-0.06,0-0.08,0h-49.63c-0.98,0.02-1.76,0.84-1.74,1.82C3318.44,526.86,3319.21,527.63,3320.16,527.65L3320.16,527.65z"/>
	<path id="Trazado_26417" class="st2" d="M3318.38,514.74c0,0.98,0.8,1.78,1.78,1.78h57.91c0.98-0.02,1.76-0.84,1.74-1.82
		c-0.02-0.95-0.79-1.72-1.74-1.74h-57.91C3319.18,512.96,3318.38,513.76,3318.38,514.74z"/>
	<path id="Trazado_26418" class="st2" d="M3326.33,551.54l-13.03,15.57l-6.16-5.23c-0.75-0.64-1.87-0.55-2.51,0.2
		c-0.64,0.75-0.55,1.87,0.2,2.51l0,0l7.53,6.4c0.32,0.27,0.73,0.42,1.15,0.42c0.05,0,0.1,0,0.15-0.01c0.47-0.04,0.91-0.27,1.22-0.63
		l14.18-16.94c0.63-0.75,0.53-1.88-0.22-2.51S3326.97,550.79,3326.33,551.54L3326.33,551.54z"/>
	<path id="Trazado_26419" class="st2" d="M3421.16,478.81L3421.16,478.81l-6.26-1.87l1.13-3.78c0.44-1.48,0.02-3.08-1.09-4.15
		l2.09-6.98c1.09-3.69-1.01-7.56-4.69-8.67c-3.68-1.09-7.56,1-8.66,4.68l-2.09,6.98c-1.51,0.29-2.74,1.39-3.18,2.86l-1.8,6.03
		l-2,6.71l-0.8,2.67v-10.5c0-1.77-1.44-3.21-3.21-3.21H3326c-0.89,0.03-1.72,0.44-2.27,1.13l-0.24,0.23l-15.59,14.88
		c-0.13,0.13-0.23,0.22-0.31,0.3c-0.66,0.5-1.04,1.27-1.05,2.09l-0.01,0.87v22.02c0,0.98,0.8,1.78,1.78,1.78s1.78-0.8,1.78-1.78
		v-21.43h9.82c4.15,0,7.51-3.36,7.51-7.51l-0.01-9.02h62.83v22.08l-14.55,48.74l-0.01,0.03c-0.01,0.04-0.02,0.09-0.03,0.14
		s-0.01,0.07-0.02,0.1c-0.01,0.05-0.01,0.09-0.01,0.14c0,0.04,0,0.09,0,0.12s0,0.08,0,0.12l0.01,0.09l0,0l1.78,15.86l0,0
		c-0.78-0.63-1.43-1.42-1.89-2.32c-0.79-1.29-1.87-3.06-3.93-2.66c-1.74,0.33-2.56,1.78-3.35,3.19c-0.42,0.78-0.89,1.53-1.43,2.24
		c-0.44,0.56-0.74,0.72-0.83,0.72c-0.08,0.01-0.51-0.03-1.74-1.26c-3.23-3.21-5.74-1.02-6.94,0.03c-0.37,0.38-0.81,0.69-1.29,0.9
		c-0.31,0.06-0.89-0.27-1.55-0.88c-0.76-0.7-1.95-0.65-2.66,0.11c-0.7,0.76-0.65,1.95,0.11,2.66l0,0c3.84,3.54,6.55,1.18,7.85,0.05
		c0.31-0.3,0.66-0.56,1.03-0.78c0,0,0.26,0.05,0.79,0.58c1.18,1.17,2.61,2.35,4.38,2.35c0.08,0,0.16,0,0.24-0.01
		c1.44-0.16,2.74-0.94,3.56-2.15c0.66-0.86,1.24-1.77,1.76-2.73c0.15-0.28,0.34-0.6,0.51-0.88c0.1,0.16,0.2,0.32,0.29,0.47
		c1.06,1.73,3.02,4.92,7.39,4.54c0.02,0,0.04,0,0.06,0c0.1,0,0.2-0.01,0.3-0.04l0.03-0.01l0,0l0.02-0.01c0.02,0,0.03-0.01,0.04-0.01
		l0.04-0.01c0.29-0.08,0.55-0.23,0.77-0.43l0,0c0.01,0,0.01-0.01,0.02-0.02c0.15-0.13,0.29-0.26,0.42-0.41l0.05-0.06l5.54-6.68
		l3.24-3.91v22.03H3342c3.98-7.92,4.17-17.22,0.52-25.3h15.68c0.98,0.02,1.8-0.76,1.82-1.74c0.02-0.98-0.76-1.8-1.74-1.82
		c-0.03,0-0.06,0-0.08,0h-17.61c-1.14-1.8-2.48-3.47-3.99-4.98l0,0c-0.93-0.93-1.91-1.79-2.96-2.59h35.58
		c0.98,0.02,1.8-0.76,1.82-1.74c0.02-0.98-0.76-1.8-1.74-1.82c-0.03,0-0.06,0-0.08,0h-41.64c-3.67-1.59-7.62-2.41-11.62-2.4
		c-1.98,0-3.95,0.2-5.89,0.59v-14.09c-0.02-0.98-0.84-1.76-1.82-1.74c-0.95,0.02-1.72,0.79-1.74,1.74v15.05
		c-15.26,5.22-23.4,21.83-18.18,37.09c5.22,15.26,21.83,23.4,37.09,18.18c0.75-0.26,1.5-0.55,2.23-0.87h73.99
		c1.77,0,3.21-1.44,3.21-3.21V538.4c-0.02-0.98-0.84-1.76-1.82-1.74c-0.95,0.02-1.72,0.79-1.74,1.74v46.82h-67.61
		c1.03-0.79,2-1.64,2.91-2.55c1.2-1.2,2.29-2.5,3.26-3.89h50.73c1.77,0,3.21-1.44,3.21-3.21v-27.97l0.8-2.67l3.07-10.83l0.69-1.76
		l4.26-14.28c0.32-0.99-0.23-2.05-1.21-2.36c-0.99-0.32-2.05,0.23-2.36,1.21c-0.01,0.03-0.02,0.05-0.02,0.08l-0.66,2.22l-3.76,12.59
		l-4.35,14.58l-10.42-3.11l14.77-49.48l3.76-12.59l3.64-12.2c0.06-0.18,0.25-0.29,0.44-0.24l9.75,2.92l0,0
		c0.09,0.03,0.16,0.09,0.2,0.17c0.05,0.08,0.06,0.18,0.03,0.27l-1.66,5.57l0,0.02l-9.28,31.1c-0.26,1.01,0.35,2.03,1.35,2.29
		c0.95,0.24,1.93-0.28,2.25-1.21l8.75-29.31l4.46,1.33l-7.64,25.6c-0.32,0.99,0.22,2.05,1.21,2.37c0.99,0.32,2.05-0.22,2.37-1.21
		c0.01-0.03,0.02-0.06,0.03-0.09l8.18-27.4C3422.71,480.16,3422.15,479.11,3421.16,478.81z M3334.09,580.15
		c-2.15,2.16-4.67,3.91-7.44,5.19c-0.08,0.03-0.16,0.07-0.23,0.11c-9.69,4.31-21.04,2.2-28.54-5.3l0,0
		c-10.01-10.03-9.99-26.27,0.03-36.28c3.03-3.03,6.77-5.25,10.88-6.45l0.08-0.02c5.78-1.66,11.96-1.24,17.47,1.18
		c0.08,0.04,0.15,0.08,0.23,0.11c4.69,2.14,8.62,5.64,11.29,10.04c0.08,0.22,0.2,0.43,0.35,0.6
		C3343.93,559.35,3342.24,571.96,3334.09,580.15z"/>
	<path id="Trazado_26420" class="st2" d="M3350.25,478.12c-1.08,0-1.95,0.87-1.95,1.95c0,0,0,0,0,0v2.25
		c-3.37,0.31-5.85,3.3-5.54,6.67c0.29,3.15,2.93,5.56,6.1,5.56h2.79c1.23,0.03,2.21,1.04,2.18,2.27c-0.02,1.19-0.99,2.16-2.18,2.18
		h-5.57c-1.08,0-1.95,0.87-1.95,1.95s0.87,1.95,1.95,1.95h2.23v2.23c-0.01,1.08,0.86,1.96,1.94,1.96c1.08,0.01,1.96-0.86,1.96-1.94
		c0-0.01,0-0.02,0-0.03v-2.25c3.37-0.31,5.85-3.3,5.54-6.67c-0.29-3.15-2.93-5.56-6.1-5.56h-2.79c-1.23-0.03-2.21-1.04-2.18-2.27
		c0.03-1.19,0.99-2.15,2.18-2.18h5.57c1.08,0,1.95-0.88,1.95-1.95c0-1.07-0.87-1.94-1.95-1.95h-2.23v-2.23
		C3352.2,478.99,3351.33,478.12,3350.25,478.12L3350.25,478.12z"/>
</g>
</svg>
