<?xml version="1.0" encoding="utf-8"?>
<!-- Generator: Adobe Illustrator 25.2.1, SVG Export Plug-In . SVG Version: 6.00 Build 0)  -->
<svg version="1.1" id="Capa_1" xmlns="http://www.w3.org/2000/svg" xmlns:xlink="http://www.w3.org/1999/xlink" x="0px" y="0px"
	 viewBox="0 0 143.18 143.19" style="enable-background:new 0 0 143.18 143.19;" xml:space="preserve">
<style type="text/css">
	.st0{fill:#F6F7F9;}
	.st1{fill:#6E6E6E;}
	.st2{fill:#FFFFFF;}
	.st3{fill:#DCDCDC;}
	.st4{fill:url(#Trazado_26198_4_);}
	.st5{fill:url(#Trazado_26199_4_);}
	.st6{fill:url(#Trazado_26200_4_);}
	.st7{fill:url(#Trazado_26201_4_);}
	.st8{fill:url(#Trazado_26202_4_);}
	.st9{fill:url(#Trazado_26203_4_);}
	.st10{fill:url(#Trazado_26204_4_);}
	.st11{fill:url(#Trazado_26205_4_);}
	.st12{fill:url(#Trazado_26206_4_);}
	.st13{fill:url(#Trazado_26207_4_);}
	.st14{fill:url(#Trazado_26208_4_);}
	.st15{fill:url(#Trazado_26209_4_);}
	.st16{fill:url(#Trazado_26210_4_);}
	.st17{fill:url(#Trazado_26211_4_);}
	.st18{fill:url(#Trazado_26212_4_);}
	.st19{fill:url(#Trazado_26213_4_);}
	.st20{fill:url(#Trazado_26214_4_);}
	.st21{fill:url(#Trazado_26215_4_);}
	.st22{fill:url(#Trazado_24566_9_);}
	.st23{fill:url(#Trazado_24567_9_);}
	.st24{fill:url(#Trazado_24568_9_);}
	.st25{fill:url(#Trazado_24569_9_);}
	.st26{fill:url(#Trazado_24570_9_);}
	.st27{fill:url(#Trazado_24571_9_);}
	.st28{fill:url(#Trazado_24572_9_);}
	.st29{fill:url(#Trazado_26216_4_);}
	.st30{fill:url(#Trazado_26217_4_);}
	.st31{fill:url(#Trazado_26218_4_);}
	.st32{fill:url(#Trazado_26336_1_);}
	.st33{fill:url(#Unión_52_1_);}
	.st34{fill:url(#Trazado_904_4_);}
	.st35{fill:url(#Trazado_905_4_);}
	.st36{fill:url(#Trazado_906_4_);}
	.st37{fill:url(#Trazado_24631_4_);}
	.st38{fill:url(#Trazado_24632_4_);}
	.st39{fill:url(#Trazado_24633_4_);}
	.st40{fill:url(#Trazado_24634_4_);}
	.st41{fill:url(#Trazado_24635_4_);}
	.st42{fill:url(#Trazado_24636_4_);}
	.st43{fill:url(#Trazado_24637_4_);}
	.st44{fill:url(#Trazado_24638_4_);}
	.st45{fill:url(#Trazado_24639_4_);}
	.st46{fill:url(#Trazado_24640_4_);}
	.st47{fill:url(#Trazado_884_3_);}
	.st48{fill:url(#Trazado_24616_3_);}
	.st49{fill:url(#Trazado_24617_3_);}
	.st50{fill:url(#Trazado_24618_3_);}
	.st51{fill:url(#Trazado_24619_3_);}
	.st52{fill:url(#Trazado_24620_3_);}
	.st53{fill:url(#Trazado_24621_3_);}
	.st54{fill:url(#Trazado_24622_3_);}
	.st55{fill:none;stroke:#CCCCCC;}
	.st56{fill:url(#Trazado_904-2_2_);}
	.st57{fill:url(#Trazado_905-2_2_);}
	.st58{fill:url(#Trazado_906-2_2_);}
	.st59{fill:url(#Trazado_24631-2_2_);}
	.st60{fill:url(#Trazado_24632-2_2_);}
	.st61{fill:url(#Trazado_24633-2_2_);}
	.st62{fill:url(#Trazado_24634-2_2_);}
	.st63{fill:url(#Trazado_24635-2_2_);}
	.st64{fill:url(#Trazado_24636-2_2_);}
	.st65{fill:url(#Trazado_24637-2_2_);}
	.st66{fill:url(#Trazado_24638-2_2_);}
	.st67{fill:url(#Trazado_24639-2_2_);}
	.st68{fill:url(#Trazado_24640-2_2_);}
	.st69{fill:url(#Trazado_884-2_1_);}
	.st70{fill:url(#Trazado_24616-2_1_);}
	.st71{fill:url(#Trazado_24617-2_1_);}
	.st72{fill:url(#Trazado_24618-2_1_);}
	.st73{fill:url(#Trazado_24619-2_1_);}
	.st74{fill:url(#Trazado_24620-2_1_);}
	.st75{fill:url(#Trazado_24621-2_1_);}
	.st76{fill:url(#Trazado_24622-2_1_);}
	.st77{fill:url(#Trazado_26355_1_);}
	.st78{opacity:0.2;fill:#26F70F;}
	.st79{fill:#F90D0D;}
	.st80{fill:none;stroke:#F90D0D;stroke-miterlimit:10;}
	.st81{fill:none;stroke:#FF2929;stroke-miterlimit:10;}
	.st82{opacity:0.2;}
	.st83{fill:#FF2929;}
	.st84{opacity:0.2;fill:#FF2929;}
	.st85{fill:#3366CC;}
	.st86{fill:none;stroke:#FFFFFF;}
	.st87{fill:#0070BA;}
	.st88{fill:#E3134D;}
	.st89{fill:#FEC20A;}
	.st90{fill:#70AF3D;}
	.st91{fill:#9B156E;}
	.st92{fill:#FBD015;}
	.st93{fill:#05569E;}
	.st94{fill:#D11F3E;}
	.st95{fill:none;}
	.st96{fill-rule:evenodd;clip-rule:evenodd;fill:#3366CC;}
	.st97{fill:none;stroke:#707070;}
	.st98{stroke:#FF2929;stroke-width:4;stroke-miterlimit:10;}
	.st99{fill:none;stroke:#FF2929;stroke-width:4;stroke-miterlimit:10;}
	.st100{fill:none;stroke:#000000;stroke-miterlimit:10;}
	.st101{fill:#41D78C;}
	.st102{fill:url(#Trazado_24869_3_);}
	.st103{fill:url(#Trazado_26191_3_);}
	.st104{fill:url(#Trazado_26192_3_);}
	.st105{fill:url(#Trazado_26193_3_);}
	.st106{fill:url(#Trazado_26194_3_);}
	.st107{fill:url(#Trazado_26195_3_);}
	.st108{fill:url(#Trazado_26196_3_);}
	.st109{fill:url(#Trazado_26197_3_);}
	.st110{fill:url(#Trazado_26198_5_);}
	.st111{fill:url(#Trazado_26199_5_);}
	.st112{fill:url(#Trazado_26200_5_);}
	.st113{fill:url(#Trazado_26201_5_);}
	.st114{fill:url(#Trazado_26202_5_);}
	.st115{fill:url(#Trazado_26203_5_);}
	.st116{fill:url(#Trazado_26204_5_);}
	.st117{fill:url(#Trazado_26205_5_);}
	.st118{fill:url(#Trazado_26206_5_);}
	.st119{fill:url(#Trazado_26207_5_);}
	.st120{fill:url(#Trazado_26208_5_);}
	.st121{fill:url(#Trazado_26209_5_);}
	.st122{fill:url(#Trazado_26210_5_);}
	.st123{fill:url(#Trazado_26211_5_);}
	.st124{fill:url(#Trazado_26212_5_);}
	.st125{fill:url(#Trazado_26213_5_);}
	.st126{fill:url(#Trazado_26214_5_);}
	.st127{fill:url(#Trazado_26215_5_);}
	.st128{fill:url(#Trazado_26216_5_);}
	.st129{fill:url(#Trazado_26217_5_);}
	.st130{fill:url(#Trazado_26218_5_);}
	.st131{fill:url(#Trazado_24566_10_);}
	.st132{fill:url(#Trazado_24567_10_);}
	.st133{fill:url(#Trazado_24568_10_);}
	.st134{fill:url(#Trazado_24569_10_);}
	.st135{fill:url(#Trazado_24570_10_);}
	.st136{fill:url(#Trazado_24571_10_);}
	.st137{fill:url(#Trazado_24572_10_);}
	.st138{fill:url(#Unión_55_1_);}
	.st139{fill:url(#Trazado_904_5_);}
	.st140{fill:url(#Trazado_905_5_);}
	.st141{fill:url(#Trazado_906_5_);}
	.st142{fill:url(#Trazado_24631_5_);}
	.st143{fill:url(#Trazado_24632_5_);}
	.st144{fill:url(#Trazado_24633_5_);}
	.st145{fill:url(#Trazado_24634_5_);}
	.st146{fill:url(#Trazado_24635_5_);}
	.st147{fill:url(#Trazado_24636_5_);}
	.st148{fill:url(#Trazado_24637_5_);}
	.st149{fill:url(#Trazado_24638_5_);}
	.st150{fill:url(#Trazado_24639_5_);}
	.st151{fill:url(#Trazado_24640_5_);}
	.st152{fill:url(#Rectángulo_3914-2_1_);}
	.st153{clip-path:url(#SVGID_6_);fill:#EBEEF0;}
	.st154{clip-path:url(#SVGID_6_);}
	.st155{opacity:0.2;clip-path:url(#SVGID_6_);fill:#26F70F;}
	.st156{opacity:0.1;clip-path:url(#SVGID_6_);}
	.st157{opacity:0.2;fill:#F90D0D;}
	.st158{fill:none;stroke:#FF0000;stroke-width:5;stroke-miterlimit:10;}
	.st159{clip-path:url(#SVGID_14_);fill:#EBEEF0;}
	.st160{clip-path:url(#SVGID_14_);}
	.st161{opacity:0.2;clip-path:url(#SVGID_14_);fill:#26F70F;}
	.st162{fill:none;stroke:#26F70F;stroke-width:7;stroke-miterlimit:10;}
	.st163{fill:url(#Rectángulo_3928_2_);}
	.st164{fill:#F0F2F4;}
	.st165{opacity:0.28;fill:none;stroke:#BEC8D2;enable-background:new    ;}
	.st166{fill:none;stroke:#E2E7EB;}
	.st167{fill:#00B4DC;}
	.st168{fill:url(#Trazado_24687_4_);}
	.st169{fill:url(#Trazado_24688_4_);}
	.st170{fill:url(#Trazado_24689_4_);}
	.st171{fill:url(#Trazado_24690_4_);}
	.st172{fill:url(#Rectángulo_1733_4_);}
	.st173{fill:url(#Rectángulo_1734_4_);}
	.st174{fill:url(#Rectángulo_1735_4_);}
	.st175{fill:url(#Trazado_24687_5_);}
	.st176{fill:url(#Trazado_24688_5_);}
	.st177{fill:url(#Trazado_24689_5_);}
	.st178{fill:url(#Trazado_24690_5_);}
	.st179{fill:url(#Rectángulo_1733_5_);}
	.st180{fill:url(#Rectángulo_1734_5_);}
	.st181{fill:url(#Rectángulo_1735_5_);}
	.st182{fill:url(#Trazado_24566_11_);}
	.st183{fill:url(#Trazado_24567_11_);}
	.st184{fill:url(#Trazado_24568_11_);}
	.st185{fill:url(#Trazado_24569_11_);}
	.st186{fill:url(#Trazado_24570_11_);}
	.st187{fill:url(#Trazado_24571_11_);}
	.st188{fill:url(#Trazado_24572_11_);}
	.st189{fill:url(#Trazado_26237_4_);}
	.st190{fill:url(#Trazado_26238_4_);}
	.st191{fill:url(#Trazado_26242_4_);}
	.st192{fill:url(#Trazado_26243_4_);}
	.st193{fill:url(#Trazado_26244_4_);}
	.st194{fill:url(#Trazado_26245_4_);}
	.st195{fill:url(#Trazado_26246_4_);}
	.st196{fill:url(#Trazado_26247_4_);}
	.st197{fill:url(#Trazado_26248_4_);}
	.st198{fill:url(#Trazado_26249_4_);}
	.st199{fill:url(#Trazado_26250_4_);}
	.st200{fill:url(#Trazado_26251_4_);}
	.st201{fill:url(#Trazado_26252_4_);}
	.st202{fill:url(#Trazado_26253_4_);}
	.st203{fill:url(#Trazado_26254_4_);}
	.st204{fill:url(#Trazado_26255_4_);}
	.st205{fill:url(#Trazado_26256_4_);}
	.st206{fill:url(#Trazado_26257_4_);}
	.st207{fill:url(#Trazado_26258_4_);}
	.st208{fill:url(#Trazado_26259_4_);}
	.st209{fill:url(#Trazado_26260_4_);}
	.st210{fill:url(#Trazado_26261_4_);}
	.st211{fill:url(#Trazado_26262_4_);}
	.st212{fill:url(#Trazado_26263_4_);}
	.st213{fill:url(#Trazado_26264_4_);}
	.st214{fill:url(#Trazado_26265_4_);}
	.st215{fill:url(#Trazado_26266_4_);}
	.st216{fill:url(#Trazado_26267_4_);}
	.st217{fill:url(#Trazado_26268_4_);}
	.st218{fill:url(#Trazado_26269_4_);}
	.st219{fill:url(#Trazado_26270_4_);}
	.st220{fill:url(#Trazado_26271_4_);}
	.st221{fill:url(#Trazado_26272_4_);}
	.st222{fill:url(#Trazado_26273_4_);}
	.st223{fill:url(#Trazado_26274_4_);}
	.st224{fill:url(#Trazado_26275_4_);}
	.st225{fill:url(#Trazado_26276_4_);}
	.st226{fill:url(#Trazado_26277_4_);}
	.st227{fill:url(#Trazado_26278_4_);}
	.st228{fill:url(#Trazado_26279_4_);}
	.st229{fill:url(#Trazado_26284_3_);}
	.st230{fill:url(#Trazado_26285_3_);}
	.st231{fill:url(#Trazado_26230_5_);}
	.st232{fill:url(#Trazado_26231_5_);}
	.st233{fill:url(#Trazado_26232_5_);}
	.st234{fill:url(#Rectángulo_3918_5_);}
	.st235{fill:url(#Rectángulo_3919_5_);}
	.st236{fill:url(#Rectángulo_3920_5_);}
	.st237{fill:url(#Rectángulo_3921_5_);}
	.st238{fill:url(#Rectángulo_3922_5_);}
	.st239{fill:url(#Rectángulo_3923_5_);}
	.st240{fill:url(#Rectángulo_3924_5_);}
	.st241{fill:url(#Rectángulo_3925_5_);}
	.st242{fill:url(#Rectángulo_3928_3_);}
	.st243{fill:url(#Trazado_24566_12_);}
	.st244{fill:url(#Trazado_24567_12_);}
	.st245{fill:url(#Trazado_24568_12_);}
	.st246{fill:url(#Trazado_24569_12_);}
	.st247{fill:url(#Trazado_24570_12_);}
	.st248{fill:url(#Trazado_24571_12_);}
	.st249{fill:url(#Trazado_24572_12_);}
	.st250{fill:url(#Trazado_26233_2_);}
	.st251{fill:url(#Trazado_26234_2_);}
	.st252{fill:url(#Trazado_26235_2_);}
	.st253{fill:url(#Trazado_26236_2_);}
	.st254{fill:url(#Trazado_26237_5_);}
	.st255{fill:url(#Trazado_26238_5_);}
	.st256{fill:url(#Trazado_26242_5_);}
	.st257{fill:url(#Trazado_26243_5_);}
	.st258{fill:url(#Trazado_26244_5_);}
	.st259{fill:url(#Trazado_26245_5_);}
	.st260{fill:url(#Trazado_26246_5_);}
	.st261{fill:url(#Trazado_26247_5_);}
	.st262{fill:url(#Trazado_26248_5_);}
	.st263{fill:url(#Trazado_26249_5_);}
	.st264{fill:url(#Trazado_26250_5_);}
	.st265{fill:url(#Trazado_26251_5_);}
	.st266{fill:url(#Trazado_26252_5_);}
	.st267{fill:url(#Trazado_26253_5_);}
	.st268{fill:url(#Trazado_26254_5_);}
	.st269{fill:url(#Trazado_26255_5_);}
	.st270{fill:url(#Trazado_26256_5_);}
	.st271{fill:url(#Trazado_26257_5_);}
	.st272{fill:url(#Trazado_26258_5_);}
	.st273{fill:url(#Trazado_26259_5_);}
	.st274{fill:url(#Trazado_26260_5_);}
	.st275{fill:url(#Trazado_26261_5_);}
	.st276{fill:url(#Trazado_26262_5_);}
	.st277{fill:url(#Trazado_26263_5_);}
	.st278{fill:url(#Trazado_26264_5_);}
	.st279{fill:url(#Trazado_26265_5_);}
	.st280{fill:url(#Trazado_26266_5_);}
	.st281{fill:url(#Trazado_26267_5_);}
	.st282{fill:url(#Trazado_26268_5_);}
	.st283{fill:url(#Trazado_26269_5_);}
	.st284{fill:url(#Trazado_26270_5_);}
	.st285{fill:url(#Trazado_26271_5_);}
	.st286{fill:url(#Trazado_26272_5_);}
	.st287{fill:url(#Trazado_26273_5_);}
	.st288{fill:url(#Trazado_26274_5_);}
	.st289{fill:url(#Trazado_26275_5_);}
	.st290{fill:url(#Trazado_26276_5_);}
	.st291{fill:url(#Trazado_26277_5_);}
	.st292{fill:url(#Trazado_26278_5_);}
	.st293{fill:url(#Trazado_26279_5_);}
	.st294{fill:url(#Trazado_26284_4_);}
	.st295{fill:url(#Trazado_26285_4_);}
	.st296{fill:url(#Trazado_26230_6_);}
	.st297{fill:url(#Trazado_26231_6_);}
	.st298{fill:url(#Trazado_26232_6_);}
	.st299{fill:url(#Rectángulo_3918_6_);}
	.st300{fill:url(#Rectángulo_3919_6_);}
	.st301{fill:url(#Rectángulo_3920_6_);}
	.st302{fill:url(#Rectángulo_3921_6_);}
	.st303{fill:url(#Rectángulo_3922_6_);}
	.st304{fill:url(#Rectángulo_3923_6_);}
	.st305{fill:url(#Rectángulo_3924_6_);}
	.st306{fill:url(#Rectángulo_3925_6_);}
	.st307{fill:none;stroke:#006495;stroke-linecap:square;stroke-miterlimit:10;stroke-dasharray:2,2;}
	.st308{fill:#262944;}
	.st309{fill:none;stroke:#FFFFFF;stroke-miterlimit:10;}
	.st310{fill:url(#Trazado_24869_4_);}
	.st311{fill:url(#Trazado_26191_5_);}
	.st312{fill:url(#Trazado_26192_5_);}
	.st313{fill:url(#Trazado_26193_5_);}
	.st314{fill:url(#Trazado_26194_5_);}
	.st315{fill:url(#Trazado_26195_5_);}
	.st316{fill:url(#Trazado_26196_5_);}
	.st317{fill:url(#Trazado_26197_5_);}
	.st318{fill:url(#Trazado_26198_6_);}
	.st319{fill:url(#Trazado_26199_6_);}
	.st320{fill:url(#Trazado_26200_6_);}
	.st321{fill:url(#Trazado_26201_6_);}
	.st322{fill:url(#Trazado_26202_6_);}
	.st323{fill:url(#Trazado_26203_6_);}
	.st324{fill:url(#Trazado_26204_6_);}
	.st325{fill:url(#Trazado_26205_6_);}
	.st326{fill:url(#Trazado_26206_6_);}
	.st327{fill:url(#Trazado_26207_6_);}
	.st328{fill:url(#Trazado_26208_6_);}
	.st329{fill:url(#Trazado_26209_6_);}
	.st330{fill:url(#Trazado_26210_6_);}
	.st331{fill:url(#Trazado_26211_6_);}
	.st332{fill:url(#Trazado_26212_6_);}
	.st333{fill:url(#Trazado_26213_6_);}
	.st334{fill:url(#Trazado_26214_6_);}
	.st335{fill:url(#Trazado_26215_6_);}
	.st336{fill:url(#Trazado_26216_6_);}
	.st337{fill:url(#Trazado_26217_6_);}
	.st338{fill:url(#Trazado_26218_6_);}
	.st339{fill:url(#Trazado_24566_13_);}
	.st340{fill:url(#Trazado_24567_13_);}
	.st341{fill:url(#Trazado_24568_13_);}
	.st342{fill:url(#Trazado_24569_13_);}
	.st343{fill:url(#Trazado_24570_13_);}
	.st344{fill:url(#Trazado_24571_13_);}
	.st345{fill:url(#Trazado_24572_13_);}
	.st346{fill:url(#Trazado_26354_3_);}
	.st347{fill:url(#Trazado_904_6_);}
	.st348{fill:url(#Trazado_905_6_);}
	.st349{fill:url(#Trazado_906_6_);}
	.st350{fill:url(#Trazado_24631_6_);}
	.st351{fill:url(#Trazado_24632_6_);}
	.st352{fill:url(#Trazado_24633_6_);}
	.st353{fill:url(#Trazado_24634_6_);}
	.st354{fill:url(#Trazado_24635_6_);}
	.st355{fill:url(#Trazado_24636_6_);}
	.st356{fill:url(#Trazado_24637_6_);}
	.st357{fill:url(#Trazado_24638_6_);}
	.st358{fill:url(#Trazado_24639_6_);}
	.st359{fill:url(#Trazado_24640_6_);}
	.st360{fill:url(#Trazado_884_4_);}
	.st361{fill:url(#Trazado_24616_4_);}
	.st362{fill:url(#Trazado_24617_4_);}
	.st363{fill:url(#Trazado_24618_4_);}
	.st364{fill:url(#Trazado_24619_4_);}
	.st365{fill:url(#Trazado_24620_4_);}
	.st366{fill:url(#Trazado_24621_4_);}
	.st367{fill:url(#Trazado_24622_4_);}
	.st368{fill:#FF6161;}
	.st369{fill:url(#Trazado_26233_5_);}
	.st370{fill:url(#Trazado_26234_5_);}
	.st371{fill:url(#Trazado_26235_5_);}
	.st372{fill:url(#Trazado_26236_5_);}
	.st373{fill:url(#Trazado_24566_14_);}
	.st374{fill:url(#Trazado_24567_14_);}
	.st375{fill:url(#Trazado_24568_14_);}
	.st376{fill:url(#Trazado_24569_14_);}
	.st377{fill:url(#Trazado_24570_14_);}
	.st378{fill:url(#Trazado_24571_14_);}
	.st379{fill:url(#Trazado_24572_14_);}
	.st380{fill:url(#Trazado_24566_15_);}
	.st381{fill:url(#Trazado_24567_15_);}
	.st382{fill:url(#Trazado_24568_15_);}
	.st383{fill:url(#Trazado_24569_15_);}
	.st384{fill:url(#Trazado_24570_15_);}
	.st385{fill:url(#Trazado_24571_15_);}
	.st386{fill:url(#Trazado_24572_15_);}
	.st387{fill:url(#Trazado_26237_6_);}
	.st388{fill:url(#Trazado_26238_6_);}
	.st389{fill:url(#Trazado_26242_6_);}
	.st390{fill:url(#Trazado_26243_6_);}
	.st391{fill:url(#Trazado_26244_6_);}
	.st392{fill:url(#Trazado_26245_6_);}
	.st393{fill:url(#Trazado_26246_6_);}
	.st394{fill:url(#Trazado_26247_6_);}
	.st395{fill:url(#Trazado_26248_6_);}
	.st396{fill:url(#Trazado_26249_6_);}
	.st397{fill:url(#Trazado_26250_6_);}
	.st398{fill:url(#Trazado_26251_6_);}
	.st399{fill:url(#Trazado_26252_6_);}
	.st400{fill:url(#Trazado_26253_6_);}
	.st401{fill:url(#Trazado_26254_6_);}
	.st402{fill:url(#Trazado_26255_6_);}
	.st403{fill:url(#Trazado_26256_6_);}
	.st404{fill:url(#Trazado_26257_6_);}
	.st405{fill:url(#Trazado_26258_6_);}
	.st406{fill:url(#Trazado_26259_6_);}
	.st407{fill:url(#Trazado_26260_6_);}
	.st408{fill:url(#Trazado_26261_6_);}
	.st409{fill:url(#Trazado_26262_6_);}
	.st410{fill:url(#Trazado_26263_6_);}
	.st411{fill:url(#Trazado_26264_6_);}
	.st412{fill:url(#Trazado_26265_6_);}
	.st413{fill:url(#Trazado_26266_6_);}
	.st414{fill:url(#Trazado_26267_6_);}
	.st415{fill:url(#Trazado_26268_6_);}
	.st416{fill:url(#Trazado_26269_6_);}
	.st417{fill:url(#Trazado_26270_6_);}
	.st418{fill:url(#Trazado_26271_6_);}
	.st419{fill:url(#Trazado_26272_6_);}
	.st420{fill:url(#Trazado_26273_6_);}
	.st421{fill:url(#Trazado_26274_6_);}
	.st422{fill:url(#Trazado_26275_6_);}
	.st423{fill:url(#Trazado_26276_6_);}
	.st424{fill:url(#Trazado_26277_6_);}
	.st425{fill:url(#Trazado_26278_6_);}
	.st426{fill:url(#Trazado_26279_6_);}
	.st427{fill:url(#Trazado_26284_6_);}
	.st428{fill:url(#Trazado_26285_6_);}
	.st429{fill:url(#Trazado_26230_7_);}
	.st430{fill:url(#Trazado_26231_7_);}
	.st431{fill:url(#Trazado_26232_7_);}
	.st432{fill:url(#Rectángulo_3918_7_);}
	.st433{fill:url(#Rectángulo_3919_7_);}
	.st434{fill:url(#Rectángulo_3920_7_);}
	.st435{fill:url(#Rectángulo_3921_7_);}
	.st436{fill:url(#Rectángulo_3922_7_);}
	.st437{fill:url(#Rectángulo_3923_7_);}
	.st438{fill:url(#Rectángulo_3924_7_);}
	.st439{fill:url(#Rectángulo_3925_7_);}
	.st440{opacity:0.1;fill:#FF2929;}
	.st441{fill:#CCF0F8;}
	.st442{opacity:0.2;fill:#D31A1A;}
	.st443{fill:#E2E7EB;}
	.st444{fill:none;stroke:#BEC8D2;}
	.st445{fill:#D5F4E6;}
	.st446{fill-rule:evenodd;clip-rule:evenodd;fill:#262944;}
	.st447{fill:url(#Trazado_26409_1_);}
	.st448{fill:url(#Trazado_26410_1_);}
	.st449{fill:url(#Trazado_26411_1_);}
	.st450{fill:url(#Trazado_26412_1_);}
	.st451{fill:url(#Trazado_26413_1_);}
	.st452{fill:url(#Trazado_26414_1_);}
	.st453{fill:url(#Trazado_26415_1_);}
	.st454{fill:url(#Trazado_26416_1_);}
	.st455{fill:url(#Trazado_26417_1_);}
	.st456{fill:url(#Trazado_26418_1_);}
	.st457{fill:url(#Trazado_26419_1_);}
	.st458{fill:url(#Trazado_26420_1_);}
	.st459{fill:url(#Trazado_26421_1_);}
	.st460{fill:url(#Trazado_26516_2_);}
	.st461{fill:url(#Trazado_26517_2_);}
	.st462{fill:url(#Trazado_26518_2_);}
	.st463{fill:url(#Trazado_26519_2_);}
	.st464{fill:url(#Trazado_26520_2_);}
	.st465{fill:url(#Trazado_26521_2_);}
	.st466{fill:url(#Trazado_26522_2_);}
</style>
<g id="Grupo_17653_1_" transform="translate(-3765.135 -477.498)">
	
		<linearGradient id="Trazado_26516_2_" gradientUnits="userSpaceOnUse" x1="52.862" y1="4908.8818" x2="53.862" y2="4908.8818" gradientTransform="matrix(134.3118 0 0 -133.0123 -3330.4204 653490.75)">
		<stop  offset="0" style="stop-color:#41D78C"/>
		<stop  offset="1" style="stop-color:#00B4DC"/>
	</linearGradient>
	<path id="Trazado_26516_1_" class="st460" d="M3769.57,502.36c0.05,27.83,0.06,55.67,0.03,83.5c0,3.33,1.07,4.41,4.36,4.43
		c3.15,0.02,6.31,0.21,9.44-0.03c11-0.86,21.03,2.66,31.11,6.37c17.02,6.29,34.14,12.33,51.21,18.46c3.11,1.12,4.49,0.45,5.62-2.68
		c4.87-13.53,9.74-27.05,14.6-40.58c0.12-0.33,0.22-0.66,0.33-1c0.45-0.94,0.05-2.07-0.88-2.52c-0.07-0.03-0.13-0.06-0.2-0.08
		c-1.31-0.53-2.18,0.21-2.62,1.37c-0.94,2.48-1.8,4.99-2.7,7.48c-3.89,10.84-7.78,21.68-11.67,32.52c-0.39,1.08-0.56,2.05-2.24,1.43
		c-12.51-4.6-25.06-9.1-37.6-13.63c-0.63,0.12-1.11-0.31-1.66-0.46l-1.24-0.43c-0.5,0.01-0.98-0.01-1.12-0.71
		c0.67-0.2,1.4-0.1,1.99,0.27l0,0l2.17,0.41l0,0c0.58-0.07,1.17,0.08,1.64,0.43c7.99,1.33,15.98,2.67,23.97,4
		c2,0.34,3.99,0.73,5.98,1.04c2.63,0.42,4.02-0.48,4.49-3.11c1.96-11.15,3.86-22.3,5.77-33.45c2.81-16.38,5.61-32.77,8.4-49.16
		c0.25-1.49,0.81-1.55,2.07-1.11c5.72,2.02,11.46,4.02,17.23,5.89c1.57,0.51,1.64,1.13,1.13,2.52
		c-4.34,11.86-8.63,23.74-12.88,35.64c-0.51,1.42-1.78,3.24,0.44,4.14c2.38,0.96,2.69-1.28,3.24-2.78
		c4.49-12.4,8.97-24.81,13.42-37.23c1.05-2.93,0.36-4.41-2.65-5.46c-6.4-2.22-12.79-4.43-19.22-6.56c-1.4-0.46-1.92-1.07-1.5-2.54
		c0.33-1.29,0.57-2.59,0.73-3.91c0.44-3.02-0.47-4.3-3.48-4.82c-6.4-1.11-12.79-2.29-19.22-3.24c-1.91-0.28-2.42-1-2.31-2.8
		c0.15-2.37,0.06-4.75,0.03-7.13c-0.03-3.04-1.15-4.2-4.19-4.22c-5.31-0.04-10.63-0.01-15.95-0.01c-15.04,0-30.07,0.02-45.11-0.03
		c-1.75-0.08-3.45,0.59-4.68,1.84c-4.8,4.69-9.65,9.32-14.56,13.91C3770.16,499.34,3769.51,500.82,3769.57,502.36z M3786.9,499.34
		c-3.45,0-6.91,0-10.89,0l12.03-11.46c0,3.74-0.01,6.81,0.01,9.89C3788.04,498.6,3788.01,499.34,3786.9,499.34L3786.9,499.34z
		 M3773.47,584.51c0.05-26.43,0.06-52.86,0.01-79.29c0-1.47,0.42-1.91,1.88-1.87c3.63,0.1,7.27,0.07,10.91,0.02
		c3.99-0.05,5.61-1.69,5.65-5.61c0.03-3.01,0.13-6.02-0.01-9.02c-0.09-1.8,0.54-2.17,2.24-2.16c18.53,0.06,37.06,0.06,55.59,0
		c1.72-0.01,2.21,0.39,2.21,2.16c-0.07,16.15-0.04,32.3-0.04,48.46c-0.03,0.63-0.02,1.26,0.04,1.89c0.04,1.01,0.9,1.78,1.9,1.74
		c0.03,0,0.06,0,0.09-0.01c0.95,0.05,1.76-0.67,1.81-1.62c0-0.01,0-0.03,0-0.04c0.06-0.7,0.09-1.39,0.07-2.09
		c0-11.61,0.03-23.22-0.03-34.82c-0.01-1.5,0.31-1.9,1.89-1.61c5.49,1.04,11.01,1.93,16.52,2.85c2.81,0.47,2.78,0.44,2.29,3.28
		c-1.9,10.87-3.78,21.75-5.65,32.62c-3.23,18.79-6.48,37.58-9.59,56.39c-0.36,2.2-1.21,2.24-3,1.93
		c-12.86-2.26-25.74-4.43-38.62-6.63c-1.08,0.24-1.93-0.43-2.92-0.57c1.06-0.38,2.21-0.44,3.3-0.18c10.35,0,20.7-0.01,31.05-0.01
		c3.83,0,4.77-0.91,4.78-4.65c0.01-12.1,0.01-24.19,0-36.29c0.01-0.49-0.01-0.98-0.05-1.47c-0.01-0.99-0.81-1.78-1.8-1.77
		c-0.05,0-0.11,0-0.16,0.01c-1.02-0.02-1.86,0.79-1.88,1.81c0,0.02,0,0.04,0,0.06c-0.05,0.55-0.02,1.12-0.02,1.68
		c0,11.61-0.03,23.22,0.04,34.82c0.01,1.57-0.39,1.97-1.97,1.97c-24.83-0.05-49.65-0.05-74.48,0
		C3773.96,586.46,3773.47,586.13,3773.47,584.51L3773.47,584.51z"/>
	
		<linearGradient id="Trazado_26517_2_" gradientUnits="userSpaceOnUse" x1="84.6354" y1="5798.4663" x2="85.6354" y2="5798.4663" gradientTransform="matrix(60.0942 0 0 -4.0425 -1302.4369 23981.6914)">
		<stop  offset="0" style="stop-color:#41D78C"/>
		<stop  offset="1" style="stop-color:#00B4DC"/>
	</linearGradient>
	<path id="Trazado_26517_1_" class="st461" d="M3841.89,539.18c-0.56-0.05-1.12-0.07-1.67-0.04c-8.87,0-17.75,0-26.62,0
		c-9.08,0-18.16,0-27.25-0.01c-1.42,0-2.63,0.38-2.68,1.96c-0.05,1.61,1.16,2.06,2.57,2.06c0.35,0,0.7,0,1.05,0
		c17.61,0,35.21,0,52.82,0c0.63,0.03,1.26,0.01,1.88-0.07c1.04-0.06,1.83-0.95,1.77-1.98c0,0,0,0,0-0.01
		C3843.74,540.07,3842.92,539.23,3841.89,539.18z"/>
	
		<linearGradient id="Trazado_26518_2_" gradientUnits="userSpaceOnUse" x1="135.2338" y1="5798.4385" x2="136.2338" y2="5798.4385" gradientTransform="matrix(31.9656 0 0 -4.0427 -539.1605 23966.8672)">
		<stop  offset="0" style="stop-color:#41D78C"/>
		<stop  offset="1" style="stop-color:#00B4DC"/>
	</linearGradient>
	<path id="Trazado_26518_1_" class="st462" d="M3813.76,523.76c-0.56-0.05-1.12-0.07-1.67-0.04h-17.8c-9.08,0,1.15,0.01-7.93-0.01
		c-1.42,0-2.63,0.38-2.68,1.96c-0.05,1.61,1.16,2.07,2.57,2.06h1.05c17.6,0,7.08,0,24.69,0c0.63,0.03,1.26,0.01,1.88-0.07
		c1.04-0.06,1.83-0.95,1.77-1.99c0,0,0,0,0,0C3815.61,524.65,3814.79,523.8,3813.76,523.76z"/>
	
		<linearGradient id="Trazado_26519_2_" gradientUnits="userSpaceOnUse" x1="209.4853" y1="5798.2173" x2="210.4853" y2="5798.2173" gradientTransform="matrix(18.9495 0 0 -4.0436 -185.9713 23959.0391)">
		<stop  offset="0" style="stop-color:#41D78C"/>
		<stop  offset="1" style="stop-color:#00B4DC"/>
	</linearGradient>
	<path id="Trazado_26519_1_" class="st463" d="M3800.74,511.17c-0.56-0.05-1.12-0.07-1.67-0.04c-8.87,0,4.09,0-4.79,0
		c-9.08,0,1.15,0.01-7.93-0.01c-1.42,0-2.63,0.38-2.68,1.96c-0.05,1.61,1.16,2.07,2.57,2.06c0.35,0,0.7,0,1.05,0
		c17.6,0-5.93,0,11.67,0c0.63,0.03,1.26,0.01,1.88-0.07c1.04-0.06,1.83-0.95,1.77-1.99c0,0,0,0,0,0
		C3802.59,512.05,3801.78,511.21,3800.74,511.17z"/>
	
		<linearGradient id="Trazado_26520_2_" gradientUnits="userSpaceOnUse" x1="84.5978" y1="5819.2622" x2="85.5978" y2="5819.2622" gradientTransform="matrix(60.1335 0 0 -3.9529 -1303.5649 23558.3398)">
		<stop  offset="0" style="stop-color:#41D78C"/>
		<stop  offset="1" style="stop-color:#00B4DC"/>
	</linearGradient>
	<path id="Trazado_26520_1_" class="st464" d="M3786.47,557.11c9.01-0.01,18.02-0.02,27.03-0.01c9.22,0,18.44,0,27.66,0.01
		c1.45,0,2.59-0.45,2.57-2.04c-0.01-1.5-1.17-1.91-2.5-1.89c-0.35,0-0.7,0-1.05,0c-17.67,0-35.34,0-53.01,0
		c-0.7-0.05-1.4-0.01-2.08,0.13c-0.96,0.15-1.62,1.04-1.47,2c0.03,0.21,0.1,0.41,0.21,0.6
		C3784.3,557.11,3785.38,557.11,3786.47,557.11z"/>
	
		<linearGradient id="Trazado_26521_2_" gradientUnits="userSpaceOnUse" x1="84.6365" y1="5816.8926" x2="85.6365" y2="5816.8926" gradientTransform="matrix(60.093 0 0 -3.963 -1302.4187 23621.1719)">
		<stop  offset="0" style="stop-color:#41D78C"/>
		<stop  offset="1" style="stop-color:#00B4DC"/>
	</linearGradient>
	<path id="Trazado_26521_1_" class="st465" d="M3841.14,567.14c-0.28,0.01-0.56,0-0.84,0c-17.74,0-35.48,0-53.22,0
		c-0.56-0.02-1.12-0.01-1.67,0.04c-1.02,0.04-1.81,0.91-1.76,1.92c0,0.02,0,0.04,0,0.06c-0.03,0.96,0.71,1.78,1.67,1.85
		c0.62,0.07,1.25,0.09,1.88,0.07c8.8,0,17.6,0,26.4,0h26.2c0.49,0,0.98-0.01,1.47,0c1.35,0.02,2.46-0.45,2.48-1.93
		C3843.75,567.54,3842.57,567.1,3841.14,567.14z"/>
	
		<linearGradient id="Trazado_26522_2_" gradientUnits="userSpaceOnUse" x1="189.785" y1="5042.9175" x2="190.785" y2="5042.9175" gradientTransform="matrix(21.2446 0 0 -22.9058 -207.6343 116030.2188)">
		<stop  offset="0" style="stop-color:#41D78C"/>
		<stop  offset="1" style="stop-color:#00B4DC"/>
	</linearGradient>
	<path id="Trazado_26522_1_" class="st466" d="M3844.95,506.86c-0.63-0.46-1.51-0.33-1.98,0.29c0,0,0,0,0,0l-2.78,3.75h-13.49
		c-1.34,0-2.43,1.09-2.43,2.43v13.73c0,1.34,1.09,2.43,2.43,2.43h13.82c1.34,0,2.43-1.09,2.43-2.43v-13.73
		c0-0.37-0.09-0.74-0.26-1.08l2.53-3.42C3845.71,508.21,3845.58,507.33,3844.95,506.86z M3827.11,526.66v-12.93h11l-4.51,6.09
		l-1.4-1.57c-0.52-0.58-1.41-0.64-2-0.12c-0.58,0.52-0.64,1.41-0.12,2l2.55,2.87c0.27,0.3,0.65,0.47,1.06,0.47h0.06
		c0.43-0.02,0.82-0.23,1.07-0.57l5.31-7.17v10.93L3827.11,526.66z"/>
</g>
</svg>
