<?xml version="1.0" encoding="utf-8"?>
<!-- Generator: Adobe Illustrator 25.2.1, SVG Export Plug-In . SVG Version: 6.00 Build 0)  -->
<svg version="1.1" id="Capa_1" xmlns="http://www.w3.org/2000/svg" xmlns:xlink="http://www.w3.org/1999/xlink" x="0px" y="0px"
	 viewBox="0 0 143.18 143.19" style="enable-background:new 0 0 143.18 143.19;" xml:space="preserve">
<style type="text/css">
	.st0{fill:#F6F7F9;}
	.st1{fill:#6E6E6E;}
	.st2{fill:#FFFFFF;}
	.st3{fill:#DCDCDC;}
	.st4{fill:url(#Trazado_26198_4_);}
	.st5{fill:url(#Trazado_26199_4_);}
	.st6{fill:url(#Trazado_26200_4_);}
	.st7{fill:url(#Trazado_26201_4_);}
	.st8{fill:url(#Trazado_26202_4_);}
	.st9{fill:url(#Trazado_26203_4_);}
	.st10{fill:url(#Trazado_26204_4_);}
	.st11{fill:url(#Trazado_26205_4_);}
	.st12{fill:url(#Trazado_26206_4_);}
	.st13{fill:url(#Trazado_26207_4_);}
	.st14{fill:url(#Trazado_26208_4_);}
	.st15{fill:url(#Trazado_26209_4_);}
	.st16{fill:url(#Trazado_26210_4_);}
	.st17{fill:url(#Trazado_26211_4_);}
	.st18{fill:url(#Trazado_26212_4_);}
	.st19{fill:url(#Trazado_26213_4_);}
	.st20{fill:url(#Trazado_26214_4_);}
	.st21{fill:url(#Trazado_26215_4_);}
	.st22{fill:url(#Trazado_24566_9_);}
	.st23{fill:url(#Trazado_24567_9_);}
	.st24{fill:url(#Trazado_24568_9_);}
	.st25{fill:url(#Trazado_24569_9_);}
	.st26{fill:url(#Trazado_24570_9_);}
	.st27{fill:url(#Trazado_24571_9_);}
	.st28{fill:url(#Trazado_24572_9_);}
	.st29{fill:url(#Trazado_26216_4_);}
	.st30{fill:url(#Trazado_26217_4_);}
	.st31{fill:url(#Trazado_26218_4_);}
	.st32{fill:url(#Trazado_26336_1_);}
	.st33{fill:url(#Unión_52_1_);}
	.st34{fill:url(#Trazado_904_4_);}
	.st35{fill:url(#Trazado_905_4_);}
	.st36{fill:url(#Trazado_906_4_);}
	.st37{fill:url(#Trazado_24631_4_);}
	.st38{fill:url(#Trazado_24632_4_);}
	.st39{fill:url(#Trazado_24633_4_);}
	.st40{fill:url(#Trazado_24634_4_);}
	.st41{fill:url(#Trazado_24635_4_);}
	.st42{fill:url(#Trazado_24636_4_);}
	.st43{fill:url(#Trazado_24637_4_);}
	.st44{fill:url(#Trazado_24638_4_);}
	.st45{fill:url(#Trazado_24639_4_);}
	.st46{fill:url(#Trazado_24640_4_);}
	.st47{fill:url(#Trazado_884_3_);}
	.st48{fill:url(#Trazado_24616_3_);}
	.st49{fill:url(#Trazado_24617_3_);}
	.st50{fill:url(#Trazado_24618_3_);}
	.st51{fill:url(#Trazado_24619_3_);}
	.st52{fill:url(#Trazado_24620_3_);}
	.st53{fill:url(#Trazado_24621_3_);}
	.st54{fill:url(#Trazado_24622_3_);}
	.st55{fill:none;stroke:#CCCCCC;}
	.st56{fill:url(#Trazado_904-2_2_);}
	.st57{fill:url(#Trazado_905-2_2_);}
	.st58{fill:url(#Trazado_906-2_2_);}
	.st59{fill:url(#Trazado_24631-2_2_);}
	.st60{fill:url(#Trazado_24632-2_2_);}
	.st61{fill:url(#Trazado_24633-2_2_);}
	.st62{fill:url(#Trazado_24634-2_2_);}
	.st63{fill:url(#Trazado_24635-2_2_);}
	.st64{fill:url(#Trazado_24636-2_2_);}
	.st65{fill:url(#Trazado_24637-2_2_);}
	.st66{fill:url(#Trazado_24638-2_2_);}
	.st67{fill:url(#Trazado_24639-2_2_);}
	.st68{fill:url(#Trazado_24640-2_2_);}
	.st69{fill:url(#Trazado_884-2_1_);}
	.st70{fill:url(#Trazado_24616-2_1_);}
	.st71{fill:url(#Trazado_24617-2_1_);}
	.st72{fill:url(#Trazado_24618-2_1_);}
	.st73{fill:url(#Trazado_24619-2_1_);}
	.st74{fill:url(#Trazado_24620-2_1_);}
	.st75{fill:url(#Trazado_24621-2_1_);}
	.st76{fill:url(#Trazado_24622-2_1_);}
	.st77{fill:url(#Trazado_26355_1_);}
	.st78{opacity:0.2;fill:#26F70F;}
	.st79{fill:#F90D0D;}
	.st80{fill:none;stroke:#F90D0D;stroke-miterlimit:10;}
	.st81{fill:none;stroke:#FF2929;stroke-miterlimit:10;}
	.st82{opacity:0.2;}
	.st83{fill:#FF2929;}
	.st84{opacity:0.2;fill:#FF2929;}
	.st85{fill:#3366CC;}
	.st86{fill:none;stroke:#FFFFFF;}
	.st87{fill:#0070BA;}
	.st88{fill:#E3134D;}
	.st89{fill:#FEC20A;}
	.st90{fill:#70AF3D;}
	.st91{fill:#9B156E;}
	.st92{fill:#FBD015;}
	.st93{fill:#05569E;}
	.st94{fill:#D11F3E;}
	.st95{fill:none;}
	.st96{fill-rule:evenodd;clip-rule:evenodd;fill:#3366CC;}
	.st97{fill:none;stroke:#707070;}
	.st98{stroke:#FF2929;stroke-width:4;stroke-miterlimit:10;}
	.st99{fill:none;stroke:#FF2929;stroke-width:4;stroke-miterlimit:10;}
	.st100{fill:none;stroke:#000000;stroke-miterlimit:10;}
	.st101{fill:#41D78C;}
	.st102{fill:url(#Trazado_24869_3_);}
	.st103{fill:url(#Trazado_26191_3_);}
	.st104{fill:url(#Trazado_26192_3_);}
	.st105{fill:url(#Trazado_26193_3_);}
	.st106{fill:url(#Trazado_26194_3_);}
	.st107{fill:url(#Trazado_26195_3_);}
	.st108{fill:url(#Trazado_26196_3_);}
	.st109{fill:url(#Trazado_26197_3_);}
	.st110{fill:url(#Trazado_26198_5_);}
	.st111{fill:url(#Trazado_26199_5_);}
	.st112{fill:url(#Trazado_26200_5_);}
	.st113{fill:url(#Trazado_26201_5_);}
	.st114{fill:url(#Trazado_26202_5_);}
	.st115{fill:url(#Trazado_26203_5_);}
	.st116{fill:url(#Trazado_26204_5_);}
	.st117{fill:url(#Trazado_26205_5_);}
	.st118{fill:url(#Trazado_26206_5_);}
	.st119{fill:url(#Trazado_26207_5_);}
	.st120{fill:url(#Trazado_26208_5_);}
	.st121{fill:url(#Trazado_26209_5_);}
	.st122{fill:url(#Trazado_26210_5_);}
	.st123{fill:url(#Trazado_26211_5_);}
	.st124{fill:url(#Trazado_26212_5_);}
	.st125{fill:url(#Trazado_26213_5_);}
	.st126{fill:url(#Trazado_26214_5_);}
	.st127{fill:url(#Trazado_26215_5_);}
	.st128{fill:url(#Trazado_26216_5_);}
	.st129{fill:url(#Trazado_26217_5_);}
	.st130{fill:url(#Trazado_26218_5_);}
	.st131{fill:url(#Trazado_24566_10_);}
	.st132{fill:url(#Trazado_24567_10_);}
	.st133{fill:url(#Trazado_24568_10_);}
	.st134{fill:url(#Trazado_24569_10_);}
	.st135{fill:url(#Trazado_24570_10_);}
	.st136{fill:url(#Trazado_24571_10_);}
	.st137{fill:url(#Trazado_24572_10_);}
	.st138{fill:url(#Unión_55_1_);}
	.st139{fill:url(#Trazado_904_5_);}
	.st140{fill:url(#Trazado_905_5_);}
	.st141{fill:url(#Trazado_906_5_);}
	.st142{fill:url(#Trazado_24631_5_);}
	.st143{fill:url(#Trazado_24632_5_);}
	.st144{fill:url(#Trazado_24633_5_);}
	.st145{fill:url(#Trazado_24634_5_);}
	.st146{fill:url(#Trazado_24635_5_);}
	.st147{fill:url(#Trazado_24636_5_);}
	.st148{fill:url(#Trazado_24637_5_);}
	.st149{fill:url(#Trazado_24638_5_);}
	.st150{fill:url(#Trazado_24639_5_);}
	.st151{fill:url(#Trazado_24640_5_);}
	.st152{fill:url(#Rectángulo_3914-2_1_);}
	.st153{clip-path:url(#SVGID_6_);fill:#EBEEF0;}
	.st154{clip-path:url(#SVGID_6_);}
	.st155{opacity:0.2;clip-path:url(#SVGID_6_);fill:#26F70F;}
	.st156{opacity:0.1;clip-path:url(#SVGID_6_);}
	.st157{opacity:0.2;fill:#F90D0D;}
	.st158{fill:none;stroke:#FF0000;stroke-width:5;stroke-miterlimit:10;}
	.st159{clip-path:url(#SVGID_14_);fill:#EBEEF0;}
	.st160{clip-path:url(#SVGID_14_);}
	.st161{opacity:0.2;clip-path:url(#SVGID_14_);fill:#26F70F;}
	.st162{fill:none;stroke:#26F70F;stroke-width:7;stroke-miterlimit:10;}
	.st163{fill:url(#Rectángulo_3928_2_);}
	.st164{fill:#F0F2F4;}
	.st165{opacity:0.28;fill:none;stroke:#BEC8D2;enable-background:new    ;}
	.st166{fill:none;stroke:#E2E7EB;}
	.st167{fill:#00B4DC;}
	.st168{fill:url(#Trazado_24687_4_);}
	.st169{fill:url(#Trazado_24688_4_);}
	.st170{fill:url(#Trazado_24689_4_);}
	.st171{fill:url(#Trazado_24690_4_);}
	.st172{fill:url(#Rectángulo_1733_4_);}
	.st173{fill:url(#Rectángulo_1734_4_);}
	.st174{fill:url(#Rectángulo_1735_4_);}
	.st175{fill:url(#Trazado_24687_5_);}
	.st176{fill:url(#Trazado_24688_5_);}
	.st177{fill:url(#Trazado_24689_5_);}
	.st178{fill:url(#Trazado_24690_5_);}
	.st179{fill:url(#Rectángulo_1733_5_);}
	.st180{fill:url(#Rectángulo_1734_5_);}
	.st181{fill:url(#Rectángulo_1735_5_);}
	.st182{fill:url(#Trazado_24566_11_);}
	.st183{fill:url(#Trazado_24567_11_);}
	.st184{fill:url(#Trazado_24568_11_);}
	.st185{fill:url(#Trazado_24569_11_);}
	.st186{fill:url(#Trazado_24570_11_);}
	.st187{fill:url(#Trazado_24571_11_);}
	.st188{fill:url(#Trazado_24572_11_);}
	.st189{fill:url(#Trazado_26237_4_);}
	.st190{fill:url(#Trazado_26238_4_);}
	.st191{fill:url(#Trazado_26242_4_);}
	.st192{fill:url(#Trazado_26243_4_);}
	.st193{fill:url(#Trazado_26244_4_);}
	.st194{fill:url(#Trazado_26245_4_);}
	.st195{fill:url(#Trazado_26246_4_);}
	.st196{fill:url(#Trazado_26247_4_);}
	.st197{fill:url(#Trazado_26248_4_);}
	.st198{fill:url(#Trazado_26249_4_);}
	.st199{fill:url(#Trazado_26250_4_);}
	.st200{fill:url(#Trazado_26251_4_);}
	.st201{fill:url(#Trazado_26252_4_);}
	.st202{fill:url(#Trazado_26253_4_);}
	.st203{fill:url(#Trazado_26254_4_);}
	.st204{fill:url(#Trazado_26255_4_);}
	.st205{fill:url(#Trazado_26256_4_);}
	.st206{fill:url(#Trazado_26257_4_);}
	.st207{fill:url(#Trazado_26258_4_);}
	.st208{fill:url(#Trazado_26259_4_);}
	.st209{fill:url(#Trazado_26260_4_);}
	.st210{fill:url(#Trazado_26261_4_);}
	.st211{fill:url(#Trazado_26262_4_);}
	.st212{fill:url(#Trazado_26263_4_);}
	.st213{fill:url(#Trazado_26264_4_);}
	.st214{fill:url(#Trazado_26265_4_);}
	.st215{fill:url(#Trazado_26266_4_);}
	.st216{fill:url(#Trazado_26267_4_);}
	.st217{fill:url(#Trazado_26268_4_);}
	.st218{fill:url(#Trazado_26269_4_);}
	.st219{fill:url(#Trazado_26270_4_);}
	.st220{fill:url(#Trazado_26271_4_);}
	.st221{fill:url(#Trazado_26272_4_);}
	.st222{fill:url(#Trazado_26273_4_);}
	.st223{fill:url(#Trazado_26274_4_);}
	.st224{fill:url(#Trazado_26275_4_);}
	.st225{fill:url(#Trazado_26276_4_);}
	.st226{fill:url(#Trazado_26277_4_);}
	.st227{fill:url(#Trazado_26278_4_);}
	.st228{fill:url(#Trazado_26279_4_);}
	.st229{fill:url(#Trazado_26284_3_);}
	.st230{fill:url(#Trazado_26285_3_);}
	.st231{fill:url(#Trazado_26230_5_);}
	.st232{fill:url(#Trazado_26231_5_);}
	.st233{fill:url(#Trazado_26232_5_);}
	.st234{fill:url(#Rectángulo_3918_5_);}
	.st235{fill:url(#Rectángulo_3919_5_);}
	.st236{fill:url(#Rectángulo_3920_5_);}
	.st237{fill:url(#Rectángulo_3921_5_);}
	.st238{fill:url(#Rectángulo_3922_5_);}
	.st239{fill:url(#Rectángulo_3923_5_);}
	.st240{fill:url(#Rectángulo_3924_5_);}
	.st241{fill:url(#Rectángulo_3925_5_);}
	.st242{fill:url(#Rectángulo_3928_3_);}
	.st243{fill:url(#Trazado_24566_12_);}
	.st244{fill:url(#Trazado_24567_12_);}
	.st245{fill:url(#Trazado_24568_12_);}
	.st246{fill:url(#Trazado_24569_12_);}
	.st247{fill:url(#Trazado_24570_12_);}
	.st248{fill:url(#Trazado_24571_12_);}
	.st249{fill:url(#Trazado_24572_12_);}
	.st250{fill:url(#Trazado_26233_2_);}
	.st251{fill:url(#Trazado_26234_2_);}
	.st252{fill:url(#Trazado_26235_2_);}
	.st253{fill:url(#Trazado_26236_2_);}
	.st254{fill:url(#Trazado_26237_5_);}
	.st255{fill:url(#Trazado_26238_5_);}
	.st256{fill:url(#Trazado_26242_5_);}
	.st257{fill:url(#Trazado_26243_5_);}
	.st258{fill:url(#Trazado_26244_5_);}
	.st259{fill:url(#Trazado_26245_5_);}
	.st260{fill:url(#Trazado_26246_5_);}
	.st261{fill:url(#Trazado_26247_5_);}
	.st262{fill:url(#Trazado_26248_5_);}
	.st263{fill:url(#Trazado_26249_5_);}
	.st264{fill:url(#Trazado_26250_5_);}
	.st265{fill:url(#Trazado_26251_5_);}
	.st266{fill:url(#Trazado_26252_5_);}
	.st267{fill:url(#Trazado_26253_5_);}
	.st268{fill:url(#Trazado_26254_5_);}
	.st269{fill:url(#Trazado_26255_5_);}
	.st270{fill:url(#Trazado_26256_5_);}
	.st271{fill:url(#Trazado_26257_5_);}
	.st272{fill:url(#Trazado_26258_5_);}
	.st273{fill:url(#Trazado_26259_5_);}
	.st274{fill:url(#Trazado_26260_5_);}
	.st275{fill:url(#Trazado_26261_5_);}
	.st276{fill:url(#Trazado_26262_5_);}
	.st277{fill:url(#Trazado_26263_5_);}
	.st278{fill:url(#Trazado_26264_5_);}
	.st279{fill:url(#Trazado_26265_5_);}
	.st280{fill:url(#Trazado_26266_5_);}
	.st281{fill:url(#Trazado_26267_5_);}
	.st282{fill:url(#Trazado_26268_5_);}
	.st283{fill:url(#Trazado_26269_5_);}
	.st284{fill:url(#Trazado_26270_5_);}
	.st285{fill:url(#Trazado_26271_5_);}
	.st286{fill:url(#Trazado_26272_5_);}
	.st287{fill:url(#Trazado_26273_5_);}
	.st288{fill:url(#Trazado_26274_5_);}
	.st289{fill:url(#Trazado_26275_5_);}
	.st290{fill:url(#Trazado_26276_5_);}
	.st291{fill:url(#Trazado_26277_5_);}
	.st292{fill:url(#Trazado_26278_5_);}
	.st293{fill:url(#Trazado_26279_5_);}
	.st294{fill:url(#Trazado_26284_4_);}
	.st295{fill:url(#Trazado_26285_4_);}
	.st296{fill:url(#Trazado_26230_6_);}
	.st297{fill:url(#Trazado_26231_6_);}
	.st298{fill:url(#Trazado_26232_6_);}
	.st299{fill:url(#Rectángulo_3918_6_);}
	.st300{fill:url(#Rectángulo_3919_6_);}
	.st301{fill:url(#Rectángulo_3920_6_);}
	.st302{fill:url(#Rectángulo_3921_6_);}
	.st303{fill:url(#Rectángulo_3922_6_);}
	.st304{fill:url(#Rectángulo_3923_6_);}
	.st305{fill:url(#Rectángulo_3924_6_);}
	.st306{fill:url(#Rectángulo_3925_6_);}
	.st307{fill:none;stroke:#006495;stroke-linecap:square;stroke-miterlimit:10;stroke-dasharray:2,2;}
	.st308{fill:#262944;}
	.st309{fill:none;stroke:#FFFFFF;stroke-miterlimit:10;}
	.st310{fill:url(#Trazado_24869_4_);}
	.st311{fill:url(#Trazado_26191_5_);}
	.st312{fill:url(#Trazado_26192_5_);}
	.st313{fill:url(#Trazado_26193_5_);}
	.st314{fill:url(#Trazado_26194_5_);}
	.st315{fill:url(#Trazado_26195_5_);}
	.st316{fill:url(#Trazado_26196_5_);}
	.st317{fill:url(#Trazado_26197_5_);}
	.st318{fill:url(#Trazado_26198_6_);}
	.st319{fill:url(#Trazado_26199_6_);}
	.st320{fill:url(#Trazado_26200_6_);}
	.st321{fill:url(#Trazado_26201_6_);}
	.st322{fill:url(#Trazado_26202_6_);}
	.st323{fill:url(#Trazado_26203_6_);}
	.st324{fill:url(#Trazado_26204_6_);}
	.st325{fill:url(#Trazado_26205_6_);}
	.st326{fill:url(#Trazado_26206_6_);}
	.st327{fill:url(#Trazado_26207_6_);}
	.st328{fill:url(#Trazado_26208_6_);}
	.st329{fill:url(#Trazado_26209_6_);}
	.st330{fill:url(#Trazado_26210_6_);}
	.st331{fill:url(#Trazado_26211_6_);}
	.st332{fill:url(#Trazado_26212_6_);}
	.st333{fill:url(#Trazado_26213_6_);}
	.st334{fill:url(#Trazado_26214_6_);}
	.st335{fill:url(#Trazado_26215_6_);}
	.st336{fill:url(#Trazado_26216_6_);}
	.st337{fill:url(#Trazado_26217_6_);}
	.st338{fill:url(#Trazado_26218_6_);}
	.st339{fill:url(#Trazado_24566_13_);}
	.st340{fill:url(#Trazado_24567_13_);}
	.st341{fill:url(#Trazado_24568_13_);}
	.st342{fill:url(#Trazado_24569_13_);}
	.st343{fill:url(#Trazado_24570_13_);}
	.st344{fill:url(#Trazado_24571_13_);}
	.st345{fill:url(#Trazado_24572_13_);}
	.st346{fill:url(#Trazado_26354_3_);}
	.st347{fill:url(#Trazado_904_6_);}
	.st348{fill:url(#Trazado_905_6_);}
	.st349{fill:url(#Trazado_906_6_);}
	.st350{fill:url(#Trazado_24631_6_);}
	.st351{fill:url(#Trazado_24632_6_);}
	.st352{fill:url(#Trazado_24633_6_);}
	.st353{fill:url(#Trazado_24634_6_);}
	.st354{fill:url(#Trazado_24635_6_);}
	.st355{fill:url(#Trazado_24636_6_);}
	.st356{fill:url(#Trazado_24637_6_);}
	.st357{fill:url(#Trazado_24638_6_);}
	.st358{fill:url(#Trazado_24639_6_);}
	.st359{fill:url(#Trazado_24640_6_);}
	.st360{fill:url(#Trazado_884_4_);}
	.st361{fill:url(#Trazado_24616_4_);}
	.st362{fill:url(#Trazado_24617_4_);}
	.st363{fill:url(#Trazado_24618_4_);}
	.st364{fill:url(#Trazado_24619_4_);}
	.st365{fill:url(#Trazado_24620_4_);}
	.st366{fill:url(#Trazado_24621_4_);}
	.st367{fill:url(#Trazado_24622_4_);}
	.st368{fill:#FF6161;}
	.st369{fill:url(#Trazado_26233_5_);}
	.st370{fill:url(#Trazado_26234_5_);}
	.st371{fill:url(#Trazado_26235_5_);}
	.st372{fill:url(#Trazado_26236_5_);}
	.st373{fill:url(#Trazado_24566_14_);}
	.st374{fill:url(#Trazado_24567_14_);}
	.st375{fill:url(#Trazado_24568_14_);}
	.st376{fill:url(#Trazado_24569_14_);}
	.st377{fill:url(#Trazado_24570_14_);}
	.st378{fill:url(#Trazado_24571_14_);}
	.st379{fill:url(#Trazado_24572_14_);}
	.st380{fill:url(#Trazado_24566_15_);}
	.st381{fill:url(#Trazado_24567_15_);}
	.st382{fill:url(#Trazado_24568_15_);}
	.st383{fill:url(#Trazado_24569_15_);}
	.st384{fill:url(#Trazado_24570_15_);}
	.st385{fill:url(#Trazado_24571_15_);}
	.st386{fill:url(#Trazado_24572_15_);}
	.st387{fill:url(#Trazado_26237_6_);}
	.st388{fill:url(#Trazado_26238_6_);}
	.st389{fill:url(#Trazado_26242_6_);}
	.st390{fill:url(#Trazado_26243_6_);}
	.st391{fill:url(#Trazado_26244_6_);}
	.st392{fill:url(#Trazado_26245_6_);}
	.st393{fill:url(#Trazado_26246_6_);}
	.st394{fill:url(#Trazado_26247_6_);}
	.st395{fill:url(#Trazado_26248_6_);}
	.st396{fill:url(#Trazado_26249_6_);}
	.st397{fill:url(#Trazado_26250_6_);}
	.st398{fill:url(#Trazado_26251_6_);}
	.st399{fill:url(#Trazado_26252_6_);}
	.st400{fill:url(#Trazado_26253_6_);}
	.st401{fill:url(#Trazado_26254_6_);}
	.st402{fill:url(#Trazado_26255_6_);}
	.st403{fill:url(#Trazado_26256_6_);}
	.st404{fill:url(#Trazado_26257_6_);}
	.st405{fill:url(#Trazado_26258_6_);}
	.st406{fill:url(#Trazado_26259_6_);}
	.st407{fill:url(#Trazado_26260_6_);}
	.st408{fill:url(#Trazado_26261_6_);}
	.st409{fill:url(#Trazado_26262_6_);}
	.st410{fill:url(#Trazado_26263_6_);}
	.st411{fill:url(#Trazado_26264_6_);}
	.st412{fill:url(#Trazado_26265_6_);}
	.st413{fill:url(#Trazado_26266_6_);}
	.st414{fill:url(#Trazado_26267_6_);}
	.st415{fill:url(#Trazado_26268_6_);}
	.st416{fill:url(#Trazado_26269_6_);}
	.st417{fill:url(#Trazado_26270_6_);}
	.st418{fill:url(#Trazado_26271_6_);}
	.st419{fill:url(#Trazado_26272_6_);}
	.st420{fill:url(#Trazado_26273_6_);}
	.st421{fill:url(#Trazado_26274_6_);}
	.st422{fill:url(#Trazado_26275_6_);}
	.st423{fill:url(#Trazado_26276_6_);}
	.st424{fill:url(#Trazado_26277_6_);}
	.st425{fill:url(#Trazado_26278_6_);}
	.st426{fill:url(#Trazado_26279_6_);}
	.st427{fill:url(#Trazado_26284_6_);}
	.st428{fill:url(#Trazado_26285_6_);}
	.st429{fill:url(#Trazado_26230_7_);}
	.st430{fill:url(#Trazado_26231_7_);}
	.st431{fill:url(#Trazado_26232_7_);}
	.st432{fill:url(#Rectángulo_3918_7_);}
	.st433{fill:url(#Rectángulo_3919_7_);}
	.st434{fill:url(#Rectángulo_3920_7_);}
	.st435{fill:url(#Rectángulo_3921_7_);}
	.st436{fill:url(#Rectángulo_3922_7_);}
	.st437{fill:url(#Rectángulo_3923_7_);}
	.st438{fill:url(#Rectángulo_3924_7_);}
	.st439{fill:url(#Rectángulo_3925_7_);}
	.st440{opacity:0.1;fill:#FF2929;}
	.st441{fill:#CCF0F8;}
	.st442{opacity:0.2;fill:#D31A1A;}
	.st443{fill:#E2E7EB;}
	.st444{fill:none;stroke:#BEC8D2;}
	.st445{fill:#D5F4E6;}
	.st446{fill-rule:evenodd;clip-rule:evenodd;fill:#262944;}
	.st447{fill:url(#Trazado_26409_3_);}
	.st448{fill:url(#Trazado_26410_2_);}
	.st449{fill:url(#Trazado_26411_2_);}
	.st450{fill:url(#Trazado_26412_2_);}
	.st451{fill:url(#Trazado_26413_2_);}
	.st452{fill:url(#Trazado_26414_2_);}
	.st453{fill:url(#Trazado_26415_2_);}
	.st454{fill:url(#Trazado_26416_2_);}
	.st455{fill:url(#Trazado_26417_2_);}
	.st456{fill:url(#Trazado_26418_2_);}
	.st457{fill:url(#Trazado_26419_2_);}
	.st458{fill:url(#Trazado_26420_2_);}
	.st459{fill:url(#Trazado_26421_2_);}
	.st460{fill:url(#Trazado_26516_3_);}
	.st461{fill:url(#Trazado_26517_3_);}
	.st462{fill:url(#Trazado_26518_3_);}
	.st463{fill:url(#Trazado_26519_3_);}
	.st464{fill:url(#Trazado_26520_3_);}
	.st465{fill:url(#Trazado_26521_3_);}
	.st466{fill:url(#Trazado_26522_3_);}
</style>
<g id="Grupo_7739" transform="translate(-3050 -462.619)">
	<path id="Trazado_26410" class="st2" d="M3183.05,500.45L3183.05,500.45l-6.31-1.88l1.14-3.8c0.44-1.49,0.02-3.1-1.1-4.18
		l2.11-7.03c1.1-3.71-1.01-7.62-4.72-8.74c-3.71-1.1-7.62,1.01-8.73,4.72l-2.11,7.04c-1.52,0.29-2.76,1.4-3.21,2.88l-0.26,0.89
		v-4.74c0-2.51-2.04-4.54-4.54-4.54h-10.19l-0.6-8.97c-0.17-2.5-2.33-4.39-4.83-4.23l-76.67,5.13c-2.49,0.19-4.37,2.34-4.23,4.83
		l7.37,110.16c0.23,2.47,2.35,4.33,4.83,4.23l15.12-1.01c0.09-0.01,0.19-0.02,0.28-0.04l8.86,8.82c0.37,0.36,0.86,0.56,1.37,0.57
		h58.69c2.51,0,4.54-2.03,4.54-4.54V555.1l0.22-0.71l4.3-14.39c0.3-1-0.27-2.06-1.27-2.36s-2.06,0.27-2.36,1.27l-0.67,2.24
		l-3.79,12.68l-4.39,14.69l-10.5-3.14l14.88-49.86l3.79-12.69l3.67-12.3c0.06-0.19,0.25-0.29,0.44-0.25l9.82,2.94l0,0
		c0.09,0.03,0.16,0.09,0.2,0.17c0.05,0.08,0.06,0.18,0.03,0.27l-1.68,5.61l-0.01,0.02l-9.35,31.33c-0.3,1,0.27,2.06,1.27,2.36
		c1,0.3,2.06-0.27,2.36-1.27l8.81-29.53l4.49,1.34l-7.7,25.8c-0.32,1,0.23,2.06,1.22,2.38c1,0.32,2.06-0.23,2.38-1.22
		c0.01-0.03,0.02-0.05,0.02-0.08l8.24-27.61C3184.61,501.81,3184.05,500.76,3183.05,500.45z M3094.69,593.9l-14.12-14.17h13.47
		c0.36,0,0.65,0.29,0.65,0.65L3094.69,593.9z M3155.97,503.38l-18.73,62.73l-0.01,0.03c-0.01,0.05-0.02,0.09-0.03,0.14
		s-0.01,0.07-0.02,0.11c-0.01,0.05-0.01,0.09-0.02,0.14c0,0.04,0,0.09,0,0.13s0,0.08,0,0.12l0.01,0.09v0.01l1.8,15.98l0,0
		c-0.79-0.64-1.44-1.43-1.9-2.34c-0.8-1.3-1.89-3.08-3.97-2.68c-1.75,0.33-2.58,1.8-3.38,3.22c-0.42,0.79-0.9,1.55-1.44,2.26
		c-0.44,0.56-0.74,0.72-0.84,0.73c-0.08,0.01-0.51-0.03-1.75-1.27c-3.25-3.23-5.78-1.03-7,0.03c-0.37,0.38-0.81,0.69-1.3,0.9
		c-0.31,0.06-0.9-0.27-1.56-0.88c-0.78-0.7-1.98-0.63-2.67,0.15c-0.68,0.76-0.63,1.93,0.11,2.63c3.87,3.57,6.6,1.19,7.91,0.05
		c0.31-0.31,0.66-0.57,1.04-0.78c0,0,0.26,0.05,0.8,0.58c1.18,1.18,2.63,2.37,4.41,2.37c0.08,0,0.16,0,0.24-0.01
		c1.45-0.16,2.76-0.95,3.59-2.16c0.66-0.87,1.25-1.79,1.77-2.75c0.16-0.28,0.34-0.61,0.51-0.88c0.1,0.16,0.2,0.33,0.29,0.47
		c1.07,1.74,3.04,4.96,7.44,4.58c0.02,0,0.04,0,0.06,0c0.1,0,0.2-0.01,0.3-0.04c0.01,0,0.02,0,0.03-0.01l0,0l0.02-0.01
		c0.02,0,0.03-0.01,0.05-0.01l0.04-0.01c0.29-0.08,0.55-0.23,0.77-0.43l0,0c0.01,0,0.01-0.01,0.02-0.02
		c0.15-0.13,0.29-0.27,0.42-0.41l0.05-0.06l5.59-6.73l6-7.25l0.02-0.03c0.03-0.04,0.06-0.08,0.09-0.12l0.03-0.04
		c0.02-0.04,0.05-0.08,0.07-0.12c0.01-0.01,0.01-0.02,0.01-0.03c0.03-0.04,0.05-0.09,0.06-0.14c0.01-0.01,0.01-0.02,0.02-0.04
		c0.01-0.03,0.03-0.07,0.04-0.1c0.01-0.02,0.01-0.03,0.02-0.05l0.97-3.26v27.85c0,0.36-0.29,0.65-0.65,0.65h-56.74v-16.29
		c0-2.51-2.03-4.54-4.54-4.54h-16.21V485.6c0-0.36,0.29-0.65,0.65-0.65h20.24c1.07-0.02,1.93-0.92,1.9-1.99
		c-0.02-1.04-0.86-1.88-1.9-1.9h-20.24c-2.51,0-4.54,2.03-4.54,4.54v92.35c0,0.52,0.21,1.01,0.57,1.38l8.24,8.2l-12.01,0.8
		c-0.36,0.02-0.66-0.24-0.69-0.6l-7.37-110.17c-0.02-0.36,0.24-0.66,0.6-0.69l76.67-5.13c0.36-0.02,0.66,0.24,0.69,0.6l0.58,8.71
		h-32.15c-1.07,0.02-1.93,0.92-1.9,1.99c0.02,1.04,0.86,1.88,1.9,1.9h46.24c0.36,0,0.65,0.29,0.65,0.65L3155.97,503.38z"/>
	<path id="Trazado_26411" class="st2" d="M3142.05,529.01c0-1.07-0.87-1.95-1.95-1.95l0,0h-49.75c-1.07,0-1.95,0.87-1.95,1.95
		c0,1.08,0.87,1.95,1.95,1.95h49.75C3141.18,530.96,3142.05,530.09,3142.05,529.01C3142.05,529.01,3142.05,529.01,3142.05,529.01z"
		/>
	<path id="Trazado_26412" class="st2" d="M3088.41,517.67c0,1.07,0.87,1.95,1.95,1.95l0,0h49.75c1.07,0,1.95-0.87,1.95-1.95
		c0-1.08-0.87-1.95-1.95-1.95h-49.75C3089.28,515.72,3088.41,516.59,3088.41,517.67C3088.41,517.67,3088.41,517.67,3088.41,517.67z"
		/>
	<path id="Trazado_26413" class="st2" d="M3090.26,508.27h34.38c1.07,0,1.95-0.87,1.95-1.95c0-1.08-0.87-1.95-1.95-1.95l0,0h-34.38
		c-1.07,0-1.95,0.87-1.95,1.95C3088.31,507.4,3089.18,508.27,3090.26,508.27z"/>
	<path id="Trazado_26414" class="st2" d="M3140.21,538.29h-27.15c-1.07,0-1.95,0.87-1.95,1.95c0,1.08,0.87,1.95,1.95,1.95h27.15
		c1.07,0,1.95-0.87,1.95-1.95C3142.15,539.16,3141.28,538.29,3140.21,538.29z"/>
	<path id="Trazado_26415" class="st2" d="M3100.27,552.41h-2.81c-1.24,0-2.25-1-2.25-2.24c0-1.24,1-2.25,2.24-2.25
		c0,0,0.01,0,0.01,0h5.61c1.09,0,1.97-0.88,1.97-1.96c0-1.09-0.88-1.97-1.96-1.97c0,0-0.01,0-0.01,0h-2.24v-2.24
		c0.01-1.09-0.87-1.97-1.95-1.98s-1.97,0.87-1.98,1.95c0,0.01,0,0.02,0,0.02v2.27c-3.4,0.31-5.9,3.31-5.59,6.7
		c0.29,3.18,2.96,5.62,6.16,5.62h2.81c1.24-0.03,2.27,0.96,2.29,2.2c0.03,1.24-0.96,2.27-2.2,2.29c-0.03,0-0.06,0-0.09,0h-5.61
		c-1.09,0-1.96,0.88-1.96,1.97c0,1.08,0.88,1.96,1.96,1.96h2.24v2.24c-0.01,1.09,0.87,1.97,1.95,1.98s1.97-0.87,1.98-1.95
		c0-0.01,0-0.02,0-0.02v-2.27c3.4-0.31,5.9-3.31,5.59-6.7C3106.14,554.85,3103.47,552.41,3100.27,552.41L3100.27,552.41z"/>
</g>
</svg>
