<?xml version="1.0" encoding="utf-8"?>
<!-- Generator: Adobe Illustrator 25.2.1, SVG Export Plug-In . SVG Version: 6.00 Build 0)  -->
<svg version="1.1" id="Capa_1" xmlns="http://www.w3.org/2000/svg" xmlns:xlink="http://www.w3.org/1999/xlink" x="0px" y="0px"
	 viewBox="0 0 70 70" style="enable-background:new 0 0 70 70;" xml:space="preserve">
<style type="text/css">
	.st0{fill:#6E6E6E;}
	.st1{fill:#F6F7F9;}
	.st2{fill:#FFFFFF;}
	.st3{fill:#DCDCDC;}
	.st4{fill:url(#Trazado_26198_2_);}
	.st5{fill:url(#Trazado_26199_2_);}
	.st6{fill:url(#Trazado_26200_2_);}
	.st7{fill:url(#Trazado_26201_2_);}
	.st8{fill:url(#Trazado_26202_2_);}
	.st9{fill:url(#Trazado_26203_2_);}
	.st10{fill:url(#Trazado_26204_2_);}
	.st11{fill:url(#Trazado_26205_2_);}
	.st12{fill:url(#Trazado_26206_2_);}
	.st13{fill:url(#Trazado_26207_2_);}
	.st14{fill:url(#Trazado_26208_2_);}
	.st15{fill:url(#Trazado_26209_2_);}
	.st16{fill:url(#Trazado_26210_2_);}
	.st17{fill:url(#Trazado_26211_2_);}
	.st18{fill:url(#Trazado_26212_2_);}
	.st19{fill:url(#Trazado_26213_2_);}
	.st20{fill:url(#Trazado_26214_2_);}
	.st21{fill:url(#Trazado_26215_2_);}
	.st22{fill:url(#Trazado_24566_4_);}
	.st23{fill:url(#Trazado_24567_4_);}
	.st24{fill:url(#Trazado_24568_4_);}
	.st25{fill:url(#Trazado_24569_4_);}
	.st26{fill:url(#Trazado_24570_4_);}
	.st27{fill:url(#Trazado_24571_4_);}
	.st28{fill:url(#Trazado_24572_4_);}
	.st29{fill:url(#Trazado_26216_2_);}
	.st30{fill:url(#Trazado_26217_2_);}
	.st31{fill:url(#Trazado_26218_2_);}
	.st32{fill:url(#Trazado_26336_1_);}
	.st33{fill:url(#Unión_52_1_);}
	.st34{fill:url(#Trazado_904_2_);}
	.st35{fill:url(#Trazado_905_2_);}
	.st36{fill:url(#Trazado_906_2_);}
	.st37{fill:url(#Trazado_24631_2_);}
	.st38{fill:url(#Trazado_24632_2_);}
	.st39{fill:url(#Trazado_24633_2_);}
	.st40{fill:url(#Trazado_24634_2_);}
	.st41{fill:url(#Trazado_24635_2_);}
	.st42{fill:url(#Trazado_24636_2_);}
	.st43{fill:url(#Trazado_24637_2_);}
	.st44{fill:url(#Trazado_24638_2_);}
	.st45{fill:url(#Trazado_24639_2_);}
	.st46{fill:url(#Trazado_24640_2_);}
	.st47{fill:url(#Trazado_884_1_);}
	.st48{fill:url(#Trazado_24616_1_);}
	.st49{fill:url(#Trazado_24617_1_);}
	.st50{fill:url(#Trazado_24618_1_);}
	.st51{fill:url(#Trazado_24619_1_);}
	.st52{fill:url(#Trazado_24620_1_);}
	.st53{fill:url(#Trazado_24621_1_);}
	.st54{fill:url(#Trazado_24622_1_);}
	.st55{fill:none;stroke:#CCCCCC;}
	.st56{fill:url(#Trazado_904-2_2_);}
	.st57{fill:url(#Trazado_905-2_2_);}
	.st58{fill:url(#Trazado_906-2_2_);}
	.st59{fill:url(#Trazado_24631-2_2_);}
	.st60{fill:url(#Trazado_24632-2_2_);}
	.st61{fill:url(#Trazado_24633-2_2_);}
	.st62{fill:url(#Trazado_24634-2_2_);}
	.st63{fill:url(#Trazado_24635-2_2_);}
	.st64{fill:url(#Trazado_24636-2_2_);}
	.st65{fill:url(#Trazado_24637-2_2_);}
	.st66{fill:url(#Trazado_24638-2_2_);}
	.st67{fill:url(#Trazado_24639-2_2_);}
	.st68{fill:url(#Trazado_24640-2_2_);}
	.st69{fill:url(#Trazado_884-2_1_);}
	.st70{fill:url(#Trazado_24616-2_1_);}
	.st71{fill:url(#Trazado_24617-2_1_);}
	.st72{fill:url(#Trazado_24618-2_1_);}
	.st73{fill:url(#Trazado_24619-2_1_);}
	.st74{fill:url(#Trazado_24620-2_1_);}
	.st75{fill:url(#Trazado_24621-2_1_);}
	.st76{fill:url(#Trazado_24622-2_1_);}
	.st77{fill:url(#Trazado_26355_1_);}
	.st78{opacity:0.2;fill:#26F70F;}
	.st79{fill:#F90D0D;}
	.st80{fill:none;stroke:#F90D0D;stroke-miterlimit:10;}
	.st81{fill:none;stroke:#FF2929;stroke-miterlimit:10;}
	.st82{opacity:0.2;}
	.st83{fill:#FF2929;}
	.st84{opacity:0.2;fill:#FF2929;}
	.st85{fill:#3366CC;}
	.st86{fill:none;stroke:#FFFFFF;}
	.st87{fill:#0070BA;}
	.st88{fill:#E3134D;}
	.st89{fill:#FEC20A;}
	.st90{fill:#70AF3D;}
	.st91{fill:#9B156E;}
	.st92{fill:#FBD015;}
	.st93{fill:#05569E;}
	.st94{fill:#D11F3E;}
	.st95{fill:none;}
	.st96{fill-rule:evenodd;clip-rule:evenodd;fill:#3366CC;}
	.st97{fill:none;stroke:#707070;}
	.st98{stroke:#FF2929;stroke-width:4;stroke-miterlimit:10;}
	.st99{fill:none;stroke:#FF2929;stroke-width:4;stroke-miterlimit:10;}
	.st100{fill:none;stroke:#000000;stroke-miterlimit:10;}
	.st101{fill:#41D78C;}
	.st102{fill:url(#Trazado_24869_1_);}
	.st103{fill:url(#Trazado_26191_2_);}
	.st104{fill:url(#Trazado_26192_2_);}
	.st105{fill:url(#Trazado_26193_2_);}
	.st106{fill:url(#Trazado_26194_2_);}
	.st107{fill:url(#Trazado_26195_2_);}
	.st108{fill:url(#Trazado_26196_2_);}
	.st109{fill:url(#Trazado_26197_2_);}
	.st110{fill:url(#Trazado_26198_3_);}
	.st111{fill:url(#Trazado_26199_3_);}
	.st112{fill:url(#Trazado_26200_3_);}
	.st113{fill:url(#Trazado_26201_3_);}
	.st114{fill:url(#Trazado_26202_3_);}
	.st115{fill:url(#Trazado_26203_3_);}
	.st116{fill:url(#Trazado_26204_3_);}
	.st117{fill:url(#Trazado_26205_3_);}
	.st118{fill:url(#Trazado_26206_3_);}
	.st119{fill:url(#Trazado_26207_3_);}
	.st120{fill:url(#Trazado_26208_3_);}
	.st121{fill:url(#Trazado_26209_3_);}
	.st122{fill:url(#Trazado_26210_3_);}
	.st123{fill:url(#Trazado_26211_3_);}
	.st124{fill:url(#Trazado_26212_3_);}
	.st125{fill:url(#Trazado_26213_3_);}
	.st126{fill:url(#Trazado_26214_3_);}
	.st127{fill:url(#Trazado_26215_3_);}
	.st128{fill:url(#Trazado_26216_3_);}
	.st129{fill:url(#Trazado_26217_3_);}
	.st130{fill:url(#Trazado_26218_3_);}
	.st131{fill:url(#Trazado_24566_5_);}
	.st132{fill:url(#Trazado_24567_5_);}
	.st133{fill:url(#Trazado_24568_5_);}
	.st134{fill:url(#Trazado_24569_5_);}
	.st135{fill:url(#Trazado_24570_5_);}
	.st136{fill:url(#Trazado_24571_5_);}
	.st137{fill:url(#Trazado_24572_5_);}
	.st138{fill:url(#Unión_55_1_);}
	.st139{fill:url(#Trazado_904_3_);}
	.st140{fill:url(#Trazado_905_3_);}
	.st141{fill:url(#Trazado_906_3_);}
	.st142{fill:url(#Trazado_24631_3_);}
	.st143{fill:url(#Trazado_24632_3_);}
	.st144{fill:url(#Trazado_24633_3_);}
	.st145{fill:url(#Trazado_24634_3_);}
	.st146{fill:url(#Trazado_24635_3_);}
	.st147{fill:url(#Trazado_24636_3_);}
	.st148{fill:url(#Trazado_24637_3_);}
	.st149{fill:url(#Trazado_24638_3_);}
	.st150{fill:url(#Trazado_24639_3_);}
	.st151{fill:url(#Trazado_24640_3_);}
	.st152{fill:url(#Rectángulo_3914-2_1_);}
	.st153{clip-path:url(#SVGID_6_);fill:#EBEEF0;}
	.st154{clip-path:url(#SVGID_6_);}
	.st155{opacity:0.2;clip-path:url(#SVGID_6_);fill:#26F70F;}
	.st156{opacity:0.1;clip-path:url(#SVGID_6_);}
	.st157{opacity:0.2;fill:#F90D0D;}
	.st158{fill:none;stroke:#FF0000;stroke-width:5;stroke-miterlimit:10;}
	.st159{clip-path:url(#SVGID_14_);fill:#EBEEF0;}
	.st160{clip-path:url(#SVGID_14_);}
	.st161{opacity:0.2;clip-path:url(#SVGID_14_);fill:#26F70F;}
	.st162{fill:none;stroke:#26F70F;stroke-width:7;stroke-miterlimit:10;}
	.st163{fill:url(#Rectángulo_3928_2_);}
	.st164{fill:#F0F2F4;}
	.st165{opacity:0.28;fill:none;stroke:#BEC8D2;enable-background:new    ;}
	.st166{fill:none;stroke:#E2E7EB;}
	.st167{fill:#00B4DC;}
	.st168{fill:url(#Trazado_24687_2_);}
	.st169{fill:url(#Trazado_24688_2_);}
	.st170{fill:url(#Trazado_24689_2_);}
	.st171{fill:url(#Trazado_24690_2_);}
	.st172{fill:url(#Rectángulo_1733_2_);}
	.st173{fill:url(#Rectángulo_1734_2_);}
	.st174{fill:url(#Rectángulo_1735_2_);}
	.st175{fill:url(#Trazado_24566_6_);}
	.st176{fill:url(#Trazado_24567_6_);}
	.st177{fill:url(#Trazado_24568_6_);}
	.st178{fill:url(#Trazado_24569_6_);}
	.st179{fill:url(#Trazado_24570_6_);}
	.st180{fill:url(#Trazado_24571_6_);}
	.st181{fill:url(#Trazado_24572_6_);}
	.st182{fill:url(#Trazado_26237_2_);}
	.st183{fill:url(#Trazado_26238_2_);}
	.st184{fill:url(#Trazado_26242_2_);}
	.st185{fill:url(#Trazado_26243_2_);}
	.st186{fill:url(#Trazado_26244_2_);}
	.st187{fill:url(#Trazado_26245_2_);}
	.st188{fill:url(#Trazado_26246_2_);}
	.st189{fill:url(#Trazado_26247_2_);}
	.st190{fill:url(#Trazado_26248_2_);}
	.st191{fill:url(#Trazado_26249_2_);}
	.st192{fill:url(#Trazado_26250_2_);}
	.st193{fill:url(#Trazado_26251_2_);}
	.st194{fill:url(#Trazado_26252_2_);}
	.st195{fill:url(#Trazado_26253_2_);}
	.st196{fill:url(#Trazado_26254_2_);}
	.st197{fill:url(#Trazado_26255_2_);}
	.st198{fill:url(#Trazado_26256_2_);}
	.st199{fill:url(#Trazado_26257_2_);}
	.st200{fill:url(#Trazado_26258_2_);}
	.st201{fill:url(#Trazado_26259_2_);}
	.st202{fill:url(#Trazado_26260_2_);}
	.st203{fill:url(#Trazado_26261_2_);}
	.st204{fill:url(#Trazado_26262_2_);}
	.st205{fill:url(#Trazado_26263_2_);}
	.st206{fill:url(#Trazado_26264_2_);}
	.st207{fill:url(#Trazado_26265_2_);}
	.st208{fill:url(#Trazado_26266_2_);}
	.st209{fill:url(#Trazado_26267_2_);}
	.st210{fill:url(#Trazado_26268_2_);}
	.st211{fill:url(#Trazado_26269_2_);}
	.st212{fill:url(#Trazado_26270_2_);}
	.st213{fill:url(#Trazado_26271_2_);}
	.st214{fill:url(#Trazado_26272_2_);}
	.st215{fill:url(#Trazado_26273_2_);}
	.st216{fill:url(#Trazado_26274_2_);}
	.st217{fill:url(#Trazado_26275_2_);}
	.st218{fill:url(#Trazado_26276_2_);}
	.st219{fill:url(#Trazado_26277_2_);}
	.st220{fill:url(#Trazado_26278_2_);}
	.st221{fill:url(#Trazado_26279_2_);}
	.st222{fill:url(#Trazado_26284_2_);}
	.st223{fill:url(#Trazado_26285_2_);}
	.st224{fill:url(#Trazado_26230_2_);}
	.st225{fill:url(#Trazado_26231_2_);}
	.st226{fill:url(#Trazado_26232_2_);}
	.st227{fill:url(#Rectángulo_3918_2_);}
	.st228{fill:url(#Rectángulo_3919_2_);}
	.st229{fill:url(#Rectángulo_3920_2_);}
	.st230{fill:url(#Rectángulo_3921_2_);}
	.st231{fill:url(#Rectángulo_3922_2_);}
	.st232{fill:url(#Rectángulo_3923_2_);}
	.st233{fill:url(#Rectángulo_3924_2_);}
	.st234{fill:url(#Rectángulo_3925_2_);}
	.st235{fill:url(#Rectángulo_3928_3_);}
	.st236{fill:url(#Trazado_24566_7_);}
	.st237{fill:url(#Trazado_24567_7_);}
	.st238{fill:url(#Trazado_24568_7_);}
	.st239{fill:url(#Trazado_24569_7_);}
	.st240{fill:url(#Trazado_24570_7_);}
	.st241{fill:url(#Trazado_24571_7_);}
	.st242{fill:url(#Trazado_24572_7_);}
	.st243{fill:url(#Trazado_26233_2_);}
	.st244{fill:url(#Trazado_26234_2_);}
	.st245{fill:url(#Trazado_26235_2_);}
	.st246{fill:url(#Trazado_26236_2_);}
	.st247{fill:url(#Trazado_26237_3_);}
	.st248{fill:url(#Trazado_26238_3_);}
	.st249{fill:url(#Trazado_26242_3_);}
	.st250{fill:url(#Trazado_26243_3_);}
	.st251{fill:url(#Trazado_26244_3_);}
	.st252{fill:url(#Trazado_26245_3_);}
	.st253{fill:url(#Trazado_26246_3_);}
	.st254{fill:url(#Trazado_26247_3_);}
	.st255{fill:url(#Trazado_26248_3_);}
	.st256{fill:url(#Trazado_26249_3_);}
	.st257{fill:url(#Trazado_26250_3_);}
	.st258{fill:url(#Trazado_26251_3_);}
	.st259{fill:url(#Trazado_26252_3_);}
	.st260{fill:url(#Trazado_26253_3_);}
	.st261{fill:url(#Trazado_26254_3_);}
	.st262{fill:url(#Trazado_26255_3_);}
	.st263{fill:url(#Trazado_26256_3_);}
	.st264{fill:url(#Trazado_26257_3_);}
	.st265{fill:url(#Trazado_26258_3_);}
	.st266{fill:url(#Trazado_26259_3_);}
	.st267{fill:url(#Trazado_26260_3_);}
	.st268{fill:url(#Trazado_26261_3_);}
	.st269{fill:url(#Trazado_26262_3_);}
	.st270{fill:url(#Trazado_26263_3_);}
	.st271{fill:url(#Trazado_26264_3_);}
	.st272{fill:url(#Trazado_26265_3_);}
	.st273{fill:url(#Trazado_26266_3_);}
	.st274{fill:url(#Trazado_26267_3_);}
	.st275{fill:url(#Trazado_26268_3_);}
	.st276{fill:url(#Trazado_26269_3_);}
	.st277{fill:url(#Trazado_26270_3_);}
	.st278{fill:url(#Trazado_26271_3_);}
	.st279{fill:url(#Trazado_26272_3_);}
	.st280{fill:url(#Trazado_26273_3_);}
	.st281{fill:url(#Trazado_26274_3_);}
	.st282{fill:url(#Trazado_26275_3_);}
	.st283{fill:url(#Trazado_26276_3_);}
	.st284{fill:url(#Trazado_26277_3_);}
	.st285{fill:url(#Trazado_26278_3_);}
	.st286{fill:url(#Trazado_26279_3_);}
	.st287{fill:url(#Trazado_26284_3_);}
	.st288{fill:url(#Trazado_26285_3_);}
	.st289{fill:url(#Trazado_26230_3_);}
	.st290{fill:url(#Trazado_26231_3_);}
	.st291{fill:url(#Trazado_26232_3_);}
	.st292{fill:url(#Rectángulo_3918_3_);}
	.st293{fill:url(#Rectángulo_3919_3_);}
	.st294{fill:url(#Rectángulo_3920_3_);}
	.st295{fill:url(#Rectángulo_3921_3_);}
	.st296{fill:url(#Rectángulo_3922_3_);}
	.st297{fill:url(#Rectángulo_3923_3_);}
	.st298{fill:url(#Rectángulo_3924_3_);}
	.st299{fill:url(#Rectángulo_3925_3_);}
	.st300{fill:none;stroke:#006495;stroke-linecap:square;stroke-miterlimit:10;stroke-dasharray:2,2;}
	.st301{fill:#262944;}
	.st302{fill:none;stroke:#FFFFFF;stroke-miterlimit:10;}
</style>
<g id="youtube" transform="translate(-733.78 -976.78)">
	<g transform="matrix(1, 0, 0, 1, 733.78, 976.78)">
		<path id="Trazado_882-6" class="st2" d="M35,7.57c15.15,0,27.43,12.28,27.43,27.43S50.15,62.43,35,62.43S7.57,50.15,7.57,35
			c0,0,0,0,0,0C7.57,19.85,19.85,7.57,35,7.57z"/>
	</g>
	<g id="Grupo_1284" transform="translate(714.497 917.704)">
		<g id="Grupo_1281" transform="translate(100.101 74.197)">
			<g id="Grupo_1280">
				<path id="Trazado_1389" class="st96" d="M-45.43,9.04c-0.2-0.03-0.4-0.03-0.59,0c-0.72,0.11-1.3,0.62-1.51,1.31
					c0,0-0.07,0.47-0.07,0.67v3.36c0.02,0.38,0.14,0.75,0.34,1.08c0.29,0.46,0.79,0.75,1.33,0.79c0.17,0.01,0.33,0.01,0.5-0.01
					c0.52-0.05,0.99-0.34,1.27-0.78c0.2-0.33,0.31-0.7,0.34-1.08v-3.37c0-0.2-0.07-0.67-0.07-0.67
					C-44.12,9.65-44.71,9.14-45.43,9.04 M-45.12,11.02v3.36c0,0.81-0.6,0.74-0.6,0.74s-0.67,0.07-0.67-0.74v-3.36
					c0-0.94,0.67-0.88,0.67-0.88C-45.05,10.15-45.12,11.02-45.12,11.02 M-50.11,10.35l-1.01-3.7h-1.48l1.82,5.65v3.84h1.35V12.3
					l1.75-5.65h-1.41L-50.11,10.35z M-40.35,9.07v5.45c-0.15,0.3-0.42,0.52-0.74,0.6c-0.47,0-0.4-0.33-0.4-0.33V9.08h-1.28v6.12
					c-0.08,0.51,0.27,0.99,0.78,1.07c0.08,0.01,0.16,0.01,0.23,0.01c0.67,0,1.41-0.87,1.41-0.87v0.81h1.28V9.08L-40.35,9.07z"/>
				<path id="Trazado_1390" class="st96" d="M-36.32,18.32c-2.97-0.28-5.96-0.37-8.95-0.27c-3.8,0-5.71,0.07-5.97,0.07
					c-2.44,0.14-4.14-0.2-4.75,2.44c-0.27,1.6-0.4,3.22-0.41,4.85c0.13,3.16-0.13,6.95,2.91,7.23c1.56,0.14,5.63,0.2,8.31,0.2
					c3,0.07,6-0.04,8.99-0.34c0.53-0.19,0.98-0.55,1.29-1.01c0.79-1.06,0.81-2.67,0.88-6.11C-34.15,22.46-33.95,18.66-36.32,18.32
					 M-49.82,21.71h-1.56v8.21h-1.43v-8.21h-1.49v-1.42h4.48C-49.78,20.76-49.78,21.24-49.82,21.71 M-45.81,29.99h-1.29v-0.82
					c0,0-0.68,0.88-1.42,0.88s-1.02-0.48-1.02-1.36v-5.9h1.29v5.76c0,0,0,0.27,0.34,0.27c0.35-0.07,0.65-0.29,0.81-0.61V22.8h1.29
					L-45.81,29.99z M-40.86,28.7c0,0-0.14,1.36-0.95,1.36c-0.62-0.01-1.2-0.31-1.56-0.81v0.74h-1.29v-9.63h1.29v3.12
					c0,0,0.68-0.81,1.29-0.81c0.66-0.02,1.21,0.5,1.22,1.16c0,0.04,0,0.09,0,0.13V28.7z M-35.98,28.7c-0.2,1.22-1.7,1.36-1.7,1.36
					c-1.08,0.08-2.02-0.73-2.1-1.81c-0.01-0.07-0.01-0.15,0-0.22v-3.39c0.02-0.23,0.06-0.46,0.13-0.68c0.14-0.41,0.27-1.22,1.9-1.22
					c0.99-0.03,1.81,0.75,1.84,1.74c0,0.05,0,0.11,0,0.16v1.97h-2.57v1.42c-0.05,0.4,0.24,0.76,0.64,0.81c0.04,0,0.07,0.01,0.11,0
					c0.54,0,0.54-0.81,0.54-0.81v-0.54h1.29C-35.87,27.89-35.89,28.31-35.98,28.7 M-37.2,24.64c0,0-0.07-0.75-0.61-0.75
					s-0.68,0.61-0.68,0.75v0.88h1.29L-37.2,24.64z M-42.69,23.89c-0.23,0.02-0.45,0.11-0.61,0.27v4.41
					c0.16,0.17,0.38,0.27,0.61,0.27c0.54,0,0.54-0.61,0.54-0.61v-3.6C-42.15,24.17-42.35,23.89-42.69,23.89"/>
			</g>
		</g>
	</g>
</g>
</svg>
