<?xml version="1.0" encoding="utf-8"?>
<!-- Generator: Adobe Illustrator 25.2.1, SVG Export Plug-In . SVG Version: 6.00 Build 0)  -->
<svg version="1.1" id="Capa_1" xmlns="http://www.w3.org/2000/svg" xmlns:xlink="http://www.w3.org/1999/xlink" x="0px" y="0px"
	 viewBox="0 0 80 80" style="enable-background:new 0 0 80 80;" xml:space="preserve">
<style type="text/css">
	.st0{fill:#6E6E6E;}
	.st1{fill:#F6F7F9;}
	.st2{fill:#FFFFFF;}
	.st3{fill:#DCDCDC;}
	.st4{fill:url(#Trazado_26198_4_);}
	.st5{fill:url(#Trazado_26199_4_);}
	.st6{fill:url(#Trazado_26200_4_);}
	.st7{fill:url(#Trazado_26201_4_);}
	.st8{fill:url(#Trazado_26202_4_);}
	.st9{fill:url(#Trazado_26203_4_);}
	.st10{fill:url(#Trazado_26204_4_);}
	.st11{fill:url(#Trazado_26205_4_);}
	.st12{fill:url(#Trazado_26206_4_);}
	.st13{fill:url(#Trazado_26207_4_);}
	.st14{fill:url(#Trazado_26208_4_);}
	.st15{fill:url(#Trazado_26209_4_);}
	.st16{fill:url(#Trazado_26210_4_);}
	.st17{fill:url(#Trazado_26211_4_);}
	.st18{fill:url(#Trazado_26212_4_);}
	.st19{fill:url(#Trazado_26213_4_);}
	.st20{fill:url(#Trazado_26214_4_);}
	.st21{fill:url(#Trazado_26215_4_);}
	.st22{fill:url(#Trazado_24566_6_);}
	.st23{fill:url(#Trazado_24567_6_);}
	.st24{fill:url(#Trazado_24568_6_);}
	.st25{fill:url(#Trazado_24569_6_);}
	.st26{fill:url(#Trazado_24570_6_);}
	.st27{fill:url(#Trazado_24571_6_);}
	.st28{fill:url(#Trazado_24572_6_);}
	.st29{fill:url(#Trazado_26216_4_);}
	.st30{fill:url(#Trazado_26217_4_);}
	.st31{fill:url(#Trazado_26218_4_);}
	.st32{fill:url(#Trazado_26336_1_);}
	.st33{fill:url(#Unión_52_1_);}
	.st34{fill:url(#Trazado_904_4_);}
	.st35{fill:url(#Trazado_905_4_);}
	.st36{fill:url(#Trazado_906_4_);}
	.st37{fill:url(#Trazado_24631_4_);}
	.st38{fill:url(#Trazado_24632_4_);}
	.st39{fill:url(#Trazado_24633_4_);}
	.st40{fill:url(#Trazado_24634_4_);}
	.st41{fill:url(#Trazado_24635_4_);}
	.st42{fill:url(#Trazado_24636_4_);}
	.st43{fill:url(#Trazado_24637_4_);}
	.st44{fill:url(#Trazado_24638_4_);}
	.st45{fill:url(#Trazado_24639_4_);}
	.st46{fill:url(#Trazado_24640_4_);}
	.st47{fill:url(#Trazado_884_3_);}
	.st48{fill:url(#Trazado_24616_3_);}
	.st49{fill:url(#Trazado_24617_3_);}
	.st50{fill:url(#Trazado_24618_3_);}
	.st51{fill:url(#Trazado_24619_3_);}
	.st52{fill:url(#Trazado_24620_3_);}
	.st53{fill:url(#Trazado_24621_3_);}
	.st54{fill:url(#Trazado_24622_3_);}
	.st55{fill:none;stroke:#CCCCCC;}
	.st56{fill:url(#Trazado_904-2_2_);}
	.st57{fill:url(#Trazado_905-2_2_);}
	.st58{fill:url(#Trazado_906-2_2_);}
	.st59{fill:url(#Trazado_24631-2_2_);}
	.st60{fill:url(#Trazado_24632-2_2_);}
	.st61{fill:url(#Trazado_24633-2_2_);}
	.st62{fill:url(#Trazado_24634-2_2_);}
	.st63{fill:url(#Trazado_24635-2_2_);}
	.st64{fill:url(#Trazado_24636-2_2_);}
	.st65{fill:url(#Trazado_24637-2_2_);}
	.st66{fill:url(#Trazado_24638-2_2_);}
	.st67{fill:url(#Trazado_24639-2_2_);}
	.st68{fill:url(#Trazado_24640-2_2_);}
	.st69{fill:url(#Trazado_884-2_1_);}
	.st70{fill:url(#Trazado_24616-2_1_);}
	.st71{fill:url(#Trazado_24617-2_1_);}
	.st72{fill:url(#Trazado_24618-2_1_);}
	.st73{fill:url(#Trazado_24619-2_1_);}
	.st74{fill:url(#Trazado_24620-2_1_);}
	.st75{fill:url(#Trazado_24621-2_1_);}
	.st76{fill:url(#Trazado_24622-2_1_);}
	.st77{fill:url(#Trazado_26355_1_);}
	.st78{opacity:0.2;fill:#26F70F;}
	.st79{fill:#F90D0D;}
	.st80{fill:none;stroke:#F90D0D;stroke-miterlimit:10;}
	.st81{fill:none;stroke:#FF2929;stroke-miterlimit:10;}
	.st82{opacity:0.2;}
	.st83{fill:#FF2929;}
	.st84{opacity:0.2;fill:#FF2929;}
	.st85{fill:#3366CC;}
	.st86{fill:none;stroke:#FFFFFF;}
	.st87{fill:#0070BA;}
	.st88{fill:#E3134D;}
	.st89{fill:#FEC20A;}
	.st90{fill:#70AF3D;}
	.st91{fill:#9B156E;}
	.st92{fill:#FBD015;}
	.st93{fill:#05569E;}
	.st94{fill:#D11F3E;}
	.st95{fill:none;}
	.st96{fill-rule:evenodd;clip-rule:evenodd;fill:#3366CC;}
	.st97{fill:none;stroke:#707070;}
	.st98{stroke:#FF2929;stroke-width:4;stroke-miterlimit:10;}
	.st99{fill:none;stroke:#FF2929;stroke-width:4;stroke-miterlimit:10;}
	.st100{fill:none;stroke:#000000;stroke-miterlimit:10;}
	.st101{fill:#41D78C;}
	.st102{fill:url(#Trazado_24869_3_);}
	.st103{fill:url(#Trazado_26191_3_);}
	.st104{fill:url(#Trazado_26192_3_);}
	.st105{fill:url(#Trazado_26193_3_);}
	.st106{fill:url(#Trazado_26194_3_);}
	.st107{fill:url(#Trazado_26195_3_);}
	.st108{fill:url(#Trazado_26196_3_);}
	.st109{fill:url(#Trazado_26197_3_);}
	.st110{fill:url(#Trazado_26198_5_);}
	.st111{fill:url(#Trazado_26199_5_);}
	.st112{fill:url(#Trazado_26200_5_);}
	.st113{fill:url(#Trazado_26201_5_);}
	.st114{fill:url(#Trazado_26202_5_);}
	.st115{fill:url(#Trazado_26203_5_);}
	.st116{fill:url(#Trazado_26204_5_);}
	.st117{fill:url(#Trazado_26205_5_);}
	.st118{fill:url(#Trazado_26206_5_);}
	.st119{fill:url(#Trazado_26207_5_);}
	.st120{fill:url(#Trazado_26208_5_);}
	.st121{fill:url(#Trazado_26209_5_);}
	.st122{fill:url(#Trazado_26210_5_);}
	.st123{fill:url(#Trazado_26211_5_);}
	.st124{fill:url(#Trazado_26212_5_);}
	.st125{fill:url(#Trazado_26213_5_);}
	.st126{fill:url(#Trazado_26214_5_);}
	.st127{fill:url(#Trazado_26215_5_);}
	.st128{fill:url(#Trazado_26216_5_);}
	.st129{fill:url(#Trazado_26217_5_);}
	.st130{fill:url(#Trazado_26218_5_);}
	.st131{fill:url(#Trazado_24566_7_);}
	.st132{fill:url(#Trazado_24567_7_);}
	.st133{fill:url(#Trazado_24568_7_);}
	.st134{fill:url(#Trazado_24569_7_);}
	.st135{fill:url(#Trazado_24570_7_);}
	.st136{fill:url(#Trazado_24571_7_);}
	.st137{fill:url(#Trazado_24572_7_);}
	.st138{fill:url(#Unión_55_1_);}
	.st139{fill:url(#Trazado_904_5_);}
	.st140{fill:url(#Trazado_905_5_);}
	.st141{fill:url(#Trazado_906_5_);}
	.st142{fill:url(#Trazado_24631_5_);}
	.st143{fill:url(#Trazado_24632_5_);}
	.st144{fill:url(#Trazado_24633_5_);}
	.st145{fill:url(#Trazado_24634_5_);}
	.st146{fill:url(#Trazado_24635_5_);}
	.st147{fill:url(#Trazado_24636_5_);}
	.st148{fill:url(#Trazado_24637_5_);}
	.st149{fill:url(#Trazado_24638_5_);}
	.st150{fill:url(#Trazado_24639_5_);}
	.st151{fill:url(#Trazado_24640_5_);}
	.st152{fill:url(#Rectángulo_3914-2_1_);}
	.st153{clip-path:url(#SVGID_6_);fill:#EBEEF0;}
	.st154{clip-path:url(#SVGID_6_);}
	.st155{opacity:0.2;clip-path:url(#SVGID_6_);fill:#26F70F;}
	.st156{opacity:0.1;clip-path:url(#SVGID_6_);}
	.st157{opacity:0.2;fill:#F90D0D;}
	.st158{fill:none;stroke:#FF0000;stroke-width:5;stroke-miterlimit:10;}
	.st159{clip-path:url(#SVGID_14_);fill:#EBEEF0;}
	.st160{clip-path:url(#SVGID_14_);}
	.st161{opacity:0.2;clip-path:url(#SVGID_14_);fill:#26F70F;}
	.st162{fill:none;stroke:#26F70F;stroke-width:7;stroke-miterlimit:10;}
	.st163{fill:url(#Rectángulo_3928_2_);}
	.st164{fill:#F0F2F4;}
	.st165{opacity:0.28;fill:none;stroke:#BEC8D2;enable-background:new    ;}
	.st166{fill:none;stroke:#E2E7EB;}
	.st167{fill:#00B4DC;}
	.st168{fill:url(#Trazado_24687_2_);}
	.st169{fill:url(#Trazado_24688_2_);}
	.st170{fill:url(#Trazado_24689_2_);}
	.st171{fill:url(#Trazado_24690_2_);}
	.st172{fill:url(#Rectángulo_1733_2_);}
	.st173{fill:url(#Rectángulo_1734_2_);}
	.st174{fill:url(#Rectángulo_1735_2_);}
	.st175{fill:url(#Trazado_24566_8_);}
	.st176{fill:url(#Trazado_24567_8_);}
	.st177{fill:url(#Trazado_24568_8_);}
	.st178{fill:url(#Trazado_24569_8_);}
	.st179{fill:url(#Trazado_24570_8_);}
	.st180{fill:url(#Trazado_24571_8_);}
	.st181{fill:url(#Trazado_24572_8_);}
	.st182{fill:url(#Trazado_26237_2_);}
	.st183{fill:url(#Trazado_26238_2_);}
	.st184{fill:url(#Trazado_26242_2_);}
	.st185{fill:url(#Trazado_26243_2_);}
	.st186{fill:url(#Trazado_26244_2_);}
	.st187{fill:url(#Trazado_26245_2_);}
	.st188{fill:url(#Trazado_26246_2_);}
	.st189{fill:url(#Trazado_26247_2_);}
	.st190{fill:url(#Trazado_26248_2_);}
	.st191{fill:url(#Trazado_26249_2_);}
	.st192{fill:url(#Trazado_26250_2_);}
	.st193{fill:url(#Trazado_26251_2_);}
	.st194{fill:url(#Trazado_26252_2_);}
	.st195{fill:url(#Trazado_26253_2_);}
	.st196{fill:url(#Trazado_26254_2_);}
	.st197{fill:url(#Trazado_26255_2_);}
	.st198{fill:url(#Trazado_26256_2_);}
	.st199{fill:url(#Trazado_26257_2_);}
	.st200{fill:url(#Trazado_26258_2_);}
	.st201{fill:url(#Trazado_26259_2_);}
	.st202{fill:url(#Trazado_26260_2_);}
	.st203{fill:url(#Trazado_26261_2_);}
	.st204{fill:url(#Trazado_26262_2_);}
	.st205{fill:url(#Trazado_26263_2_);}
	.st206{fill:url(#Trazado_26264_2_);}
	.st207{fill:url(#Trazado_26265_2_);}
	.st208{fill:url(#Trazado_26266_2_);}
	.st209{fill:url(#Trazado_26267_2_);}
	.st210{fill:url(#Trazado_26268_2_);}
	.st211{fill:url(#Trazado_26269_2_);}
	.st212{fill:url(#Trazado_26270_2_);}
	.st213{fill:url(#Trazado_26271_2_);}
	.st214{fill:url(#Trazado_26272_2_);}
	.st215{fill:url(#Trazado_26273_2_);}
	.st216{fill:url(#Trazado_26274_2_);}
	.st217{fill:url(#Trazado_26275_2_);}
	.st218{fill:url(#Trazado_26276_2_);}
	.st219{fill:url(#Trazado_26277_2_);}
	.st220{fill:url(#Trazado_26278_2_);}
	.st221{fill:url(#Trazado_26279_2_);}
	.st222{fill:url(#Trazado_26284_2_);}
	.st223{fill:url(#Trazado_26285_2_);}
	.st224{fill:url(#Trazado_26230_2_);}
	.st225{fill:url(#Trazado_26231_2_);}
	.st226{fill:url(#Trazado_26232_2_);}
	.st227{fill:url(#Rectángulo_3918_2_);}
	.st228{fill:url(#Rectángulo_3919_2_);}
	.st229{fill:url(#Rectángulo_3920_2_);}
	.st230{fill:url(#Rectángulo_3921_2_);}
	.st231{fill:url(#Rectángulo_3922_2_);}
	.st232{fill:url(#Rectángulo_3923_2_);}
	.st233{fill:url(#Rectángulo_3924_2_);}
	.st234{fill:url(#Rectángulo_3925_2_);}
	.st235{fill:url(#Rectángulo_3928_3_);}
	.st236{fill:url(#Trazado_24566_9_);}
	.st237{fill:url(#Trazado_24567_9_);}
	.st238{fill:url(#Trazado_24568_9_);}
	.st239{fill:url(#Trazado_24569_9_);}
	.st240{fill:url(#Trazado_24570_9_);}
	.st241{fill:url(#Trazado_24571_9_);}
	.st242{fill:url(#Trazado_24572_9_);}
	.st243{fill:url(#Trazado_26233_2_);}
	.st244{fill:url(#Trazado_26234_2_);}
	.st245{fill:url(#Trazado_26235_2_);}
	.st246{fill:url(#Trazado_26236_2_);}
	.st247{fill:url(#Trazado_26237_3_);}
	.st248{fill:url(#Trazado_26238_3_);}
	.st249{fill:url(#Trazado_26242_3_);}
	.st250{fill:url(#Trazado_26243_3_);}
	.st251{fill:url(#Trazado_26244_3_);}
	.st252{fill:url(#Trazado_26245_3_);}
	.st253{fill:url(#Trazado_26246_3_);}
	.st254{fill:url(#Trazado_26247_3_);}
	.st255{fill:url(#Trazado_26248_3_);}
	.st256{fill:url(#Trazado_26249_3_);}
	.st257{fill:url(#Trazado_26250_3_);}
	.st258{fill:url(#Trazado_26251_3_);}
	.st259{fill:url(#Trazado_26252_3_);}
	.st260{fill:url(#Trazado_26253_3_);}
	.st261{fill:url(#Trazado_26254_3_);}
	.st262{fill:url(#Trazado_26255_3_);}
	.st263{fill:url(#Trazado_26256_3_);}
	.st264{fill:url(#Trazado_26257_3_);}
	.st265{fill:url(#Trazado_26258_3_);}
	.st266{fill:url(#Trazado_26259_3_);}
	.st267{fill:url(#Trazado_26260_3_);}
	.st268{fill:url(#Trazado_26261_3_);}
	.st269{fill:url(#Trazado_26262_3_);}
	.st270{fill:url(#Trazado_26263_3_);}
	.st271{fill:url(#Trazado_26264_3_);}
	.st272{fill:url(#Trazado_26265_3_);}
	.st273{fill:url(#Trazado_26266_3_);}
	.st274{fill:url(#Trazado_26267_3_);}
	.st275{fill:url(#Trazado_26268_3_);}
	.st276{fill:url(#Trazado_26269_3_);}
	.st277{fill:url(#Trazado_26270_3_);}
	.st278{fill:url(#Trazado_26271_3_);}
	.st279{fill:url(#Trazado_26272_3_);}
	.st280{fill:url(#Trazado_26273_3_);}
	.st281{fill:url(#Trazado_26274_3_);}
	.st282{fill:url(#Trazado_26275_3_);}
	.st283{fill:url(#Trazado_26276_3_);}
	.st284{fill:url(#Trazado_26277_3_);}
	.st285{fill:url(#Trazado_26278_3_);}
	.st286{fill:url(#Trazado_26279_3_);}
	.st287{fill:url(#Trazado_26284_3_);}
	.st288{fill:url(#Trazado_26285_3_);}
	.st289{fill:url(#Trazado_26230_3_);}
	.st290{fill:url(#Trazado_26231_3_);}
	.st291{fill:url(#Trazado_26232_3_);}
	.st292{fill:url(#Rectángulo_3918_3_);}
	.st293{fill:url(#Rectángulo_3919_3_);}
	.st294{fill:url(#Rectángulo_3920_3_);}
	.st295{fill:url(#Rectángulo_3921_3_);}
	.st296{fill:url(#Rectángulo_3922_3_);}
	.st297{fill:url(#Rectángulo_3923_3_);}
	.st298{fill:url(#Rectángulo_3924_3_);}
	.st299{fill:url(#Rectángulo_3925_3_);}
	.st300{fill:none;stroke:#006495;stroke-linecap:square;stroke-miterlimit:10;stroke-dasharray:2,2;}
	.st301{fill:#262944;}
	.st302{fill:none;stroke:#FFFFFF;stroke-miterlimit:10;}
	.st303{fill:url(#Trazado_24869_4_);}
	.st304{fill:url(#Trazado_26191_5_);}
	.st305{fill:url(#Trazado_26192_5_);}
	.st306{fill:url(#Trazado_26193_5_);}
	.st307{fill:url(#Trazado_26194_5_);}
	.st308{fill:url(#Trazado_26195_5_);}
	.st309{fill:url(#Trazado_26196_5_);}
	.st310{fill:url(#Trazado_26197_5_);}
	.st311{fill:url(#Trazado_26198_6_);}
	.st312{fill:url(#Trazado_26199_6_);}
	.st313{fill:url(#Trazado_26200_6_);}
	.st314{fill:url(#Trazado_26201_6_);}
	.st315{fill:url(#Trazado_26202_6_);}
	.st316{fill:url(#Trazado_26203_6_);}
	.st317{fill:url(#Trazado_26204_6_);}
	.st318{fill:url(#Trazado_26205_6_);}
	.st319{fill:url(#Trazado_26206_6_);}
	.st320{fill:url(#Trazado_26207_6_);}
	.st321{fill:url(#Trazado_26208_6_);}
	.st322{fill:url(#Trazado_26209_6_);}
	.st323{fill:url(#Trazado_26210_6_);}
	.st324{fill:url(#Trazado_26211_6_);}
	.st325{fill:url(#Trazado_26212_6_);}
	.st326{fill:url(#Trazado_26213_6_);}
	.st327{fill:url(#Trazado_26214_6_);}
	.st328{fill:url(#Trazado_26215_6_);}
	.st329{fill:url(#Trazado_26216_6_);}
	.st330{fill:url(#Trazado_26217_6_);}
	.st331{fill:url(#Trazado_26218_6_);}
	.st332{fill:url(#Trazado_24566_10_);}
	.st333{fill:url(#Trazado_24567_10_);}
	.st334{fill:url(#Trazado_24568_10_);}
	.st335{fill:url(#Trazado_24569_10_);}
	.st336{fill:url(#Trazado_24570_10_);}
	.st337{fill:url(#Trazado_24571_10_);}
	.st338{fill:url(#Trazado_24572_10_);}
	.st339{fill:url(#Trazado_26354_3_);}
	.st340{fill:url(#Trazado_904_6_);}
	.st341{fill:url(#Trazado_905_6_);}
	.st342{fill:url(#Trazado_906_6_);}
	.st343{fill:url(#Trazado_24631_6_);}
	.st344{fill:url(#Trazado_24632_6_);}
	.st345{fill:url(#Trazado_24633_6_);}
	.st346{fill:url(#Trazado_24634_6_);}
	.st347{fill:url(#Trazado_24635_6_);}
	.st348{fill:url(#Trazado_24636_6_);}
	.st349{fill:url(#Trazado_24637_6_);}
	.st350{fill:url(#Trazado_24638_6_);}
	.st351{fill:url(#Trazado_24639_6_);}
	.st352{fill:url(#Trazado_24640_6_);}
	.st353{fill:url(#Trazado_884_4_);}
	.st354{fill:url(#Trazado_24616_4_);}
	.st355{fill:url(#Trazado_24617_4_);}
	.st356{fill:url(#Trazado_24618_4_);}
	.st357{fill:url(#Trazado_24619_4_);}
	.st358{fill:url(#Trazado_24620_4_);}
	.st359{fill:url(#Trazado_24621_4_);}
	.st360{fill:url(#Trazado_24622_4_);}
</style>
<g id="juridica-1_3_" transform="translate(-1609.513 -665.31)">
	<g id="factoring_3_" transform="translate(1633.205 667.792)">
		<g id="Grupo_984_3_" transform="translate(14.151 62.763)">
			<g id="Grupo_983_3_">
				<path id="Trazado_904_3_" class="st2" d="M0.07-1.61c-0.54,0-0.97,0.43-0.97,0.97l0,0v8.33c0,0.54,0.44,0.97,0.97,0.97
					s0.97-0.44,0.97-0.97l0,0v-8.33C1.04-1.17,0.61-1.61,0.07-1.61L0.07-1.61z"/>
			</g>
		</g>
		<g id="Grupo_986_3_" transform="translate(42.453 62.763)">
			<g id="Grupo_985_3_">
				<path id="Trazado_905_3_" class="st2" d="M-3.25-1.61c-0.54,0-0.97,0.43-0.97,0.97c0,0,0,0,0,0l0,0v8.33
					c0,0.54,0.44,0.97,0.97,0.97s0.97-0.44,0.97-0.97l0,0v-8.33C-2.28-1.17-2.71-1.61-3.25-1.61L-3.25-1.61L-3.25-1.61z"/>
			</g>
		</g>
		<g id="Grupo_988_3_" transform="translate(0)">
			<g id="Grupo_987_3_">
				<path id="Trazado_906_3_" class="st2" d="M47.48,51.62l-3.9-1.13c-2.05-3.1-5.08-5.43-8.61-6.61v-1.73
					c3.31-2.26,5.53-5.81,6.11-9.78h0.58c1.86,0.03,3.45-1.33,3.71-3.17c0.16-1.65-0.84-3.19-2.42-3.71l0.52-2.8
					C44.88,14.9,39.7,7.43,31.91,6.02c-0.03-0.01-0.06-0.01-0.09-0.02c-0.87-0.16-1.75-0.24-2.63-0.24h-5.38
					C15.85,5.72,9.36,12.14,9.31,20.1c0,0.75,0.06,1.49,0.18,2.23l0.54,3.39c-1.73,0.84-2.46,2.93-1.62,4.66
					c0.01,0.01,0.01,0.03,0.02,0.04c0.61,1.2,1.84,1.95,3.19,1.94h0.72c0.58,3.97,2.79,7.52,6.11,9.78v1.73
					c-3.53,1.17-6.56,3.5-8.61,6.61l-3.9,1.13c-3.05,0.88-5.16,3.67-5.18,6.84v12.01c0,0.54,0.44,0.97,0.97,0.97
					s0.97-0.44,0.97-0.97V58.46c0.02-2.32,1.56-4.35,3.78-4.99l2.16-0.63c-0.09,0.23-0.18,0.46-0.26,0.71
					c-0.31,0.89-0.18,1.88,0.35,2.67l1.1,1.63l-2.77,2.74c-0.75,0.74-1.06,1.83-0.81,2.85l1.8,7.28c0.13,0.52,0.66,0.84,1.18,0.71
					c0.52-0.12,0.84-0.64,0.72-1.16c0,0,0-0.01,0-0.01l-1.8-7.28c-0.09-0.37,0.02-0.76,0.29-1.03l3.33-3.29
					c0.33-0.32,0.38-0.83,0.12-1.21l-1.54-2.29c-0.19-0.29-0.24-0.66-0.12-0.99c1.7-5.05,6.07-7.35,8.21-8.21v0.63
					c0,1.11-0.44,2.18-1.24,2.95l-1.24,1.23c-1.75,1.71-2.73,4.05-2.72,6.5v0.88c0,0.54,0.44,0.97,0.97,0.97s0.97-0.44,0.97-0.97
					v-0.88c0-1.58,0.52-3.12,1.48-4.37l2.62,3.11c0.55,0.65,1.35,1.05,2.21,1.09c0.05,0,0.09,0,0.14,0c0.51,0,1.02-0.13,1.47-0.38
					l0.11,0.33c0.17,0.51,0.48,0.96,0.88,1.31l-1.49,12.01c-0.08,0.53,0.3,1.03,0.83,1.1c0.53,0.08,1.02-0.3,1.1-0.83
					c0-0.01,0-0.03,0-0.04l1.42-11.5c0.05,0,0.1,0.01,0.15,0.01h1.16c0.05,0,0.1,0,0.15-0.01l1.43,11.5
					c0.05,0.54,0.53,0.93,1.07,0.87c0.54-0.05,0.93-0.53,0.87-1.07l0,0c0-0.01,0-0.03,0-0.04l-1.49-12.01
					c0.41-0.35,0.71-0.8,0.88-1.31l0.11-0.33c0.45,0.25,0.96,0.37,1.47,0.38c0.05,0,0.09,0,0.14,0c0.85-0.04,1.65-0.43,2.21-1.09
					l2.62-3.11c0.96,1.25,1.48,2.79,1.48,4.37v0.88c0,0.54,0.44,0.97,0.97,0.97c0.54,0,0.97-0.44,0.97-0.97l0,0v-0.88
					c0-2.44-0.98-4.78-2.72-6.49l-1.24-1.23c-0.79-0.78-1.24-1.84-1.24-2.95v-0.64c2.13,0.85,6.5,3.14,8.21,8.21
					c0.12,0.33,0.07,0.7-0.12,0.99l-1.54,2.29c-0.26,0.38-0.21,0.89,0.12,1.21l3.33,3.29c0.27,0.27,0.38,0.66,0.29,1.03l-1.8,7.28
					c-0.13,0.52,0.19,1.04,0.71,1.16c0,0,0.01,0,0.01,0c0.52,0.13,1.05-0.19,1.18-0.71l1.8-7.28c0.25-1.03-0.06-2.11-0.81-2.85
					l-2.77-2.74l1.1-1.63c0.53-0.78,0.66-1.77,0.35-2.67c-0.08-0.24-0.17-0.47-0.26-0.71l2.16,0.63c2.23,0.65,3.76,2.68,3.78,4.99
					v12.02c0,0.54,0.44,0.97,0.97,0.97s0.97-0.44,0.97-0.97V58.46C52.65,55.28,50.54,52.49,47.48,51.62z M14.16,30.37
					c0-0.54-0.44-0.97-0.97-0.97c-0.54,0-0.97,0.44-0.97,0.97v0.07h-0.59c-0.89,0.01-1.62-0.7-1.63-1.59c0-0.06,0-0.13,0.01-0.19
					c0.14-0.86,0.9-1.47,1.77-1.44h1.17c1.68,0.01,3.04-1.34,3.05-3.02c0-0.11-0.01-0.22-0.02-0.33l-0.14-1.26
					c-0.25-2.3,1.42-4.37,3.72-4.61c0.01,0,0.01,0,0.02,0c0.16-0.02,0.31-0.03,0.47-0.03h8.76c0.53,0,0.96-0.43,0.96-0.96
					c0-0.53-0.43-0.96-0.96-0.96h-8.76c-3.39-0.02-6.16,2.71-6.18,6.1c0,0,0,0,0,0c0,0.23,0.01,0.45,0.04,0.67l0.14,1.26
					c0.06,0.6-0.37,1.14-0.98,1.21c0,0,0,0,0,0c-0.04,0-0.08,0.01-0.12,0.01h-1.01l-0.52-3.27c-1.05-6.78,3.6-13.13,10.38-14.18
					c0.02,0,0.04-0.01,0.06-0.01c0.65-0.1,1.3-0.15,1.95-0.15h5.38c6.89-0.04,12.51,5.51,12.56,12.4c0,0.75-0.07,1.51-0.21,2.25
					l-0.55,2.96h-0.51c-0.61,0-1.1-0.49-1.11-1.1v0c0-0.04,0-0.08,0.01-0.12l0.14-1.26c0.36-3.36-2.07-6.38-5.43-6.74
					c-0.01,0-0.02,0-0.02,0c-0.23-0.03-0.46-0.04-0.69-0.04h-0.43c-0.53,0-0.96,0.43-0.96,0.96c0,0.53,0.43,0.96,0.96,0.96
					c0,0,0,0,0.01,0h0.43c2.32-0.01,4.22,1.86,4.23,4.18c0,0,0,0,0,0c0,0.15-0.01,0.31-0.03,0.46l-0.14,1.26
					c-0.18,1.66,1.03,3.15,2.69,3.33c0,0,0.01,0,0.01,0c0.11,0.01,0.23,0.02,0.34,0.02h1.32c0.89,0,1.62,0.72,1.63,1.61v0
					c0,0.06,0,0.11-0.01,0.17c-0.14,0.86-0.9,1.47-1.77,1.44h-0.44v-0.05c0-0.53-0.44-0.96-0.97-0.96l0,0
					c-0.53,0-0.97,0.43-0.97,0.96c-0.03,6.93-5.68,12.53-12.61,12.5c-6.78-0.03-12.32-5.44-12.5-12.23
					C14.16,30.56,14.16,30.47,14.16,30.37L14.16,30.37z M33.07,47.27l-6.35,3.59l-6.35-3.59c0.03-0.23,0.04-0.46,0.04-0.7v-3.3
					c3.99,1.91,8.63,1.91,12.62,0v3.3C33.02,46.8,33.03,47.04,33.07,47.27L33.07,47.27z M22.43,54.83c-0.44,0.43-1.13,0.43-1.57,0
					c-0.02-0.02-0.05-0.05-0.07-0.07l-2.78-3.3l0.58-0.57c0.5-0.49,0.92-1.07,1.22-1.71l5.31,3L22.43,54.83z M28.34,56.42
					c-0.15,0.45-0.58,0.75-1.05,0.75h-1.16c-0.47,0-0.9-0.3-1.05-0.75l-0.37-1.11l2.01-1.98l2.01,1.98L28.34,56.42z M35.41,51.46
					l-2.78,3.3c-0.39,0.46-1.09,0.53-1.56,0.14c-0.03-0.02-0.05-0.04-0.07-0.07l-2.69-2.66l5.31-3c0.31,0.64,0.72,1.21,1.22,1.71
					L35.41,51.46z"/>
			</g>
		</g>
	</g>
	<g id="Grupo_2947_3_" transform="translate(1638.933 702.364)">
		<path id="Trazado_24631_3_" class="st2" d="M5.8,1.7H1.23c-0.63,0-1.15,0.51-1.15,1.15c0,0,0,0,0,0v6.86
			c0,0.63,0.51,1.15,1.15,1.15l0,0H5.8c0.63,0,1.15-0.51,1.15-1.15c0,0,0,0,0,0V2.85C6.95,2.22,6.44,1.7,5.8,1.7L5.8,1.7z
			 M4.66,8.56H2.37V3.99h2.29V8.56z"/>
	</g>
	<g id="Grupo_2948_3_" transform="translate(1618.595 688.309)">
		<path id="Trazado_24632_3_" class="st2" d="M8.19,3.35H3.62c-0.63,0-1.15,0.51-1.15,1.15c0,0,0,0,0,0v6.86
			c0,0.63,0.51,1.15,1.15,1.15l0,0h4.57c0.63,0,1.15-0.51,1.15-1.15c0,0,0,0,0,0V4.5C9.34,3.87,8.83,3.35,8.19,3.35L8.19,3.35z
			 M7.05,10.21H4.76V5.64h2.29V10.21z"/>
	</g>
	<g id="Grupo_2949_3_" transform="translate(1618.595 702.364)">
		<path id="Trazado_24633_3_" class="st2" d="M8.19,1.7H3.62c-0.63,0-1.15,0.51-1.15,1.15c0,0,0,0,0,0v6.86
			c0,0.63,0.51,1.15,1.15,1.15l0,0h4.57c0.63,0,1.15-0.51,1.15-1.15c0,0,0,0,0,0V2.85C9.34,2.22,8.83,1.7,8.19,1.7L8.19,1.7z
			 M7.05,8.56H4.76V3.99h2.29V8.56z"/>
	</g>
	<g id="Grupo_2950_3_" transform="translate(1618.595 674.377)">
		<path id="Trazado_24634_3_" class="st2" d="M8.19,4.99H3.62c-0.63,0-1.15,0.51-1.15,1.15c0,0,0,0,0,0V13
			c0,0.63,0.51,1.15,1.15,1.15l0,0h4.57c0.63,0,1.15-0.51,1.15-1.15c0,0,0,0,0,0V6.14C9.34,5.5,8.83,4.99,8.19,4.99L8.19,4.99z
			 M7.05,11.85H4.76V7.27h2.29V11.85z"/>
	</g>
	<g id="Grupo_2951_3_" transform="translate(1628.706 674.377)">
		<path id="Trazado_24635_3_" class="st2" d="M7,4.99H2.43c-0.63,0-1.15,0.51-1.15,1.15c0,0,0,0,0,0V13c0,0.63,0.51,1.15,1.15,1.15
			l0,0H7c0.63,0,1.15-0.51,1.15-1.15c0,0,0,0,0,0V6.14C8.15,5.5,7.64,4.99,7,4.99L7,4.99z M5.86,11.85H3.57V7.27h2.29V11.85z"/>
	</g>
	<g id="Grupo_2952_3_" transform="translate(1628.706 702.364)">
		<path id="Trazado_24636_3_" class="st2" d="M7,1.7H2.43c-0.63,0-1.15,0.51-1.15,1.15c0,0,0,0,0,0v6.86c0,0.63,0.51,1.15,1.15,1.15
			l0,0H7c0.63,0,1.15-0.51,1.15-1.15c0,0,0,0,0,0V2.85C8.15,2.22,7.64,1.7,7,1.7L7,1.7z M5.86,8.56H3.57V3.99h2.29V8.56z"/>
	</g>
	<g id="Grupo_2953_3_" transform="translate(1628.706 688.309)">
		<path id="Trazado_24637_3_" class="st2" d="M7,3.35H2.43c-0.63,0-1.15,0.51-1.15,1.15c0,0,0,0,0,0v6.86
			c0,0.63,0.51,1.15,1.15,1.15l0,0H7c0.63,0,1.15-0.51,1.15-1.15c0,0,0,0,0,0V4.5C8.15,3.87,7.64,3.35,7,3.35L7,3.35z M5.86,10.21
			H3.57V5.64h2.29V10.21z"/>
	</g>
	<path id="Trazado_24638_3_" class="st2" d="M1650.94,671.37h-33.3c-1.89,0-3.43,1.54-3.43,3.43v51.44h-0.01
		c-0.63,0.05-1.1,0.61-1.05,1.24c0.05,0.56,0.49,1,1.05,1.05h17.9c0.63-0.05,1.1-0.61,1.05-1.24c-0.05-0.56-0.49-1-1.05-1.05h-1.88
		v-6.86h7.18c0.63,0.05,1.19-0.42,1.24-1.05c0.05-0.63-0.42-1.19-1.05-1.24c-0.06-0.01-0.13-0.01-0.19,0h-8.32
		c-0.63,0-1.15,0.51-1.15,1.15c0,0,0,0,0,0v8h-11.43V674.8c0-0.63,0.51-1.15,1.15-1.15l0,0h33.3c0.63-0.05,1.1-0.61,1.05-1.24
		C1651.94,671.85,1651.5,671.41,1650.94,671.37L1650.94,671.37z"/>
	<path id="Trazado_24639_3_" class="st2" d="M1642.46,679.37h-2.29c-0.12,0-0.23,0.02-0.34,0.05c-0.07,0.02-0.14,0.05-0.2,0.09
		c-0.37,0.2-0.6,0.59-0.6,1.01v6.86c0,0.15,0.03,0.3,0.09,0.44c0.01,0.03,0.03,0.07,0.05,0.1c0.11,0.19,0.27,0.35,0.46,0.46
		c0.07,0.04,0.13,0.07,0.2,0.09c0.11,0.03,0.22,0.05,0.34,0.05h0.64c0.63,0,1.14-0.51,1.14-1.14c0-0.44-0.25-0.83-0.64-1.02v-4.69
		h1.15c0.63-0.05,1.1-0.61,1.05-1.24C1643.46,679.85,1643.02,679.41,1642.46,679.37L1642.46,679.37z"/>
	<path id="Trazado_24640_3_" class="st2" d="M1641.96,692.81L1641.96,692.81c0-0.63-0.51-1.15-1.15-1.15l0,0h-0.64
		c-0.63,0-1.14,0.51-1.15,1.14c0,0,0,0.01,0,0.01l0,0v6.86c0,0.63,0.51,1.14,1.14,1.15c0,0,0.01,0,0.01,0h0.64
		c0.63,0,1.14-0.51,1.15-1.14c0-0.44-0.25-0.84-0.64-1.03v-4.81C1641.71,693.64,1641.96,693.24,1641.96,692.81z"/>
</g>
</svg>
