<?xml version="1.0" encoding="utf-8"?>
<!-- Generator: Adobe Illustrator 25.2.1, SVG Export Plug-In . SVG Version: 6.00 Build 0)  -->
<svg version="1.1" id="Capa_1" xmlns="http://www.w3.org/2000/svg" xmlns:xlink="http://www.w3.org/1999/xlink" x="0px" y="0px"
	 viewBox="0 0 80 80" style="enable-background:new 0 0 80 80;" xml:space="preserve">
<style type="text/css">
	.st0{fill:#6E6E6E;}
	.st1{fill:#F6F7F9;}
	.st2{fill:#FFFFFF;}
	.st3{fill:#DCDCDC;}
	.st4{fill:url(#Trazado_26198_4_);}
	.st5{fill:url(#Trazado_26199_4_);}
	.st6{fill:url(#Trazado_26200_4_);}
	.st7{fill:url(#Trazado_26201_4_);}
	.st8{fill:url(#Trazado_26202_4_);}
	.st9{fill:url(#Trazado_26203_4_);}
	.st10{fill:url(#Trazado_26204_4_);}
	.st11{fill:url(#Trazado_26205_4_);}
	.st12{fill:url(#Trazado_26206_4_);}
	.st13{fill:url(#Trazado_26207_4_);}
	.st14{fill:url(#Trazado_26208_4_);}
	.st15{fill:url(#Trazado_26209_4_);}
	.st16{fill:url(#Trazado_26210_4_);}
	.st17{fill:url(#Trazado_26211_4_);}
	.st18{fill:url(#Trazado_26212_4_);}
	.st19{fill:url(#Trazado_26213_4_);}
	.st20{fill:url(#Trazado_26214_4_);}
	.st21{fill:url(#Trazado_26215_4_);}
	.st22{fill:url(#Trazado_24566_6_);}
	.st23{fill:url(#Trazado_24567_6_);}
	.st24{fill:url(#Trazado_24568_6_);}
	.st25{fill:url(#Trazado_24569_6_);}
	.st26{fill:url(#Trazado_24570_6_);}
	.st27{fill:url(#Trazado_24571_6_);}
	.st28{fill:url(#Trazado_24572_6_);}
	.st29{fill:url(#Trazado_26216_4_);}
	.st30{fill:url(#Trazado_26217_4_);}
	.st31{fill:url(#Trazado_26218_4_);}
	.st32{fill:url(#Trazado_26336_1_);}
	.st33{fill:url(#Unión_52_1_);}
	.st34{fill:url(#Trazado_904_4_);}
	.st35{fill:url(#Trazado_905_4_);}
	.st36{fill:url(#Trazado_906_4_);}
	.st37{fill:url(#Trazado_24631_4_);}
	.st38{fill:url(#Trazado_24632_4_);}
	.st39{fill:url(#Trazado_24633_4_);}
	.st40{fill:url(#Trazado_24634_4_);}
	.st41{fill:url(#Trazado_24635_4_);}
	.st42{fill:url(#Trazado_24636_4_);}
	.st43{fill:url(#Trazado_24637_4_);}
	.st44{fill:url(#Trazado_24638_4_);}
	.st45{fill:url(#Trazado_24639_4_);}
	.st46{fill:url(#Trazado_24640_4_);}
	.st47{fill:url(#Trazado_884_3_);}
	.st48{fill:url(#Trazado_24616_3_);}
	.st49{fill:url(#Trazado_24617_3_);}
	.st50{fill:url(#Trazado_24618_3_);}
	.st51{fill:url(#Trazado_24619_3_);}
	.st52{fill:url(#Trazado_24620_3_);}
	.st53{fill:url(#Trazado_24621_3_);}
	.st54{fill:url(#Trazado_24622_3_);}
	.st55{fill:none;stroke:#CCCCCC;}
	.st56{fill:url(#Trazado_904-2_2_);}
	.st57{fill:url(#Trazado_905-2_2_);}
	.st58{fill:url(#Trazado_906-2_2_);}
	.st59{fill:url(#Trazado_24631-2_2_);}
	.st60{fill:url(#Trazado_24632-2_2_);}
	.st61{fill:url(#Trazado_24633-2_2_);}
	.st62{fill:url(#Trazado_24634-2_2_);}
	.st63{fill:url(#Trazado_24635-2_2_);}
	.st64{fill:url(#Trazado_24636-2_2_);}
	.st65{fill:url(#Trazado_24637-2_2_);}
	.st66{fill:url(#Trazado_24638-2_2_);}
	.st67{fill:url(#Trazado_24639-2_2_);}
	.st68{fill:url(#Trazado_24640-2_2_);}
	.st69{fill:url(#Trazado_884-2_1_);}
	.st70{fill:url(#Trazado_24616-2_1_);}
	.st71{fill:url(#Trazado_24617-2_1_);}
	.st72{fill:url(#Trazado_24618-2_1_);}
	.st73{fill:url(#Trazado_24619-2_1_);}
	.st74{fill:url(#Trazado_24620-2_1_);}
	.st75{fill:url(#Trazado_24621-2_1_);}
	.st76{fill:url(#Trazado_24622-2_1_);}
	.st77{fill:url(#Trazado_26355_1_);}
	.st78{opacity:0.2;fill:#26F70F;}
	.st79{fill:#F90D0D;}
	.st80{fill:none;stroke:#F90D0D;stroke-miterlimit:10;}
	.st81{fill:none;stroke:#FF2929;stroke-miterlimit:10;}
	.st82{opacity:0.2;}
	.st83{fill:#FF2929;}
	.st84{opacity:0.2;fill:#FF2929;}
	.st85{fill:#3366CC;}
	.st86{fill:none;stroke:#FFFFFF;}
	.st87{fill:#0070BA;}
	.st88{fill:#E3134D;}
	.st89{fill:#FEC20A;}
	.st90{fill:#70AF3D;}
	.st91{fill:#9B156E;}
	.st92{fill:#FBD015;}
	.st93{fill:#05569E;}
	.st94{fill:#D11F3E;}
	.st95{fill:none;}
	.st96{fill-rule:evenodd;clip-rule:evenodd;fill:#3366CC;}
	.st97{fill:none;stroke:#707070;}
	.st98{stroke:#FF2929;stroke-width:4;stroke-miterlimit:10;}
	.st99{fill:none;stroke:#FF2929;stroke-width:4;stroke-miterlimit:10;}
	.st100{fill:none;stroke:#000000;stroke-miterlimit:10;}
	.st101{fill:#41D78C;}
	.st102{fill:url(#Trazado_24869_3_);}
	.st103{fill:url(#Trazado_26191_3_);}
	.st104{fill:url(#Trazado_26192_3_);}
	.st105{fill:url(#Trazado_26193_3_);}
	.st106{fill:url(#Trazado_26194_3_);}
	.st107{fill:url(#Trazado_26195_3_);}
	.st108{fill:url(#Trazado_26196_3_);}
	.st109{fill:url(#Trazado_26197_3_);}
	.st110{fill:url(#Trazado_26198_5_);}
	.st111{fill:url(#Trazado_26199_5_);}
	.st112{fill:url(#Trazado_26200_5_);}
	.st113{fill:url(#Trazado_26201_5_);}
	.st114{fill:url(#Trazado_26202_5_);}
	.st115{fill:url(#Trazado_26203_5_);}
	.st116{fill:url(#Trazado_26204_5_);}
	.st117{fill:url(#Trazado_26205_5_);}
	.st118{fill:url(#Trazado_26206_5_);}
	.st119{fill:url(#Trazado_26207_5_);}
	.st120{fill:url(#Trazado_26208_5_);}
	.st121{fill:url(#Trazado_26209_5_);}
	.st122{fill:url(#Trazado_26210_5_);}
	.st123{fill:url(#Trazado_26211_5_);}
	.st124{fill:url(#Trazado_26212_5_);}
	.st125{fill:url(#Trazado_26213_5_);}
	.st126{fill:url(#Trazado_26214_5_);}
	.st127{fill:url(#Trazado_26215_5_);}
	.st128{fill:url(#Trazado_26216_5_);}
	.st129{fill:url(#Trazado_26217_5_);}
	.st130{fill:url(#Trazado_26218_5_);}
	.st131{fill:url(#Trazado_24566_7_);}
	.st132{fill:url(#Trazado_24567_7_);}
	.st133{fill:url(#Trazado_24568_7_);}
	.st134{fill:url(#Trazado_24569_7_);}
	.st135{fill:url(#Trazado_24570_7_);}
	.st136{fill:url(#Trazado_24571_7_);}
	.st137{fill:url(#Trazado_24572_7_);}
	.st138{fill:url(#Unión_55_1_);}
	.st139{fill:url(#Trazado_904_5_);}
	.st140{fill:url(#Trazado_905_5_);}
	.st141{fill:url(#Trazado_906_5_);}
	.st142{fill:url(#Trazado_24631_5_);}
	.st143{fill:url(#Trazado_24632_5_);}
	.st144{fill:url(#Trazado_24633_5_);}
	.st145{fill:url(#Trazado_24634_5_);}
	.st146{fill:url(#Trazado_24635_5_);}
	.st147{fill:url(#Trazado_24636_5_);}
	.st148{fill:url(#Trazado_24637_5_);}
	.st149{fill:url(#Trazado_24638_5_);}
	.st150{fill:url(#Trazado_24639_5_);}
	.st151{fill:url(#Trazado_24640_5_);}
	.st152{fill:url(#Rectángulo_3914-2_1_);}
	.st153{clip-path:url(#SVGID_6_);fill:#EBEEF0;}
	.st154{clip-path:url(#SVGID_6_);}
	.st155{opacity:0.2;clip-path:url(#SVGID_6_);fill:#26F70F;}
	.st156{opacity:0.1;clip-path:url(#SVGID_6_);}
	.st157{opacity:0.2;fill:#F90D0D;}
	.st158{fill:none;stroke:#FF0000;stroke-width:5;stroke-miterlimit:10;}
	.st159{clip-path:url(#SVGID_14_);fill:#EBEEF0;}
	.st160{clip-path:url(#SVGID_14_);}
	.st161{opacity:0.2;clip-path:url(#SVGID_14_);fill:#26F70F;}
	.st162{fill:none;stroke:#26F70F;stroke-width:7;stroke-miterlimit:10;}
	.st163{fill:url(#Rectángulo_3928_2_);}
	.st164{fill:#F0F2F4;}
	.st165{opacity:0.28;fill:none;stroke:#BEC8D2;enable-background:new    ;}
	.st166{fill:none;stroke:#E2E7EB;}
	.st167{fill:#00B4DC;}
	.st168{fill:url(#Trazado_24687_2_);}
	.st169{fill:url(#Trazado_24688_2_);}
	.st170{fill:url(#Trazado_24689_2_);}
	.st171{fill:url(#Trazado_24690_2_);}
	.st172{fill:url(#Rectángulo_1733_2_);}
	.st173{fill:url(#Rectángulo_1734_2_);}
	.st174{fill:url(#Rectángulo_1735_2_);}
	.st175{fill:url(#Trazado_24566_8_);}
	.st176{fill:url(#Trazado_24567_8_);}
	.st177{fill:url(#Trazado_24568_8_);}
	.st178{fill:url(#Trazado_24569_8_);}
	.st179{fill:url(#Trazado_24570_8_);}
	.st180{fill:url(#Trazado_24571_8_);}
	.st181{fill:url(#Trazado_24572_8_);}
	.st182{fill:url(#Trazado_26237_2_);}
	.st183{fill:url(#Trazado_26238_2_);}
	.st184{fill:url(#Trazado_26242_2_);}
	.st185{fill:url(#Trazado_26243_2_);}
	.st186{fill:url(#Trazado_26244_2_);}
	.st187{fill:url(#Trazado_26245_2_);}
	.st188{fill:url(#Trazado_26246_2_);}
	.st189{fill:url(#Trazado_26247_2_);}
	.st190{fill:url(#Trazado_26248_2_);}
	.st191{fill:url(#Trazado_26249_2_);}
	.st192{fill:url(#Trazado_26250_2_);}
	.st193{fill:url(#Trazado_26251_2_);}
	.st194{fill:url(#Trazado_26252_2_);}
	.st195{fill:url(#Trazado_26253_2_);}
	.st196{fill:url(#Trazado_26254_2_);}
	.st197{fill:url(#Trazado_26255_2_);}
	.st198{fill:url(#Trazado_26256_2_);}
	.st199{fill:url(#Trazado_26257_2_);}
	.st200{fill:url(#Trazado_26258_2_);}
	.st201{fill:url(#Trazado_26259_2_);}
	.st202{fill:url(#Trazado_26260_2_);}
	.st203{fill:url(#Trazado_26261_2_);}
	.st204{fill:url(#Trazado_26262_2_);}
	.st205{fill:url(#Trazado_26263_2_);}
	.st206{fill:url(#Trazado_26264_2_);}
	.st207{fill:url(#Trazado_26265_2_);}
	.st208{fill:url(#Trazado_26266_2_);}
	.st209{fill:url(#Trazado_26267_2_);}
	.st210{fill:url(#Trazado_26268_2_);}
	.st211{fill:url(#Trazado_26269_2_);}
	.st212{fill:url(#Trazado_26270_2_);}
	.st213{fill:url(#Trazado_26271_2_);}
	.st214{fill:url(#Trazado_26272_2_);}
	.st215{fill:url(#Trazado_26273_2_);}
	.st216{fill:url(#Trazado_26274_2_);}
	.st217{fill:url(#Trazado_26275_2_);}
	.st218{fill:url(#Trazado_26276_2_);}
	.st219{fill:url(#Trazado_26277_2_);}
	.st220{fill:url(#Trazado_26278_2_);}
	.st221{fill:url(#Trazado_26279_2_);}
	.st222{fill:url(#Trazado_26284_2_);}
	.st223{fill:url(#Trazado_26285_2_);}
	.st224{fill:url(#Trazado_26230_2_);}
	.st225{fill:url(#Trazado_26231_2_);}
	.st226{fill:url(#Trazado_26232_2_);}
	.st227{fill:url(#Rectángulo_3918_2_);}
	.st228{fill:url(#Rectángulo_3919_2_);}
	.st229{fill:url(#Rectángulo_3920_2_);}
	.st230{fill:url(#Rectángulo_3921_2_);}
	.st231{fill:url(#Rectángulo_3922_2_);}
	.st232{fill:url(#Rectángulo_3923_2_);}
	.st233{fill:url(#Rectángulo_3924_2_);}
	.st234{fill:url(#Rectángulo_3925_2_);}
	.st235{fill:url(#Rectángulo_3928_3_);}
	.st236{fill:url(#Trazado_24566_9_);}
	.st237{fill:url(#Trazado_24567_9_);}
	.st238{fill:url(#Trazado_24568_9_);}
	.st239{fill:url(#Trazado_24569_9_);}
	.st240{fill:url(#Trazado_24570_9_);}
	.st241{fill:url(#Trazado_24571_9_);}
	.st242{fill:url(#Trazado_24572_9_);}
	.st243{fill:url(#Trazado_26233_2_);}
	.st244{fill:url(#Trazado_26234_2_);}
	.st245{fill:url(#Trazado_26235_2_);}
	.st246{fill:url(#Trazado_26236_2_);}
	.st247{fill:url(#Trazado_26237_3_);}
	.st248{fill:url(#Trazado_26238_3_);}
	.st249{fill:url(#Trazado_26242_3_);}
	.st250{fill:url(#Trazado_26243_3_);}
	.st251{fill:url(#Trazado_26244_3_);}
	.st252{fill:url(#Trazado_26245_3_);}
	.st253{fill:url(#Trazado_26246_3_);}
	.st254{fill:url(#Trazado_26247_3_);}
	.st255{fill:url(#Trazado_26248_3_);}
	.st256{fill:url(#Trazado_26249_3_);}
	.st257{fill:url(#Trazado_26250_3_);}
	.st258{fill:url(#Trazado_26251_3_);}
	.st259{fill:url(#Trazado_26252_3_);}
	.st260{fill:url(#Trazado_26253_3_);}
	.st261{fill:url(#Trazado_26254_3_);}
	.st262{fill:url(#Trazado_26255_3_);}
	.st263{fill:url(#Trazado_26256_3_);}
	.st264{fill:url(#Trazado_26257_3_);}
	.st265{fill:url(#Trazado_26258_3_);}
	.st266{fill:url(#Trazado_26259_3_);}
	.st267{fill:url(#Trazado_26260_3_);}
	.st268{fill:url(#Trazado_26261_3_);}
	.st269{fill:url(#Trazado_26262_3_);}
	.st270{fill:url(#Trazado_26263_3_);}
	.st271{fill:url(#Trazado_26264_3_);}
	.st272{fill:url(#Trazado_26265_3_);}
	.st273{fill:url(#Trazado_26266_3_);}
	.st274{fill:url(#Trazado_26267_3_);}
	.st275{fill:url(#Trazado_26268_3_);}
	.st276{fill:url(#Trazado_26269_3_);}
	.st277{fill:url(#Trazado_26270_3_);}
	.st278{fill:url(#Trazado_26271_3_);}
	.st279{fill:url(#Trazado_26272_3_);}
	.st280{fill:url(#Trazado_26273_3_);}
	.st281{fill:url(#Trazado_26274_3_);}
	.st282{fill:url(#Trazado_26275_3_);}
	.st283{fill:url(#Trazado_26276_3_);}
	.st284{fill:url(#Trazado_26277_3_);}
	.st285{fill:url(#Trazado_26278_3_);}
	.st286{fill:url(#Trazado_26279_3_);}
	.st287{fill:url(#Trazado_26284_3_);}
	.st288{fill:url(#Trazado_26285_3_);}
	.st289{fill:url(#Trazado_26230_3_);}
	.st290{fill:url(#Trazado_26231_3_);}
	.st291{fill:url(#Trazado_26232_3_);}
	.st292{fill:url(#Rectángulo_3918_3_);}
	.st293{fill:url(#Rectángulo_3919_3_);}
	.st294{fill:url(#Rectángulo_3920_3_);}
	.st295{fill:url(#Rectángulo_3921_3_);}
	.st296{fill:url(#Rectángulo_3922_3_);}
	.st297{fill:url(#Rectángulo_3923_3_);}
	.st298{fill:url(#Rectángulo_3924_3_);}
	.st299{fill:url(#Rectángulo_3925_3_);}
	.st300{fill:none;stroke:#006495;stroke-linecap:square;stroke-miterlimit:10;stroke-dasharray:2,2;}
	.st301{fill:#262944;}
	.st302{fill:none;stroke:#FFFFFF;stroke-miterlimit:10;}
	.st303{fill:url(#Trazado_24869_4_);}
	.st304{fill:url(#Trazado_26191_5_);}
	.st305{fill:url(#Trazado_26192_5_);}
	.st306{fill:url(#Trazado_26193_5_);}
	.st307{fill:url(#Trazado_26194_5_);}
	.st308{fill:url(#Trazado_26195_5_);}
	.st309{fill:url(#Trazado_26196_5_);}
	.st310{fill:url(#Trazado_26197_5_);}
	.st311{fill:url(#Trazado_26198_6_);}
	.st312{fill:url(#Trazado_26199_6_);}
	.st313{fill:url(#Trazado_26200_6_);}
	.st314{fill:url(#Trazado_26201_6_);}
	.st315{fill:url(#Trazado_26202_6_);}
	.st316{fill:url(#Trazado_26203_6_);}
	.st317{fill:url(#Trazado_26204_6_);}
	.st318{fill:url(#Trazado_26205_6_);}
	.st319{fill:url(#Trazado_26206_6_);}
	.st320{fill:url(#Trazado_26207_6_);}
	.st321{fill:url(#Trazado_26208_6_);}
	.st322{fill:url(#Trazado_26209_6_);}
	.st323{fill:url(#Trazado_26210_6_);}
	.st324{fill:url(#Trazado_26211_6_);}
	.st325{fill:url(#Trazado_26212_6_);}
	.st326{fill:url(#Trazado_26213_6_);}
	.st327{fill:url(#Trazado_26214_6_);}
	.st328{fill:url(#Trazado_26215_6_);}
	.st329{fill:url(#Trazado_26216_6_);}
	.st330{fill:url(#Trazado_26217_6_);}
	.st331{fill:url(#Trazado_26218_6_);}
	.st332{fill:url(#Trazado_24566_10_);}
	.st333{fill:url(#Trazado_24567_10_);}
	.st334{fill:url(#Trazado_24568_10_);}
	.st335{fill:url(#Trazado_24569_10_);}
	.st336{fill:url(#Trazado_24570_10_);}
	.st337{fill:url(#Trazado_24571_10_);}
	.st338{fill:url(#Trazado_24572_10_);}
	.st339{fill:url(#Trazado_26354_3_);}
	.st340{fill:url(#Trazado_904_6_);}
	.st341{fill:url(#Trazado_905_6_);}
	.st342{fill:url(#Trazado_906_6_);}
	.st343{fill:url(#Trazado_24631_6_);}
	.st344{fill:url(#Trazado_24632_6_);}
	.st345{fill:url(#Trazado_24633_6_);}
	.st346{fill:url(#Trazado_24634_6_);}
	.st347{fill:url(#Trazado_24635_6_);}
	.st348{fill:url(#Trazado_24636_6_);}
	.st349{fill:url(#Trazado_24637_6_);}
	.st350{fill:url(#Trazado_24638_6_);}
	.st351{fill:url(#Trazado_24639_6_);}
	.st352{fill:url(#Trazado_24640_6_);}
	.st353{fill:url(#Trazado_884_4_);}
	.st354{fill:url(#Trazado_24616_4_);}
	.st355{fill:url(#Trazado_24617_4_);}
	.st356{fill:url(#Trazado_24618_4_);}
	.st357{fill:url(#Trazado_24619_4_);}
	.st358{fill:url(#Trazado_24620_4_);}
	.st359{fill:url(#Trazado_24621_4_);}
	.st360{fill:url(#Trazado_24622_4_);}
</style>
<g id="nombre-propio_2_" transform="translate(-2400.426 -632.501)">
	<g id="facturador-electronico_2_" transform="translate(2421.94 639.282)">
		<g id="Grupo_942_2_" transform="translate(0 0)">
			<g id="Grupo_941_2_">
				<path id="Trazado_884_2_" class="st2" d="M48.89,49.21l-6.88-2.11c0.05-0.88-0.43-1.7-1.21-2.08l-4.25-2.12v-3.03
					c3.26-2.25,5.43-5.76,5.98-9.68h0.57c1.83,0.03,3.39-1.32,3.63-3.14c0.15-1.49-0.66-2.91-2.02-3.53V12.96
					c-0.01-3.9-3.18-7.06-7.08-7.06h-0.16c-2.08-1.39-4.54-2.11-7.04-2.04c-4.12-0.13-8.2,0.79-11.87,2.67
					c-1.92,0.91-3.9,1.67-5.93,2.28c-0.5,0.15-0.8,0.67-0.65,1.18c0,0,0,0,0,0c0.01,0.03,0.02,0.07,0.04,0.1
					c0.39,0.83,0.92,1.59,1.55,2.26c-0.48,0.58-1.37,2.07-1.37,5v6.19c-1.74,0.8-2.51,2.86-1.71,4.6c0.57,1.24,1.81,2.03,3.17,2.02
					h0.71c0.56,3.92,2.73,7.43,5.98,9.68v3.02l-4.25,2.12c-0.79,0.39-1.26,1.21-1.21,2.08L8.01,49.2c-2.97,0.9-5,3.64-5,6.74v11.94
					c0,0.53,0.43,0.95,0.95,0.95s0.95-0.43,0.95-0.95V55.95c-0.01-2.27,1.48-4.27,3.65-4.92l7.15-2.19l1.26,1.68l-1.44,1.43
					c-0.91,0.91-1.14,2.3-0.56,3.45l2.73,5.45h-2.6v-1.08c0-0.53-0.43-0.95-0.95-0.95c-0.53,0-0.95,0.43-0.95,0.95v1.08H9.07
					c-0.53,0-0.95,0.42-0.95,0.95c0,0,0,0,0,0l0,0v6.1c0,0.53,0.43,0.95,0.95,0.95c0,0,0,0,0,0h10.2c0.53,0,0.95-0.42,0.95-0.95
					c0,0,0,0,0,0l0,0v-2.07l1.25,2.5c0.26,0.46,0.84,0.62,1.3,0.36c0.42-0.24,0.6-0.76,0.4-1.21L16.7,54.54
					c-0.21-0.42-0.13-0.92,0.2-1.25l2.02-2.02c0.34-0.33,0.38-0.86,0.09-1.24l-2.16-2.87c-0.1-0.13-0.07-0.31,0.06-0.41
					c0.01-0.01,0.03-0.02,0.05-0.03l3.76-1.87l2.65,9.07c0.15,0.5,0.68,0.79,1.19,0.64c0.46-0.14,0.75-0.61,0.66-1.08
					c-0.01-0.03-0.02-0.06-0.03-0.09l-0.42-1.43c2.38,0.82,4.96,0.82,7.34,0l-3.67,12.54l-2.06-7.04c-0.15-0.5-0.68-0.79-1.19-0.64
					c-0.46,0.14-0.75,0.61-0.66,1.08c0.01,0.03,0.02,0.06,0.03,0.09l2.98,10.17c0.15,0.51,0.68,0.79,1.19,0.64
					c0.31-0.09,0.55-0.33,0.64-0.64l6.82-23.32l3.76,1.87c0.15,0.07,0.2,0.25,0.13,0.39c0,0,0,0,0,0c-0.01,0.02-0.02,0.03-0.03,0.05
					l-2.16,2.87c-0.28,0.38-0.24,0.91,0.09,1.24L40,53.29c0.33,0.33,0.41,0.83,0.2,1.25l-6.49,12.93c-0.22,0.48-0.02,1.05,0.46,1.27
					c0.46,0.22,1.01,0.03,1.25-0.42l6.49-12.93c0.58-1.15,0.35-2.54-0.56-3.45l-1.44-1.43l1.26-1.68l7.15,2.19
					c2.17,0.65,3.65,2.66,3.65,4.92v11.94c0,0.53,0.43,0.95,0.95,0.95c0.53,0,0.95-0.43,0.95-0.95l0,0V55.95
					C53.9,52.85,51.86,50.1,48.89,49.21z M18.32,66.94h-8.29v-4.2h3.19v0.06c0,0,0.43,0.95,0.95,0.95c0.53,0,0.95-0.43,0.95-0.95
					l0,0v-0.06h3.19L18.32,66.94L18.32,66.94z M19.34,8.28c3.42-1.77,7.24-2.63,11.08-2.5c3.52,0,6.67,1.47,7.32,3.42
					c0.18,0.5,0.73,0.75,1.22,0.57c0.47-0.17,0.73-0.68,0.59-1.16L39.55,8.6c-0.06-0.16-0.12-0.33-0.19-0.48
					c2.06,0.73,3.43,2.67,3.44,4.85v10.24h-1.08c-0.6,0-1.08-0.48-1.09-1.08V21.1c-0.14-2.91-1.32-5.68-3.34-7.79
					c-0.25-0.25-0.62-0.34-0.96-0.23c-5.3,1.67-12.77,3.07-18.27,0.3c-1.47-0.72-2.74-1.77-3.72-3.08
					C16.05,9.72,17.72,9.05,19.34,8.28L19.34,8.28z M34.63,43.35l-1.82,6.23c-2.73,1.45-6,1.45-8.72,0l-1.82-6.23v-2.36
					c3.91,1.89,8.46,1.89,12.37,0L34.63,43.35z M28.44,40.5c-6.78,0-12.29-5.49-12.31-12.27c0-0.53-0.43-0.95-0.95-0.95
					c-0.53,0-0.95,0.43-0.95,0.95v0.06h-0.58c-0.88,0-1.59-0.71-1.6-1.59c0-0.06,0-0.11,0.01-0.17c0.13-0.84,0.88-1.46,1.73-1.42
					h1.39c1.65,0,2.99-1.34,2.99-2.99v-3.59c0-0.53-0.43-0.95-0.95-0.95s-0.95,0.43-0.95,0.95v3.59c0,0.6-0.49,1.08-1.09,1.08H14.1
					v-5.83c-0.09-1.3,0.21-2.59,0.87-3.71c0.65,0.51,1.34,0.95,2.07,1.33c2.38,1.18,5,1.81,7.65,1.85
					c3.94,0.04,7.86-0.55,11.61-1.77c1.45,1.69,2.3,3.81,2.41,6.03v1.02c0,1.65,1.34,2.99,2.99,2.99h1.53c0.88,0,1.59,0.71,1.6,1.59
					c0,0.06,0,0.11-0.01,0.17c-0.13,0.84-0.88,1.46-1.73,1.42h-0.43v-0.06c0-0.53-0.43-0.95-0.95-0.95l0,0
					c-0.53,0-0.95,0.42-0.95,0.95c0,0,0,0,0,0C40.73,35.01,35.23,40.5,28.44,40.5L28.44,40.5z"/>
			</g>
		</g>
	</g>
	<path id="Trazado_24616_2_" class="st2" d="M2423.62,690.03h-8.54c-0.56,0-1.01-0.45-1.01-1.01c0-0.56,0.45-1.01,1.01-1.01h8.54
		c0.56,0,1.01,0.45,1.01,1.01C2424.63,689.58,2424.18,690.03,2423.62,690.03z"/>
	<path id="Trazado_24617_2_" class="st2" d="M2436.19,678.99c0,0.55-0.45,1-1,1.01c0,0,0,0,0,0h-20.1c-0.56,0-1.01-0.45-1.01-1
		c0-0.56,0.45-1.01,1-1.01c0,0,0.01,0,0.01,0h20.1C2435.74,677.99,2436.19,678.44,2436.19,678.99
		C2436.19,678.99,2436.19,678.99,2436.19,678.99z"/>
	<path id="Trazado_24618_2_" class="st2" d="M2415.08,677.99c-0.56,0-1.01,0.45-1.01,1c0,0.56,0.45,1.01,1,1.01c0,0,0.01,0,0.01,0
		h20.1c0.56,0,1-0.45,1-1.01c0-0.55-0.45-1-1-1H2415.08z"/>
	<path id="Trazado_24619_2_" class="st2" d="M2433.26,683h-18.18c-0.56,0-1.01,0.45-1.01,1c0,0.56,0.45,1.01,1,1.01
		c0,0,0.01,0,0.01,0h18.18c0.56,0,1-0.45,1-1.01C2434.26,683.45,2433.81,683,2433.26,683z"/>
	<path id="Trazado_24620_2_" class="st2" d="M2423.62,688.02h-8.54c-0.56,0-1.01,0.45-1.01,1.01c0,0.56,0.45,1.01,1.01,1.01h8.54
		c0.56,0,1.01-0.45,1.01-1.01C2424.63,688.47,2424.18,688.02,2423.62,688.02z"/>
	<g id="Grupo_2943_2_" transform="translate(2400.426 632.501)">
		<path id="Trazado_24621_2_" class="st2" d="M40.88,8.39H29.73l1.81-2.41c0.33-0.44,0.24-1.07-0.2-1.41
			c-0.44-0.33-1.07-0.24-1.41,0.2l0,0L27.22,8.4h-4.91l-1.73-3.47c-0.25-0.5-0.85-0.7-1.35-0.45c-0.5,0.25-0.7,0.85-0.45,1.35
			l1.28,2.57H7.61c-1.66,0-3.01,1.35-3.02,3.02v50.27c0,1.67,1.35,3.01,3.02,3.02h13.01c0.56,0,1-0.45,1-1.01c0-0.55-0.45-1-1-1
			H7.61c-0.55,0-1-0.45-1.01-1.01V11.41c0-0.56,0.45-1.01,1.01-1.01h13.45l1.01,2.01c-1.63,1.46-1.78,3.96-0.32,5.6
			c1.46,1.63,3.96,1.78,5.6,0.32c1.63-1.46,1.78-3.96,0.32-5.6c-0.95-1.07-2.41-1.54-3.81-1.24l-0.55-1.1h17.56
			c0.56,0,1-0.45,1-1.01C41.87,8.84,41.43,8.4,40.88,8.39L40.88,8.39z M23.81,15.88c0.25,0.5,0.85,0.7,1.35,0.45
			c0.5-0.25,0.7-0.85,0.45-1.35l-0.77-1.55c1.1,0.07,1.94,1.03,1.87,2.13c-0.07,1.1-1.03,1.94-2.13,1.87s-1.94-1.03-1.87-2.13
			c0.02-0.35,0.14-0.69,0.33-0.98L23.81,15.88z"/>
	</g>
	<g id="Grupo_2944_2_" transform="translate(2411.278 650.884)">
		<path id="Trazado_24622_2_" class="st2" d="M20.94,21.12h-1.06c0-2.1-1.1-4.06-2.9-5.15c2.17-1.73,2.53-4.89,0.8-7.06
			c-1.73-2.17-4.89-2.53-7.06-0.8c-2.17,1.73-2.53,4.89-0.8,7.06c0.24,0.3,0.51,0.57,0.8,0.8c-1.8,1.09-2.9,3.04-2.9,5.15H5.81V5.03
			h14.08c0.56,0,1-0.45,1-1.01c0-0.55-0.45-1-1-1H3.8v20.11h17.14c0.56,0,1-0.45,1-1.01C21.94,21.56,21.5,21.11,20.94,21.12
			L20.94,21.12z M13.85,9.05c1.67,0,3.02,1.35,3.02,3.02c0,1.67-1.35,3.02-3.02,3.02c-1.67,0-3.02-1.35-3.02-3.02c0,0,0,0,0,0
			C10.84,10.4,12.19,9.05,13.85,9.05L13.85,9.05z M15.39,21.12H9.83c-0.04-2.22,1.74-4.05,3.96-4.09c2.22-0.04,4.05,1.74,4.09,3.96
			c0,0.04,0,0.09,0,0.13H15.39z"/>
	</g>
</g>
</svg>
