<?xml version="1.0" encoding="utf-8"?>
<!-- Generator: Adobe Illustrator 25.2.1, SVG Export Plug-In . SVG Version: 6.00 Build 0)  -->
<svg version="1.1" id="Capa_1" xmlns="http://www.w3.org/2000/svg" xmlns:xlink="http://www.w3.org/1999/xlink" x="0px" y="0px"
	 viewBox="0 0 118.91 118.91" style="enable-background:new 0 0 118.91 118.91;" xml:space="preserve">
<style type="text/css">
	.st0{fill:#FFFFFF;}
	.st1{clip-path:url(#SVGID_2_);fill:#262944;}
	.st2{clip-path:url(#SVGID_2_);fill:none;stroke:#41D78C;stroke-width:4;}
	.st3{clip-path:url(#SVGID_2_);fill:#CCF0F8;}
	.st4{clip-path:url(#SVGID_2_);fill:#D5F4E6;}
	.st5{clip-path:url(#SVGID_2_);fill:#FCD5D3;}
	.st6{clip-path:url(#SVGID_2_);fill:#00AC57;}
	.st7{clip-path:url(#SVGID_2_);fill:#FBF0D7;}
	.st8{clip-path:url(#SVGID_2_);fill:#C98802;}
	.st9{clip-path:url(#SVGID_2_);fill:#F54E41;}
	.st10{fill:#00AC57;}
</style>
<g>
	<path class="st10" d="M59.45,106.77c-26.09,0-47.31-21.22-47.31-47.31s21.22-47.31,47.31-47.31c26.09,0,47.31,21.22,47.31,47.31
		S85.54,106.77,59.45,106.77z M97.35,21.56C87.23,11.44,73.77,5.86,59.45,5.86c-14.32,0-27.77,5.57-37.89,15.7
		C11.44,31.68,5.86,45.14,5.86,59.45s5.57,27.77,15.7,37.89c10.12,10.12,23.58,15.7,37.89,15.7c14.31,0,27.77-5.57,37.89-15.7
		c10.12-10.12,15.7-23.58,15.7-37.89S107.47,31.68,97.35,21.56z"/>
	<path class="st10" d="M85.06,42.26c-1.23-1.23-3.21-1.23-4.44,0L52.89,69.99l-14.6-14.6c-1.23-1.23-3.21-1.23-4.44,0
		c-1.23,1.23-1.23,3.21,0,4.44l16.82,16.82c0.61,0.61,1.42,0.92,2.22,0.92c0.8,0,1.61-0.31,2.22-0.92L85.06,46.7
		C86.28,45.48,86.28,43.49,85.06,42.26z"/>
</g>
</svg>
