<?xml version="1.0" encoding="utf-8"?>
<!-- Generator: Adobe Illustrator 25.2.1, SVG Export Plug-In . SVG Version: 6.00 Build 0)  -->
<svg version="1.1" id="Capa_1" xmlns="http://www.w3.org/2000/svg" xmlns:xlink="http://www.w3.org/1999/xlink" x="0px" y="0px"
	 viewBox="0 0 42.55 25.53" style="enable-background:new 0 0 42.55 25.53;" xml:space="preserve">
<style type="text/css">
	.st0{fill:#FFFFFF;}
	.st1{clip-path:url(#SVGID_2_);fill:none;stroke:#CCCCCC;}
	.st2{clip-path:url(#SVGID_2_);fill:#F6F7F9;}
	.st3{clip-path:url(#SVGID_2_);fill:#262944;}
	.st4{clip-path:url(#SVGID_2_);fill:none;stroke:#41D78C;stroke-width:4;}
	.st5{clip-path:url(#SVGID_2_);fill-rule:evenodd;clip-rule:evenodd;fill:#262944;}
	.st6{clip-path:url(#SVGID_2_);}
	.st7{clip-path:url(#SVGID_2_);fill:#CCCCCC;}
	.st8{clip-path:url(#SVGID_2_);fill:#FFFFFF;}
	.st9{clip-path:url(#SVGID_2_);fill:#F54E41;}
	.st10{clip-path:url(#SVGID_2_);fill:#41D78C;}
	.st11{clip-path:url(#SVGID_2_);fill:none;stroke:#2B323D;}
	.st12{clip-path:url(#SVGID_2_);fill:none;stroke:#41D78C;}
	.st13{opacity:0.702;clip-path:url(#SVGID_2_);fill:#FFFFFF;}
	.st14{clip-path:url(#SVGID_2_);fill:none;stroke:#41D78C;stroke-width:2;}
	.st15{clip-path:url(#SVGID_2_);fill:none;stroke:#CCCCCC;stroke-width:2;}
	.st16{clip-path:url(#SVGID_2_);fill:#0DB4DC;}
	.st17{clip-path:url(#SVGID_2_);fill:none;stroke:#0DB4DC;}
	.st18{opacity:0.502;clip-path:url(#SVGID_2_);fill:#262944;}
	.st19{clip-path:url(#SVGID_2_);fill:none;stroke:#FFFFFF;stroke-width:3;}
	.st20{clip-path:url(#SVGID_2_);fill:#CCF0F8;}
	.st21{clip-path:url(#SVGID_2_);fill:none;stroke:#41D78C;stroke-width:3;}
	.st22{clip-path:url(#SVGID_2_);fill:#00B4DC;}
	.st23{fill:#0DB4DC;}
	.st24{fill:none;stroke:#CCCCCC;}
	.st25{fill:#CCCCCC;}
	.st26{fill:none;stroke:#FFFFFF;}
</style>
<g>
	<path class="st24" d="M2.02,12.76c0-0.76,0.07-1.5,0.22-2.24C2.39,9.78,2.61,9.06,2.9,8.36S3.54,7,3.96,6.37
		c0.42-0.63,0.9-1.21,1.43-1.74S6.51,3.62,7.13,3.2c0.63-0.42,1.29-0.77,1.99-1.06c0.7-0.29,1.42-0.51,2.16-0.65
		c0.74-0.15,1.49-0.22,2.24-0.22h16c0.76,0,1.5,0.07,2.24,0.22c0.74,0.15,1.46,0.37,2.16,0.65c0.7,0.29,1.36,0.64,1.99,1.06
		c0.63,0.42,1.21,0.9,1.74,1.43s1.01,1.11,1.43,1.74C39.5,7,39.86,7.67,40.15,8.36s0.51,1.42,0.65,2.16
		c0.15,0.74,0.22,1.49,0.22,2.24c0,0.76-0.07,1.5-0.22,2.24c-0.15,0.74-0.37,1.46-0.65,2.16s-0.64,1.36-1.06,1.99
		c-0.42,0.63-0.9,1.21-1.43,1.74s-1.11,1.01-1.74,1.43c-0.63,0.42-1.29,0.77-1.99,1.06c-0.7,0.29-1.42,0.51-2.16,0.65
		c-0.74,0.15-1.49,0.22-2.24,0.22h-16c-0.76,0-1.5-0.07-2.24-0.22c-0.74-0.15-1.46-0.37-2.16-0.65c-0.7-0.29-1.36-0.64-1.99-1.06
		c-0.63-0.42-1.21-0.9-1.74-1.43s-1.01-1.11-1.43-1.74c-0.42-0.63-0.77-1.29-1.06-1.99s-0.51-1.42-0.65-2.16
		C2.1,14.27,2.02,13.52,2.02,12.76z"/>
	<path class="st25" d="M13.52,0.76c6.63,0,12,5.37,12,12c0,6.63-5.37,12-12,12c-6.63,0-12-5.37-12-12C1.52,6.14,6.9,0.76,13.52,0.76
		z M13.52,1.76c-2.94,0-5.7,1.14-7.78,3.22c-2.08,2.08-3.22,4.84-3.22,7.78c0,2.94,1.14,5.7,3.22,7.78
		c2.08,2.08,4.84,3.22,7.78,3.22c2.94,0,5.7-1.14,7.78-3.22c2.08-2.08,3.22-4.84,3.22-7.78c0-2.94-1.14-5.7-3.22-7.78
		C19.22,2.91,16.46,1.76,13.52,1.76"/>
</g>
</svg>
