<?xml version="1.0" encoding="utf-8"?>
<!-- Generator: Adobe Illustrator 25.2.1, SVG Export Plug-In . SVG Version: 6.00 Build 0)  -->
<svg version="1.1" id="Capa_1" xmlns="http://www.w3.org/2000/svg" xmlns:xlink="http://www.w3.org/1999/xlink" x="0px" y="0px"
	 viewBox="0 0 42.55 25.53" style="enable-background:new 0 0 42.55 25.53;" xml:space="preserve">
<style type="text/css">
	.st0{fill:#FFFFFF;}
	.st1{clip-path:url(#SVGID_2_);fill:none;stroke:#CCCCCC;}
	.st2{clip-path:url(#SVGID_2_);fill:#F6F7F9;}
	.st3{clip-path:url(#SVGID_2_);fill:#262944;}
	.st4{clip-path:url(#SVGID_2_);fill:none;stroke:#41D78C;stroke-width:4;}
	.st5{clip-path:url(#SVGID_2_);fill-rule:evenodd;clip-rule:evenodd;fill:#262944;}
	.st6{clip-path:url(#SVGID_2_);}
	.st7{clip-path:url(#SVGID_2_);fill:#CCCCCC;}
	.st8{clip-path:url(#SVGID_2_);fill:#FFFFFF;}
	.st9{clip-path:url(#SVGID_2_);fill:#F54E41;}
	.st10{clip-path:url(#SVGID_2_);fill:#41D78C;}
	.st11{clip-path:url(#SVGID_2_);fill:none;stroke:#2B323D;}
	.st12{clip-path:url(#SVGID_2_);fill:none;stroke:#41D78C;}
	.st13{opacity:0.702;clip-path:url(#SVGID_2_);fill:#FFFFFF;}
	.st14{clip-path:url(#SVGID_2_);fill:none;stroke:#41D78C;stroke-width:2;}
	.st15{clip-path:url(#SVGID_2_);fill:none;stroke:#CCCCCC;stroke-width:2;}
	.st16{clip-path:url(#SVGID_2_);fill:#0DB4DC;}
	.st17{clip-path:url(#SVGID_2_);fill:none;stroke:#0DB4DC;}
	.st18{clip-path:url(#SVGID_2_);fill:none;stroke:#FFFFFF;}
	.st19{opacity:0.502;clip-path:url(#SVGID_2_);fill:#262944;}
	.st20{clip-path:url(#SVGID_2_);fill:none;stroke:#FFFFFF;stroke-width:3;}
	.st21{clip-path:url(#SVGID_2_);fill:#CCF0F8;}
	.st22{clip-path:url(#SVGID_2_);fill:none;stroke:#41D78C;stroke-width:3;}
	.st23{clip-path:url(#SVGID_2_);fill:#00B4DC;}
	.st24{fill:#0DB4DC;}
</style>
<path class="st24" d="M13.27,0.76h16c6.63,0,12,5.37,12,12c0,6.63-5.37,12-12,12h-16c-6.63,0-12-5.37-12-12
	C1.27,6.14,6.65,0.76,13.27,0.76z"/>
<path class="st0" d="M40.77,12.76c0,0.76-0.07,1.5-0.22,2.24c-0.15,0.74-0.37,1.46-0.65,2.16s-0.64,1.36-1.06,1.99
	c-0.42,0.63-0.9,1.21-1.43,1.74s-1.11,1.01-1.74,1.43c-0.63,0.42-1.29,0.77-1.99,1.06c-0.7,0.29-1.42,0.51-2.16,0.65
	c-0.74,0.15-1.49,0.22-2.24,0.22c-0.76,0-1.5-0.07-2.24-0.22c-0.74-0.15-1.46-0.37-2.16-0.65c-0.7-0.29-1.36-0.64-1.99-1.06
	c-0.63-0.42-1.21-0.9-1.74-1.43c-0.53-0.53-1.01-1.11-1.43-1.74c-0.42-0.63-0.77-1.29-1.06-1.99c-0.29-0.7-0.51-1.42-0.65-2.16
	c-0.15-0.74-0.22-1.49-0.22-2.24c0-0.76,0.07-1.5,0.22-2.24c0.15-0.74,0.37-1.46,0.65-2.16c0.29-0.7,0.64-1.36,1.06-1.99
	c0.42-0.63,0.9-1.21,1.43-1.74c0.53-0.53,1.11-1.01,1.74-1.43c0.63-0.42,1.29-0.77,1.99-1.06c0.7-0.29,1.42-0.51,2.16-0.65
	c0.74-0.15,1.49-0.22,2.24-0.22c0.76,0,1.5,0.07,2.24,0.22c0.74,0.15,1.46,0.37,2.16,0.65c0.7,0.29,1.36,0.64,1.99,1.06
	c0.63,0.42,1.21,0.9,1.74,1.43s1.01,1.11,1.43,1.74C39.25,7,39.61,7.67,39.9,8.36s0.51,1.42,0.65,2.16
	C40.7,11.26,40.77,12.01,40.77,12.76z"/>
</svg>
