<svg width="36" height="42" viewBox="0 0 36 42" fill="none" xmlns="http://www.w3.org/2000/svg">
<rect width="36" height="34.6957" fill="url(#paint0_linear)"/>
<path d="M17.5 42L11.0048 30.75L23.9952 30.75L17.5 42Z" fill="#028BB8"/>
<path d="M20.6831 22.3359H15.4319C15.3495 22.3359 15.2704 22.3031 15.2121 22.2448C15.1538 22.1865 15.1211 22.1075 15.1211 22.025C15.1211 21.9426 15.1538 21.8636 15.2121 21.8053C15.2704 21.747 15.3495 21.7142 15.4319 21.7142H20.6831C20.7902 21.7148 20.8964 21.6942 20.9955 21.6535C21.0946 21.6129 21.1847 21.553 21.2605 21.4774C21.2745 21.4634 21.2863 21.45 21.2978 21.4373C21.304 21.4278 21.3108 21.4187 21.318 21.41C21.4389 21.2644 21.5049 21.081 21.5045 20.8918C21.5043 20.6738 21.4176 20.4648 21.2634 20.3106C21.1092 20.1564 20.9002 20.0697 20.6821 20.0694H17.7481C17.7047 20.0694 17.6619 20.0603 17.6223 20.0428C17.5827 20.0252 17.5472 19.9996 17.5181 19.9675C17.1266 19.5377 16.6497 19.1942 16.1179 18.9591C15.5862 18.724 15.0113 18.6024 14.4298 18.6021H10.6585C10.576 18.6021 10.497 18.5693 10.4387 18.5111C10.3804 18.4528 10.3477 18.3737 10.3477 18.2913C10.3477 18.2088 10.3804 18.1298 10.4387 18.0715C10.497 18.0132 10.576 17.9805 10.6585 17.9805H14.4308C15.0753 17.9809 15.7132 18.1109 16.3065 18.363C16.8997 18.615 17.4362 18.9838 17.8839 19.4475H20.6831C21.0657 19.4479 21.4327 19.6 21.7033 19.8706C21.974 20.1411 22.1264 20.5079 22.1271 20.8906C22.1272 21.2129 22.0185 21.5258 21.8184 21.7786C21.8106 21.7914 21.8018 21.8035 21.792 21.8149C21.7609 21.8498 21.7342 21.8815 21.7022 21.9135C21.5686 22.0476 21.4098 22.154 21.2348 22.2265C21.0599 22.299 20.8724 22.3362 20.6831 22.3359Z" fill="white"/>
<path d="M18.0457 26.0117C17.2798 26.0122 16.5197 25.8791 15.7995 25.6185L10.5524 23.7132C10.4749 23.6851 10.4117 23.6273 10.3769 23.5526C10.342 23.4779 10.3382 23.3924 10.3663 23.3149C10.3945 23.2375 10.4523 23.1743 10.527 23.1394C10.6017 23.1046 10.6872 23.1008 10.7646 23.1289L16.0124 25.0345C16.7839 25.3123 17.6041 25.4295 18.4226 25.3787C19.2411 25.3279 20.0405 25.1103 20.7718 24.7392L27.8919 21.1027C27.5071 20.7953 27.0499 20.5916 26.5641 20.5111C26.0782 20.4305 25.5798 20.4757 25.1163 20.6424L21.7018 21.8857C21.6573 21.9098 21.6075 21.9224 21.5569 21.9224C21.4941 21.923 21.4325 21.9046 21.3804 21.8695C21.3282 21.8344 21.2879 21.7844 21.2648 21.7259C21.2417 21.6675 21.2368 21.6034 21.2508 21.5422C21.2649 21.4809 21.2971 21.4253 21.3434 21.3828C21.374 21.3533 21.4104 21.3305 21.4503 21.316L24.9044 20.0584C25.4834 19.8502 26.107 19.798 26.7126 19.9071C27.3182 20.0162 27.8844 20.2828 28.3544 20.68L28.6478 20.9343C28.6862 20.9676 28.7159 21.0099 28.7342 21.0574C28.7525 21.1049 28.7588 21.1561 28.7527 21.2066C28.7466 21.2571 28.7281 21.3054 28.699 21.3471C28.6698 21.3888 28.6309 21.4227 28.5856 21.4459L21.0531 25.2928C20.1212 25.7658 19.0908 26.0121 18.0457 26.0117Z" fill="white"/>
<path d="M10.6582 24.5923H7.31081C7.22838 24.5923 7.14932 24.5596 7.09103 24.5013C7.03275 24.443 7 24.364 7 24.2815V17.5139C7 17.4315 7.03275 17.3524 7.09103 17.2942C7.14932 17.2359 7.22838 17.2031 7.31081 17.2031H10.6582C10.7407 17.2031 10.8197 17.2359 10.878 17.2942C10.9363 17.3524 10.9691 17.4315 10.9691 17.5139V24.2815C10.9691 24.364 10.9363 24.443 10.878 24.5013C10.8197 24.5596 10.7407 24.5923 10.6582 24.5923ZM7.62162 23.9707H10.3474V17.8247H7.62162V23.9707Z" fill="white"/>
<path d="M20.8318 18.0854C19.7355 18.0854 18.6639 17.7603 17.7524 17.1513C16.8409 16.5422 16.1305 15.6766 15.711 14.6638C15.2915 13.651 15.1817 12.5365 15.3956 11.4614C15.6094 10.3862 16.1373 9.39858 16.9125 8.62342C17.6876 7.84826 18.6753 7.32037 19.7504 7.1065C20.8256 6.89264 21.9401 7.0024 22.9529 7.42191C23.9657 7.84143 24.8313 8.55185 25.4403 9.46334C26.0494 10.3748 26.3745 11.4465 26.3745 12.5427C26.3727 14.0122 25.7882 15.421 24.7491 16.4601C23.71 17.4991 22.3012 18.0837 20.8318 18.0854ZM20.8318 7.62131C19.8585 7.62131 18.9071 7.90992 18.0978 8.45064C17.2885 8.99136 16.6578 9.75991 16.2853 10.6591C15.9128 11.5583 15.8154 12.5477 16.0052 13.5023C16.1951 14.4569 16.6637 15.3338 17.3519 16.022C18.0401 16.7102 18.9169 17.1789 19.8715 17.3689C20.8261 17.5588 21.8155 17.4614 22.7148 17.0889C23.614 16.7165 24.3826 16.0858 24.9233 15.2766C25.4641 14.4674 25.7528 13.516 25.7528 12.5427C25.7514 11.238 25.2324 9.98717 24.3098 9.06461C23.3873 8.14205 22.1365 7.62311 20.8318 7.62162V7.62131Z" fill="white"/>
<path d="M20.8307 12.8534C20.496 12.8429 20.1719 12.7341 19.8987 12.5405C19.6255 12.3469 19.4153 12.0771 19.2945 11.7648C19.1737 11.4525 19.1475 11.1116 19.2193 10.7845C19.291 10.4575 19.4575 10.1588 19.698 9.92576C19.9385 9.69274 20.2422 9.5357 20.5714 9.47426C20.9005 9.41281 21.2405 9.44968 21.5488 9.58025C21.8572 9.71082 22.1202 9.92932 22.3051 10.2085C22.4901 10.4876 22.5887 10.8151 22.5887 11.1499C22.5887 11.2323 22.5559 11.3114 22.4976 11.3697C22.4393 11.428 22.3603 11.4607 22.2778 11.4607C22.1954 11.4607 22.1164 11.428 22.0581 11.3697C21.9998 11.3114 21.967 11.2323 21.967 11.1499C21.9782 10.9227 21.9211 10.6974 21.803 10.503C21.6848 10.3087 21.5112 10.1542 21.3044 10.0594C21.0976 9.96472 20.8672 9.93414 20.6429 9.97165C20.4186 10.0092 20.2106 10.113 20.0459 10.2699C19.8812 10.4267 19.7672 10.6293 19.7188 10.8515C19.6703 11.0737 19.6896 11.3054 19.774 11.5166C19.8585 11.7277 20.0043 11.9087 20.1927 12.0362C20.381 12.1637 20.6033 12.2319 20.8307 12.2318C20.9131 12.2318 20.9922 12.2646 21.0505 12.3229C21.1088 12.3812 21.1415 12.4602 21.1415 12.5426C21.1415 12.6251 21.1088 12.7041 21.0505 12.7624C20.9922 12.8207 20.9131 12.8534 20.8307 12.8534Z" fill="white"/>
<path d="M20.8283 15.6382C20.3694 15.6448 19.9267 15.4691 19.5972 15.1498C19.2676 14.8304 19.0782 14.3935 19.0703 13.9346C19.0703 13.8522 19.1031 13.7732 19.1613 13.7149C19.2196 13.6566 19.2987 13.6238 19.3811 13.6238C19.4636 13.6238 19.5426 13.6566 19.6009 13.7149C19.6592 13.7732 19.6919 13.8522 19.6919 13.9346C19.6807 14.1618 19.7378 14.3872 19.8559 14.5816C19.9739 14.776 20.1476 14.9305 20.3543 15.0253C20.5611 15.1201 20.7915 15.1507 21.0159 15.1132C21.2402 15.0758 21.4482 14.9719 21.6129 14.8151C21.7777 14.6583 21.8917 14.4557 21.9401 14.2334C21.9886 14.0112 21.9694 13.7796 21.8849 13.5684C21.8005 13.3572 21.6547 13.1761 21.4663 13.0486C21.278 12.9211 21.0557 12.853 20.8283 12.853C20.7458 12.853 20.6668 12.8203 20.6085 12.762C20.5502 12.7037 20.5174 12.6246 20.5174 12.5422C20.5174 12.4598 20.5502 12.3807 20.6085 12.3224C20.6668 12.2641 20.7458 12.2314 20.8283 12.2314C21.0567 12.2238 21.2844 12.2623 21.4976 12.3445C21.7109 12.4267 21.9055 12.551 22.0698 12.7099C22.2341 12.8689 22.3647 13.0592 22.4539 13.2697C22.5431 13.4801 22.5891 13.7064 22.5891 13.935C22.5891 14.1635 22.5431 14.3898 22.4539 14.6002C22.3647 14.8107 22.2341 15.001 22.0698 15.16C21.9055 15.3189 21.7109 15.4432 21.4976 15.5254C21.2844 15.6076 21.0567 15.6461 20.8283 15.6385V15.6382Z" fill="white"/>
<path d="M20.8303 16.1603C20.7479 16.1603 20.6689 16.1276 20.6106 16.0693C20.5523 16.011 20.5195 15.932 20.5195 15.8495V9.23269C20.5195 9.15025 20.5523 9.0712 20.6106 9.01291C20.6689 8.95462 20.7479 8.92188 20.8303 8.92188C20.9128 8.92188 20.9918 8.95462 21.0501 9.01291C21.1084 9.0712 21.1412 9.15025 21.1412 9.23269V15.8495C21.1412 15.932 21.1084 16.011 21.0501 16.0693C20.9918 16.1276 20.9128 16.1603 20.8303 16.1603Z" fill="white"/>
<defs>
<linearGradient id="paint0_linear" x1="18" y1="0" x2="18" y2="34.6957" gradientUnits="userSpaceOnUse">
<stop stop-color="#0BAED8"/>
<stop offset="1" stop-color="#0189B6"/>
</linearGradient>
</defs>
</svg>