<svg width="36" height="42" viewBox="0 0 36 42" fill="none" xmlns="http://www.w3.org/2000/svg">
  <rect width="36" height="34.6957" fill="url(#paint0_linear)"/>
  <path d="M17.0537 42L8.84921 28.3043L25.2581 28.3043L17.0537 42Z" fill="url(#paint1_linear)"/>
  <path d="M23.857 9.64541C23.8666 9.64611 23.8762 9.64681 23.8859 9.64681C23.9025 9.64681 23.919 9.64541 23.9352 9.64315C24.3684 9.65203 24.7151 10.0053 24.7156 10.4385C24.7156 10.6354 24.8752 10.7949 25.072 10.7949C25.2689 10.7949 25.4285 10.6354 25.4285 10.4385C25.4276 9.73 24.9344 9.11703 24.2424 8.96457V8.62206C24.2424 8.42522 24.0828 8.26562 23.8859 8.26562C23.6891 8.26562 23.5295 8.42522 23.5295 8.62206V8.98076C22.7978 9.17638 22.3245 9.8842 22.4231 10.6352C22.5218 11.3862 23.1619 11.9476 23.9194 11.9476C24.3592 11.9476 24.7156 12.3042 24.7156 12.744C24.7156 13.1836 24.3592 13.5403 23.9194 13.5403C23.4796 13.5403 23.1231 13.1836 23.1231 12.744C23.1231 12.5472 22.9635 12.3876 22.7667 12.3876C22.5698 12.3876 22.4103 12.5472 22.4103 12.744C22.4111 13.427 22.8699 14.0244 23.5295 14.2018V14.5923C23.5295 14.7892 23.6891 14.9488 23.8859 14.9488C24.0828 14.9488 24.2424 14.7892 24.2424 14.5923V14.2181C24.9951 14.0533 25.5028 13.3478 25.4198 12.5816C25.3369 11.8155 24.69 11.2349 23.9194 11.2351C23.4917 11.2353 23.1404 10.8976 23.1235 10.4704C23.1068 10.0431 23.4307 9.67883 23.857 9.64559V9.64541Z" fill="white"/>
  <path d="M23.9399 6.52344C21.7471 6.52344 19.8758 7.95422 19.1748 9.87005H10.3282C10.1322 9.87005 9.97313 10.0467 9.97174 10.2425L9.8875 22.7462H7.36583C7.16899 22.7462 7 22.8888 7 23.086V24.6727C7.00453 26.1665 8.18104 27.3936 9.67326 27.4612V27.469H20.6782V27.4585C20.7673 27.4619 20.804 27.469 20.8604 27.469H20.8681C22.4125 27.4666 23.6633 26.2138 23.6633 24.6694V16.6468C23.7524 16.6517 23.8468 16.6543 23.939 16.6543C26.7294 16.6543 29.0001 14.3793 29.0001 11.5887C29.0001 8.79832 26.7304 6.52344 23.9399 6.52344ZM9.80884 26.7561H9.80657C8.65356 26.7546 7.71809 25.8222 7.71287 24.669V23.4591H18.0495V24.664C18.05 25.4078 18.3471 26.1209 18.8748 26.6453C18.9122 26.6827 18.9587 26.7116 18.9978 26.7561H9.80884ZM22.9504 24.669C22.9506 25.8201 22.0186 26.7539 20.8677 26.7561H20.8609C19.7053 26.754 18.7681 25.8198 18.7623 24.6643V23.086C18.7653 22.9948 18.7305 22.9065 18.6659 22.8421C18.6014 22.7777 18.5131 22.7431 18.4221 22.7462H10.6004L10.6822 10.5829H18.9769C18.9138 10.9092 18.881 11.2406 18.8793 11.5729C18.8786 12.2755 19.0251 12.9702 19.3095 13.6126H15.9429C15.7459 13.6126 15.5865 13.7722 15.5865 13.969C15.5865 14.1659 15.7459 14.3255 15.9429 14.3255H19.6962C20.4316 15.4818 21.607 16.288 22.9504 16.5577V24.669ZM23.9399 15.9416C21.5388 15.9416 19.5922 13.9952 19.5923 11.5939C19.5923 9.19269 21.5388 7.24623 23.94 7.24623C26.3411 7.24623 28.2876 9.19286 28.2876 11.5939C28.285 13.9939 26.3401 15.939 23.9399 15.9416Z" fill="white"/>
  <path d="M13.6565 15.9883C13.0273 15.9883 12.5156 16.4838 12.5156 17.0929C12.5156 17.7021 13.0273 18.1976 13.6565 18.1976C14.2856 18.1976 14.7975 17.7021 14.7975 17.0929C14.7975 16.4838 14.2856 15.9883 13.6565 15.9883ZM13.6565 17.4847C13.4203 17.4847 13.2285 17.3089 13.2285 17.0929C13.2285 16.8768 13.4205 16.7012 13.6565 16.7012C13.8925 16.7012 14.0846 16.8769 14.0846 17.0929C14.0846 17.3089 13.8925 17.4847 13.6565 17.4847Z" fill="white"/>
  <path d="M15.5859 17.0908C15.5859 17.2876 15.7454 17.4472 15.9424 17.4472H20.6944C20.8912 17.4472 21.0508 17.2876 21.0508 17.0908C21.0508 16.894 20.8912 16.7344 20.6944 16.7344H15.9424C15.7454 16.7344 15.5859 16.894 15.5859 17.0908Z" fill="white"/>
  <path d="M13.6565 12.8867C13.0273 12.8867 12.5156 13.3824 12.5156 13.9915C12.5156 14.6007 13.0273 15.0962 13.6565 15.0962C14.2856 15.0962 14.7975 14.6007 14.7975 13.9915C14.7975 13.3824 14.2856 12.8867 13.6565 12.8867ZM13.6565 14.3833C13.4203 14.3833 13.2285 14.2075 13.2285 13.9915C13.2285 13.7755 13.4205 13.5996 13.6565 13.5996C13.8925 13.5996 14.0846 13.7754 14.0846 13.9915C14.0846 14.2075 13.8925 14.3835 13.6565 14.3835V14.3833Z" fill="white"/>
  <path d="M13.6565 19.0859C13.0273 19.0859 12.5156 19.5814 12.5156 20.1906C12.5156 20.7997 13.0273 21.2952 13.6565 21.2952C14.2856 21.2952 14.7975 20.7997 14.7975 20.1906C14.7975 19.5814 14.2856 19.0859 13.6565 19.0859ZM13.6565 20.5823C13.4203 20.5823 13.2285 20.4067 13.2285 20.1906C13.2285 19.9746 13.4205 19.7988 13.6565 19.7988C13.8925 19.7988 14.0846 19.9746 14.0846 20.1906C14.0846 20.4066 13.8925 20.5823 13.6565 20.5823Z" fill="white"/>
  <path d="M20.6944 19.8516H15.9424C15.7454 19.8516 15.5859 20.0112 15.5859 20.208C15.5859 20.4048 15.7454 20.5644 15.9424 20.5644H20.6944C20.8912 20.5644 21.0508 20.4048 21.0508 20.208C21.0508 20.0112 20.8912 19.8516 20.6944 19.8516Z" fill="white"/>
  <defs>
    <linearGradient id="paint0_linear" x1="18" y1="13.7337" x2="18" y2="34.6957" gradientUnits="userSpaceOnUse">
      <stop stop-color="#62C7AA"/>
      <stop offset="1" stop-color="#50B4D4"/>
    </linearGradient>
    <linearGradient id="paint1_linear" x1="17.0537" y1="42" x2="17.0537" y2="23.7391" gradientUnits="userSpaceOnUse">
      <stop stop-color="#51B5D2"/>
      <stop offset="1" stop-color="#50B4D4"/>
    </linearGradient>
  </defs>
</svg>
