<svg width="40" height="46" viewBox="0 0 40 46" fill="none" xmlns="http://www.w3.org/2000/svg">
<rect y="4" width="36" height="34.6957" fill="url(#paint0_linear)"/>
<path d="M17.5 46L11.0048 34.75L23.9952 34.75L17.5 46Z" fill="#CFCFCF"/>
<path d="M20.6831 26.3359H15.4319C15.3495 26.3359 15.2704 26.3031 15.2121 26.2448C15.1538 26.1865 15.1211 26.1075 15.1211 26.025C15.1211 25.9426 15.1538 25.8636 15.2121 25.8053C15.2704 25.747 15.3495 25.7142 15.4319 25.7142H20.6831C20.7902 25.7148 20.8964 25.6942 20.9955 25.6535C21.0946 25.6129 21.1847 25.553 21.2605 25.4774C21.2745 25.4634 21.2863 25.45 21.2978 25.4373C21.304 25.4278 21.3108 25.4187 21.318 25.41C21.4389 25.2644 21.5049 25.081 21.5045 24.8918C21.5043 24.6738 21.4176 24.4648 21.2634 24.3106C21.1092 24.1564 20.9002 24.0697 20.6821 24.0694H17.7481C17.7047 24.0694 17.6619 24.0603 17.6223 24.0428C17.5827 24.0252 17.5472 23.9996 17.5181 23.9675C17.1266 23.5377 16.6497 23.1942 16.1179 22.9591C15.5862 22.724 15.0113 22.6024 14.4298 22.6021H10.6585C10.576 22.6021 10.497 22.5693 10.4387 22.5111C10.3804 22.4528 10.3477 22.3737 10.3477 22.2913C10.3477 22.2088 10.3804 22.1298 10.4387 22.0715C10.497 22.0132 10.576 21.9805 10.6585 21.9805H14.4308C15.0753 21.9809 15.7132 22.1109 16.3065 22.363C16.8997 22.615 17.4362 22.9838 17.8839 23.4475H20.6831C21.0657 23.4479 21.4327 23.6 21.7033 23.8706C21.974 24.1411 22.1264 24.5079 22.1271 24.8906C22.1272 25.2129 22.0185 25.5258 21.8184 25.7786C21.8106 25.7914 21.8018 25.8035 21.792 25.8149C21.7609 25.8498 21.7342 25.8815 21.7022 25.9135C21.5686 26.0476 21.4098 26.154 21.2348 26.2265C21.0599 26.299 20.8724 26.3362 20.6831 26.3359Z" fill="white"/>
<path d="M18.0457 30.0117C17.2798 30.0122 16.5197 29.8791 15.7995 29.6185L10.5524 27.7132C10.4749 27.6851 10.4117 27.6273 10.3769 27.5526C10.342 27.4779 10.3382 27.3924 10.3663 27.3149C10.3945 27.2375 10.4523 27.1743 10.527 27.1394C10.6017 27.1046 10.6872 27.1008 10.7646 27.1289L16.0124 29.0345C16.7839 29.3123 17.6041 29.4295 18.4226 29.3787C19.2411 29.3279 20.0405 29.1103 20.7718 28.7392L27.8919 25.1027C27.5071 24.7953 27.0499 24.5916 26.5641 24.5111C26.0782 24.4305 25.5798 24.4757 25.1163 24.6424L21.7018 25.8857C21.6573 25.9098 21.6075 25.9224 21.5569 25.9224C21.4941 25.923 21.4325 25.9046 21.3804 25.8695C21.3282 25.8344 21.2879 25.7844 21.2648 25.7259C21.2417 25.6675 21.2368 25.6034 21.2508 25.5422C21.2649 25.4809 21.2971 25.4253 21.3434 25.3828C21.374 25.3533 21.4104 25.3305 21.4503 25.316L24.9044 24.0584C25.4834 23.8502 26.107 23.798 26.7126 23.9071C27.3182 24.0162 27.8844 24.2828 28.3544 24.68L28.6478 24.9343C28.6862 24.9676 28.7159 25.0099 28.7342 25.0574C28.7525 25.1049 28.7588 25.1561 28.7527 25.2066C28.7466 25.2571 28.7281 25.3054 28.699 25.3471C28.6698 25.3888 28.6309 25.4227 28.5856 25.4459L21.0531 29.2928C20.1212 29.7658 19.0908 30.0121 18.0457 30.0117Z" fill="white"/>
<path d="M10.6582 28.5923H7.31081C7.22838 28.5923 7.14932 28.5596 7.09103 28.5013C7.03275 28.443 7 28.364 7 28.2815V21.5139C7 21.4315 7.03275 21.3524 7.09103 21.2942C7.14932 21.2359 7.22838 21.2031 7.31081 21.2031H10.6582C10.7407 21.2031 10.8197 21.2359 10.878 21.2942C10.9363 21.3524 10.9691 21.4315 10.9691 21.5139V28.2815C10.9691 28.364 10.9363 28.443 10.878 28.5013C10.8197 28.5596 10.7407 28.5923 10.6582 28.5923ZM7.62162 27.9707H10.3474V21.8247H7.62162V27.9707Z" fill="white"/>
<path d="M20.8318 22.0854C19.7355 22.0854 18.6639 21.7603 17.7524 21.1513C16.8409 20.5422 16.1305 19.6766 15.711 18.6638C15.2915 17.651 15.1817 16.5365 15.3956 15.4614C15.6094 14.3862 16.1373 13.3986 16.9125 12.6234C17.6876 11.8483 18.6753 11.3204 19.7504 11.1065C20.8256 10.8926 21.9401 11.0024 22.9529 11.4219C23.9657 11.8414 24.8313 12.5518 25.4403 13.4633C26.0494 14.3748 26.3745 15.4465 26.3745 16.5427C26.3727 18.0122 25.7882 19.421 24.7491 20.4601C23.71 21.4991 22.3012 22.0837 20.8318 22.0854ZM20.8318 11.6213C19.8585 11.6213 18.9071 11.9099 18.0978 12.4506C17.2885 12.9914 16.6578 13.7599 16.2853 14.6591C15.9128 15.5583 15.8154 16.5477 16.0052 17.5023C16.1951 18.4569 16.6637 19.3338 17.3519 20.022C18.0401 20.7102 18.9169 21.1789 19.8715 21.3689C20.8261 21.5588 21.8155 21.4614 22.7148 21.0889C23.614 20.7165 24.3826 20.0858 24.9233 19.2766C25.4641 18.4674 25.7528 17.516 25.7528 16.5427C25.7514 15.238 25.2324 13.9872 24.3098 13.0646C23.3873 12.142 22.1365 11.6231 20.8318 11.6216V11.6213Z" fill="white"/>
<path d="M20.8307 16.8534C20.496 16.8429 20.1719 16.7341 19.8987 16.5405C19.6255 16.3469 19.4153 16.0771 19.2945 15.7648C19.1737 15.4525 19.1475 15.1116 19.2193 14.7845C19.291 14.4575 19.4575 14.1588 19.698 13.9258C19.9385 13.6927 20.2422 13.5357 20.5714 13.4743C20.9005 13.4128 21.2405 13.4497 21.5488 13.5803C21.8572 13.7108 22.1202 13.9293 22.3051 14.2085C22.4901 14.4876 22.5887 14.8151 22.5887 15.1499C22.5887 15.2323 22.5559 15.3114 22.4976 15.3697C22.4393 15.428 22.3603 15.4607 22.2778 15.4607C22.1954 15.4607 22.1164 15.428 22.0581 15.3697C21.9998 15.3114 21.967 15.2323 21.967 15.1499C21.9782 14.9227 21.9211 14.6974 21.803 14.503C21.6848 14.3087 21.5112 14.1542 21.3044 14.0594C21.0976 13.9647 20.8672 13.9341 20.6429 13.9716C20.4186 14.0092 20.2106 14.113 20.0459 14.2699C19.8812 14.4267 19.7672 14.6293 19.7188 14.8515C19.6703 15.0737 19.6896 15.3054 19.774 15.5166C19.8585 15.7277 20.0043 15.9087 20.1927 16.0362C20.381 16.1637 20.6033 16.2319 20.8307 16.2318C20.9131 16.2318 20.9922 16.2646 21.0505 16.3229C21.1088 16.3812 21.1415 16.4602 21.1415 16.5426C21.1415 16.6251 21.1088 16.7041 21.0505 16.7624C20.9922 16.8207 20.9131 16.8534 20.8307 16.8534Z" fill="white"/>
<path d="M20.8283 19.6382C20.3694 19.6448 19.9267 19.4691 19.5972 19.1498C19.2676 18.8304 19.0782 18.3935 19.0703 17.9346C19.0703 17.8522 19.1031 17.7732 19.1613 17.7149C19.2196 17.6566 19.2987 17.6238 19.3811 17.6238C19.4636 17.6238 19.5426 17.6566 19.6009 17.7149C19.6592 17.7732 19.6919 17.8522 19.6919 17.9346C19.6807 18.1618 19.7378 18.3872 19.8559 18.5816C19.9739 18.776 20.1476 18.9305 20.3543 19.0253C20.5611 19.1201 20.7915 19.1507 21.0159 19.1132C21.2402 19.0758 21.4482 18.9719 21.6129 18.8151C21.7777 18.6583 21.8917 18.4557 21.9401 18.2334C21.9886 18.0112 21.9694 17.7796 21.8849 17.5684C21.8005 17.3572 21.6547 17.1761 21.4663 17.0486C21.278 16.9211 21.0557 16.853 20.8283 16.853C20.7458 16.853 20.6668 16.8203 20.6085 16.762C20.5502 16.7037 20.5174 16.6246 20.5174 16.5422C20.5174 16.4598 20.5502 16.3807 20.6085 16.3224C20.6668 16.2641 20.7458 16.2314 20.8283 16.2314C21.0567 16.2238 21.2844 16.2623 21.4976 16.3445C21.7109 16.4267 21.9055 16.551 22.0698 16.7099C22.2341 16.8689 22.3647 17.0592 22.4539 17.2697C22.5431 17.4801 22.5891 17.7064 22.5891 17.935C22.5891 18.1635 22.5431 18.3898 22.4539 18.6002C22.3647 18.8107 22.2341 19.001 22.0698 19.16C21.9055 19.3189 21.7109 19.4432 21.4976 19.5254C21.2844 19.6076 21.0567 19.6461 20.8283 19.6385V19.6382Z" fill="white"/>
<path d="M20.8303 20.1603C20.7479 20.1603 20.6689 20.1276 20.6106 20.0693C20.5523 20.011 20.5195 19.932 20.5195 19.8495V13.2327C20.5195 13.1503 20.5523 13.0712 20.6106 13.0129C20.6689 12.9546 20.7479 12.9219 20.8303 12.9219C20.9128 12.9219 20.9918 12.9546 21.0501 13.0129C21.1084 13.0712 21.1412 13.1503 21.1412 13.2327V19.8495C21.1412 19.932 21.1084 20.011 21.0501 20.0693C20.9918 20.1276 20.9128 20.1603 20.8303 20.1603Z" fill="white"/>
<path d="M39.7969 7.125C39.7969 3.67188 36.9531 0.828125 33.5 0.828125C30.0215 0.828125 27.2031 3.67188 27.2031 7.125C27.2031 10.6035 30.0215 13.4219 33.5 13.4219C36.9531 13.4219 39.7969 10.6035 39.7969 7.125ZM32.7637 10.4766C32.6113 10.6289 32.332 10.6289 32.1797 10.4766L29.5391 7.83594C29.3867 7.68359 29.3867 7.4043 29.5391 7.25195L30.123 6.69336C30.2754 6.51562 30.5293 6.51562 30.6816 6.69336L32.4844 8.4707L36.293 4.66211C36.4453 4.48438 36.6992 4.48438 36.8516 4.66211L37.4355 5.2207C37.5879 5.37305 37.5879 5.65234 37.4355 5.80469L32.7637 10.4766Z" fill="url(#paint1_linear)"/>
<defs>
<linearGradient id="paint0_linear" x1="18" y1="4" x2="18" y2="38.6957" gradientUnits="userSpaceOnUse">
<stop stop-color="#B5B5B5"/>
<stop offset="1" stop-color="#D4D4D4"/>
</linearGradient>
<linearGradient id="paint1_linear" x1="33.5" y1="1" x2="33.5" y2="14" gradientUnits="userSpaceOnUse">
<stop stop-color="#0BADD7"/>
<stop offset="1" stop-color="#028BB8"/>
</linearGradient>
</defs>
</svg>
