<svg width="93" height="93" viewBox="0 0 93 93" fill="none" xmlns="http://www.w3.org/2000/svg">
  <g opacity="0.65" filter="url(#filter0_dd)">
    <circle cx="46.5" cy="46.5" r="32.5" fill="url(#paint0_linear)"/>
  </g>
  <path d="M52.5759 53.7314H40.4254C39.7989 53.7314 39.291 54.2393 39.291 54.8658C39.291 55.4923 39.7989 56.0002 40.4254 56.0002H52.5759C53.2024 56.0002 53.7103 55.4923 53.7103 54.8658C53.7103 54.2393 53.2024 53.7314 52.5759 53.7314Z" fill="#2C323C"/>
  <path d="M47.3097 40.3654H45.6895C44.975 40.3654 44.3938 39.7842 44.3938 39.0697C44.3938 38.3552 44.975 37.774 45.6895 37.774H48.9296C49.5561 37.774 50.064 37.2661 50.064 36.6396C50.064 36.0131 49.5561 35.5052 48.9296 35.5052H47.6338V34.2096C47.6338 33.5831 47.1259 33.0752 46.4994 33.0752C45.8729 33.0752 45.365 33.5831 45.365 34.2096V35.5207C43.5512 35.6852 42.125 37.2137 42.125 39.0698C42.125 41.0353 43.724 42.6343 45.6895 42.6343H47.3097C48.0241 42.6343 48.6054 43.2156 48.6054 43.93C48.6054 44.6444 48.0242 45.2257 47.3097 45.2257H44.0693C43.4429 45.2257 42.935 45.7336 42.935 46.3601C42.935 46.9866 43.4429 47.4945 44.0693 47.4945H45.365V48.7902C45.365 49.4166 45.8729 49.9245 46.4994 49.9245C47.1259 49.9245 47.6338 49.4166 47.6338 48.7902V47.479C49.4478 47.3146 50.8741 45.7861 50.8741 43.9299C50.8741 41.9645 49.2752 40.3654 47.3097 40.3654Z" fill="#2C323C"/>
  <path d="M59.8655 27H33.1344C32.5079 27 32 27.5079 32 28.1344V61.2446C32 61.5454 32.1196 61.8339 32.3323 62.0467L35.6738 65.3882C36.1167 65.8312 36.835 65.8312 37.278 65.3882L39.8173 62.8489L42.3565 65.3882C42.5692 65.6009 42.8577 65.7205 43.1587 65.7205C43.4595 65.7205 43.7481 65.601 43.9608 65.3882L46.5 62.8489L49.0392 65.3882C49.252 65.6009 49.5405 65.7205 49.8413 65.7205C50.1423 65.7205 50.4308 65.6009 50.6435 65.3882L53.1827 62.8489L55.722 65.3882C55.9435 65.6097 56.2338 65.7205 56.5241 65.7205C56.8144 65.7205 57.1047 65.6098 57.3262 65.3882L60.6677 62.0467C60.8804 61.834 61 61.5454 61 61.2446V28.1344C60.9999 27.5079 60.4921 27 59.8655 27ZM56.5241 62.9818L53.9848 60.4425C53.7721 60.2297 53.4835 60.1102 53.1826 60.1102C52.8817 60.1102 52.5932 60.2297 52.3805 60.4425L49.8413 62.9818L47.302 60.4425C46.859 59.9995 46.1407 59.9995 45.6977 60.4425L43.1584 62.9818L40.6192 60.4425C40.4065 60.2297 40.118 60.1102 39.8171 60.1102C39.5162 60.1102 39.2277 60.2297 39.015 60.4425L36.4757 62.9818L34.2686 60.7747V29.2688H58.7311V60.7747H58.7311L56.5241 62.9818Z" fill="#2C323C"/>
  <defs>
    <filter id="filter0_dd" x="0" y="0" width="93" height="93" filterUnits="userSpaceOnUse" color-interpolation-filters="sRGB">
      <feFlood flood-opacity="0" result="BackgroundImageFix"/>
      <feColorMatrix in="SourceAlpha" type="matrix" values="0 0 0 0 0 0 0 0 0 0 0 0 0 0 0 0 0 0 127 0"/>
      <feOffset dx="4" dy="4"/>
      <feGaussianBlur stdDeviation="5"/>
      <feColorMatrix type="matrix" values="0 0 0 0 0 0 0 0 0 0 0 0 0 0 0 0 0 0 0.25 0"/>
      <feBlend mode="normal" in2="BackgroundImageFix" result="effect1_dropShadow"/>
      <feColorMatrix in="SourceAlpha" type="matrix" values="0 0 0 0 0 0 0 0 0 0 0 0 0 0 0 0 0 0 127 0"/>
      <feOffset dx="-4" dy="-4"/>
      <feGaussianBlur stdDeviation="5"/>
      <feColorMatrix type="matrix" values="0 0 0 0 1 0 0 0 0 1 0 0 0 0 1 0 0 0 1 0"/>
      <feBlend mode="normal" in2="effect1_dropShadow" result="effect2_dropShadow"/>
      <feBlend mode="normal" in="SourceGraphic" in2="effect2_dropShadow" result="shape"/>
    </filter>
    <linearGradient id="paint0_linear" x1="9" y1="11" x2="67" y2="71.5" gradientUnits="userSpaceOnUse">
      <stop offset="0.155195" stop-color="#F2F6FB"/>
      <stop offset="1" stop-color="white"/>
    </linearGradient>
  </defs>
</svg>
