<svg width="93" height="93" viewBox="0 0 93 93" fill="none" xmlns="http://www.w3.org/2000/svg">
  <g opacity="0.65" filter="url(#filter0_dd)">
    <circle cx="46.5" cy="46.5" r="32.5" fill="url(#paint0_linear)" />
  </g>
  <path d="M62.991 33.3868H56.1752V30.6066C56.1679 30.3709 56.0151 30.1621 55.7867 30.0752C55.5582 29.988 55.2976 30.0399 55.1238 30.2066L53.9307 31.381L52.7397 30.2066C52.6267 30.0954 52.4715 30.0326 52.3097 30.0326C52.1476 30.0326 51.9927 30.0954 51.8797 30.2066L50.6919 31.3804L49.5052 30.1979C49.3933 30.0842 49.2388 30.018 49.0758 30.0146C48.9128 30.018 48.7579 30.0839 48.6463 30.1979L47.4591 31.3759L46.2722 30.2047C46.1591 30.0937 46.004 30.0312 45.8424 30.0315C45.6806 30.0317 45.5258 30.0948 45.4133 30.2064L44.2266 31.3801L43.0397 30.2069C42.9269 30.0954 42.7721 30.0326 42.6103 30.0326C42.4484 30.0326 42.2936 30.0954 42.1808 30.2069L40.9951 31.3798L39.8099 30.2072C39.6337 30.039 39.3705 29.9869 39.1397 30.0746C38.9101 30.1607 38.7567 30.3703 38.75 30.6066V33.3868H32.009C30.9009 33.4006 30.0082 34.2621 30 35.3249V55.2661C30 56.3182 30.9123 57.2075 32.009 57.2075H42.1244L41.0646 60.8667H38.911C38.5806 60.8667 38.3127 61.1237 38.3127 61.4407C38.3127 61.7576 38.5806 62.0146 38.911 62.0146H56.0137C56.3441 62.0146 56.612 61.7576 56.612 61.4407C56.612 61.1237 56.3441 60.8667 56.0137 60.8667H53.8598L52.8002 57.2075H62.991C64.0877 57.2075 65 56.3182 65 55.2661V35.3249C64.9918 34.2621 64.0991 33.4006 62.991 33.3868ZM39.9466 32.0236L40.5493 32.6214C40.6635 32.738 40.8206 32.8067 40.9869 32.8129H40.991C41.1554 32.8064 41.3108 32.7375 41.4224 32.6214L42.6094 31.4395L43.7966 32.6085C43.91 32.7192 44.0651 32.7815 44.2269 32.7809C44.3888 32.7803 44.5433 32.717 44.6558 32.6055L45.8427 31.4314L47.0297 32.6049C47.1421 32.7162 47.2973 32.7789 47.4588 32.7789C47.6207 32.7789 47.7755 32.7162 47.8882 32.6046L49.0755 31.4311L50.2618 32.6214C50.3728 32.7375 50.5274 32.8064 50.6913 32.8129C50.8552 32.8064 51.0094 32.7377 51.1204 32.6217L52.3088 31.439L53.4978 32.6088C53.6109 32.7198 53.7657 32.7817 53.927 32.7812C54.0935 32.7809 54.2533 32.7181 54.3722 32.606L54.9786 32.0211V48.4541H39.9466V32.0236ZM32.009 34.5348H38.75V48.4541H36.3887C36.0583 48.4541 35.7904 48.7111 35.7904 49.0281C35.7904 49.3451 36.0583 49.6021 36.3887 49.6021H58.5365C58.8669 49.6021 59.1348 49.3451 59.1348 49.0281C59.1348 48.7111 58.8669 48.4541 58.5365 48.4541H56.1752V34.5348H62.991C63.4383 34.5477 63.7961 34.8958 63.8034 35.3249V51.6111H31.1966V35.3249C31.2039 34.8958 31.5617 34.5477 32.009 34.5348ZM52.6191 60.8667H42.3059L43.3657 57.2075H51.5592L52.6191 60.8667ZM62.991 56.0595H32.009C31.5612 56.0449 31.2036 55.696 31.1966 55.2661V52.759H63.8034V55.2661C63.7964 55.696 63.4388 56.0449 62.991 56.0595Z" fill="#2C323C" />
  <path d="M44.7325 44.5074H50.1916C50.522 44.5074 50.7899 44.2503 50.7899 43.9334C50.7899 43.6164 50.522 43.3594 50.1916 43.3594H44.7331C44.4024 43.3594 44.1348 43.6164 44.1348 43.9334C44.1348 44.2503 44.4024 44.5074 44.7331 44.5074H44.7325Z" fill="#2C323C" />
  <path d="M52.7911 45.7275H42.1334C41.803 45.7275 41.5352 45.9845 41.5352 46.3015C41.5352 46.6185 41.803 46.8755 42.1334 46.8755H52.7911C53.1215 46.8755 53.3894 46.6185 53.3894 46.3015C53.3894 45.9845 53.1215 45.7275 52.7911 45.7275Z" fill="#2C323C" />
  <path d="M47.5004 40.2365C46.9483 40.2357 46.5007 39.8066 46.5001 39.2769C46.5001 38.9599 46.2322 38.7029 45.9018 38.7029C45.5714 38.7029 45.3036 38.9599 45.3036 39.2769C45.3047 40.1637 45.8834 40.9554 46.7525 41.2584V41.7091C46.7525 42.0261 47.0204 42.2831 47.3508 42.2831C47.6812 42.2831 47.9491 42.0261 47.9491 41.7091V41.34C49.0513 41.1194 49.8012 40.1348 49.6856 39.0605C49.5699 37.986 48.6263 37.1693 47.5004 37.169C46.948 37.169 46.4998 36.7393 46.4998 36.2094C46.4998 35.6791 46.9477 35.2494 47.5004 35.2494C48.0528 35.2494 48.5007 35.6791 48.5007 36.2094C48.5007 36.5263 48.7686 36.7833 49.099 36.7833C49.4294 36.7833 49.6972 36.5263 49.6972 36.2094C49.6958 35.2116 48.9669 34.3509 47.9491 34.146V33.8884C47.9491 33.5715 47.6812 33.3145 47.3508 33.3145C47.0204 33.3145 46.7525 33.5715 46.7525 33.8884V34.2276C45.7491 34.5757 45.1516 35.5653 45.336 36.5737C45.5203 37.5821 46.4332 38.3173 47.5004 38.3173C48.0528 38.3173 48.5007 38.7469 48.5007 39.2769C48.5007 39.8069 48.0528 40.2365 47.5004 40.2365Z" fill="#2C323C" />
  <defs>
    <filter id="filter0_dd" x="0" y="0" width="93" height="93" filterUnits="userSpaceOnUse" color-interpolation-filters="sRGB">
      <feFlood flood-opacity="0" result="BackgroundImageFix" />
      <feColorMatrix in="SourceAlpha" type="matrix" values="0 0 0 0 0 0 0 0 0 0 0 0 0 0 0 0 0 0 127 0" />
      <feOffset dx="4" dy="4" />
      <feGaussianBlur stdDeviation="5" />
      <feColorMatrix type="matrix" values="0 0 0 0 0 0 0 0 0 0 0 0 0 0 0 0 0 0 0.25 0" />
      <feBlend mode="normal" in2="BackgroundImageFix" result="effect1_dropShadow" />
      <feColorMatrix in="SourceAlpha" type="matrix" values="0 0 0 0 0 0 0 0 0 0 0 0 0 0 0 0 0 0 127 0" />
      <feOffset dx="-4" dy="-4" />
      <feGaussianBlur stdDeviation="5" />
      <feColorMatrix type="matrix" values="0 0 0 0 1 0 0 0 0 1 0 0 0 0 1 0 0 0 1 0" />
      <feBlend mode="normal" in2="effect1_dropShadow" result="effect2_dropShadow" />
      <feBlend mode="normal" in="SourceGraphic" in2="effect2_dropShadow" result="shape" />
    </filter>
    <linearGradient id="paint0_linear" x1="9" y1="11" x2="67" y2="71.5" gradientUnits="userSpaceOnUse">
      <stop offset="0.155195" stop-color="#F2F6FB" />
      <stop offset="1" stop-color="white" />
    </linearGradient>
  </defs>
</svg>