<svg width="18" height="17" viewBox="0 0 18 17" fill="none" xmlns="http://www.w3.org/2000/svg">
	<path d="M9.17855 15.0848L15.0858 9.1775L14.3815 8.47316L13.7912 9.06347L13.0797 8.35198C12.2638 7.53612 11.069 7.2303 9.96143 7.55379L9.23344 7.76645L9.44611 7.03846C9.76965 5.93093 9.46377 4.73607 8.64791 3.92021L7.93643 3.20872L8.52673 2.61841L7.82239 1.91406L1.91504 7.82131L2.61939 8.52566L3.2097 7.93535L3.92118 8.64683C4.52199 9.24764 5.32828 9.57188 6.15391 9.57188C6.44946 9.57188 6.7475 9.53034 7.03947 9.44506L7.76746 9.2324L7.5548 9.96039C7.23125 11.0679 7.53713 12.2628 8.35299 13.0786L9.06448 13.7901L8.47417 14.3804L9.17855 15.0848ZM9.97279 11.7695L10.3762 10.3885L11.7572 9.98506C12.1371 9.87405 12.5342 9.86319 12.9073 9.94734L9.94426 12.9104C9.85606 12.5371 9.86363 12.1431 9.97279 11.7695ZM6.76012 8.4889C6.00194 8.71036 5.18403 8.50102 4.62553 7.94249L3.91404 7.231L7.23205 3.913L7.94356 4.62452C8.50206 5.18302 8.71144 6.00093 8.48997 6.75911L8.09891 8.09784L6.76012 8.4889ZM8.51093 10.2397L8.90199 8.90098L10.2407 8.50992C10.9246 8.31014 11.657 8.46104 12.2039 8.90241C11.9602 8.91738 11.7165 8.95923 11.4779 9.02893L9.57306 9.5854L9.01662 11.4902C8.94948 11.7201 8.90909 11.9554 8.89438 12.1915C8.46009 11.6458 8.31254 10.9189 8.51093 10.2397Z" fill="#747474"/>
	<path d="M1.10844 7.21009C1.37345 5.68291 2.09506 4.29414 3.19528 3.19395C4.47945 1.90978 6.18333 1.1353 7.99305 1.01323C9.61866 0.90374 11.2297 1.32349 12.5823 2.20105C12.5292 2.3564 12.5012 2.52105 12.5012 2.69008C12.5012 3.09253 12.6579 3.4709 12.9425 3.7555C13.2362 4.04923 13.6221 4.19611 14.0079 4.19611C14.3938 4.19611 14.7796 4.04923 15.0733 3.7555C15.3579 3.4709 15.5146 3.09256 15.5146 2.69008C15.5146 2.28759 15.3579 1.90922 15.0733 1.62466C14.7887 1.34006 14.4104 1.18332 14.0079 1.18332C13.718 1.18332 13.4409 1.26505 13.202 1.41687C11.6535 0.387751 9.79838 -0.106886 7.926 0.0193383C5.87575 0.157684 3.94556 1.03498 2.49094 2.48963C1.24476 3.73581 0.42731 5.30921 0.127008 7.03979C-0.16652 8.73139 0.0509942 10.449 0.756039 12.0069L1.66352 11.5962C1.0411 10.2208 0.849188 8.70419 1.10844 7.21009ZM13.9978 2.13786C14.3027 2.13786 14.5499 2.38503 14.5499 2.68995C14.5499 2.99486 14.3027 3.24203 13.9978 3.24203C13.6929 3.24203 13.4457 2.99486 13.4457 2.68995C13.4457 2.38503 13.6929 2.13786 13.9978 2.13786Z" fill="#747474"/>
	<path d="M16.3001 5.11328L15.3863 5.50982C15.979 6.87561 16.1513 8.37509 15.8845 9.84619C15.6116 11.351 14.8934 12.7203 13.8076 13.8061C12.5248 15.0889 10.8229 15.8633 9.0152 15.9865C8.84385 15.9982 8.67292 16.004 8.50217 16.004C7.03067 16.0039 5.59183 15.5729 4.369 14.765C4.5552 14.2351 4.43685 13.621 4.01384 13.198C3.72924 12.9134 3.3509 12.7567 2.94842 12.7567C2.54593 12.7567 2.16756 12.9134 1.883 13.198C1.29551 13.7855 1.29551 14.7414 1.883 15.3288C2.16759 15.6134 2.54593 15.7701 2.94842 15.7701C3.23348 15.7701 3.50628 15.6911 3.74239 15.5442C5.14471 16.4931 6.80436 17.0001 8.50223 17.0001C8.69541 17.0001 8.88911 16.9935 9.08294 16.9803C11.1308 16.8407 13.0589 15.9636 14.512 14.5105C15.7418 13.2806 16.5553 11.7292 16.8646 10.024C17.1666 8.35839 16.9714 6.66032 16.3001 5.11328ZM2.94839 14.8155C2.64347 14.8155 2.3963 14.5683 2.3963 14.2634C2.3963 13.9585 2.64347 13.7113 2.94839 13.7113C3.2533 13.7113 3.50047 13.9585 3.50047 14.2634C3.50047 14.5683 3.2533 14.8155 2.94839 14.8155Z" fill="#747474"/>
</svg>
