<svg width="114" height="90" viewBox="0 0 114 113" fill="none" xmlns="http://www.w3.org/2000/svg">
  <g opacity="0.65" filter="url(#filter0_dd)">
    <circle cx="57.1976" cy="56.2994" r="42.2757" fill="url(#paint0_linear)"/>
  </g>
  <path d="M75.5929 59.6376C76.159 59.6359 76.7015 59.4103 77.1018 59.01C77.5021 58.6097 77.7277 58.0673 77.7294 57.5012V36.1365C77.7277 35.5704 77.5021 35.0279 77.1018 34.6276C76.7015 34.2273 76.159 34.0017 75.5929 34H51.3796C50.8135 34.0017 50.2711 34.2273 49.8708 34.6276C49.4705 35.0279 49.2448 35.5704 49.2431 36.1365V46.2491L43.3892 47.5452C43.2319 47.5827 43.0917 47.6718 42.991 47.7983C42.8903 47.9248 42.8349 48.0814 42.8337 48.2431V61.0619H41.4806C41.3062 61.0627 41.138 61.1266 41.0071 61.2418C40.8761 61.357 40.7914 61.5157 40.7685 61.6886L40.5548 63.3978L39.1946 62.3367C39.0574 62.2302 38.8857 62.1778 38.7124 62.1896C38.539 62.2015 38.3761 62.2766 38.2546 62.4008L36.3389 64.3165C36.2155 64.4385 36.1409 64.6013 36.1291 64.7744C36.1173 64.9475 36.1691 65.1189 36.2748 65.2565L37.3359 66.6168L35.6267 66.8304C35.4538 66.8533 35.2951 66.9381 35.1798 67.069C35.0646 67.1999 35.0007 67.3682 35 67.5426V70.2488C35.0007 70.4232 35.0646 70.5914 35.1798 70.7223C35.2951 70.8533 35.4538 70.938 35.6267 70.9609L37.3359 71.1746L36.2748 72.5348C36.1691 72.6724 36.1173 72.8438 36.1291 73.0169C36.1409 73.19 36.2155 73.3528 36.3389 73.4748L38.2546 75.3905C38.3761 75.5147 38.539 75.5899 38.7124 75.6017C38.8857 75.6135 39.0574 75.5612 39.1946 75.4546L40.5548 74.3935L40.7685 76.1027C40.7914 76.2756 40.8761 76.4343 41.0071 76.5496C41.138 76.6648 41.3062 76.7287 41.4806 76.7294H44.1868C44.3612 76.7287 44.5295 76.6648 44.6604 76.5496C44.7913 76.4343 44.8761 76.2756 44.899 76.1027L45.1126 74.3935L46.4728 75.4546C46.6104 75.5603 46.7819 75.6121 46.955 75.6003C47.1281 75.5885 47.2909 75.5139 47.4129 75.3905L49.3286 73.4748C49.3821 73.4197 49.4277 73.3574 49.4639 73.2897C51.1762 74.5029 53.0005 75.5497 54.9119 76.416L56.0727 76.9359C56.1643 76.9781 56.2639 77 56.3647 77C56.4655 77 56.5651 76.9781 56.6567 76.9359L57.8175 76.416C59.7289 75.5497 61.5532 74.5029 63.2655 73.2897C63.3017 73.3574 63.3473 73.4197 63.4008 73.4748L65.3165 75.3905C65.438 75.5147 65.601 75.5899 65.7743 75.6017C65.9477 75.6135 66.1193 75.5612 66.2565 75.4546L67.6168 74.3935L67.8304 76.1027C67.8533 76.2756 67.9381 76.4343 68.069 76.5496C68.1999 76.6648 68.3682 76.7287 68.5426 76.7294H71.2488C71.4232 76.7287 71.5914 76.6648 71.7223 76.5496C71.8533 76.4343 71.938 76.2756 71.9609 76.1027L72.1746 74.3935L73.5348 75.4546C73.672 75.5612 73.8437 75.6135 74.017 75.6017C74.1904 75.5899 74.3533 75.5147 74.4748 75.3905L76.3905 73.4748C76.5139 73.3528 76.5885 73.19 76.6003 73.0169C76.6121 72.8438 76.5603 72.6724 76.4546 72.5348L75.3935 71.1746L77.1027 70.9609C77.2756 70.938 77.4343 70.8533 77.5496 70.7223C77.6648 70.5914 77.7287 70.4232 77.7294 70.2488V67.5426C77.7287 67.3682 77.6648 67.1999 77.5496 67.069C77.4343 66.9381 77.2756 66.8533 77.1027 66.8304L75.3935 66.6168L76.4546 65.2565C76.5603 65.1189 76.6121 64.9475 76.6003 64.7744C76.5885 64.6013 76.5139 64.4385 76.3905 64.3165L74.4748 62.4008C74.3533 62.2766 74.1904 62.2015 74.017 62.1896C73.8437 62.1778 73.672 62.2302 73.5348 62.3367L72.1746 63.3978L71.9609 61.6886C71.938 61.5157 71.8533 61.357 71.7223 61.2418C71.5914 61.1266 71.4232 61.0627 71.2488 61.0619H69.8957V59.6376H75.5929ZM50.6674 36.1365C50.6674 35.9476 50.7425 35.7665 50.876 35.6329C51.0096 35.4993 51.1907 35.4243 51.3796 35.4243H75.5929C75.7818 35.4243 75.9629 35.4993 76.0965 35.6329C76.23 35.7665 76.3051 35.9476 76.3051 36.1365V39.6973H50.6674V36.1365ZM44.258 48.8129L56.3647 46.1209L68.4714 48.8129V61.0762C68.3106 61.0895 68.1592 61.1576 68.0426 61.2691C67.9259 61.3805 67.851 61.5286 67.8304 61.6886L67.6168 63.3978L67.047 62.9563V50.3796C67.0474 50.2164 66.9917 50.0581 66.8893 49.931C66.7869 49.804 66.644 49.716 66.4844 49.6817L56.5142 47.5452C56.4157 47.5238 56.3137 47.5238 56.2151 47.5452L46.245 49.6817C46.0854 49.716 45.9425 49.804 45.8401 49.931C45.7376 50.0581 45.682 50.2164 45.6823 50.3796V62.9563L45.1126 63.3978L44.899 61.6886C44.8783 61.5286 44.8035 61.3805 44.6868 61.2691C44.5702 61.1576 44.4188 61.0895 44.258 61.0762V48.8129ZM63.3367 65.2565L64.3978 66.6168L62.6886 66.8304C62.5157 66.8533 62.357 66.9381 62.2418 67.069C62.1266 67.1999 62.0627 67.3682 62.0619 67.5426V68.796C60.3017 70.1998 58.3909 71.4036 56.3647 72.3852C54.7699 71.61 53.2429 70.7024 51.7998 69.6719C51.3582 69.3514 50.995 69.0666 50.6674 68.796V67.5426C50.6667 67.3682 50.6028 67.1999 50.4876 67.069C50.3724 66.9381 50.2136 66.8533 50.0407 66.8304L48.3316 66.6168L49.3927 65.2565C49.4983 65.1189 49.5501 64.9475 49.5383 64.7744C49.5265 64.6013 49.4519 64.4385 49.3286 64.3165L47.4129 62.4008C47.3301 62.3146 47.2235 62.2551 47.1067 62.2299V50.9564L56.3647 48.9695L65.6227 50.9564V62.2299C65.5059 62.2551 65.3993 62.3146 65.3165 62.4008L63.4008 64.3165C63.2774 64.4385 63.2029 64.6013 63.1911 64.7744C63.1793 64.9475 63.2311 65.1189 63.3367 65.2565ZM46.8503 73.9449L45.5043 72.898C45.4002 72.8148 45.2744 72.7633 45.1419 72.7494C45.0094 72.7355 44.8756 72.7599 44.7565 72.8196C44.5927 72.898 44.4218 72.9692 44.2509 73.0333C44.1247 73.0762 44.0131 73.1537 43.9287 73.2569C43.8443 73.3602 43.7907 73.485 43.7738 73.6173L43.5601 75.3051H42.1073L41.8937 73.6173C41.8768 73.485 41.8231 73.3602 41.7387 73.2569C41.6544 73.1537 41.5427 73.0762 41.4165 73.0333C41.2456 72.9692 41.0747 72.898 40.9109 72.8196C40.7918 72.7599 40.6581 72.7355 40.5256 72.7494C40.393 72.7633 40.2673 72.8148 40.1631 72.898L38.8172 73.9449L37.7845 72.9122L38.8314 71.5663C38.9146 71.4621 38.9661 71.3364 38.98 71.2038C38.9939 71.0713 38.9695 70.9376 38.9097 70.8185C38.8314 70.6547 38.7602 70.4838 38.6961 70.3129C38.6532 70.1866 38.5757 70.075 38.4724 69.9906C38.3692 69.9063 38.2444 69.8526 38.1121 69.8357L36.4243 69.6221V68.1693L38.1121 67.9556C38.2444 67.9387 38.3692 67.885 38.4724 67.8007C38.5757 67.7163 38.6532 67.6047 38.6961 67.4785C38.7602 67.3076 38.8314 67.1366 38.9097 66.9728C38.9695 66.8537 38.9939 66.72 38.98 66.5875C38.9661 66.455 38.9146 66.3292 38.8314 66.2251L37.7845 64.8791L38.8172 63.8465L40.1631 64.8933C40.2673 64.9765 40.393 65.0281 40.5256 65.042C40.6581 65.0558 40.7918 65.0315 40.9109 64.9717C41.0747 64.8933 41.2456 64.8221 41.4165 64.758C41.5427 64.7151 41.6544 64.6376 41.7387 64.5344C41.8231 64.4312 41.8768 64.3063 41.8937 64.1741L42.1073 62.4863H43.5601L43.7738 64.1741C43.7907 64.3063 43.8443 64.4312 43.9287 64.5344C44.0131 64.6376 44.1247 64.7151 44.2509 64.758C44.4218 64.8221 44.5927 64.8933 44.7565 64.9717C44.8756 65.0315 45.0094 65.0558 45.1419 65.042C45.2744 65.0281 45.4002 64.9765 45.5043 64.8933L46.8503 63.8465L47.8829 64.8791L46.836 66.2251C46.7529 66.3292 46.7013 66.455 46.6874 66.5875C46.6736 66.72 46.6979 66.8537 46.7577 66.9728C46.836 67.1366 46.9073 67.3076 46.9713 67.4785C47.0143 67.6047 47.0918 67.7163 47.195 67.8007C47.2982 67.885 47.4231 67.9387 47.5553 67.9556L49.2431 68.1693V69.6221L47.5553 69.8357C47.4231 69.8526 47.2982 69.9063 47.195 69.9906C47.0918 70.075 47.0143 70.1866 46.9713 70.3129C46.9073 70.4838 46.836 70.6547 46.7577 70.8185C46.6979 70.9376 46.6736 71.0713 46.6874 71.2038C46.7013 71.3364 46.7529 71.4621 46.836 71.5663L47.8829 72.9122L46.8503 73.9449ZM57.2335 75.1199L56.3647 75.5045L55.4959 75.1199C53.1535 74.0556 50.9527 72.704 48.944 71.0962L50.0407 70.9609C50.1594 70.9437 50.272 70.8976 50.3689 70.8269C50.4657 70.7561 50.5437 70.6628 50.5962 70.555C50.7102 70.6405 50.8312 70.733 50.9594 70.8256C52.5676 71.9787 54.2794 72.98 56.0727 73.8167C56.1643 73.8589 56.2639 73.8808 56.3647 73.8808C56.4655 73.8808 56.5651 73.8589 56.6567 73.8167C58.5879 72.9135 60.4248 71.8209 62.1403 70.555C62.1904 70.6631 62.2669 70.757 62.3627 70.8279C62.4585 70.8988 62.5706 70.9446 62.6886 70.9609L63.7854 71.0962C61.7767 72.704 59.5759 74.0556 57.2335 75.1199ZM70.6221 62.4863L70.8357 64.1741C70.8526 64.3063 70.9063 64.4312 70.9906 64.5344C71.075 64.6376 71.1866 64.7151 71.3129 64.758C71.4838 64.8221 71.6547 64.8933 71.8185 64.9717C71.9376 65.0315 72.0713 65.0558 72.2038 65.042C72.3364 65.0281 72.4621 64.9765 72.5662 64.8933L73.9122 63.8465L74.9449 64.8791L73.898 66.2251C73.8148 66.3292 73.7633 66.455 73.7494 66.5875C73.7355 66.72 73.7599 66.8537 73.8196 66.9728C73.898 67.1366 73.9692 67.3076 74.0333 67.4785C74.0762 67.6047 74.1537 67.7163 74.2569 67.8007C74.3602 67.885 74.485 67.9387 74.6173 67.9556L76.3051 68.1693V69.6221L74.6173 69.8357C74.485 69.8526 74.3602 69.9063 74.2569 69.9906C74.1537 70.075 74.0762 70.1866 74.0333 70.3129C73.9692 70.4838 73.898 70.6547 73.8196 70.8185C73.7599 70.9376 73.7355 71.0713 73.7494 71.2038C73.7633 71.3364 73.8148 71.4621 73.898 71.5663L74.9449 72.9122L73.9122 73.9449L72.5662 72.898C72.4621 72.8148 72.3364 72.7633 72.2038 72.7494C72.0713 72.7355 71.9376 72.7599 71.8185 72.8196C71.6547 72.898 71.4838 72.9692 71.3129 73.0333C71.1866 73.0762 71.075 73.1537 70.9906 73.2569C70.9063 73.3602 70.8526 73.485 70.8357 73.6173L70.6221 75.3051H69.1693L68.9556 73.6173C68.9387 73.485 68.885 73.3602 68.8007 73.2569C68.7163 73.1537 68.6047 73.0762 68.4785 73.0333C68.3076 72.9692 68.1366 72.898 67.9728 72.8196C67.8537 72.7599 67.72 72.7355 67.5875 72.7494C67.455 72.7633 67.3292 72.8148 67.2251 72.898L65.8791 73.9449L64.8465 72.9122L65.8933 71.5663C65.9765 71.4621 66.0281 71.3364 66.0419 71.2038C66.0558 71.0713 66.0314 70.9376 65.9717 70.8185C65.8933 70.6547 65.8221 70.4838 65.758 70.3129C65.7151 70.1866 65.6376 70.075 65.5344 69.9906C65.4312 69.9063 65.3063 69.8526 65.1741 69.8357L63.4863 69.6221V68.1693L65.1741 67.9556C65.3063 67.9387 65.4312 67.885 65.5344 67.8007C65.6376 67.7163 65.7151 67.6047 65.758 67.4785C65.8221 67.3076 65.8933 67.1366 65.9717 66.9728C66.0314 66.8537 66.0558 66.72 66.0419 66.5875C66.0281 66.455 65.9765 66.3292 65.8933 66.2251L64.8465 64.8791L65.8791 63.8465L67.2251 64.8933C67.3292 64.9765 67.455 65.0281 67.5875 65.042C67.72 65.0558 67.8537 65.0315 67.9728 64.9717C68.1366 64.8933 68.3076 64.8221 68.4785 64.758C68.6047 64.7151 68.7163 64.6376 68.8007 64.5344C68.885 64.4312 68.9387 64.3063 68.9556 64.1741L69.1693 62.4863H70.6221ZM69.3402 47.5452L56.5214 44.6966C56.418 44.6752 56.3114 44.6752 56.208 44.6966L50.6674 45.9286V41.1216H76.3051V57.5012C76.3051 57.69 76.23 57.8712 76.0965 58.0047C75.9629 58.1383 75.7818 58.2133 75.5929 58.2133H69.8957V48.2431C69.8945 48.0814 69.8391 47.9248 69.7384 47.7983C69.6377 47.6718 69.4975 47.5827 69.3402 47.5452Z" fill="#2C323C"/>
  <path d="M73.457 36.8486H74.8813V38.2729H73.457V36.8486Z" fill="#2C323C"/>
  <path d="M70.6074 36.8486H72.0317V38.2729H70.6074V36.8486Z" fill="#2C323C"/>
  <path d="M67.7598 36.8486H69.1841V38.2729H67.7598V36.8486Z" fill="#2C323C"/>
  <path d="M42.8342 65.335C42.13 65.335 41.4415 65.5438 40.856 65.9351C40.2704 66.3263 39.814 66.8824 39.5445 67.5331C39.275 68.1837 39.2045 68.8997 39.3419 69.5904C39.4793 70.2811 39.8184 70.9156 40.3164 71.4136C40.8144 71.9116 41.4488 72.2507 42.1395 72.3881C42.8303 72.5255 43.5462 72.455 44.1969 72.1855C44.8475 71.916 45.4036 71.4596 45.7949 70.874C46.1862 70.2884 46.395 69.6 46.395 68.8957C46.3939 67.9517 46.0184 67.0467 45.3508 66.3791C44.6833 65.7116 43.7783 65.3361 42.8342 65.335ZM42.8342 71.0322C42.4117 71.0322 41.9986 70.9069 41.6473 70.6722C41.2959 70.4374 41.0221 70.1037 40.8604 69.7133C40.6987 69.3229 40.6564 68.8934 40.7388 68.4789C40.8212 68.0645 41.0247 67.6838 41.3235 67.385C41.6223 67.0862 42.003 66.8828 42.4174 66.8003C42.8319 66.7179 43.2614 66.7602 43.6518 66.9219C44.0422 67.0836 44.3759 67.3574 44.6106 67.7088C44.8454 68.0601 44.9707 68.4732 44.9707 68.8957C44.9707 69.4624 44.7456 70.0058 44.3449 70.4065C43.9443 70.8071 43.4008 71.0322 42.8342 71.0322Z" fill="#2C323C"/>
  <path d="M66.334 68.8957C66.334 69.6 66.5428 70.2884 66.9341 70.874C67.3253 71.4596 67.8815 71.916 68.5321 72.1855C69.1828 72.455 69.8987 72.5255 70.5894 72.3881C71.2802 72.2507 71.9146 71.9116 72.4126 71.4136C72.9106 70.9156 73.2497 70.2811 73.3871 69.5904C73.5245 68.8997 73.454 68.1837 73.1845 67.5331C72.915 66.8824 72.4586 66.3263 71.873 65.9351C71.2875 65.5438 70.599 65.335 69.8948 65.335C68.9507 65.3361 68.0457 65.7116 67.3782 66.3791C66.7106 67.0467 66.3351 67.9517 66.334 68.8957ZM69.8948 66.7593C70.3173 66.7593 70.7304 66.8846 71.0817 67.1193C71.4331 67.3541 71.7069 67.6878 71.8686 68.0782C72.0303 68.4685 72.0726 68.8981 71.9902 69.3125C71.9077 69.727 71.7043 70.1077 71.4055 70.4065C71.1067 70.7052 70.726 70.9087 70.3116 70.9912C69.8971 71.0736 69.4676 71.0313 69.0772 70.8696C68.6868 70.7079 68.3531 70.434 68.1184 70.0827C67.8836 69.7314 67.7583 69.3183 67.7583 68.8957C67.7583 68.3291 67.9834 67.7857 68.3841 67.385C68.7847 66.9844 69.3281 66.7593 69.8948 66.7593Z" fill="#2C323C"/>
  <path d="M60.6373 57.5011H57.0765V52.516C57.0766 52.3555 57.0225 52.1996 56.9229 52.0736C56.8233 51.9477 56.6841 51.8591 56.5278 51.8222C56.3716 51.7854 56.2074 51.8024 56.062 51.8706C55.9167 51.9387 55.7986 52.054 55.727 52.1977L51.454 60.7436C51.3997 60.8522 51.3741 60.9729 51.3796 61.0941C51.3851 61.2154 51.4215 61.3333 51.4854 61.4365C51.5493 61.5398 51.6385 61.625 51.7445 61.6841C51.8506 61.7432 51.97 61.7741 52.0914 61.7741H55.6522V66.7592C55.6522 66.9195 55.7064 67.0752 55.8059 67.201C55.9054 67.3267 56.0445 67.4152 56.2005 67.4521C56.3568 67.4891 56.5209 67.4722 56.6663 67.4042C56.8118 67.3363 56.9299 67.2211 57.0017 67.0775L61.2747 58.5316C61.3289 58.423 61.3545 58.3024 61.349 58.1811C61.3435 58.0598 61.3071 57.9419 61.2433 57.8387C61.1794 57.7354 61.0902 57.6502 60.9841 57.5911C60.8781 57.5321 60.7587 57.5011 60.6373 57.5011ZM57.0765 63.7425V61.0619C57.0765 60.873 57.0015 60.6919 56.8679 60.5584C56.7343 60.4248 56.5532 60.3498 56.3643 60.3498H53.2437L55.6522 55.5327V58.2133C55.6522 58.4022 55.7272 58.5833 55.8608 58.7169C55.9943 58.8504 56.1755 58.9255 56.3643 58.9255H59.485L57.0765 63.7425Z" fill="#2C323C"/>
  <defs>
    <filter id="filter0_dd" x="0.921875" y="0.0236816" width="112.551" height="112.551" filterUnits="userSpaceOnUse" color-interpolation-filters="sRGB">
      <feFlood flood-opacity="0" result="BackgroundImageFix"/>
      <feColorMatrix in="SourceAlpha" type="matrix" values="0 0 0 0 0 0 0 0 0 0 0 0 0 0 0 0 0 0 127 0"/>
      <feOffset dx="4" dy="4"/>
      <feGaussianBlur stdDeviation="5"/>
      <feColorMatrix type="matrix" values="0 0 0 0 0 0 0 0 0 0 0 0 0 0 0 0 0 0 0.25 0"/>
      <feBlend mode="normal" in2="BackgroundImageFix" result="effect1_dropShadow"/>
      <feColorMatrix in="SourceAlpha" type="matrix" values="0 0 0 0 0 0 0 0 0 0 0 0 0 0 0 0 0 0 127 0"/>
      <feOffset dx="-4" dy="-4"/>
      <feGaussianBlur stdDeviation="5"/>
      <feColorMatrix type="matrix" values="0 0 0 0 1 0 0 0 0 1 0 0 0 0 1 0 0 0 1 0"/>
      <feBlend mode="normal" in2="effect1_dropShadow" result="effect2_dropShadow"/>
      <feBlend mode="normal" in="SourceGraphic" in2="effect2_dropShadow" result="shape"/>
    </filter>
    <linearGradient id="paint0_linear" x1="8.41792" y1="10.1213" x2="83.8638" y2="88.8192" gradientUnits="userSpaceOnUse">
      <stop offset="0.155195" stop-color="#F2F6FB"/>
      <stop offset="1" stop-color="white"/>
    </linearGradient>
  </defs>
</svg>
