<svg width="114" height="114" viewBox="0 0 114 114" fill="none" xmlns="http://www.w3.org/2000/svg">
<g opacity="0.65" filter="url(#filter0_dd)">
<ellipse cx="57.1996" cy="57.1184" rx="42.2757" ry="42.1809" fill="url(#paint0_linear)"/>
</g>
<path d="M83 54.129H81.2603L78.6675 55.4933C78.3756 55.3323 78.0721 55.1958 77.7447 55.1138L74.4831 54.2976V53.9268C75.926 52.9197 76.8064 51.256 76.8064 49.4839V48.1305C76.8064 45.123 74.4498 42.6061 71.5534 42.5184C71.4064 42.5146 71.2616 42.5199 71.1161 42.5271L71.9617 40.5474L67.862 36.4488L65.4453 38.0218C64.5271 37.5047 63.5559 37.1021 62.5474 36.8197L61.9505 34H56.0503L55.4534 36.8204C54.4448 37.1028 53.4729 37.5054 52.5554 38.0226L50.1387 36.4496L46.0425 40.5459L46.8737 42.5271C46.842 42.5256 46.8117 42.5199 46.78 42.5192C45.2974 42.4761 43.901 43.017 42.8402 44.0467C41.778 45.0757 41.1935 46.4567 41.1935 47.9355V49.4839C41.1935 51.256 42.0732 52.919 43.5161 53.926V54.2976L41.3886 54.8295L37.5324 52.5806H35V68.6229L42.6164 71.1613H44.0998L44.285 70.5126L46.6197 71.9139C46.6579 73.1833 47.6759 74.2048 48.9442 74.2494C48.9888 75.5123 50.0038 76.5273 51.2668 76.5719C51.3114 77.8349 52.3264 78.8499 53.5893 78.8945C53.6355 80.187 54.6939 81.2258 55.997 81.2258C56.4808 81.2258 56.9553 81.075 57.3541 80.8062L58.0398 81.4118C58.4696 81.7902 59.0231 82 59.5977 82H59.7409C61.0292 82 62.0775 80.9585 62.0938 79.6744C63.3681 79.6581 64.4001 78.6261 64.4163 77.3518C65.6914 77.3356 66.7242 76.302 66.7389 75.027C68.0257 74.9967 69.0645 73.9454 69.0645 72.6515C69.0645 72.5736 69.0607 72.4968 69.0528 72.4194L83 65.4463V54.129ZM75.2581 48.1305V49.4839C75.2581 50.858 74.5156 52.1418 73.3203 52.8339L72.9332 53.0577L72.9362 55.5077L76.8042 56.4739L68.2903 60.955V58.8695C68.2903 57.8288 67.87 56.8758 67.1816 56.1715L69.8387 55.5077V53.0558L69.4524 52.8324C68.2578 52.1418 67.5161 50.858 67.5161 49.4839V47.9355C67.5161 46.8797 67.9335 45.8923 68.6922 45.157C69.4501 44.4221 70.4556 44.026 71.5069 44.0668C73.5751 44.1288 75.2581 45.952 75.2581 48.1305ZM60.1673 60.3464L56.6627 59.2263C55.0655 58.7145 53.3368 58.6381 51.7019 59.0003L51.2581 59.0985V58.8695C51.2581 57.8019 51.982 56.875 53.017 56.6157L57.4516 55.5077V53.0558L57.0653 52.8324C55.8707 52.1418 55.129 50.858 55.129 49.4839V47.9355C55.129 46.8797 55.5464 45.8923 56.3051 45.157C57.063 44.4221 58.075 44.026 59.1198 44.0668C61.188 44.1288 62.871 45.952 62.871 48.1305V49.4839C62.871 50.858 62.1285 52.1418 60.9332 52.8339L60.5461 53.0577L60.5491 55.5077L64.983 56.6157C66.018 56.875 66.7419 57.8019 66.7419 58.8695V61.7704L66.5507 61.871H66.0762L61.3165 60.5108C60.9415 60.4046 60.5552 60.3611 60.1673 60.3464ZM51.4316 45.5872C52.8855 42.7702 55.8117 40.9677 59 40.9677C62.158 40.9677 65.0718 42.746 66.5367 45.5248C66.1681 46.2639 65.9677 47.0823 65.9677 47.9355V49.4839C65.9677 51.256 66.8474 52.919 68.2903 53.926V54.2976L65.1935 55.073L62.096 54.2976V53.9268C63.5389 52.9197 64.4194 51.256 64.4194 49.4839V48.1305C64.4194 45.123 62.0628 42.6061 59.1663 42.5184C57.6845 42.4749 56.2873 43.0163 55.2266 44.046C54.1651 45.0757 53.5806 46.4567 53.5806 47.9355V49.4839C53.5806 51.256 54.4603 52.919 55.9032 53.926V54.2976L52.8065 55.073L49.7089 54.2976V53.9268C51.1518 52.9197 52.0323 51.256 52.0323 49.4839V48.1305C52.0323 47.2195 51.813 46.3546 51.4316 45.5872ZM47.871 40.905L50.3444 38.4316L52.5214 39.8484L52.938 39.5929C53.9817 38.9533 55.1098 38.4849 56.2903 38.2025L56.7666 38.0883L57.3053 35.5484H60.6954L61.2326 38.0876L61.7089 38.2014C62.8895 38.4841 64.0175 38.9525 65.0612 39.5921L65.4778 39.8477L67.6549 38.4308L70.1253 40.902L69.2471 42.958C68.6494 43.2151 68.0953 43.5769 67.6129 44.0445C67.5812 44.0755 67.5539 44.1087 67.5229 44.1405C65.699 41.2411 62.4744 39.4194 59 39.4194C55.5006 39.4194 52.267 41.2581 50.4476 44.187C49.9607 43.6774 49.3816 43.2646 48.7397 42.9762L47.871 40.905ZM45.0645 55.5077V53.0558L44.6782 52.8324C43.4836 52.1418 42.7419 50.858 42.7419 49.4839V47.9355C42.7419 46.8797 43.1593 45.8923 43.918 45.157C44.6759 44.4221 45.6837 44.026 46.7327 44.0668C48.8009 44.1288 50.4839 45.952 50.4839 48.1305V49.4839C50.4839 50.858 49.7414 52.1418 48.5461 52.8339L48.159 53.0577L48.162 55.5077L50.8184 56.1715C50.13 56.8758 49.7097 57.8288 49.7097 58.8695V59.4429L47.2949 59.9797L47.3576 59.7605L47.3871 58.3296L43.3041 55.9477L45.0645 55.5077ZM36.5484 54.129H37.1128L42.6807 57.3766L39.8712 68.6142L36.5484 67.5062V54.129ZM42.8674 69.6129L41.3436 69.1052L44.073 58.189L45.8387 59.2188V59.4399L42.9325 69.6129H42.8674ZM48.1613 71.8417C48.1613 71.6134 48.2535 71.3896 48.4153 71.2278L49.7762 69.8669C49.938 69.7051 50.1618 69.6129 50.3901 69.6129C50.8687 69.6129 51.2581 70.0023 51.2581 70.4808C51.2581 70.7092 51.1658 70.933 51.004 71.0948L49.6431 72.4556C49.4813 72.6174 49.2576 72.7097 49.0292 72.7097C48.5507 72.7097 48.1613 72.3203 48.1613 71.8417ZM50.4839 74.1643C50.4839 73.936 50.5761 73.7122 50.7379 73.5504L52.0988 72.1895C52.2606 72.0277 52.4844 71.9355 52.7127 71.9355C53.1913 71.9355 53.5806 72.3248 53.5806 72.8034C53.5806 73.0318 53.4884 73.2555 53.3266 73.4173L51.9657 74.7782C51.8039 74.94 51.5801 75.0323 51.3518 75.0323C50.8732 75.0323 50.4839 74.6429 50.4839 74.1643ZM52.8065 76.4869C52.8065 76.2586 52.8987 76.0348 53.0605 75.873L54.4214 74.5121C54.5832 74.3503 54.807 74.2581 55.0353 74.2581C55.5139 74.2581 55.9032 74.6474 55.9032 75.126C55.9032 75.3543 55.811 75.5781 55.6492 75.7399L54.2883 77.1008C54.1265 77.2626 53.9027 77.3548 53.6744 77.3548C53.1958 77.3548 52.8065 76.9655 52.8065 76.4869ZM55.997 79.6774C55.5184 79.6774 55.129 79.2881 55.129 78.8095C55.129 78.5811 55.2213 78.3574 55.3831 78.1956L56.744 76.8347C56.9057 76.6729 57.1295 76.5806 57.3579 76.5806C57.8364 76.5806 58.2258 76.97 58.2258 77.4486C58.2258 77.6769 58.1336 77.9007 57.9718 78.0625L56.6109 79.4234C56.4491 79.5852 56.2253 79.6774 55.997 79.6774ZM59.7409 80.4516H59.5977C59.4003 80.4516 59.2113 80.3798 59.0643 80.2494L58.4851 79.7387L59.0665 79.1573C59.2741 78.9497 59.4351 78.7029 59.5542 78.4379L60.2581 79.0238C60.4422 79.1773 60.5484 79.4034 60.5484 79.6442C60.5484 80.0895 60.1862 80.4516 59.7409 80.4516ZM66.6837 73.4839H66.5499C66.3556 73.4839 66.1658 73.4151 66.0173 73.2903L61.8189 69.7917L60.827 70.9817L64.904 74.3787C65.0873 74.5321 65.1935 74.7582 65.1935 74.999C65.1935 75.4443 64.8314 75.8064 64.3861 75.8064H64.2171C64.0292 75.8064 63.8455 75.7399 63.7007 75.6189L59.4956 72.115L58.5037 73.3051L62.5806 76.7024C62.7647 76.8547 62.871 77.0808 62.871 77.3216C62.871 77.7669 62.5088 78.129 62.0635 78.129C61.7664 78.129 61.4768 78.0236 61.2489 77.8342L59.5209 76.3939C59.1402 75.6159 58.3581 75.0735 57.4422 75.041C57.3976 73.778 56.3826 72.763 55.1196 72.7184C55.075 71.4554 54.06 70.4404 52.797 70.3958C52.7516 69.1033 51.6932 68.0645 50.3901 68.0645C49.7539 68.0645 49.1313 68.3223 48.6815 68.7722L47.3206 70.1331C47.2393 70.2143 47.172 70.3066 47.1036 70.3981L44.7254 68.971L46.8102 61.6744L52.0368 60.5123C53.4079 60.2058 54.8535 60.2723 56.1905 60.7002L57.331 61.065L53.4646 62.9982C52.5811 63.4409 52.0323 64.3296 52.0323 65.3178V65.4709C52.0323 66.901 53.1958 68.0645 54.6259 68.0645C55.0958 68.0645 55.5581 67.9367 55.9599 67.6944L58.8427 65.9657C59.4219 65.6187 60.1991 65.6947 60.6992 66.1445L67.2405 72.0315C67.4156 72.1903 67.5161 72.4156 67.5161 72.6515C67.5161 73.1108 67.143 73.4839 66.6837 73.4839ZM81.4516 64.4892L68.4086 71.0112C68.3663 70.9662 68.3221 70.9235 68.2756 70.8819L61.7354 64.995C61.1623 64.4778 60.4214 64.1935 59.6494 64.1935C59.0851 64.1935 58.5309 64.347 58.0455 64.6381L55.1615 66.3676C54.9997 66.4651 54.8149 66.5161 54.6259 66.5161C54.049 66.5161 53.5806 66.0478 53.5806 65.4709V65.3178C53.5806 64.919 53.8022 64.5614 54.1583 64.3833L58.4768 62.224C59.2159 61.854 60.0932 61.7712 60.8897 62.0003L65.7549 63.3899L66.9332 63.4194L81.4516 55.778V64.4892Z" fill="black"/>
<defs>
	<filter id="filter0_dd" x="0.923828" y="0.9375" width="112.551" height="112.362" filterUnits="userSpaceOnUse" color-interpolation-filters="sRGB">
		<feFlood flood-opacity="0" result="BackgroundImageFix"/>
		<feColorMatrix in="SourceAlpha" type="matrix" values="0 0 0 0 0 0 0 0 0 0 0 0 0 0 0 0 0 0 127 0"/>
		<feOffset dx="4" dy="4"/>
		<feGaussianBlur stdDeviation="5"/>
		<feColorMatrix type="matrix" values="0 0 0 0 0 0 0 0 0 0 0 0 0 0 0 0 0 0 0.25 0"/>
		<feBlend mode="normal" in2="BackgroundImageFix" result="effect1_dropShadow"/>
		<feColorMatrix in="SourceAlpha" type="matrix" values="0 0 0 0 0 0 0 0 0 0 0 0 0 0 0 0 0 0 127 0"/>
		<feOffset dx="-4" dy="-4"/>
		<feGaussianBlur stdDeviation="5"/>
		<feColorMatrix type="matrix" values="0 0 0 0 1 0 0 0 0 1 0 0 0 0 1 0 0 0 1 0"/>
		<feBlend mode="normal" in2="effect1_dropShadow" result="effect2_dropShadow"/>
		<feBlend mode="normal" in="SourceGraphic" in2="effect2_dropShadow" result="shape"/>
	</filter>
	<linearGradient id="paint0_linear" x1="8.41987" y1="11.0439" x2="83.6891" y2="89.7341" gradientUnits="userSpaceOnUse">
		<stop offset="0.155195" stop-color="#F2F6FB"/>
		<stop offset="1" stop-color="white"/>
	</linearGradient>
</defs>
</svg>
