<svg width="93" height="93" viewBox="0 0 93 93" fill="none" xmlns="http://www.w3.org/2000/svg">
  <g opacity="0.65" filter="url(#filter0_dd)">
    <circle cx="46.5" cy="46.5" r="32.5" fill="url(#paint0_linear)"/>
  </g>
  <path d="M67.5531 44.6944C67.2636 44.2358 66.86 43.8975 66.3824 43.6886C66.4086 43.6426 66.4356 43.5973 66.4589 43.5493C66.7444 42.9643 66.7801 42.3078 66.5597 41.7017C66.3381 41.0897 65.8844 40.6011 65.2823 40.3258C64.6811 40.0508 63.9995 40.0211 63.363 40.2418C63.3592 40.2431 63.3553 40.2445 63.3515 40.2459L61.0302 41.0927C61.0418 40.7967 61.0001 40.4961 60.8958 40.2058C60.6763 39.6002 60.2279 39.1141 59.6333 38.8373C59.0275 38.5553 58.3403 38.5229 57.6983 38.7462C57.6947 38.7475 57.6912 38.7487 57.6877 38.75L53.3232 40.3418C53.328 40.0697 53.2833 39.7966 53.1876 39.5338C52.9797 38.957 52.5534 38.4935 51.9872 38.2288C51.4089 37.9585 50.7523 37.9265 50.1381 38.1392C50.1346 38.1404 50.1312 38.1416 50.1277 38.1429L42.0921 41.0582C41.7867 40.9475 41.5035 40.8326 41.2287 40.7203C39.4209 39.9824 38.0758 39.5732 34.6494 40.6882C34.4664 39.8176 33.677 39.1609 32.7336 39.1609L28.9529 39.1609C27.8761 39.1609 27 40.0191 27 41.0739L27 44.6446C27 45.0495 27.3355 45.3775 27.7493 45.3775C28.1631 45.3775 28.4986 45.0495 28.4986 44.6446L28.4986 41.0739C28.4986 40.8315 28.7066 40.6267 28.9529 40.6267L32.7336 40.6267C32.9856 40.6267 33.1907 40.8273 33.1907 41.0739L33.1907 51.8829C33.1907 52.1253 32.9814 52.3301 32.7336 52.3301L28.9529 52.3301C28.7066 52.3301 28.4986 52.1253 28.4986 51.8829L28.4986 48.0296C28.4986 47.6247 28.1631 47.2967 27.7493 47.2967C27.3355 47.2967 27 47.6247 27 48.0296L27 51.8829C27 52.9378 27.8761 53.796 28.9529 53.796L32.7336 53.796C33.6343 53.796 34.3927 53.1964 34.6188 52.3844C36.6779 52.4468 37.8375 52.6625 40.2929 53.3802L44.6249 54.646C45.4304 54.8824 46.5085 55.0001 47.5928 55C48.7256 55 49.8653 54.8717 50.7084 54.6164C52.9399 53.9425 56.5253 52.6048 57.8612 52.0714L66.5011 48.6311C67.1461 48.3748 67.628 47.8551 67.8579 47.1676C68.126 46.3659 68.0094 45.4184 67.5531 44.6944ZM59.7284 43.1321C59.7339 43.1302 59.7394 43.1282 59.7448 43.1262L63.869 41.6216C64.1306 41.5323 64.4069 41.5435 64.6477 41.6537C64.8833 41.7615 65.0607 41.9524 65.1476 42.192C65.2338 42.4293 65.2193 42.687 65.1066 42.9179C64.9937 43.1493 64.7969 43.3235 64.5527 43.4082C64.549 43.4095 64.5454 43.4107 64.5418 43.4121L54.1822 47.1807C54.1791 46.9717 54.1551 46.7604 54.1073 46.5502C54.0074 46.1101 53.8169 45.7148 53.5546 45.3846L59.7284 43.1321ZM58.2052 40.1257C58.4684 40.0355 58.7466 40.0478 58.9894 40.1609C59.2224 40.2692 59.3978 40.4592 59.4828 40.6937C59.6261 41.0923 59.4782 41.5408 59.1316 41.7854L51.9783 44.3951L49.1312 43.4352L58.2052 40.1257ZM50.6428 39.5194C50.8779 39.4394 51.1256 39.4507 51.341 39.5514C51.5457 39.647 51.6996 39.8139 51.775 40.0232C51.8516 40.2336 51.839 40.4618 51.7395 40.6661C51.6408 40.8684 51.4696 41.0204 51.2571 41.0953L46.9021 42.6836L44.3204 41.8132L50.6428 39.5194ZM66.4336 46.7118C66.3695 46.9034 66.2314 47.1562 65.9364 47.2733L57.2954 50.7142C55.9796 51.2395 52.4538 52.5553 50.2658 53.2161C48.8761 53.637 46.4416 53.6491 45.0548 53.2418L40.7219 51.9759C38.1513 51.2244 36.8697 50.988 34.6893 50.9202L34.6893 42.2246C38.1129 41.0388 39.1377 41.4552 40.6516 42.0732C41.021 42.224 51.7422 45.866 51.7422 45.866C52.0708 45.9756 52.3288 46.1686 52.4945 46.4708C52.6468 46.749 52.7093 47.0742 52.6768 47.3876C52.6345 47.7939 52.4238 48.1766 52.0719 48.4033C51.782 48.5901 51.4309 48.6627 51.0882 48.6736C50.5725 48.6899 50.0565 48.5773 49.5696 48.4197L43.4752 46.4529C43.0822 46.3261 42.6584 46.5349 42.5287 46.9193C42.3991 47.3036 42.6126 47.7181 43.0055 47.8449L49.0994 49.8116C49.8284 50.0474 50.4537 50.1393 50.9856 50.1393C52.1446 50.1393 52.86 49.703 53.2376 49.3693C53.382 49.2416 53.5111 49.1001 53.624 48.9476L64.327 45.054C65.0164 44.821 65.8661 44.8121 66.2777 45.4641C66.5052 45.825 66.5663 46.3148 66.4336 46.7118Z" fill="#2C323C"/>
  <defs>
    <filter id="filter0_dd" x="0" y="0" width="93" height="93" filterUnits="userSpaceOnUse" color-interpolation-filters="sRGB">
      <feFlood flood-opacity="0" result="BackgroundImageFix"/>
      <feColorMatrix in="SourceAlpha" type="matrix" values="0 0 0 0 0 0 0 0 0 0 0 0 0 0 0 0 0 0 127 0"/>
      <feOffset dx="4" dy="4"/>
      <feGaussianBlur stdDeviation="5"/>
      <feColorMatrix type="matrix" values="0 0 0 0 0 0 0 0 0 0 0 0 0 0 0 0 0 0 0.25 0"/>
      <feBlend mode="normal" in2="BackgroundImageFix" result="effect1_dropShadow"/>
      <feColorMatrix in="SourceAlpha" type="matrix" values="0 0 0 0 0 0 0 0 0 0 0 0 0 0 0 0 0 0 127 0"/>
      <feOffset dx="-4" dy="-4"/>
      <feGaussianBlur stdDeviation="5"/>
      <feColorMatrix type="matrix" values="0 0 0 0 1 0 0 0 0 1 0 0 0 0 1 0 0 0 1 0"/>
      <feBlend mode="normal" in2="effect1_dropShadow" result="effect2_dropShadow"/>
      <feBlend mode="normal" in="SourceGraphic" in2="effect2_dropShadow" result="shape"/>
    </filter>
    <linearGradient id="paint0_linear" x1="9" y1="11" x2="67" y2="71.5" gradientUnits="userSpaceOnUse">
      <stop offset="0.155195" stop-color="#F2F6FB"/>
      <stop offset="1" stop-color="white"/>
    </linearGradient>
  </defs>
</svg>
