<svg width="72" height="73" viewBox="0 0 72 73" fill="none" xmlns="http://www.w3.org/2000/svg">
	<g opacity="0.65" filter="url(#filter0_dd)">
		<circle cx="36.3348" cy="36.5548" r="21.6095" fill="url(#paint0_linear)"/>
	</g>
	<path d="M43.4686 27.9445C41.7788 28.0512 40.424 29.406 40.3172 31.0959C40.1887 33.1288 41.8672 34.8138 43.9059 34.6846C45.5957 34.5778 46.9505 33.223 47.0573 31.5332C47.1857 29.5006 45.5077 27.8153 43.4686 27.9445ZM46.2971 31.4851C46.2144 32.7931 45.1658 33.8417 43.8578 33.9244C42.2714 34.0236 40.9781 32.7154 41.0774 31.1439C41.16 29.8359 42.2087 28.7873 43.5166 28.7046C45.0946 28.6054 46.3968 29.906 46.2971 31.4851Z" fill="#2C323C"/>
	<path d="M49.5022 29.5184C48.9532 29.5163 48.6815 28.8558 49.0696 28.4676C49.3521 28.1852 49.5076 27.8098 49.5076 27.4104C49.5076 27.011 49.3521 26.6356 49.0696 26.3532L48.6296 25.9132C48.0486 25.3323 47.1265 25.3406 46.5305 25.9322C46.1408 26.3188 45.4816 26.044 45.4816 25.495C45.4816 24.6707 44.8109 24 43.9865 24H43.3884C42.564 24 41.8933 24.6707 41.8933 25.4951C41.8933 26.0445 41.2322 26.32 40.8425 25.9303C40.5602 25.6479 40.1847 25.4924 39.7854 25.4924C39.386 25.4924 39.0106 25.6479 38.7282 25.9303L38.3053 26.3532C38.1892 26.4694 38.0945 26.6021 38.0233 26.7461C37.4755 26.4098 36.8315 26.2155 36.143 26.2155H32.8177C32.0655 26.2155 31.3936 26.6924 31.1457 27.4023C31.1285 27.4516 31.0799 27.4847 31.0248 27.4847C30.0422 27.4847 29.2427 28.2842 29.2427 29.2669C29.2427 29.4772 29.4133 29.6477 29.6236 29.6477C29.8339 29.6477 30.0044 29.4772 30.0044 29.2669C30.0044 28.7042 30.4621 28.2465 31.0248 28.2465C31.4033 28.2465 31.7409 28.0082 31.8648 27.6535C32.0061 27.249 32.3889 26.9772 32.8176 26.9772H36.1429C37.7108 26.9772 38.9864 28.2528 38.9864 29.8206V31.8807C38.3966 32.0464 38.3178 32.2674 37.8676 32.291V30.5661C37.8676 29.6902 37.155 28.9776 36.2792 28.9776H36.2646C35.6124 28.9776 35.3461 29.249 34.5701 29.249H34.4209C33.6529 29.249 33.3733 28.9776 32.7263 28.9776H32.7118C31.8359 28.9776 31.1234 29.6902 31.1234 30.5661V32.0509C30.7628 31.8983 30.3225 31.8406 30.0046 31.8194V31.0688C30.0046 30.8585 29.834 30.688 29.6237 30.688C29.4134 30.688 29.2429 30.8585 29.2429 31.0688V31.9879C28.984 32.2029 28.8303 32.5226 28.8303 32.8681V33.7165C28.8303 34.3258 29.3081 34.8256 29.9087 34.861C30.0228 35.9648 30.5373 36.9762 31.3522 37.6778C31.4756 37.7841 31.6019 37.8827 31.7306 37.975V39.577C31.7306 39.7279 31.6176 39.8564 31.4676 39.8759C30.3521 40.0206 28.3137 40.3379 27.1953 40.8358C25.8617 41.4296 25 42.7565 25 44.2163V48.0034C24.9999 49.1056 25.8965 50.0022 26.9986 50.0022H41.9921C43.0942 50.0022 43.9908 49.1056 43.9908 48.0035V46.7173C43.9908 46.5069 43.8202 46.3364 43.6099 46.3364C43.3996 46.3364 43.2291 46.507 43.2291 46.7173V48.0035C43.2291 48.6856 42.6742 49.2405 41.9921 49.2405H41.0135V47.1636C41.0135 46.9532 40.843 46.7827 40.6327 46.7827C40.4224 46.7827 40.2519 46.9533 40.2519 47.1636V49.2405H36.2928L35.5899 44.0457L35.9466 43.5448C36.0392 43.5699 36.1341 43.5832 36.2291 43.5832C36.4811 43.5832 36.7323 43.495 36.9353 43.3208L38.6474 41.8512C38.9345 41.6047 39.0683 41.2418 39.015 40.8767C39.8932 41.0355 40.867 41.2562 41.4858 41.5317C42.5449 42.0032 43.2292 43.057 43.2292 44.2163V44.9374C43.2292 45.1478 43.3997 45.3183 43.61 45.3183C43.8204 45.3183 43.9909 45.1477 43.9909 44.9374V44.2163C43.9909 42.7565 43.1292 41.4296 41.7956 40.8358C40.6772 40.3379 38.6389 40.0207 37.5234 39.8759C37.3734 39.8564 37.2603 39.728 37.2603 39.577V37.975C37.389 37.8827 37.5153 37.7841 37.6387 37.6778C38.0146 37.3542 38.3255 36.9642 38.5637 36.5302L38.7282 36.6947C39.3125 37.2789 40.2583 37.279 40.8426 36.6947C41.2312 36.3061 41.8933 36.5788 41.8933 37.1299C41.8933 37.9543 42.564 38.625 43.3884 38.625H43.9866C44.811 38.625 45.4816 37.9543 45.4816 37.1299C45.4816 36.5802 46.143 36.3052 46.5324 36.6947C46.8148 36.9771 47.1902 37.1326 47.5896 37.1326C47.989 37.1326 48.3644 36.9771 48.6468 36.6947L49.0697 36.2718C49.6526 35.6888 49.6526 34.7403 49.0697 34.1574C48.6815 33.7693 48.9533 33.1087 49.5022 33.1067C50.3421 33.1035 51 32.4574 51 31.6358V30.9893C50.9999 30.1676 50.3421 29.5216 49.5022 29.5184ZM34.9959 43.5666H33.9949L33.703 43.1567L34.4954 42.5861L35.2878 43.1567L34.9959 43.5666ZM32.9505 42.7599C32.8292 42.8473 32.6652 42.8403 32.5517 42.7429L30.8395 41.2733C30.6934 41.1478 30.7263 40.9855 30.7399 40.9387C30.7533 40.8923 30.8116 40.74 30.9982 40.71C31.1579 40.6865 31.304 40.6661 31.4305 40.6492L33.8127 42.1391L32.9505 42.7599ZM25.7616 48.0035V44.2164C25.7616 43.0571 26.446 42.0033 27.505 41.5317C28.1239 41.2562 29.0976 41.0356 29.9758 40.8768C29.9225 41.2419 30.0563 41.6048 30.3434 41.8513L32.0556 43.3208C32.2586 43.4951 32.5097 43.5833 32.7617 43.5833C32.8566 43.5833 32.9515 43.5699 33.0442 43.5448L33.4008 44.0458L32.698 49.2405H28.7389V47.1636C28.7389 46.9533 28.5684 46.7828 28.3581 46.7828C28.1478 46.7828 27.9773 46.9533 27.9773 47.1636V49.2405H26.9986C26.3166 49.2405 25.7616 48.6855 25.7616 48.0035ZM33.4667 49.2405L34.1312 44.3284H34.8594L35.524 49.2405H33.4667ZM38.2509 40.9386C38.2644 40.9854 38.2973 41.1478 38.1512 41.2732L36.439 42.7428C36.3255 42.8402 36.1615 42.8472 36.0403 42.7598L35.1781 42.139L37.5602 40.6491C37.6868 40.666 37.8329 40.6864 37.9927 40.7099C38.1791 40.74 38.2374 40.8923 38.2509 40.9386ZM36.7481 40.2586L34.4954 41.6676L32.2426 40.2586C32.3985 40.0728 32.4922 39.8344 32.4922 39.577V38.425C33.7704 39.0308 35.2202 39.0308 36.4986 38.425V39.577C36.4986 39.8344 36.5923 40.0728 36.7481 40.2586ZM37.1417 37.1006C35.569 38.4548 33.422 38.455 31.8491 37.1006C31.1073 36.4619 30.6691 35.5045 30.647 34.474C30.6426 34.2669 30.4734 34.1013 30.2663 34.1013H29.9767C29.7645 34.1013 29.5919 33.9287 29.5919 33.7165V32.8681C29.5919 32.7508 29.6456 32.6427 29.7348 32.5704C30.173 32.5803 30.8122 32.6686 31.0016 32.8554C31.1513 33.0031 31.3732 33.0461 31.5669 32.9651C31.7602 32.8842 31.885 32.6965 31.885 32.4869V30.5661C31.885 30.1103 32.2559 29.7394 32.7117 29.7394C33.4121 29.7909 33.5757 30.0108 34.4208 30.0108H34.57C35.4442 30.0108 35.7748 29.7394 36.2646 29.7394H36.2791C36.735 29.7394 37.1058 30.1103 37.1058 30.5661V32.3478C37.1058 32.7373 37.4227 33.0543 37.8137 33.0543C38.5345 33.0543 38.7292 32.7194 39.2811 32.5919C39.3553 32.6633 39.3989 32.7621 39.3989 32.8682V33.7166C39.3989 33.9288 39.2263 34.1014 39.0141 34.1014H38.7245C38.5174 34.1014 38.3482 34.267 38.3438 34.4741C38.3216 35.5045 37.8835 36.4619 37.1417 37.1006ZM50.2382 31.6358C50.2382 32.0319 49.9136 32.3434 49.4993 32.345C48.274 32.3496 47.6654 33.8305 48.531 34.6961C48.8169 34.982 48.8169 35.4473 48.531 35.7332L48.1081 36.1562C47.9696 36.2947 47.7854 36.371 47.5895 36.371C47.3936 36.371 47.2095 36.2947 47.0709 36.1562C46.2036 35.2889 44.7199 35.9016 44.7199 37.13C44.7199 37.5344 44.3909 37.8634 43.9865 37.8634H43.3884C42.984 37.8634 42.655 37.5344 42.655 37.13C42.655 35.9032 41.1724 35.2877 40.3039 36.1562C40.0173 36.4428 39.5535 36.4428 39.2668 36.1562L38.8881 35.7775C38.9835 35.4828 39.0497 35.176 39.0822 34.8611C39.6828 34.8257 40.1606 34.326 40.1606 33.7166V32.8682C40.1606 32.5228 40.0069 32.2031 39.748 31.988V29.8208C39.748 28.8074 39.3271 27.8909 38.6516 27.2352C38.683 27.1059 38.7484 26.9874 38.8438 26.892L39.2668 26.469C39.4053 26.3305 39.5894 26.2542 39.7853 26.2542C39.9812 26.2542 40.1654 26.3305 40.3039 26.469C41.1712 27.3364 42.6549 26.7236 42.6549 25.4952C42.6549 25.0908 42.9839 24.7618 43.3883 24.7618H43.9864C44.3908 24.7618 44.7198 25.0908 44.7198 25.4952C44.7198 26.7209 46.1984 27.3349 47.0669 26.4729C47.361 26.1811 47.8108 26.1718 48.0908 26.4519L48.5309 26.892C48.6694 27.0305 48.7457 27.2146 48.7457 27.4105C48.7457 27.6064 48.6694 27.7906 48.5309 27.9291C47.6641 28.7958 48.2755 30.2755 49.4991 30.2801C49.9135 30.2817 50.2381 30.5932 50.2381 30.9893L50.2382 31.6358Z" fill="#2C323C"/>
	<defs>
		<filter id="filter0_dd" x="0.725281" y="0.945312" width="71.219" height="71.219" filterUnits="userSpaceOnUse" color-interpolation-filters="sRGB">
			<feFlood flood-opacity="0" result="BackgroundImageFix"/>
			<feColorMatrix in="SourceAlpha" type="matrix" values="0 0 0 0 0 0 0 0 0 0 0 0 0 0 0 0 0 0 127 0"/>
			<feOffset dx="4" dy="4"/>
			<feGaussianBlur stdDeviation="5"/>
			<feColorMatrix type="matrix" values="0 0 0 0 0 0 0 0 0 0 0 0 0 0 0 0 0 0 0.25 0"/>
			<feBlend mode="normal" in2="BackgroundImageFix" result="effect1_dropShadow"/>
			<feColorMatrix in="SourceAlpha" type="matrix" values="0 0 0 0 0 0 0 0 0 0 0 0 0 0 0 0 0 0 127 0"/>
			<feOffset dx="-4" dy="-4"/>
			<feGaussianBlur stdDeviation="5"/>
			<feColorMatrix type="matrix" values="0 0 0 0 1 0 0 0 0 1 0 0 0 0 1 0 0 0 1 0"/>
			<feBlend mode="normal" in2="effect1_dropShadow" result="effect2_dropShadow"/>
			<feBlend mode="normal" in="SourceGraphic" in2="effect2_dropShadow" result="shape"/>
		</filter>
		<linearGradient id="paint0_linear" x1="11.4007" y1="12.9506" x2="49.9654" y2="53.1775" gradientUnits="userSpaceOnUse">
			<stop offset="0.155195" stop-color="#F2F6FB"/>
			<stop offset="1" stop-color="white"/>
		</linearGradient>
	</defs>
</svg>
