<svg width="93" height="93" viewBox="0 0 93 93" fill="none" xmlns="http://www.w3.org/2000/svg">
  <g opacity="0.65" filter="url(#filter0_dd)">
    <circle cx="46.5" cy="46.5" r="32.5" fill="url(#paint0_linear)"/>
  </g>
  <path d="M66.7491 43.1962L65.7071 41.4493C65.4914 41.0877 65.014 40.9637 64.64 41.1725C64.2663 41.3813 64.1383 41.8438 64.3541 42.2055L65.396 43.9524C65.451 44.0445 65.4387 44.1322 65.4265 44.1763C65.4143 44.2204 65.3796 44.3024 65.2844 44.3555L62.5292 45.8953C62.3834 45.9765 62.1967 45.928 62.1126 45.7872L56.5698 36.4946C56.4858 36.3537 56.5358 36.1728 56.6815 36.0913L59.4366 34.5516C59.5822 34.4704 59.7693 34.5187 59.8532 34.6596L60.8385 36.3115C61.0543 36.6733 61.5321 36.7972 61.9057 36.5883C62.2794 36.3795 62.4074 35.917 62.1916 35.5553L61.2063 33.9034C60.6916 33.0404 59.5474 32.7434 58.6555 33.2418L55.9002 34.7816C55.4817 35.0156 55.1921 35.3838 55.0557 35.7979H47.245C46.1484 35.7979 45.1174 36.2112 44.3419 36.9618L43.5416 37.7364C42.8399 37.5745 42.121 37.4913 41.3981 37.4913H38.9729C38.8517 37.0382 38.5507 36.6305 38.0999 36.3785L35.3447 34.8388C34.9127 34.5973 34.4092 34.5333 33.9276 34.6582C33.4458 34.7831 33.0431 35.0823 32.7937 35.5004L27.251 44.7931C27.0017 45.2112 26.9353 45.6983 27.0644 46.1647C27.1934 46.6312 27.5025 47.0209 27.9345 47.2623L30.6897 48.8021C30.9831 48.966 31.3036 49.0439 31.6203 49.0439C31.7357 49.0439 31.8504 49.0331 31.9632 49.0128L34.2183 51.1957C34.1838 51.3673 34.1659 51.5433 34.1659 51.722C34.1659 52.4487 34.4582 53.1319 34.9891 53.6457C35.4973 54.1376 36.1534 54.401 36.8202 54.4366C36.81 54.5314 36.8044 54.6271 36.8044 54.7238C36.8044 55.4505 37.0967 56.1336 37.6276 56.6474C38.1584 57.1612 38.8642 57.4442 39.6149 57.4442C39.6353 57.4442 39.6554 57.4432 39.6757 57.4428C39.6753 57.4624 39.6742 57.4819 39.6742 57.5017C39.6742 58.2284 39.9666 58.9115 40.4974 59.4253C41.0283 59.9391 41.734 60.2221 42.4847 60.2221C42.5051 60.2221 42.5253 60.2211 42.5456 60.2207C42.5451 60.2403 42.5441 60.2598 42.5441 60.2796C42.5441 61.0062 42.8364 61.6894 43.3673 62.2032C43.8981 62.717 44.6039 63 45.3545 63C46.1052 63 46.8111 62.717 47.3418 62.2032L48.4532 61.1275C48.7791 60.8121 49.0072 60.4376 49.1393 60.0396C49.633 60.3922 50.2197 60.5687 50.8066 60.5686C51.5262 60.5685 52.2461 60.3034 52.7939 59.7731C53.1217 59.4558 53.3582 59.0738 53.4915 58.6571C53.9437 58.9433 54.472 59.0973 55.025 59.0973C55.7756 59.0973 56.4815 58.8143 57.0122 58.3004C57.4067 57.9186 57.6692 57.4432 57.7782 56.926C58.0603 57.0164 58.3584 57.0641 58.6643 57.0641C59.415 57.0641 60.1209 56.7812 60.6517 56.2673C61.7474 55.2065 61.7474 53.4807 60.6517 52.4199L58.8283 50.655L62.1565 47.4333C62.2304 47.4419 62.3049 47.4467 62.3797 47.4467C62.6963 47.4467 63.0169 47.3688 63.3102 47.205L66.0654 45.6653C66.4973 45.4238 66.8064 45.0341 66.9355 44.5676C67.0647 44.1012 66.9984 43.6143 66.7491 43.1962ZM28.7157 45.9525C28.6205 45.8994 28.5858 45.8175 28.5736 45.7733C28.5615 45.7292 28.5492 45.6415 28.6042 45.5493L34.1469 36.2566C34.2018 36.1645 34.2865 36.1309 34.3321 36.1191C34.3515 36.1141 34.3792 36.109 34.4118 36.109C34.4558 36.109 34.5089 36.1182 34.5634 36.1486L37.3186 37.6883C37.4642 37.7697 37.5143 37.9506 37.4302 38.0916L31.8875 47.3843C31.8034 47.5251 31.6167 47.5737 31.471 47.4923L28.7157 45.9525ZM35.7283 51.722C35.7283 51.3992 35.8582 51.0959 36.094 50.8677L36.7682 50.2151C37.0114 49.9795 37.331 49.8618 37.6507 49.8618C37.9702 49.8618 38.2899 49.9796 38.5332 50.2151C38.769 50.4433 38.8988 50.7466 38.8988 51.0693C38.8988 51.392 38.769 51.6954 38.5332 51.9235L37.859 52.5761C37.3724 53.0472 36.5806 53.0471 36.094 52.5761C35.8582 52.348 35.7283 52.0446 35.7283 51.722ZM39.6149 55.9318C39.2815 55.9318 38.9682 55.8061 38.7325 55.578C38.4967 55.3498 38.3669 55.0464 38.3669 54.7238C38.3669 54.4011 38.4967 54.0977 38.7325 53.8696L39.8438 52.7939C40.087 52.5584 40.4066 52.4407 40.7262 52.4407C41.0459 52.4407 41.3655 52.5584 41.6088 52.7939C41.8446 53.022 41.9744 53.3254 41.9744 53.6481C41.9744 53.9708 41.8446 54.2741 41.6088 54.5023L40.4975 55.578C40.2617 55.8062 39.9483 55.9318 39.6149 55.9318ZM42.4848 58.7098C42.1514 58.7098 41.838 58.5841 41.6023 58.356C41.3665 58.1278 41.2367 57.8244 41.2367 57.5017C41.2367 57.1791 41.3665 56.8757 41.6023 56.6475L42.7136 55.5718C42.9569 55.3363 43.2765 55.2186 43.5961 55.2186C43.9157 55.2186 44.2354 55.3363 44.4786 55.5719C44.7144 55.8 44.8442 56.1034 44.8442 56.4261C44.8442 56.7487 44.7144 57.0521 44.4786 57.2803L43.3673 58.356C43.1316 58.5841 42.8182 58.7098 42.4848 58.7098ZM47.3485 60.0582L46.2371 61.1339C46.0014 61.3621 45.688 61.4878 45.3546 61.4878C45.0212 61.4878 44.7078 61.3621 44.4721 61.1339C44.2364 60.9057 44.1065 60.6024 44.1065 60.2797C44.1065 59.957 44.2364 59.6537 44.4721 59.4254L45.5834 58.3498C45.8267 58.1142 46.1463 57.9965 46.466 57.9965C46.7855 57.9965 47.1052 58.1143 47.3485 58.3497C47.8351 58.8206 47.8351 59.5871 47.3485 60.0582ZM59.547 55.198C59.3112 55.4262 58.9979 55.5519 58.6645 55.5519C58.3311 55.5519 58.0178 55.4262 57.782 55.198L50.3252 47.9801C50.0201 47.6848 49.5256 47.6848 49.2203 47.9801C48.9152 48.2754 48.9152 48.7542 49.2203 49.0495L55.9076 55.5226C56.1434 55.7508 56.2732 56.0542 56.2732 56.3768C56.2732 56.6995 56.1434 57.0029 55.9076 57.2311C55.6719 57.4593 55.3585 57.5849 55.0251 57.5849C54.6917 57.5849 54.3783 57.4593 54.1426 57.2311L46.1069 49.4528C45.8018 49.1575 45.3071 49.1575 45.002 49.4528C44.6969 49.7481 44.6969 50.2269 45.002 50.5222L51.6893 56.9953C51.9251 57.2235 52.0549 57.5269 52.0549 57.8495C52.0549 58.1722 51.9251 58.4756 51.6893 58.7037C51.2027 59.1748 50.411 59.1749 49.9242 58.7037L48.4535 57.2801C48.4515 57.2781 48.4492 57.2765 48.4472 57.2746C47.8845 56.7332 47.1424 56.4709 46.4052 56.4863C46.4057 56.4662 46.4067 56.4462 46.4067 56.4261C46.4067 55.6994 46.1144 55.0162 45.5835 54.5024C45.0202 53.9571 44.2752 53.6929 43.5353 53.7083C43.5358 53.6882 43.5368 53.6683 43.5368 53.6482C43.5368 52.9215 43.2444 52.2383 42.7136 51.7245C42.0975 51.1281 41.2642 50.8672 40.458 50.9413C40.4257 50.2628 40.1375 49.6293 39.638 49.1458C38.5422 48.085 36.7591 48.0853 35.6633 49.1458L34.9891 49.7983C34.9883 49.7991 34.9875 49.7999 34.9867 49.8007L33.2519 48.1215L38.6903 39.0037H41.398C41.6633 39.0037 41.9279 39.0173 42.191 39.0438L41.298 39.9082C40.7672 40.422 40.4748 41.1052 40.4748 41.8319C40.4748 42.5586 40.7672 43.2417 41.298 43.7556C41.846 44.2859 42.5657 44.5511 43.2853 44.5511C44.0051 44.5511 44.7248 44.286 45.2727 43.7556L47.3817 41.7141L59.5469 53.4896C60.0336 53.9605 60.0336 54.727 59.547 55.198ZM52.0411 44.0853C53.178 43.2888 53.8748 42.0036 53.8748 40.6073C53.8748 40.1896 53.525 39.8511 53.0936 39.8511C52.6622 39.8511 52.3124 40.1896 52.3124 40.6073C52.3124 41.5951 51.7733 42.4961 50.9133 42.9936L47.9377 40.1134C47.6326 39.8181 47.1388 39.8104 46.8336 40.1057L44.1679 42.6861C43.6812 43.1571 42.8895 43.157 42.4028 42.6861C42.1671 42.4579 42.0372 42.1545 42.0372 41.8319C42.0372 41.5092 42.1671 41.2058 42.4028 40.9776L45.4467 38.0312C45.927 37.5663 46.5657 37.3102 47.245 37.3102H55.2522L60.7595 46.5436C60.7725 46.5654 60.7867 46.5862 60.8006 46.6073L57.7236 49.5857L52.0411 44.0853Z" fill="#2C323C"/>
  <path d="M63.2715 39.6374C63.4769 39.6374 63.6777 39.5565 63.8238 39.4159C63.9691 39.2745 64.0527 39.0801 64.0527 38.8812C64.0527 38.6816 63.9691 38.4872 63.8238 38.3458C63.6777 38.2052 63.4769 38.125 63.2715 38.125C63.0652 38.125 62.8645 38.2052 62.7191 38.3458C62.573 38.4872 62.4902 38.6816 62.4902 38.8812C62.4902 39.0801 62.573 39.2745 62.7191 39.4159C62.8645 39.5566 63.0652 39.6374 63.2715 39.6374Z" fill="#2C323C"/>
  <defs>
    <filter id="filter0_dd" x="0" y="0" width="93" height="93" filterUnits="userSpaceOnUse" color-interpolation-filters="sRGB">
      <feFlood flood-opacity="0" result="BackgroundImageFix"/>
      <feColorMatrix in="SourceAlpha" type="matrix" values="0 0 0 0 0 0 0 0 0 0 0 0 0 0 0 0 0 0 127 0"/>
      <feOffset dx="4" dy="4"/>
      <feGaussianBlur stdDeviation="5"/>
      <feColorMatrix type="matrix" values="0 0 0 0 0 0 0 0 0 0 0 0 0 0 0 0 0 0 0.25 0"/>
      <feBlend mode="normal" in2="BackgroundImageFix" result="effect1_dropShadow"/>
      <feColorMatrix in="SourceAlpha" type="matrix" values="0 0 0 0 0 0 0 0 0 0 0 0 0 0 0 0 0 0 127 0"/>
      <feOffset dx="-4" dy="-4"/>
      <feGaussianBlur stdDeviation="5"/>
      <feColorMatrix type="matrix" values="0 0 0 0 1 0 0 0 0 1 0 0 0 0 1 0 0 0 1 0"/>
      <feBlend mode="normal" in2="effect1_dropShadow" result="effect2_dropShadow"/>
      <feBlend mode="normal" in="SourceGraphic" in2="effect2_dropShadow" result="shape"/>
    </filter>
    <linearGradient id="paint0_linear" x1="9" y1="11" x2="67" y2="71.5" gradientUnits="userSpaceOnUse">
      <stop offset="0.155195" stop-color="#F2F6FB"/>
      <stop offset="1" stop-color="white"/>
    </linearGradient>
  </defs>
</svg>
