<svg width="72" height="73" viewBox="0 0 72 73" fill="none" xmlns="http://www.w3.org/2000/svg">
	<g opacity="0.65" filter="url(#filter0_dd)">
		<ellipse cx="36.3355" cy="36.4633" rx="21.6095" ry="21.561" fill="url(#paint0_linear)"/>
	</g>
	<path d="M37.3947 40.7008C41.6494 40.7008 45.2166 37.5171 45.6922 33.2951C45.7154 33.0899 45.5678 32.9048 45.3626 32.8817C45.1576 32.8586 44.9723 33.0062 44.9492 33.2114C44.7916 34.6104 44.2608 35.8838 43.4629 36.9382C43.1863 36.5268 42.7966 36.1953 42.3396 35.9941C41.5638 35.6526 40.1639 35.4405 39.3986 35.3445C39.3535 35.3389 39.3194 35.3005 39.3192 35.2553L39.3149 34.2238C39.3884 34.1688 39.4608 34.111 39.5317 34.0494C40.0836 33.5701 40.4384 32.8901 40.5342 32.1456C40.7161 32.1144 40.8835 32.0276 41.0161 31.8939C41.1844 31.7242 41.2766 31.4991 41.2755 31.2602L41.2731 30.6829C41.272 30.4322 41.1673 30.1992 40.9897 30.0335L40.9837 28.611C40.9778 27.2126 39.8461 26.0544 38.4166 26.0544C38.4129 26.0544 38.4091 26.0544 38.4055 26.0544L36.1433 26.0639C35.5902 26.0662 35.0969 26.4144 34.9086 26.9327C34.1854 26.9459 33.6027 27.5398 33.6057 28.2653L33.6133 30.0645C33.437 30.2318 33.3343 30.4657 33.3354 30.7164L33.3379 31.2936C33.3398 31.7426 33.6692 32.1047 34.0867 32.1729C34.1887 32.9164 34.5492 33.5935 35.1052 34.0681C35.1766 34.1291 35.2495 34.1863 35.3234 34.2406L35.3278 35.2722C35.328 35.3174 35.2942 35.3561 35.2492 35.3621C34.4845 35.4646 33.0864 35.6885 32.3137 36.0364C31.9014 36.2221 31.5481 36.5087 31.2826 36.8665C30.3465 35.6029 29.792 34.0403 29.792 32.3505C29.792 28.1584 33.2026 24.7478 37.3947 24.7478C41.2785 24.7478 44.5474 27.6818 44.955 31.5424C44.9767 31.7477 45.1606 31.8959 45.3661 31.8749C45.5714 31.8532 45.7203 31.6692 45.6986 31.4638C45.252 27.2348 41.6733 24 37.3947 24C32.7903 24 29.0443 27.746 29.0443 32.3504C29.0443 36.9558 32.7918 40.7008 37.3947 40.7008ZM36.7514 39.9256L36.9904 38.8959L37.6858 38.893L37.9368 39.934C37.5345 39.9624 37.1448 39.9587 36.7514 39.9256ZM37.7559 38.1449L36.9147 38.1485L36.6924 37.7408L37.3321 37.4114L37.9748 37.737L37.7559 38.1449ZM36.0728 34.6612C36.463 34.819 36.8788 34.9007 37.3178 34.9038H37.3204C37.3223 34.9038 37.3242 34.9038 37.3261 34.9037C37.765 34.897 38.1802 34.8117 38.5689 34.6507L38.5715 35.2584C38.5721 35.415 38.6165 35.5627 38.6935 35.689L37.3289 36.5505L35.9571 35.7005C36.0329 35.5735 36.0761 35.4255 36.0755 35.2689L36.0728 34.6612ZM42.0384 36.6784C42.4327 36.8519 42.7572 37.1612 42.9538 37.543C41.8406 38.7335 40.3509 39.5595 38.6842 39.8439L38.3769 38.5689L38.6708 38.021C38.7283 38.0295 38.786 38.0342 38.8436 38.0342C39.1724 38.0342 39.4963 37.8976 39.7264 37.6412L40.89 36.3455C41.3219 36.4366 41.742 36.548 42.0384 36.6784ZM39.4378 36.1034C39.6 36.1248 39.8029 36.1532 40.0262 36.1884L39.1702 37.1418C39.0397 37.287 38.8281 37.3277 38.6532 37.2424C38.6529 37.2422 38.6527 37.2421 38.6524 37.2419C38.6492 37.2403 38.6459 37.2389 38.6427 37.2373L38.0875 36.9559L39.4378 36.1034ZM34.9304 27.6801C35.2367 27.6788 35.509 27.4846 35.6081 27.1969C35.6871 26.9674 35.9035 26.8125 36.1464 26.8115L38.4085 26.802H38.4165C39.4181 26.802 40.2317 27.6103 40.2359 28.614L40.2414 29.8986C40.0797 29.9394 39.8907 30.0141 39.7217 30.1501C39.7181 30.1501 39.7145 30.15 39.7108 30.1499L39.7065 29.1233C39.7037 28.4772 39.1828 27.9315 38.5058 27.933L38.4963 27.9331C38.045 27.9348 37.8401 28.1205 37.3441 28.1225L37.2426 28.1229C37.2401 28.1229 37.2378 28.1229 37.2353 28.1229C36.7227 28.1229 36.5778 27.9457 36.0887 27.9432L36.0791 27.9432C35.42 27.946 34.886 28.4845 34.8888 29.1437L34.8924 29.99C34.7132 29.9355 34.524 29.9068 34.3603 29.892L34.3534 28.2621C34.352 27.9425 34.6109 27.6814 34.9304 27.6801ZM34.8054 31.8001C34.8001 31.5974 34.6343 31.4359 34.4317 31.4359C34.4311 31.4359 34.4306 31.4359 34.4301 31.4359L34.2331 31.4367C34.2329 31.4367 34.2327 31.4367 34.2325 31.4367C34.1517 31.4367 34.0858 31.3712 34.0854 31.2903L34.083 30.7131C34.0829 30.678 34.0947 30.649 34.1115 30.6264C34.4089 30.6365 34.7614 30.6993 34.847 30.783C35.1425 31.072 35.6437 30.8634 35.642 30.4472L35.6364 29.1406C35.6354 28.8937 35.8354 28.692 36.0824 28.691L36.0921 28.691C36.4099 28.6924 36.6476 28.8758 37.2457 28.8707L37.3472 28.8703C37.9554 28.8678 38.1912 28.6821 38.4995 28.6809L38.5091 28.6808H38.5111C38.6299 28.6808 38.7418 28.7268 38.8262 28.8106C38.9112 28.8948 38.9582 29.007 38.9587 29.1265L38.9642 30.4332C38.9662 30.9631 39.9202 30.9983 40.1592 30.7606C40.2531 30.6672 40.3968 30.6247 40.5017 30.6075C40.5156 30.6288 40.5252 30.655 40.5253 30.6861L40.5278 31.2632C40.5287 31.4737 40.2375 31.3969 40.1843 31.4117C39.981 31.4126 39.8156 31.5758 39.8121 31.7791C39.8006 32.4477 39.5197 33.0694 39.0413 33.4848C38.5451 33.9158 37.9638 34.1453 37.3188 34.1562C36.6629 34.1507 36.0818 33.9187 35.5905 33.4994C35.1087 33.0879 34.8225 32.4686 34.8054 31.8001ZM35.2162 36.1212L36.5725 36.9615L36.0197 37.2462C36.0165 37.2477 36.0131 37.2493 36.0105 37.2506C36.0103 37.2507 36.0102 37.2508 36.0101 37.2509C35.8363 37.3371 35.6246 37.2983 35.4932 37.1547L34.6294 36.211C34.8521 36.174 35.0544 36.1438 35.2162 36.1212ZM32.6206 36.7182C32.9158 36.5852 33.3351 36.4703 33.7663 36.3756L34.9415 37.6596C35.1714 37.9107 35.4919 38.0439 35.817 38.0439C35.8775 38.0439 35.938 38.0388 35.9982 38.0295L36.2968 38.5773L36.007 39.8257C34.3462 39.5182 32.873 38.6693 31.7783 37.4692C31.9752 37.1396 32.2676 36.877 32.6206 36.7182Z" fill="#2C323C"/>
	<path d="M46.4957 42.2631L40.7453 44.795L40.7455 44.7776C40.7457 44.7638 40.7451 44.7498 40.7437 44.736C40.6431 43.7244 39.8698 42.9183 38.8632 42.7759C38.86 42.7754 38.8568 42.7751 38.8536 42.7747L35.0302 42.3344C33.2895 42.0863 32.5086 40.5212 29.4236 40.5212H29.1853V40.1345C29.1853 39.5649 28.7219 39.1016 28.1524 39.1016H27.0329C26.4633 39.1016 26 39.5649 26 40.1345V47.2834C26 47.853 26.4633 48.3164 27.0329 48.3164H28.1524C28.7015 48.3164 29.1506 47.8853 29.1822 47.3439C32.7065 48.585 33.1542 48.9995 34.3833 48.9995H39.5403C40.3308 48.9995 41.1017 48.7768 41.7703 48.3554L48.2192 44.717C48.6669 44.4639 49.0684 43.4887 48.529 42.6961C48.0805 42.0367 47.3207 41.875 46.4957 42.2631ZM47.8136 44.0873L41.3947 47.7087C41.3892 47.7118 41.3837 47.7151 41.3783 47.7185C40.8277 48.0674 40.1922 48.2518 39.5404 48.2518H34.3833C33.3521 48.2518 33.0529 47.9242 29.1853 46.5472V43.8357C29.1853 43.6292 29.0179 43.4618 28.8114 43.4618C28.6049 43.4618 28.4375 43.6292 28.4375 43.8357V47.2834C28.4375 47.4407 28.3096 47.5686 28.1524 47.5686H27.0329C26.8757 47.5686 26.7477 47.4407 26.7477 47.2834V40.1345C26.7477 39.9772 26.8757 39.8493 27.0329 39.8493H28.1524C28.3096 39.8493 28.4375 39.9772 28.4375 40.1345V42.0879C28.4375 42.2944 28.6049 42.4618 28.8114 42.4618C29.0179 42.4618 29.1853 42.2944 29.1853 42.0879V41.269H29.4236C32.3494 41.269 32.8955 42.7875 34.9301 43.0754C34.9333 43.0759 34.9366 43.0763 34.9397 43.0767L38.763 43.5169C39.4187 43.6117 39.9234 44.1334 39.9976 44.7904L39.995 44.9974H37.3451C36.7321 44.9974 36.1138 44.9525 35.5075 44.8639L34.8457 44.7673C34.6416 44.7376 34.4516 44.8789 34.4218 45.0832C34.3919 45.2875 34.5333 45.4774 34.7376 45.5071L35.3994 45.6038C36.0414 45.6976 36.6961 45.7451 37.3451 45.7451H40.3643C40.412 45.7451 40.4663 45.7346 40.5136 45.7139C40.5499 45.6981 46.7964 42.9477 46.8016 42.9454C47.2382 42.7514 47.6399 42.7184 47.9109 43.1166C48.1182 43.4214 48.0749 43.8322 47.8136 44.0873Z" fill="#2C323C"/>
	<defs>
		<filter id="filter0_dd" x="0.726013" y="0.902344" width="71.219" height="71.122" filterUnits="userSpaceOnUse" color-interpolation-filters="sRGB">
			<feFlood flood-opacity="0" result="BackgroundImageFix"/>
			<feColorMatrix in="SourceAlpha" type="matrix" values="0 0 0 0 0 0 0 0 0 0 0 0 0 0 0 0 0 0 127 0"/>
			<feOffset dx="4" dy="4"/>
			<feGaussianBlur stdDeviation="5"/>
			<feColorMatrix type="matrix" values="0 0 0 0 0 0 0 0 0 0 0 0 0 0 0 0 0 0 0.25 0"/>
			<feBlend mode="normal" in2="BackgroundImageFix" result="effect1_dropShadow"/>
			<feColorMatrix in="SourceAlpha" type="matrix" values="0 0 0 0 0 0 0 0 0 0 0 0 0 0 0 0 0 0 127 0"/>
			<feOffset dx="-4" dy="-4"/>
			<feGaussianBlur stdDeviation="5"/>
			<feColorMatrix type="matrix" values="0 0 0 0 1 0 0 0 0 1 0 0 0 0 1 0 0 0 1 0"/>
			<feBlend mode="normal" in2="effect1_dropShadow" result="effect2_dropShadow"/>
			<feBlend mode="normal" in="SourceGraphic" in2="effect2_dropShadow" result="shape"/>
		</filter>
		<linearGradient id="paint0_linear" x1="11.4015" y1="12.9121" x2="49.8758" y2="53.1351" gradientUnits="userSpaceOnUse">
			<stop offset="0.155195" stop-color="#F2F6FB"/>
			<stop offset="1" stop-color="white"/>
		</linearGradient>
	</defs>
</svg>
