<?xml version="1.0" encoding="utf-8"?>
<!-- Generator: Adobe Illustrator 25.2.1, SVG Export Plug-In . SVG Version: 6.00 Build 0)  -->
<svg version="1.1" id="Capa_1" xmlns="http://www.w3.org/2000/svg" xmlns:xlink="http://www.w3.org/1999/xlink" x="0px" y="0px"
	 viewBox="0 0 46.36 46.36" style="enable-background:new 0 0 46.36 46.36;" xml:space="preserve">
<style type="text/css">
	.st0{fill:#F6F7F9;}
	.st1{fill:#6E6E6E;}
	.st2{fill:#FFFFFF;}
	.st3{fill:#DCDCDC;}
	.st4{fill:url(#Trazado_26198_4_);}
	.st5{fill:url(#Trazado_26199_4_);}
	.st6{fill:url(#Trazado_26200_4_);}
	.st7{fill:url(#Trazado_26201_4_);}
	.st8{fill:url(#Trazado_26202_4_);}
	.st9{fill:url(#Trazado_26203_4_);}
	.st10{fill:url(#Trazado_26204_4_);}
	.st11{fill:url(#Trazado_26205_4_);}
	.st12{fill:url(#Trazado_26206_4_);}
	.st13{fill:url(#Trazado_26207_4_);}
	.st14{fill:url(#Trazado_26208_4_);}
	.st15{fill:url(#Trazado_26209_4_);}
	.st16{fill:url(#Trazado_26210_4_);}
	.st17{fill:url(#Trazado_26211_4_);}
	.st18{fill:url(#Trazado_26212_4_);}
	.st19{fill:url(#Trazado_26213_4_);}
	.st20{fill:url(#Trazado_26214_4_);}
	.st21{fill:url(#Trazado_26215_4_);}
	.st22{fill:url(#Trazado_24566_8_);}
	.st23{fill:url(#Trazado_24567_8_);}
	.st24{fill:url(#Trazado_24568_8_);}
	.st25{fill:url(#Trazado_24569_8_);}
	.st26{fill:url(#Trazado_24570_8_);}
	.st27{fill:url(#Trazado_24571_8_);}
	.st28{fill:url(#Trazado_24572_8_);}
	.st29{fill:url(#Trazado_26216_4_);}
	.st30{fill:url(#Trazado_26217_4_);}
	.st31{fill:url(#Trazado_26218_4_);}
	.st32{fill:url(#Trazado_26336_1_);}
	.st33{fill:url(#Unión_52_1_);}
	.st34{fill:url(#Trazado_904_4_);}
	.st35{fill:url(#Trazado_905_4_);}
	.st36{fill:url(#Trazado_906_4_);}
	.st37{fill:url(#Trazado_24631_4_);}
	.st38{fill:url(#Trazado_24632_4_);}
	.st39{fill:url(#Trazado_24633_4_);}
	.st40{fill:url(#Trazado_24634_4_);}
	.st41{fill:url(#Trazado_24635_4_);}
	.st42{fill:url(#Trazado_24636_4_);}
	.st43{fill:url(#Trazado_24637_4_);}
	.st44{fill:url(#Trazado_24638_4_);}
	.st45{fill:url(#Trazado_24639_4_);}
	.st46{fill:url(#Trazado_24640_4_);}
	.st47{fill:url(#Trazado_884_3_);}
	.st48{fill:url(#Trazado_24616_3_);}
	.st49{fill:url(#Trazado_24617_3_);}
	.st50{fill:url(#Trazado_24618_3_);}
	.st51{fill:url(#Trazado_24619_3_);}
	.st52{fill:url(#Trazado_24620_3_);}
	.st53{fill:url(#Trazado_24621_3_);}
	.st54{fill:url(#Trazado_24622_3_);}
	.st55{fill:none;stroke:#CCCCCC;}
	.st56{fill:url(#Trazado_904-2_2_);}
	.st57{fill:url(#Trazado_905-2_2_);}
	.st58{fill:url(#Trazado_906-2_2_);}
	.st59{fill:url(#Trazado_24631-2_2_);}
	.st60{fill:url(#Trazado_24632-2_2_);}
	.st61{fill:url(#Trazado_24633-2_2_);}
	.st62{fill:url(#Trazado_24634-2_2_);}
	.st63{fill:url(#Trazado_24635-2_2_);}
	.st64{fill:url(#Trazado_24636-2_2_);}
	.st65{fill:url(#Trazado_24637-2_2_);}
	.st66{fill:url(#Trazado_24638-2_2_);}
	.st67{fill:url(#Trazado_24639-2_2_);}
	.st68{fill:url(#Trazado_24640-2_2_);}
	.st69{fill:url(#Trazado_884-2_1_);}
	.st70{fill:url(#Trazado_24616-2_1_);}
	.st71{fill:url(#Trazado_24617-2_1_);}
	.st72{fill:url(#Trazado_24618-2_1_);}
	.st73{fill:url(#Trazado_24619-2_1_);}
	.st74{fill:url(#Trazado_24620-2_1_);}
	.st75{fill:url(#Trazado_24621-2_1_);}
	.st76{fill:url(#Trazado_24622-2_1_);}
	.st77{fill:url(#Trazado_26355_1_);}
	.st78{opacity:0.2;fill:#26F70F;}
	.st79{fill:#F90D0D;}
	.st80{fill:none;stroke:#F90D0D;stroke-miterlimit:10;}
	.st81{fill:none;stroke:#FF2929;stroke-miterlimit:10;}
	.st82{opacity:0.2;}
	.st83{fill:#FF2929;}
	.st84{opacity:0.2;fill:#FF2929;}
	.st85{fill:#3366CC;}
	.st86{fill:none;stroke:#FFFFFF;}
	.st87{fill:#0070BA;}
	.st88{fill:#E3134D;}
	.st89{fill:#FEC20A;}
	.st90{fill:#70AF3D;}
	.st91{fill:#9B156E;}
	.st92{fill:#FBD015;}
	.st93{fill:#05569E;}
	.st94{fill:#D11F3E;}
	.st95{fill:none;}
	.st96{fill-rule:evenodd;clip-rule:evenodd;fill:#3366CC;}
	.st97{fill:none;stroke:#707070;}
	.st98{stroke:#FF2929;stroke-width:4;stroke-miterlimit:10;}
	.st99{fill:none;stroke:#FF2929;stroke-width:4;stroke-miterlimit:10;}
	.st100{fill:none;stroke:#000000;stroke-miterlimit:10;}
	.st101{fill:#41D78C;}
	.st102{fill:url(#Trazado_24869_3_);}
	.st103{fill:url(#Trazado_26191_3_);}
	.st104{fill:url(#Trazado_26192_3_);}
	.st105{fill:url(#Trazado_26193_3_);}
	.st106{fill:url(#Trazado_26194_3_);}
	.st107{fill:url(#Trazado_26195_3_);}
	.st108{fill:url(#Trazado_26196_3_);}
	.st109{fill:url(#Trazado_26197_3_);}
	.st110{fill:url(#Trazado_26198_5_);}
	.st111{fill:url(#Trazado_26199_5_);}
	.st112{fill:url(#Trazado_26200_5_);}
	.st113{fill:url(#Trazado_26201_5_);}
	.st114{fill:url(#Trazado_26202_5_);}
	.st115{fill:url(#Trazado_26203_5_);}
	.st116{fill:url(#Trazado_26204_5_);}
	.st117{fill:url(#Trazado_26205_5_);}
	.st118{fill:url(#Trazado_26206_5_);}
	.st119{fill:url(#Trazado_26207_5_);}
	.st120{fill:url(#Trazado_26208_5_);}
	.st121{fill:url(#Trazado_26209_5_);}
	.st122{fill:url(#Trazado_26210_5_);}
	.st123{fill:url(#Trazado_26211_5_);}
	.st124{fill:url(#Trazado_26212_5_);}
	.st125{fill:url(#Trazado_26213_5_);}
	.st126{fill:url(#Trazado_26214_5_);}
	.st127{fill:url(#Trazado_26215_5_);}
	.st128{fill:url(#Trazado_26216_5_);}
	.st129{fill:url(#Trazado_26217_5_);}
	.st130{fill:url(#Trazado_26218_5_);}
	.st131{fill:url(#Trazado_24566_9_);}
	.st132{fill:url(#Trazado_24567_9_);}
	.st133{fill:url(#Trazado_24568_9_);}
	.st134{fill:url(#Trazado_24569_9_);}
	.st135{fill:url(#Trazado_24570_9_);}
	.st136{fill:url(#Trazado_24571_9_);}
	.st137{fill:url(#Trazado_24572_9_);}
	.st138{fill:url(#Unión_55_1_);}
	.st139{fill:url(#Trazado_904_5_);}
	.st140{fill:url(#Trazado_905_5_);}
	.st141{fill:url(#Trazado_906_5_);}
	.st142{fill:url(#Trazado_24631_5_);}
	.st143{fill:url(#Trazado_24632_5_);}
	.st144{fill:url(#Trazado_24633_5_);}
	.st145{fill:url(#Trazado_24634_5_);}
	.st146{fill:url(#Trazado_24635_5_);}
	.st147{fill:url(#Trazado_24636_5_);}
	.st148{fill:url(#Trazado_24637_5_);}
	.st149{fill:url(#Trazado_24638_5_);}
	.st150{fill:url(#Trazado_24639_5_);}
	.st151{fill:url(#Trazado_24640_5_);}
	.st152{fill:url(#Rectángulo_3914-2_1_);}
	.st153{clip-path:url(#SVGID_6_);fill:#EBEEF0;}
	.st154{clip-path:url(#SVGID_6_);}
	.st155{opacity:0.2;clip-path:url(#SVGID_6_);fill:#26F70F;}
	.st156{opacity:0.1;clip-path:url(#SVGID_6_);}
	.st157{opacity:0.2;fill:#F90D0D;}
	.st158{fill:none;stroke:#FF0000;stroke-width:5;stroke-miterlimit:10;}
	.st159{clip-path:url(#SVGID_14_);fill:#EBEEF0;}
	.st160{clip-path:url(#SVGID_14_);}
	.st161{opacity:0.2;clip-path:url(#SVGID_14_);fill:#26F70F;}
	.st162{fill:none;stroke:#26F70F;stroke-width:7;stroke-miterlimit:10;}
	.st163{fill:url(#Rectángulo_3928_2_);}
	.st164{fill:#F0F2F4;}
	.st165{opacity:0.28;fill:none;stroke:#BEC8D2;enable-background:new    ;}
	.st166{fill:none;stroke:#E2E7EB;}
	.st167{fill:#00B4DC;}
	.st168{fill:url(#Trazado_24687_4_);}
	.st169{fill:url(#Trazado_24688_4_);}
	.st170{fill:url(#Trazado_24689_4_);}
	.st171{fill:url(#Trazado_24690_4_);}
	.st172{fill:url(#Rectángulo_1733_4_);}
	.st173{fill:url(#Rectángulo_1734_4_);}
	.st174{fill:url(#Rectángulo_1735_4_);}
	.st175{fill:url(#Trazado_24687_5_);}
	.st176{fill:url(#Trazado_24688_5_);}
	.st177{fill:url(#Trazado_24689_5_);}
	.st178{fill:url(#Trazado_24690_5_);}
	.st179{fill:url(#Rectángulo_1733_5_);}
	.st180{fill:url(#Rectángulo_1734_5_);}
	.st181{fill:url(#Rectángulo_1735_5_);}
	.st182{fill:url(#Trazado_24566_10_);}
	.st183{fill:url(#Trazado_24567_10_);}
	.st184{fill:url(#Trazado_24568_10_);}
	.st185{fill:url(#Trazado_24569_10_);}
	.st186{fill:url(#Trazado_24570_10_);}
	.st187{fill:url(#Trazado_24571_10_);}
	.st188{fill:url(#Trazado_24572_10_);}
	.st189{fill:url(#Trazado_26237_4_);}
	.st190{fill:url(#Trazado_26238_4_);}
	.st191{fill:url(#Trazado_26242_4_);}
	.st192{fill:url(#Trazado_26243_4_);}
	.st193{fill:url(#Trazado_26244_4_);}
	.st194{fill:url(#Trazado_26245_4_);}
	.st195{fill:url(#Trazado_26246_4_);}
	.st196{fill:url(#Trazado_26247_4_);}
	.st197{fill:url(#Trazado_26248_4_);}
	.st198{fill:url(#Trazado_26249_4_);}
	.st199{fill:url(#Trazado_26250_4_);}
	.st200{fill:url(#Trazado_26251_4_);}
	.st201{fill:url(#Trazado_26252_4_);}
	.st202{fill:url(#Trazado_26253_4_);}
	.st203{fill:url(#Trazado_26254_4_);}
	.st204{fill:url(#Trazado_26255_4_);}
	.st205{fill:url(#Trazado_26256_4_);}
	.st206{fill:url(#Trazado_26257_4_);}
	.st207{fill:url(#Trazado_26258_4_);}
	.st208{fill:url(#Trazado_26259_4_);}
	.st209{fill:url(#Trazado_26260_4_);}
	.st210{fill:url(#Trazado_26261_4_);}
	.st211{fill:url(#Trazado_26262_4_);}
	.st212{fill:url(#Trazado_26263_4_);}
	.st213{fill:url(#Trazado_26264_4_);}
	.st214{fill:url(#Trazado_26265_4_);}
	.st215{fill:url(#Trazado_26266_4_);}
	.st216{fill:url(#Trazado_26267_4_);}
	.st217{fill:url(#Trazado_26268_4_);}
	.st218{fill:url(#Trazado_26269_4_);}
	.st219{fill:url(#Trazado_26270_4_);}
	.st220{fill:url(#Trazado_26271_4_);}
	.st221{fill:url(#Trazado_26272_4_);}
	.st222{fill:url(#Trazado_26273_4_);}
	.st223{fill:url(#Trazado_26274_4_);}
	.st224{fill:url(#Trazado_26275_4_);}
	.st225{fill:url(#Trazado_26276_4_);}
	.st226{fill:url(#Trazado_26277_4_);}
	.st227{fill:url(#Trazado_26278_4_);}
	.st228{fill:url(#Trazado_26279_4_);}
	.st229{fill:url(#Trazado_26284_3_);}
	.st230{fill:url(#Trazado_26285_3_);}
	.st231{fill:url(#Trazado_26230_4_);}
	.st232{fill:url(#Trazado_26231_4_);}
	.st233{fill:url(#Trazado_26232_4_);}
	.st234{fill:url(#Rectángulo_3918_4_);}
	.st235{fill:url(#Rectángulo_3919_4_);}
	.st236{fill:url(#Rectángulo_3920_4_);}
	.st237{fill:url(#Rectángulo_3921_4_);}
	.st238{fill:url(#Rectángulo_3922_4_);}
	.st239{fill:url(#Rectángulo_3923_4_);}
	.st240{fill:url(#Rectángulo_3924_4_);}
	.st241{fill:url(#Rectángulo_3925_4_);}
	.st242{fill:url(#Rectángulo_3928_3_);}
	.st243{fill:url(#Trazado_24566_11_);}
	.st244{fill:url(#Trazado_24567_11_);}
	.st245{fill:url(#Trazado_24568_11_);}
	.st246{fill:url(#Trazado_24569_11_);}
	.st247{fill:url(#Trazado_24570_11_);}
	.st248{fill:url(#Trazado_24571_11_);}
	.st249{fill:url(#Trazado_24572_11_);}
	.st250{fill:url(#Trazado_26233_2_);}
	.st251{fill:url(#Trazado_26234_2_);}
	.st252{fill:url(#Trazado_26235_2_);}
	.st253{fill:url(#Trazado_26236_2_);}
	.st254{fill:url(#Trazado_26237_5_);}
	.st255{fill:url(#Trazado_26238_5_);}
	.st256{fill:url(#Trazado_26242_5_);}
	.st257{fill:url(#Trazado_26243_5_);}
	.st258{fill:url(#Trazado_26244_5_);}
	.st259{fill:url(#Trazado_26245_5_);}
	.st260{fill:url(#Trazado_26246_5_);}
	.st261{fill:url(#Trazado_26247_5_);}
	.st262{fill:url(#Trazado_26248_5_);}
	.st263{fill:url(#Trazado_26249_5_);}
	.st264{fill:url(#Trazado_26250_5_);}
	.st265{fill:url(#Trazado_26251_5_);}
	.st266{fill:url(#Trazado_26252_5_);}
	.st267{fill:url(#Trazado_26253_5_);}
	.st268{fill:url(#Trazado_26254_5_);}
	.st269{fill:url(#Trazado_26255_5_);}
	.st270{fill:url(#Trazado_26256_5_);}
	.st271{fill:url(#Trazado_26257_5_);}
	.st272{fill:url(#Trazado_26258_5_);}
	.st273{fill:url(#Trazado_26259_5_);}
	.st274{fill:url(#Trazado_26260_5_);}
	.st275{fill:url(#Trazado_26261_5_);}
	.st276{fill:url(#Trazado_26262_5_);}
	.st277{fill:url(#Trazado_26263_5_);}
	.st278{fill:url(#Trazado_26264_5_);}
	.st279{fill:url(#Trazado_26265_5_);}
	.st280{fill:url(#Trazado_26266_5_);}
	.st281{fill:url(#Trazado_26267_5_);}
	.st282{fill:url(#Trazado_26268_5_);}
	.st283{fill:url(#Trazado_26269_5_);}
	.st284{fill:url(#Trazado_26270_5_);}
	.st285{fill:url(#Trazado_26271_5_);}
	.st286{fill:url(#Trazado_26272_5_);}
	.st287{fill:url(#Trazado_26273_5_);}
	.st288{fill:url(#Trazado_26274_5_);}
	.st289{fill:url(#Trazado_26275_5_);}
	.st290{fill:url(#Trazado_26276_5_);}
	.st291{fill:url(#Trazado_26277_5_);}
	.st292{fill:url(#Trazado_26278_5_);}
	.st293{fill:url(#Trazado_26279_5_);}
	.st294{fill:url(#Trazado_26284_4_);}
	.st295{fill:url(#Trazado_26285_4_);}
	.st296{fill:url(#Trazado_26230_5_);}
	.st297{fill:url(#Trazado_26231_5_);}
	.st298{fill:url(#Trazado_26232_5_);}
	.st299{fill:url(#Rectángulo_3918_5_);}
	.st300{fill:url(#Rectángulo_3919_5_);}
	.st301{fill:url(#Rectángulo_3920_5_);}
	.st302{fill:url(#Rectángulo_3921_5_);}
	.st303{fill:url(#Rectángulo_3922_5_);}
	.st304{fill:url(#Rectángulo_3923_5_);}
	.st305{fill:url(#Rectángulo_3924_5_);}
	.st306{fill:url(#Rectángulo_3925_5_);}
	.st307{fill:none;stroke:#006495;stroke-linecap:square;stroke-miterlimit:10;stroke-dasharray:2,2;}
	.st308{fill:#262944;}
	.st309{fill:none;stroke:#FFFFFF;stroke-miterlimit:10;}
	.st310{fill:url(#Trazado_24869_4_);}
	.st311{fill:url(#Trazado_26191_5_);}
	.st312{fill:url(#Trazado_26192_5_);}
	.st313{fill:url(#Trazado_26193_5_);}
	.st314{fill:url(#Trazado_26194_5_);}
	.st315{fill:url(#Trazado_26195_5_);}
	.st316{fill:url(#Trazado_26196_5_);}
	.st317{fill:url(#Trazado_26197_5_);}
	.st318{fill:url(#Trazado_26198_6_);}
	.st319{fill:url(#Trazado_26199_6_);}
	.st320{fill:url(#Trazado_26200_6_);}
	.st321{fill:url(#Trazado_26201_6_);}
	.st322{fill:url(#Trazado_26202_6_);}
	.st323{fill:url(#Trazado_26203_6_);}
	.st324{fill:url(#Trazado_26204_6_);}
	.st325{fill:url(#Trazado_26205_6_);}
	.st326{fill:url(#Trazado_26206_6_);}
	.st327{fill:url(#Trazado_26207_6_);}
	.st328{fill:url(#Trazado_26208_6_);}
	.st329{fill:url(#Trazado_26209_6_);}
	.st330{fill:url(#Trazado_26210_6_);}
	.st331{fill:url(#Trazado_26211_6_);}
	.st332{fill:url(#Trazado_26212_6_);}
	.st333{fill:url(#Trazado_26213_6_);}
	.st334{fill:url(#Trazado_26214_6_);}
	.st335{fill:url(#Trazado_26215_6_);}
	.st336{fill:url(#Trazado_26216_6_);}
	.st337{fill:url(#Trazado_26217_6_);}
	.st338{fill:url(#Trazado_26218_6_);}
	.st339{fill:url(#Trazado_24566_12_);}
	.st340{fill:url(#Trazado_24567_12_);}
	.st341{fill:url(#Trazado_24568_12_);}
	.st342{fill:url(#Trazado_24569_12_);}
	.st343{fill:url(#Trazado_24570_12_);}
	.st344{fill:url(#Trazado_24571_12_);}
	.st345{fill:url(#Trazado_24572_12_);}
	.st346{fill:url(#Trazado_26354_3_);}
	.st347{fill:url(#Trazado_904_6_);}
	.st348{fill:url(#Trazado_905_6_);}
	.st349{fill:url(#Trazado_906_6_);}
	.st350{fill:url(#Trazado_24631_6_);}
	.st351{fill:url(#Trazado_24632_6_);}
	.st352{fill:url(#Trazado_24633_6_);}
	.st353{fill:url(#Trazado_24634_6_);}
	.st354{fill:url(#Trazado_24635_6_);}
	.st355{fill:url(#Trazado_24636_6_);}
	.st356{fill:url(#Trazado_24637_6_);}
	.st357{fill:url(#Trazado_24638_6_);}
	.st358{fill:url(#Trazado_24639_6_);}
	.st359{fill:url(#Trazado_24640_6_);}
	.st360{fill:url(#Trazado_884_4_);}
	.st361{fill:url(#Trazado_24616_4_);}
	.st362{fill:url(#Trazado_24617_4_);}
	.st363{fill:url(#Trazado_24618_4_);}
	.st364{fill:url(#Trazado_24619_4_);}
	.st365{fill:url(#Trazado_24620_4_);}
	.st366{fill:url(#Trazado_24621_4_);}
	.st367{fill:url(#Trazado_24622_4_);}
	.st368{fill:#FF6161;}
	.st369{fill:url(#Trazado_26233_5_);}
	.st370{fill:url(#Trazado_26234_5_);}
	.st371{fill:url(#Trazado_26235_5_);}
	.st372{fill:url(#Trazado_26236_5_);}
	.st373{fill:url(#Trazado_24566_13_);}
	.st374{fill:url(#Trazado_24567_13_);}
	.st375{fill:url(#Trazado_24568_13_);}
	.st376{fill:url(#Trazado_24569_13_);}
	.st377{fill:url(#Trazado_24570_13_);}
	.st378{fill:url(#Trazado_24571_13_);}
	.st379{fill:url(#Trazado_24572_13_);}
	.st380{fill:url(#Trazado_26237_6_);}
	.st381{fill:url(#Trazado_26238_6_);}
	.st382{fill:url(#Trazado_26242_6_);}
	.st383{fill:url(#Trazado_26243_6_);}
	.st384{fill:url(#Trazado_26244_6_);}
	.st385{fill:url(#Trazado_26245_6_);}
	.st386{fill:url(#Trazado_26246_6_);}
	.st387{fill:url(#Trazado_26247_6_);}
	.st388{fill:url(#Trazado_26248_6_);}
	.st389{fill:url(#Trazado_26249_6_);}
	.st390{fill:url(#Trazado_26250_6_);}
	.st391{fill:url(#Trazado_26251_6_);}
	.st392{fill:url(#Trazado_26252_6_);}
	.st393{fill:url(#Trazado_26253_6_);}
	.st394{fill:url(#Trazado_26254_6_);}
	.st395{fill:url(#Trazado_26255_6_);}
	.st396{fill:url(#Trazado_26256_6_);}
	.st397{fill:url(#Trazado_26257_6_);}
	.st398{fill:url(#Trazado_26258_6_);}
	.st399{fill:url(#Trazado_26259_6_);}
	.st400{fill:url(#Trazado_26260_6_);}
	.st401{fill:url(#Trazado_26261_6_);}
	.st402{fill:url(#Trazado_26262_6_);}
	.st403{fill:url(#Trazado_26263_6_);}
	.st404{fill:url(#Trazado_26264_6_);}
	.st405{fill:url(#Trazado_26265_6_);}
	.st406{fill:url(#Trazado_26266_6_);}
	.st407{fill:url(#Trazado_26267_6_);}
	.st408{fill:url(#Trazado_26268_6_);}
	.st409{fill:url(#Trazado_26269_6_);}
	.st410{fill:url(#Trazado_26270_6_);}
	.st411{fill:url(#Trazado_26271_6_);}
	.st412{fill:url(#Trazado_26272_6_);}
	.st413{fill:url(#Trazado_26273_6_);}
	.st414{fill:url(#Trazado_26274_6_);}
	.st415{fill:url(#Trazado_26275_6_);}
	.st416{fill:url(#Trazado_26276_6_);}
	.st417{fill:url(#Trazado_26277_6_);}
	.st418{fill:url(#Trazado_26278_6_);}
	.st419{fill:url(#Trazado_26279_6_);}
	.st420{fill:url(#Trazado_26284_6_);}
	.st421{fill:url(#Trazado_26285_6_);}
	.st422{fill:url(#Trazado_26230_6_);}
	.st423{fill:url(#Trazado_26231_6_);}
	.st424{fill:url(#Trazado_26232_6_);}
	.st425{fill:url(#Rectángulo_3918_6_);}
	.st426{fill:url(#Rectángulo_3919_6_);}
	.st427{fill:url(#Rectángulo_3920_6_);}
	.st428{fill:url(#Rectángulo_3921_6_);}
	.st429{fill:url(#Rectángulo_3922_6_);}
	.st430{fill:url(#Rectángulo_3923_6_);}
	.st431{fill:url(#Rectángulo_3924_6_);}
	.st432{fill:url(#Rectángulo_3925_6_);}
	.st433{opacity:0.1;fill:#FF2929;}
	.st434{fill:#CCF0F8;}
	.st435{opacity:0.2;fill:#D31A1A;}
	.st436{fill:#E2E7EB;}
	.st437{fill:none;stroke:#BEC8D2;}
	.st438{fill:#D5F4E6;}
	.st439{fill-rule:evenodd;clip-rule:evenodd;fill:#262944;}
</style>
<g id="Documentar_2_" transform="translate(7.563 194.455)">
	
		<linearGradient id="Trazado_24687_4_" gradientUnits="userSpaceOnUse" x1="-2681.6011" y1="2957.1497" x2="-2681.6011" y2="2956.1497" gradientTransform="matrix(25.3331 0 0 -28.6668 67956.0391 84592.0156)">
		<stop  offset="0" style="stop-color:#41D78C"/>
		<stop  offset="1" style="stop-color:#00B4DC"/>
	</linearGradient>
	<path id="Trazado_24687_2_" class="st168" d="M29.13-175.27l0.31-0.31c1-1,1-2.61,0-3.61s-2.61-1-3.61,0l-1.92,1.92h-2.34
		c-1.06,0-2.08,0.42-2.83,1.17l-2.91,2.91c-0.63,0.62-0.98,1.47-0.98,2.36v2.62l-0.67,0.67v-1.72c0-0.37-0.3-0.67-0.67-0.67h0h-2.67
		c-0.37,0-0.67,0.3-0.67,0.67v0v2.67c0,0.37,0.3,0.67,0.67,0.67h0h2.41l-0.44,1.33h-1.96c-0.37,0-0.67,0.3-0.67,0.67v2.67
		c0,0.37,0.3,0.67,0.67,0.67h0h2.67c0.37,0,0.67-0.3,0.67-0.67v0v-1.07l1.33-0.44v0.85h2.67v-1.33h-1.23l0.1-0.03
		c0.1-0.03,0.19-0.09,0.26-0.16l1.09-1.09c1,0.86,2.5,0.81,3.44-0.11l2.34,2.33v11.06h1.33v-8.67h8.67v8.67h1.33v-12.64
		c0.01-3.18-1.26-6.24-3.51-8.49L29.13-175.27z M23.29-171.94c-0.88,0-1.73,0.35-2.36,0.98l-2.67,2.67
		c-0.68,0.68-0.92,1.7-0.62,2.62l-0.8,0.8l-1.72-1.72l8.06-8.06l1.72,1.72l-1,1H23.29z M14.47-165.37l1.14,1.14l-1.71,0.57
		L14.47-165.37z M25.85-173.88l-1.72-1.72l1.06-1.06l1.72,1.72L25.85-173.88z M27.63-178.61c0.67,0,1.22,0.55,1.22,1.22
		c0,0.32-0.13,0.63-0.36,0.86l-0.64,0.64l-1.72-1.72l0.64-0.64C27-178.48,27.31-178.61,27.63-178.61L27.63-178.61z M16.19-170.84
		c0-0.53,0.21-1.04,0.59-1.41l2.91-2.91c0.5-0.5,1.18-0.78,1.89-0.78h1.01l-6.39,6.39V-170.84z M12.85-167.28h-1.33v-1.33h1.33
		V-167.28z M11.52-161.94v-1.33h0.85l-0.15,0.46c-0.12,0.35,0.07,0.73,0.42,0.84c0.07,0.02,0.14,0.03,0.21,0.03H11.52z
		 M34.19-161.27h-8.67v-1.33c0-0.18-0.07-0.35-0.2-0.47l-2.53-2.53l0.66-0.66c0.98,1.06,2.36,1.67,3.8,1.66h1.6v-1.33h-1.6
		c-1.28,0-2.47-0.64-3.18-1.7c-0.21-0.31-0.62-0.39-0.93-0.18c-0.04,0.02-0.07,0.05-0.1,0.08l-2.11,2.11
		c-0.48,0.48-1.25,0.48-1.72,0s-0.48-1.25,0-1.72l2.67-2.67c0.37-0.38,0.88-0.59,1.41-0.59h4.9v-1.34H25.8l2.39-2.39l2.88,2.88
		c2.01,2,3.13,4.71,3.12,7.54V-161.27z"/>
	
		<linearGradient id="Trazado_24688_4_" gradientUnits="userSpaceOnUse" x1="-2711.291" y1="2931.957" x2="-2711.291" y2="2930.957" gradientTransform="matrix(36.476 0 0 -39.8171 98911 116550.7031)">
		<stop  offset="0" style="stop-color:#41D78C"/>
		<stop  offset="1" style="stop-color:#00B4DC"/>
	</linearGradient>
	<path id="Trazado_24688_2_" class="st169" d="M32.19-175.27v-12c0-0.37-0.3-0.67-0.67-0.67H21.3l-0.67-1.68
		c-0.54-1.35-2.07-2.01-3.42-1.48c-0.67,0.27-1.21,0.8-1.48,1.48l-0.66,1.68H4.85c-0.37,0-0.67,0.3-0.67,0.67v15.03l-4.2,3.67
		c-0.72,0.63-1.14,1.55-1.14,2.51v5.18l-3.14,3.14l0.94,0.94l3.33-3.33c0.13-0.12,0.2-0.29,0.2-0.47v-5.46
		c0-0.58,0.25-1.13,0.69-1.51l3.32-2.9v3.59l-2.47,2.47l0.94,0.94l3.45-3.45c0.48-0.48,1.25-0.48,1.72,0c0.48,0.48,0.48,1.25,0,1.72
		l-3.45,3.45c-0.13,0.12-0.2,0.29-0.2,0.47v1.23c0,0.97-0.62,1.84-1.54,2.14l0.42,1.26c0.41-0.14,0.79-0.34,1.12-0.61v1.98
		c0,0.37,0.3,0.67,0.67,0.67h3.72l-2.2,2.2l0.94,0.94l3.14-3.14h12.39v-1.34H5.52V-161l1.33-1.33v4.39c0,0.37,0.3,0.67,0.67,0.67
		h15.33v-1.33H8.19v-5.06l0.59-0.59c1-1,1-2.61,0-3.61c-0.17-0.17-0.37-0.32-0.59-0.44v-15.64h3.37l0.68,1.6
		c0.11,0.24,0.35,0.4,0.61,0.4h10.67c0.27,0,0.51-0.16,0.61-0.4l0.68-1.6h3.37v2.67h1.33v-3.33c0-0.37-0.3-0.67-0.67-0.67h-3.47
		l0.57-1.33h4.89v11.33H32.19z M16.97-189.12c0.26-0.67,1.02-1,1.69-0.73c0.34,0.13,0.6,0.4,0.73,0.73l0.47,1.18H16.5L16.97-189.12z
		 M7.52-185.27c-0.37,0-0.67,0.3-0.67,0.67v16c-0.48,0.02-0.94,0.18-1.33,0.45v-18.45h4.89l0.57,1.33H7.52z M23.08-183.27h-9.79
		l-1.43-3.33h12.65L23.08-183.27z"/>
	
		<linearGradient id="Trazado_24689_4_" gradientUnits="userSpaceOnUse" x1="-2163.4226" y1="3511.7522" x2="-2163.4226" y2="3510.7522" gradientTransform="matrix(4.001 0 0 -4.001 8668.0879 13869.9932)">
		<stop  offset="0" style="stop-color:#41D78C"/>
		<stop  offset="1" style="stop-color:#00B4DC"/>
	</linearGradient>
	<path id="Trazado_24689_2_" class="st170" d="M14.19-179.94c0-0.37-0.3-0.67-0.67-0.67h0h-2.67c-0.37,0-0.67,0.3-0.67,0.67v0v2.67
		c0,0.37,0.3,0.67,0.67,0.67h0h2.67c0.37,0,0.67-0.3,0.67-0.67v0V-179.94z M12.85-177.94h-1.33v-1.33h1.33V-177.94z"/>
	
		<linearGradient id="Trazado_24690_4_" gradientUnits="userSpaceOnUse" x1="-2163.4226" y1="3511.7522" x2="-2163.4226" y2="3510.7522" gradientTransform="matrix(4.001 0 0 -4.001 8668.0879 13875.3262)">
		<stop  offset="0" style="stop-color:#41D78C"/>
		<stop  offset="1" style="stop-color:#00B4DC"/>
	</linearGradient>
	<path id="Trazado_24690_2_" class="st171" d="M13.52-175.27h-2.67c-0.37,0-0.67,0.3-0.67,0.67v0v2.67c0,0.37,0.3,0.67,0.67,0.67h0
		h2.67c0.37,0,0.67-0.3,0.67-0.67v0v-2.67C14.19-174.97,13.89-175.27,13.52-175.27L13.52-175.27z M12.85-172.61h-1.33v-1.33h1.33
		V-172.61z"/>
	
		<linearGradient id="Rectángulo_1733_4_" gradientUnits="userSpaceOnUse" x1="-2163.2654" y1="4801.8589" x2="-2163.2654" y2="4800.8589" gradientTransform="matrix(4 0 0 -1.333 8673.248 6221.6045)">
		<stop  offset="0" style="stop-color:#41D78C"/>
		<stop  offset="1" style="stop-color:#00B4DC"/>
	</linearGradient>
	<rect id="Rectángulo_1733_2_" x="18.19" y="-179.27" class="st172" width="4" height="1.33"/>
	
		<linearGradient id="Rectángulo_1734_4_" gradientUnits="userSpaceOnUse" x1="-931.7539" y1="4801.8589" x2="-931.7539" y2="4800.8589" gradientTransform="matrix(1.333 0 0 -1.333 1258.2135 6221.6045)">
		<stop  offset="0" style="stop-color:#41D78C"/>
		<stop  offset="1" style="stop-color:#00B4DC"/>
	</linearGradient>
	<rect id="Rectángulo_1734_2_" x="15.52" y="-179.27" class="st173" width="1.33" height="1.33"/>
	
		<linearGradient id="Rectángulo_1735_4_" gradientUnits="userSpaceOnUse" x1="-1855.6184" y1="4801.8589" x2="-1855.6184" y2="4800.8589" gradientTransform="matrix(2.667 0 0 -1.333 4969.7871 6237.6045)">
		<stop  offset="0" style="stop-color:#41D78C"/>
		<stop  offset="1" style="stop-color:#00B4DC"/>
	</linearGradient>
	<rect id="Rectángulo_1735_2_" x="19.52" y="-163.27" class="st174" width="2.67" height="1.33"/>
</g>
</svg>
