<?xml version="1.0" encoding="utf-8"?>
<!-- Generator: Adobe Illustrator 25.2.1, SVG Export Plug-In . SVG Version: 6.00 Build 0)  -->
<svg version="1.1" id="Capa_1" xmlns="http://www.w3.org/2000/svg" xmlns:xlink="http://www.w3.org/1999/xlink" x="0px" y="0px"
	 viewBox="0 0 46.36 46.36" style="enable-background:new 0 0 46.36 46.36;" xml:space="preserve">
<style type="text/css">
	.st0{fill:#F6F7F9;}
	.st1{fill:#6E6E6E;}
	.st2{fill:#FFFFFF;}
	.st3{fill:#DCDCDC;}
	.st4{fill:url(#Trazado_26198_4_);}
	.st5{fill:url(#Trazado_26199_4_);}
	.st6{fill:url(#Trazado_26200_4_);}
	.st7{fill:url(#Trazado_26201_4_);}
	.st8{fill:url(#Trazado_26202_4_);}
	.st9{fill:url(#Trazado_26203_4_);}
	.st10{fill:url(#Trazado_26204_4_);}
	.st11{fill:url(#Trazado_26205_4_);}
	.st12{fill:url(#Trazado_26206_4_);}
	.st13{fill:url(#Trazado_26207_4_);}
	.st14{fill:url(#Trazado_26208_4_);}
	.st15{fill:url(#Trazado_26209_4_);}
	.st16{fill:url(#Trazado_26210_4_);}
	.st17{fill:url(#Trazado_26211_4_);}
	.st18{fill:url(#Trazado_26212_4_);}
	.st19{fill:url(#Trazado_26213_4_);}
	.st20{fill:url(#Trazado_26214_4_);}
	.st21{fill:url(#Trazado_26215_4_);}
	.st22{fill:url(#Trazado_24566_9_);}
	.st23{fill:url(#Trazado_24567_9_);}
	.st24{fill:url(#Trazado_24568_9_);}
	.st25{fill:url(#Trazado_24569_9_);}
	.st26{fill:url(#Trazado_24570_9_);}
	.st27{fill:url(#Trazado_24571_9_);}
	.st28{fill:url(#Trazado_24572_9_);}
	.st29{fill:url(#Trazado_26216_4_);}
	.st30{fill:url(#Trazado_26217_4_);}
	.st31{fill:url(#Trazado_26218_4_);}
	.st32{fill:url(#Trazado_26336_1_);}
	.st33{fill:url(#Unión_52_1_);}
	.st34{fill:url(#Trazado_904_4_);}
	.st35{fill:url(#Trazado_905_4_);}
	.st36{fill:url(#Trazado_906_4_);}
	.st37{fill:url(#Trazado_24631_4_);}
	.st38{fill:url(#Trazado_24632_4_);}
	.st39{fill:url(#Trazado_24633_4_);}
	.st40{fill:url(#Trazado_24634_4_);}
	.st41{fill:url(#Trazado_24635_4_);}
	.st42{fill:url(#Trazado_24636_4_);}
	.st43{fill:url(#Trazado_24637_4_);}
	.st44{fill:url(#Trazado_24638_4_);}
	.st45{fill:url(#Trazado_24639_4_);}
	.st46{fill:url(#Trazado_24640_4_);}
	.st47{fill:url(#Trazado_884_3_);}
	.st48{fill:url(#Trazado_24616_3_);}
	.st49{fill:url(#Trazado_24617_3_);}
	.st50{fill:url(#Trazado_24618_3_);}
	.st51{fill:url(#Trazado_24619_3_);}
	.st52{fill:url(#Trazado_24620_3_);}
	.st53{fill:url(#Trazado_24621_3_);}
	.st54{fill:url(#Trazado_24622_3_);}
	.st55{fill:none;stroke:#CCCCCC;}
	.st56{fill:url(#Trazado_904-2_2_);}
	.st57{fill:url(#Trazado_905-2_2_);}
	.st58{fill:url(#Trazado_906-2_2_);}
	.st59{fill:url(#Trazado_24631-2_2_);}
	.st60{fill:url(#Trazado_24632-2_2_);}
	.st61{fill:url(#Trazado_24633-2_2_);}
	.st62{fill:url(#Trazado_24634-2_2_);}
	.st63{fill:url(#Trazado_24635-2_2_);}
	.st64{fill:url(#Trazado_24636-2_2_);}
	.st65{fill:url(#Trazado_24637-2_2_);}
	.st66{fill:url(#Trazado_24638-2_2_);}
	.st67{fill:url(#Trazado_24639-2_2_);}
	.st68{fill:url(#Trazado_24640-2_2_);}
	.st69{fill:url(#Trazado_884-2_1_);}
	.st70{fill:url(#Trazado_24616-2_1_);}
	.st71{fill:url(#Trazado_24617-2_1_);}
	.st72{fill:url(#Trazado_24618-2_1_);}
	.st73{fill:url(#Trazado_24619-2_1_);}
	.st74{fill:url(#Trazado_24620-2_1_);}
	.st75{fill:url(#Trazado_24621-2_1_);}
	.st76{fill:url(#Trazado_24622-2_1_);}
	.st77{fill:url(#Trazado_26355_1_);}
	.st78{opacity:0.2;fill:#26F70F;}
	.st79{fill:#F90D0D;}
	.st80{fill:none;stroke:#F90D0D;stroke-miterlimit:10;}
	.st81{fill:none;stroke:#FF2929;stroke-miterlimit:10;}
	.st82{opacity:0.2;}
	.st83{fill:#FF2929;}
	.st84{opacity:0.2;fill:#FF2929;}
	.st85{fill:#3366CC;}
	.st86{fill:none;stroke:#FFFFFF;}
	.st87{fill:#0070BA;}
	.st88{fill:#E3134D;}
	.st89{fill:#FEC20A;}
	.st90{fill:#70AF3D;}
	.st91{fill:#9B156E;}
	.st92{fill:#FBD015;}
	.st93{fill:#05569E;}
	.st94{fill:#D11F3E;}
	.st95{fill:none;}
	.st96{fill-rule:evenodd;clip-rule:evenodd;fill:#3366CC;}
	.st97{fill:none;stroke:#707070;}
	.st98{stroke:#FF2929;stroke-width:4;stroke-miterlimit:10;}
	.st99{fill:none;stroke:#FF2929;stroke-width:4;stroke-miterlimit:10;}
	.st100{fill:none;stroke:#000000;stroke-miterlimit:10;}
	.st101{fill:#41D78C;}
	.st102{fill:url(#Trazado_24869_3_);}
	.st103{fill:url(#Trazado_26191_3_);}
	.st104{fill:url(#Trazado_26192_3_);}
	.st105{fill:url(#Trazado_26193_3_);}
	.st106{fill:url(#Trazado_26194_3_);}
	.st107{fill:url(#Trazado_26195_3_);}
	.st108{fill:url(#Trazado_26196_3_);}
	.st109{fill:url(#Trazado_26197_3_);}
	.st110{fill:url(#Trazado_26198_5_);}
	.st111{fill:url(#Trazado_26199_5_);}
	.st112{fill:url(#Trazado_26200_5_);}
	.st113{fill:url(#Trazado_26201_5_);}
	.st114{fill:url(#Trazado_26202_5_);}
	.st115{fill:url(#Trazado_26203_5_);}
	.st116{fill:url(#Trazado_26204_5_);}
	.st117{fill:url(#Trazado_26205_5_);}
	.st118{fill:url(#Trazado_26206_5_);}
	.st119{fill:url(#Trazado_26207_5_);}
	.st120{fill:url(#Trazado_26208_5_);}
	.st121{fill:url(#Trazado_26209_5_);}
	.st122{fill:url(#Trazado_26210_5_);}
	.st123{fill:url(#Trazado_26211_5_);}
	.st124{fill:url(#Trazado_26212_5_);}
	.st125{fill:url(#Trazado_26213_5_);}
	.st126{fill:url(#Trazado_26214_5_);}
	.st127{fill:url(#Trazado_26215_5_);}
	.st128{fill:url(#Trazado_26216_5_);}
	.st129{fill:url(#Trazado_26217_5_);}
	.st130{fill:url(#Trazado_26218_5_);}
	.st131{fill:url(#Trazado_24566_10_);}
	.st132{fill:url(#Trazado_24567_10_);}
	.st133{fill:url(#Trazado_24568_10_);}
	.st134{fill:url(#Trazado_24569_10_);}
	.st135{fill:url(#Trazado_24570_10_);}
	.st136{fill:url(#Trazado_24571_10_);}
	.st137{fill:url(#Trazado_24572_10_);}
	.st138{fill:url(#Unión_55_1_);}
	.st139{fill:url(#Trazado_904_5_);}
	.st140{fill:url(#Trazado_905_5_);}
	.st141{fill:url(#Trazado_906_5_);}
	.st142{fill:url(#Trazado_24631_5_);}
	.st143{fill:url(#Trazado_24632_5_);}
	.st144{fill:url(#Trazado_24633_5_);}
	.st145{fill:url(#Trazado_24634_5_);}
	.st146{fill:url(#Trazado_24635_5_);}
	.st147{fill:url(#Trazado_24636_5_);}
	.st148{fill:url(#Trazado_24637_5_);}
	.st149{fill:url(#Trazado_24638_5_);}
	.st150{fill:url(#Trazado_24639_5_);}
	.st151{fill:url(#Trazado_24640_5_);}
	.st152{fill:url(#Rectángulo_3914-2_1_);}
	.st153{clip-path:url(#SVGID_6_);fill:#EBEEF0;}
	.st154{clip-path:url(#SVGID_6_);}
	.st155{opacity:0.2;clip-path:url(#SVGID_6_);fill:#26F70F;}
	.st156{opacity:0.1;clip-path:url(#SVGID_6_);}
	.st157{opacity:0.2;fill:#F90D0D;}
	.st158{fill:none;stroke:#FF0000;stroke-width:5;stroke-miterlimit:10;}
	.st159{clip-path:url(#SVGID_14_);fill:#EBEEF0;}
	.st160{clip-path:url(#SVGID_14_);}
	.st161{opacity:0.2;clip-path:url(#SVGID_14_);fill:#26F70F;}
	.st162{fill:none;stroke:#26F70F;stroke-width:7;stroke-miterlimit:10;}
	.st163{fill:url(#Rectángulo_3928_2_);}
	.st164{fill:#F0F2F4;}
	.st165{opacity:0.28;fill:none;stroke:#BEC8D2;enable-background:new    ;}
	.st166{fill:none;stroke:#E2E7EB;}
	.st167{fill:#00B4DC;}
	.st168{fill:url(#Trazado_24687_4_);}
	.st169{fill:url(#Trazado_24688_4_);}
	.st170{fill:url(#Trazado_24689_4_);}
	.st171{fill:url(#Trazado_24690_4_);}
	.st172{fill:url(#Rectángulo_1733_4_);}
	.st173{fill:url(#Rectángulo_1734_4_);}
	.st174{fill:url(#Rectángulo_1735_4_);}
	.st175{fill:url(#Trazado_24687_5_);}
	.st176{fill:url(#Trazado_24688_5_);}
	.st177{fill:url(#Trazado_24689_5_);}
	.st178{fill:url(#Trazado_24690_5_);}
	.st179{fill:url(#Rectángulo_1733_5_);}
	.st180{fill:url(#Rectángulo_1734_5_);}
	.st181{fill:url(#Rectángulo_1735_5_);}
	.st182{fill:url(#Trazado_24566_11_);}
	.st183{fill:url(#Trazado_24567_11_);}
	.st184{fill:url(#Trazado_24568_11_);}
	.st185{fill:url(#Trazado_24569_11_);}
	.st186{fill:url(#Trazado_24570_11_);}
	.st187{fill:url(#Trazado_24571_11_);}
	.st188{fill:url(#Trazado_24572_11_);}
	.st189{fill:url(#Trazado_26237_4_);}
	.st190{fill:url(#Trazado_26238_4_);}
	.st191{fill:url(#Trazado_26242_4_);}
	.st192{fill:url(#Trazado_26243_4_);}
	.st193{fill:url(#Trazado_26244_4_);}
	.st194{fill:url(#Trazado_26245_4_);}
	.st195{fill:url(#Trazado_26246_4_);}
	.st196{fill:url(#Trazado_26247_4_);}
	.st197{fill:url(#Trazado_26248_4_);}
	.st198{fill:url(#Trazado_26249_4_);}
	.st199{fill:url(#Trazado_26250_4_);}
	.st200{fill:url(#Trazado_26251_4_);}
	.st201{fill:url(#Trazado_26252_4_);}
	.st202{fill:url(#Trazado_26253_4_);}
	.st203{fill:url(#Trazado_26254_4_);}
	.st204{fill:url(#Trazado_26255_4_);}
	.st205{fill:url(#Trazado_26256_4_);}
	.st206{fill:url(#Trazado_26257_4_);}
	.st207{fill:url(#Trazado_26258_4_);}
	.st208{fill:url(#Trazado_26259_4_);}
	.st209{fill:url(#Trazado_26260_4_);}
	.st210{fill:url(#Trazado_26261_4_);}
	.st211{fill:url(#Trazado_26262_4_);}
	.st212{fill:url(#Trazado_26263_4_);}
	.st213{fill:url(#Trazado_26264_4_);}
	.st214{fill:url(#Trazado_26265_4_);}
	.st215{fill:url(#Trazado_26266_4_);}
	.st216{fill:url(#Trazado_26267_4_);}
	.st217{fill:url(#Trazado_26268_4_);}
	.st218{fill:url(#Trazado_26269_4_);}
	.st219{fill:url(#Trazado_26270_4_);}
	.st220{fill:url(#Trazado_26271_4_);}
	.st221{fill:url(#Trazado_26272_4_);}
	.st222{fill:url(#Trazado_26273_4_);}
	.st223{fill:url(#Trazado_26274_4_);}
	.st224{fill:url(#Trazado_26275_4_);}
	.st225{fill:url(#Trazado_26276_4_);}
	.st226{fill:url(#Trazado_26277_4_);}
	.st227{fill:url(#Trazado_26278_4_);}
	.st228{fill:url(#Trazado_26279_4_);}
	.st229{fill:url(#Trazado_26284_3_);}
	.st230{fill:url(#Trazado_26285_3_);}
	.st231{fill:url(#Trazado_26230_5_);}
	.st232{fill:url(#Trazado_26231_5_);}
	.st233{fill:url(#Trazado_26232_5_);}
	.st234{fill:url(#Rectángulo_3918_5_);}
	.st235{fill:url(#Rectángulo_3919_5_);}
	.st236{fill:url(#Rectángulo_3920_5_);}
	.st237{fill:url(#Rectángulo_3921_5_);}
	.st238{fill:url(#Rectángulo_3922_5_);}
	.st239{fill:url(#Rectángulo_3923_5_);}
	.st240{fill:url(#Rectángulo_3924_5_);}
	.st241{fill:url(#Rectángulo_3925_5_);}
	.st242{fill:url(#Rectángulo_3928_3_);}
	.st243{fill:url(#Trazado_24566_12_);}
	.st244{fill:url(#Trazado_24567_12_);}
	.st245{fill:url(#Trazado_24568_12_);}
	.st246{fill:url(#Trazado_24569_12_);}
	.st247{fill:url(#Trazado_24570_12_);}
	.st248{fill:url(#Trazado_24571_12_);}
	.st249{fill:url(#Trazado_24572_12_);}
	.st250{fill:url(#Trazado_26233_2_);}
	.st251{fill:url(#Trazado_26234_2_);}
	.st252{fill:url(#Trazado_26235_2_);}
	.st253{fill:url(#Trazado_26236_2_);}
	.st254{fill:url(#Trazado_26237_5_);}
	.st255{fill:url(#Trazado_26238_5_);}
	.st256{fill:url(#Trazado_26242_5_);}
	.st257{fill:url(#Trazado_26243_5_);}
	.st258{fill:url(#Trazado_26244_5_);}
	.st259{fill:url(#Trazado_26245_5_);}
	.st260{fill:url(#Trazado_26246_5_);}
	.st261{fill:url(#Trazado_26247_5_);}
	.st262{fill:url(#Trazado_26248_5_);}
	.st263{fill:url(#Trazado_26249_5_);}
	.st264{fill:url(#Trazado_26250_5_);}
	.st265{fill:url(#Trazado_26251_5_);}
	.st266{fill:url(#Trazado_26252_5_);}
	.st267{fill:url(#Trazado_26253_5_);}
	.st268{fill:url(#Trazado_26254_5_);}
	.st269{fill:url(#Trazado_26255_5_);}
	.st270{fill:url(#Trazado_26256_5_);}
	.st271{fill:url(#Trazado_26257_5_);}
	.st272{fill:url(#Trazado_26258_5_);}
	.st273{fill:url(#Trazado_26259_5_);}
	.st274{fill:url(#Trazado_26260_5_);}
	.st275{fill:url(#Trazado_26261_5_);}
	.st276{fill:url(#Trazado_26262_5_);}
	.st277{fill:url(#Trazado_26263_5_);}
	.st278{fill:url(#Trazado_26264_5_);}
	.st279{fill:url(#Trazado_26265_5_);}
	.st280{fill:url(#Trazado_26266_5_);}
	.st281{fill:url(#Trazado_26267_5_);}
	.st282{fill:url(#Trazado_26268_5_);}
	.st283{fill:url(#Trazado_26269_5_);}
	.st284{fill:url(#Trazado_26270_5_);}
	.st285{fill:url(#Trazado_26271_5_);}
	.st286{fill:url(#Trazado_26272_5_);}
	.st287{fill:url(#Trazado_26273_5_);}
	.st288{fill:url(#Trazado_26274_5_);}
	.st289{fill:url(#Trazado_26275_5_);}
	.st290{fill:url(#Trazado_26276_5_);}
	.st291{fill:url(#Trazado_26277_5_);}
	.st292{fill:url(#Trazado_26278_5_);}
	.st293{fill:url(#Trazado_26279_5_);}
	.st294{fill:url(#Trazado_26284_4_);}
	.st295{fill:url(#Trazado_26285_4_);}
	.st296{fill:url(#Trazado_26230_6_);}
	.st297{fill:url(#Trazado_26231_6_);}
	.st298{fill:url(#Trazado_26232_6_);}
	.st299{fill:url(#Rectángulo_3918_6_);}
	.st300{fill:url(#Rectángulo_3919_6_);}
	.st301{fill:url(#Rectángulo_3920_6_);}
	.st302{fill:url(#Rectángulo_3921_6_);}
	.st303{fill:url(#Rectángulo_3922_6_);}
	.st304{fill:url(#Rectángulo_3923_6_);}
	.st305{fill:url(#Rectángulo_3924_6_);}
	.st306{fill:url(#Rectángulo_3925_6_);}
	.st307{fill:none;stroke:#006495;stroke-linecap:square;stroke-miterlimit:10;stroke-dasharray:2,2;}
	.st308{fill:#262944;}
	.st309{fill:none;stroke:#FFFFFF;stroke-miterlimit:10;}
	.st310{fill:url(#Trazado_24869_4_);}
	.st311{fill:url(#Trazado_26191_5_);}
	.st312{fill:url(#Trazado_26192_5_);}
	.st313{fill:url(#Trazado_26193_5_);}
	.st314{fill:url(#Trazado_26194_5_);}
	.st315{fill:url(#Trazado_26195_5_);}
	.st316{fill:url(#Trazado_26196_5_);}
	.st317{fill:url(#Trazado_26197_5_);}
	.st318{fill:url(#Trazado_26198_6_);}
	.st319{fill:url(#Trazado_26199_6_);}
	.st320{fill:url(#Trazado_26200_6_);}
	.st321{fill:url(#Trazado_26201_6_);}
	.st322{fill:url(#Trazado_26202_6_);}
	.st323{fill:url(#Trazado_26203_6_);}
	.st324{fill:url(#Trazado_26204_6_);}
	.st325{fill:url(#Trazado_26205_6_);}
	.st326{fill:url(#Trazado_26206_6_);}
	.st327{fill:url(#Trazado_26207_6_);}
	.st328{fill:url(#Trazado_26208_6_);}
	.st329{fill:url(#Trazado_26209_6_);}
	.st330{fill:url(#Trazado_26210_6_);}
	.st331{fill:url(#Trazado_26211_6_);}
	.st332{fill:url(#Trazado_26212_6_);}
	.st333{fill:url(#Trazado_26213_6_);}
	.st334{fill:url(#Trazado_26214_6_);}
	.st335{fill:url(#Trazado_26215_6_);}
	.st336{fill:url(#Trazado_26216_6_);}
	.st337{fill:url(#Trazado_26217_6_);}
	.st338{fill:url(#Trazado_26218_6_);}
	.st339{fill:url(#Trazado_24566_13_);}
	.st340{fill:url(#Trazado_24567_13_);}
	.st341{fill:url(#Trazado_24568_13_);}
	.st342{fill:url(#Trazado_24569_13_);}
	.st343{fill:url(#Trazado_24570_13_);}
	.st344{fill:url(#Trazado_24571_13_);}
	.st345{fill:url(#Trazado_24572_13_);}
	.st346{fill:url(#Trazado_26354_3_);}
	.st347{fill:url(#Trazado_904_6_);}
	.st348{fill:url(#Trazado_905_6_);}
	.st349{fill:url(#Trazado_906_6_);}
	.st350{fill:url(#Trazado_24631_6_);}
	.st351{fill:url(#Trazado_24632_6_);}
	.st352{fill:url(#Trazado_24633_6_);}
	.st353{fill:url(#Trazado_24634_6_);}
	.st354{fill:url(#Trazado_24635_6_);}
	.st355{fill:url(#Trazado_24636_6_);}
	.st356{fill:url(#Trazado_24637_6_);}
	.st357{fill:url(#Trazado_24638_6_);}
	.st358{fill:url(#Trazado_24639_6_);}
	.st359{fill:url(#Trazado_24640_6_);}
	.st360{fill:url(#Trazado_884_4_);}
	.st361{fill:url(#Trazado_24616_4_);}
	.st362{fill:url(#Trazado_24617_4_);}
	.st363{fill:url(#Trazado_24618_4_);}
	.st364{fill:url(#Trazado_24619_4_);}
	.st365{fill:url(#Trazado_24620_4_);}
	.st366{fill:url(#Trazado_24621_4_);}
	.st367{fill:url(#Trazado_24622_4_);}
	.st368{fill:#FF6161;}
	.st369{fill:url(#Trazado_26233_5_);}
	.st370{fill:url(#Trazado_26234_5_);}
	.st371{fill:url(#Trazado_26235_5_);}
	.st372{fill:url(#Trazado_26236_5_);}
	.st373{fill:url(#Trazado_24566_14_);}
	.st374{fill:url(#Trazado_24567_14_);}
	.st375{fill:url(#Trazado_24568_14_);}
	.st376{fill:url(#Trazado_24569_14_);}
	.st377{fill:url(#Trazado_24570_14_);}
	.st378{fill:url(#Trazado_24571_14_);}
	.st379{fill:url(#Trazado_24572_14_);}
	.st380{fill:url(#Trazado_24566_15_);}
	.st381{fill:url(#Trazado_24567_15_);}
	.st382{fill:url(#Trazado_24568_15_);}
	.st383{fill:url(#Trazado_24569_15_);}
	.st384{fill:url(#Trazado_24570_15_);}
	.st385{fill:url(#Trazado_24571_15_);}
	.st386{fill:url(#Trazado_24572_15_);}
	.st387{fill:url(#Trazado_26237_6_);}
	.st388{fill:url(#Trazado_26238_6_);}
	.st389{fill:url(#Trazado_26242_6_);}
	.st390{fill:url(#Trazado_26243_6_);}
	.st391{fill:url(#Trazado_26244_6_);}
	.st392{fill:url(#Trazado_26245_6_);}
	.st393{fill:url(#Trazado_26246_6_);}
	.st394{fill:url(#Trazado_26247_6_);}
	.st395{fill:url(#Trazado_26248_6_);}
	.st396{fill:url(#Trazado_26249_6_);}
	.st397{fill:url(#Trazado_26250_6_);}
	.st398{fill:url(#Trazado_26251_6_);}
	.st399{fill:url(#Trazado_26252_6_);}
	.st400{fill:url(#Trazado_26253_6_);}
	.st401{fill:url(#Trazado_26254_6_);}
	.st402{fill:url(#Trazado_26255_6_);}
	.st403{fill:url(#Trazado_26256_6_);}
	.st404{fill:url(#Trazado_26257_6_);}
	.st405{fill:url(#Trazado_26258_6_);}
	.st406{fill:url(#Trazado_26259_6_);}
	.st407{fill:url(#Trazado_26260_6_);}
	.st408{fill:url(#Trazado_26261_6_);}
	.st409{fill:url(#Trazado_26262_6_);}
	.st410{fill:url(#Trazado_26263_6_);}
	.st411{fill:url(#Trazado_26264_6_);}
	.st412{fill:url(#Trazado_26265_6_);}
	.st413{fill:url(#Trazado_26266_6_);}
	.st414{fill:url(#Trazado_26267_6_);}
	.st415{fill:url(#Trazado_26268_6_);}
	.st416{fill:url(#Trazado_26269_6_);}
	.st417{fill:url(#Trazado_26270_6_);}
	.st418{fill:url(#Trazado_26271_6_);}
	.st419{fill:url(#Trazado_26272_6_);}
	.st420{fill:url(#Trazado_26273_6_);}
	.st421{fill:url(#Trazado_26274_6_);}
	.st422{fill:url(#Trazado_26275_6_);}
	.st423{fill:url(#Trazado_26276_6_);}
	.st424{fill:url(#Trazado_26277_6_);}
	.st425{fill:url(#Trazado_26278_6_);}
	.st426{fill:url(#Trazado_26279_6_);}
	.st427{fill:url(#Trazado_26284_6_);}
	.st428{fill:url(#Trazado_26285_6_);}
	.st429{fill:url(#Trazado_26230_7_);}
	.st430{fill:url(#Trazado_26231_7_);}
	.st431{fill:url(#Trazado_26232_7_);}
	.st432{fill:url(#Rectángulo_3918_7_);}
	.st433{fill:url(#Rectángulo_3919_7_);}
	.st434{fill:url(#Rectángulo_3920_7_);}
	.st435{fill:url(#Rectángulo_3921_7_);}
	.st436{fill:url(#Rectángulo_3922_7_);}
	.st437{fill:url(#Rectángulo_3923_7_);}
	.st438{fill:url(#Rectángulo_3924_7_);}
	.st439{fill:url(#Rectángulo_3925_7_);}
	.st440{opacity:0.1;fill:#FF2929;}
	.st441{fill:#CCF0F8;}
	.st442{opacity:0.2;fill:#D31A1A;}
	.st443{fill:#E2E7EB;}
	.st444{fill:none;stroke:#BEC8D2;}
	.st445{fill:#D5F4E6;}
	.st446{fill-rule:evenodd;clip-rule:evenodd;fill:#262944;}
</style>
<g id="business-intelligence_2_" transform="translate(18 973.588)">
	<g id="Grupo_6012_3_" transform="translate(15.742)">
		<g id="Grupo_6011_3_" transform="translate(0)">
			<path id="Trazado_26230_3_" class="st2" d="M0.9-961.24l-2.43-0.61c-0.15-0.44-0.32-0.87-0.53-1.29l1.29-2.15l-3.45-3.45
				l-2.15,1.29c-0.42-0.21-0.85-0.38-1.29-0.53l-0.61-2.43h-4.88l-0.61,2.43c-0.44,0.15-0.87,0.32-1.29,0.53l-2.15-1.29l-3.45,3.45
				l1.29,2.15c-0.21,0.42-0.38,0.85-0.53,1.29l-2.43,0.61v4.88l1.15,0.29c-0.55,1.12-0.91,2.32-1.07,3.56
				c-0.36,2.88,0.37,5.8,2.05,8.17c1.16,1.69,1.77,3.69,1.73,5.74h0.02c0.04,0.41,0.21,0.79,0.48,1.09c-0.72,0.78-0.66,2,0.12,2.71
				c0.33,0.3,0.75,0.48,1.2,0.5c1.42,3.27,5.22,4.77,8.49,3.35c1.5-0.65,2.7-1.85,3.35-3.35c1.06-0.05,1.88-0.96,1.82-2.02
				c-0.02-0.45-0.2-0.87-0.5-1.2c0.31-0.35,0.49-0.8,0.5-1.26l0,0c-0.03-1.97,0.56-3.9,1.68-5.51c2.48-3.44,2.88-7.97,1.04-11.79
				l1.14-0.29L0.9-961.24z M-10.71-931.7c-1.84,0-3.54-0.99-4.46-2.58h8.92C-7.17-932.69-8.87-931.71-10.71-931.7z M-4.9-935.57
				h-11.61c-0.36,0-0.64-0.29-0.64-0.65c0-0.36,0.29-0.64,0.64-0.64H-4.9c0.36,0,0.64,0.29,0.64,0.64
				C-4.26-935.86-4.55-935.57-4.9-935.57z M-4.9-938.15h-11.61c-0.36,0-0.64-0.29-0.64-0.65c0-0.36,0.29-0.65,0.64-0.65H-4.9
				c0.36,0,0.64,0.29,0.64,0.65C-4.26-938.44-4.55-938.15-4.9-938.15z M-2.33-945.04c-0.94,1.33-1.56,2.86-1.79,4.47
				c-0.25-0.11-0.51-0.17-0.78-0.17h-11.61c-0.28,0-0.55,0.06-0.8,0.18c-0.24-1.63-0.87-3.19-1.81-4.54
				c-1.49-2.11-2.14-4.7-1.82-7.26c0.15-1.18,0.51-2.33,1.07-3.39c0.14,0.44,0.32,0.87,0.53,1.28l-1.29,2.15l3.45,3.45l2.15-1.29
				c0.42,0.21,0.85,0.38,1.29,0.53l0.61,2.43h0.5v2.58h1.29v-2.58h1.29v2.58h1.29v-2.58h0.5l0.61-2.43
				c0.44-0.15,0.87-0.32,1.29-0.53l2.15,1.29l3.45-3.45l-1.29-2.15c0.21-0.42,0.38-0.85,0.53-1.29h0.01
				C0.24-952.31-0.07-948.17-2.33-945.04L-2.33-945.04z M-0.39-957.37l-2.17,0.54l-0.1,0.36c-0.17,0.6-0.41,1.17-0.71,1.71
				l-0.18,0.33l1.15,1.92l-2.03,2.03l-1.92-1.15l-0.32,0.18c-0.54,0.3-1.12,0.53-1.71,0.71l-0.36,0.1l-0.54,2.17h-2.86l-0.54-2.17
				l-0.36-0.1c-0.6-0.17-1.17-0.41-1.71-0.71l-0.32-0.18l-1.92,1.15l-2.03-2.03l1.15-1.92l-0.18-0.33c-0.3-0.54-0.53-1.12-0.71-1.71
				l-0.1-0.36l-2.17-0.54v-2.86l2.17-0.54l0.1-0.36c0.17-0.6,0.41-1.17,0.71-1.71l0.18-0.32l-1.15-1.92l2.03-2.03l1.92,1.15
				l0.32-0.18c0.54-0.3,1.12-0.53,1.71-0.7l0.36-0.1l0.54-2.17h2.86l0.54,2.17l0.36,0.1c0.6,0.17,1.17,0.41,1.71,0.7l0.32,0.18
				l1.92-1.15l2.03,2.03l-1.15,1.92l0.18,0.32c0.3,0.54,0.53,1.12,0.71,1.71l0.1,0.36l2.17,0.54L-0.39-957.37z"/>
		</g>
	</g>
	<g id="Grupo_6014_3_" transform="translate(20.258 4.516)">
		<g id="Grupo_6013_3_">
			<path id="Trazado_26231_3_" class="st2" d="M-15.22-970.41c-3.92,0-7.1,3.18-7.1,7.1c0,3.92,3.18,7.1,7.1,7.1s7.1-3.18,7.1-7.1
				C-8.13-967.23-11.3-970.41-15.22-970.41z M-15.22-957.51c-3.21,0-5.81-2.59-5.81-5.8c0-3.21,2.59-5.81,5.8-5.81
				c3.21,0,5.81,2.59,5.81,5.8c0,0,0,0.01,0,0.01C-9.43-960.11-12.02-957.52-15.22-957.51z"/>
		</g>
	</g>
	<g id="Grupo_6016_3_" transform="translate(25.42 7.097)">
		<g id="Grupo_6015_3_">
			<path id="Trazado_26232_3_" class="st2" d="M-20.39-966.54c-0.36,0-0.65-0.29-0.64-0.64c0-0.36,0.29-0.65,0.65-0.65
				c0.36,0,0.64,0.29,0.64,0.65h1.29c0-0.82-0.52-1.55-1.29-1.82v-1.41h-1.29v1.41c-1.01,0.35-1.53,1.46-1.18,2.46
				c0.27,0.77,1,1.29,1.82,1.29c0.36,0,0.65,0.29,0.64,0.64c0,0.36-0.29,0.65-0.65,0.65c-0.36,0-0.64-0.29-0.64-0.65h-1.29
				c0,0.82,0.52,1.55,1.29,1.82v1.41h1.29v-1.41c1.01-0.35,1.53-1.46,1.18-2.46C-18.84-966.02-19.57-966.54-20.39-966.54
				L-20.39-966.54z"/>
		</g>
	</g>
	<g id="Grupo_6018_3_" transform="translate(40.259 11.144)">
		<g id="Grupo_6017_3_" transform="translate(0 0)">
			<rect id="Rectángulo_3918_3_" x="-22.58" y="-970.55" class="st2" width="1" height="1"/>
		</g>
	</g>
	<g id="Grupo_6020_3_" transform="translate(42.605 11.144)">
		<g id="Grupo_6019_3_" transform="translate(0 0)">
			<rect id="Rectángulo_3919_3_" x="-21.93" y="-970.55" class="st2" width="1" height="1"/>
		</g>
	</g>
	<g id="Grupo_6022_3_" transform="translate(45.537 11.144)">
		<g id="Grupo_6021_3_" transform="translate(0 0)">
			<rect id="Rectángulo_3920_3_" x="-21.86" y="-970.55" class="st2" width="1" height="1"/>
		</g>
	</g>
	<g id="Grupo_6024_3_" transform="translate(8 11.144)">
		<g id="Grupo_6023_3_" transform="translate(0 0)">
			<rect id="Rectángulo_3921_3_" x="-22.32" y="-970.55" class="st2" width="1" height="1"/>
		</g>
	</g>
	<g id="Grupo_6026_3_" transform="translate(10.346 11.144)">
		<g id="Grupo_6025_3_" transform="translate(0 0)">
			<rect id="Rectángulo_3922_3_" x="-22.67" y="-970.55" class="st2" width="2" height="1"/>
		</g>
	</g>
	<g id="Grupo_6028_3_" transform="translate(13.279 11.144)">
		<g id="Grupo_6027_3_" transform="translate(0 0)">
			<rect id="Rectángulo_3923_3_" x="-22.6" y="-970.55" class="st2" width="1" height="1"/>
		</g>
	</g>
	<g id="Grupo_6030_3_" transform="translate(27.942 26.98)">
		<g id="Grupo_6029_3_" transform="translate(0 0)">
			<rect id="Rectángulo_3924_3_" x="-22.26" y="-970.39" class="st2" width="1" height="1"/>
		</g>
	</g>
	<g id="Grupo_6032_3_" transform="translate(25.596 26.98)">
		<g id="Grupo_6031_3_" transform="translate(0 0)">
			<rect id="Rectángulo_3925_3_" x="-21.92" y="-970.39" class="st2" width="1" height="1"/>
		</g>
	</g>
</g>
</svg>
