<?xml version="1.0" encoding="utf-8"?>
<!-- Generator: Adobe Illustrator 25.2.1, SVG Export Plug-In . SVG Version: 6.00 Build 0)  -->
<svg version="1.1" id="Capa_1" xmlns="http://www.w3.org/2000/svg" xmlns:xlink="http://www.w3.org/1999/xlink" x="0px" y="0px"
	 viewBox="0 0 46.36 46.36" style="enable-background:new 0 0 46.36 46.36;" xml:space="preserve">
<style type="text/css">
	.st0{fill:#F6F7F9;}
	.st1{fill:#6E6E6E;}
	.st2{fill:#FFFFFF;}
	.st3{fill:#DCDCDC;}
	.st4{fill:url(#Trazado_26198_4_);}
	.st5{fill:url(#Trazado_26199_4_);}
	.st6{fill:url(#Trazado_26200_4_);}
	.st7{fill:url(#Trazado_26201_4_);}
	.st8{fill:url(#Trazado_26202_4_);}
	.st9{fill:url(#Trazado_26203_4_);}
	.st10{fill:url(#Trazado_26204_4_);}
	.st11{fill:url(#Trazado_26205_4_);}
	.st12{fill:url(#Trazado_26206_4_);}
	.st13{fill:url(#Trazado_26207_4_);}
	.st14{fill:url(#Trazado_26208_4_);}
	.st15{fill:url(#Trazado_26209_4_);}
	.st16{fill:url(#Trazado_26210_4_);}
	.st17{fill:url(#Trazado_26211_4_);}
	.st18{fill:url(#Trazado_26212_4_);}
	.st19{fill:url(#Trazado_26213_4_);}
	.st20{fill:url(#Trazado_26214_4_);}
	.st21{fill:url(#Trazado_26215_4_);}
	.st22{fill:url(#Trazado_24566_9_);}
	.st23{fill:url(#Trazado_24567_9_);}
	.st24{fill:url(#Trazado_24568_9_);}
	.st25{fill:url(#Trazado_24569_9_);}
	.st26{fill:url(#Trazado_24570_9_);}
	.st27{fill:url(#Trazado_24571_9_);}
	.st28{fill:url(#Trazado_24572_9_);}
	.st29{fill:url(#Trazado_26216_4_);}
	.st30{fill:url(#Trazado_26217_4_);}
	.st31{fill:url(#Trazado_26218_4_);}
	.st32{fill:url(#Trazado_26336_1_);}
	.st33{fill:url(#Unión_52_1_);}
	.st34{fill:url(#Trazado_904_4_);}
	.st35{fill:url(#Trazado_905_4_);}
	.st36{fill:url(#Trazado_906_4_);}
	.st37{fill:url(#Trazado_24631_4_);}
	.st38{fill:url(#Trazado_24632_4_);}
	.st39{fill:url(#Trazado_24633_4_);}
	.st40{fill:url(#Trazado_24634_4_);}
	.st41{fill:url(#Trazado_24635_4_);}
	.st42{fill:url(#Trazado_24636_4_);}
	.st43{fill:url(#Trazado_24637_4_);}
	.st44{fill:url(#Trazado_24638_4_);}
	.st45{fill:url(#Trazado_24639_4_);}
	.st46{fill:url(#Trazado_24640_4_);}
	.st47{fill:url(#Trazado_884_3_);}
	.st48{fill:url(#Trazado_24616_3_);}
	.st49{fill:url(#Trazado_24617_3_);}
	.st50{fill:url(#Trazado_24618_3_);}
	.st51{fill:url(#Trazado_24619_3_);}
	.st52{fill:url(#Trazado_24620_3_);}
	.st53{fill:url(#Trazado_24621_3_);}
	.st54{fill:url(#Trazado_24622_3_);}
	.st55{fill:none;stroke:#CCCCCC;}
	.st56{fill:url(#Trazado_904-2_2_);}
	.st57{fill:url(#Trazado_905-2_2_);}
	.st58{fill:url(#Trazado_906-2_2_);}
	.st59{fill:url(#Trazado_24631-2_2_);}
	.st60{fill:url(#Trazado_24632-2_2_);}
	.st61{fill:url(#Trazado_24633-2_2_);}
	.st62{fill:url(#Trazado_24634-2_2_);}
	.st63{fill:url(#Trazado_24635-2_2_);}
	.st64{fill:url(#Trazado_24636-2_2_);}
	.st65{fill:url(#Trazado_24637-2_2_);}
	.st66{fill:url(#Trazado_24638-2_2_);}
	.st67{fill:url(#Trazado_24639-2_2_);}
	.st68{fill:url(#Trazado_24640-2_2_);}
	.st69{fill:url(#Trazado_884-2_1_);}
	.st70{fill:url(#Trazado_24616-2_1_);}
	.st71{fill:url(#Trazado_24617-2_1_);}
	.st72{fill:url(#Trazado_24618-2_1_);}
	.st73{fill:url(#Trazado_24619-2_1_);}
	.st74{fill:url(#Trazado_24620-2_1_);}
	.st75{fill:url(#Trazado_24621-2_1_);}
	.st76{fill:url(#Trazado_24622-2_1_);}
	.st77{fill:url(#Trazado_26355_1_);}
	.st78{opacity:0.2;fill:#26F70F;}
	.st79{fill:#F90D0D;}
	.st80{fill:none;stroke:#F90D0D;stroke-miterlimit:10;}
	.st81{fill:none;stroke:#FF2929;stroke-miterlimit:10;}
	.st82{opacity:0.2;}
	.st83{fill:#FF2929;}
	.st84{opacity:0.2;fill:#FF2929;}
	.st85{fill:#3366CC;}
	.st86{fill:none;stroke:#FFFFFF;}
	.st87{fill:#0070BA;}
	.st88{fill:#E3134D;}
	.st89{fill:#FEC20A;}
	.st90{fill:#70AF3D;}
	.st91{fill:#9B156E;}
	.st92{fill:#FBD015;}
	.st93{fill:#05569E;}
	.st94{fill:#D11F3E;}
	.st95{fill:none;}
	.st96{fill-rule:evenodd;clip-rule:evenodd;fill:#3366CC;}
	.st97{fill:none;stroke:#707070;}
	.st98{stroke:#FF2929;stroke-width:4;stroke-miterlimit:10;}
	.st99{fill:none;stroke:#FF2929;stroke-width:4;stroke-miterlimit:10;}
	.st100{fill:none;stroke:#000000;stroke-miterlimit:10;}
	.st101{fill:#41D78C;}
	.st102{fill:url(#Trazado_24869_3_);}
	.st103{fill:url(#Trazado_26191_3_);}
	.st104{fill:url(#Trazado_26192_3_);}
	.st105{fill:url(#Trazado_26193_3_);}
	.st106{fill:url(#Trazado_26194_3_);}
	.st107{fill:url(#Trazado_26195_3_);}
	.st108{fill:url(#Trazado_26196_3_);}
	.st109{fill:url(#Trazado_26197_3_);}
	.st110{fill:url(#Trazado_26198_5_);}
	.st111{fill:url(#Trazado_26199_5_);}
	.st112{fill:url(#Trazado_26200_5_);}
	.st113{fill:url(#Trazado_26201_5_);}
	.st114{fill:url(#Trazado_26202_5_);}
	.st115{fill:url(#Trazado_26203_5_);}
	.st116{fill:url(#Trazado_26204_5_);}
	.st117{fill:url(#Trazado_26205_5_);}
	.st118{fill:url(#Trazado_26206_5_);}
	.st119{fill:url(#Trazado_26207_5_);}
	.st120{fill:url(#Trazado_26208_5_);}
	.st121{fill:url(#Trazado_26209_5_);}
	.st122{fill:url(#Trazado_26210_5_);}
	.st123{fill:url(#Trazado_26211_5_);}
	.st124{fill:url(#Trazado_26212_5_);}
	.st125{fill:url(#Trazado_26213_5_);}
	.st126{fill:url(#Trazado_26214_5_);}
	.st127{fill:url(#Trazado_26215_5_);}
	.st128{fill:url(#Trazado_26216_5_);}
	.st129{fill:url(#Trazado_26217_5_);}
	.st130{fill:url(#Trazado_26218_5_);}
	.st131{fill:url(#Trazado_24566_10_);}
	.st132{fill:url(#Trazado_24567_10_);}
	.st133{fill:url(#Trazado_24568_10_);}
	.st134{fill:url(#Trazado_24569_10_);}
	.st135{fill:url(#Trazado_24570_10_);}
	.st136{fill:url(#Trazado_24571_10_);}
	.st137{fill:url(#Trazado_24572_10_);}
	.st138{fill:url(#Unión_55_1_);}
	.st139{fill:url(#Trazado_904_5_);}
	.st140{fill:url(#Trazado_905_5_);}
	.st141{fill:url(#Trazado_906_5_);}
	.st142{fill:url(#Trazado_24631_5_);}
	.st143{fill:url(#Trazado_24632_5_);}
	.st144{fill:url(#Trazado_24633_5_);}
	.st145{fill:url(#Trazado_24634_5_);}
	.st146{fill:url(#Trazado_24635_5_);}
	.st147{fill:url(#Trazado_24636_5_);}
	.st148{fill:url(#Trazado_24637_5_);}
	.st149{fill:url(#Trazado_24638_5_);}
	.st150{fill:url(#Trazado_24639_5_);}
	.st151{fill:url(#Trazado_24640_5_);}
	.st152{fill:url(#Rectángulo_3914-2_1_);}
	.st153{clip-path:url(#SVGID_6_);fill:#EBEEF0;}
	.st154{clip-path:url(#SVGID_6_);}
	.st155{opacity:0.2;clip-path:url(#SVGID_6_);fill:#26F70F;}
	.st156{opacity:0.1;clip-path:url(#SVGID_6_);}
	.st157{opacity:0.2;fill:#F90D0D;}
	.st158{fill:none;stroke:#FF0000;stroke-width:5;stroke-miterlimit:10;}
	.st159{clip-path:url(#SVGID_14_);fill:#EBEEF0;}
	.st160{clip-path:url(#SVGID_14_);}
	.st161{opacity:0.2;clip-path:url(#SVGID_14_);fill:#26F70F;}
	.st162{fill:none;stroke:#26F70F;stroke-width:7;stroke-miterlimit:10;}
	.st163{fill:url(#Rectángulo_3928_2_);}
	.st164{fill:#F0F2F4;}
	.st165{opacity:0.28;fill:none;stroke:#BEC8D2;enable-background:new    ;}
	.st166{fill:none;stroke:#E2E7EB;}
	.st167{fill:#00B4DC;}
	.st168{fill:url(#Trazado_24687_4_);}
	.st169{fill:url(#Trazado_24688_4_);}
	.st170{fill:url(#Trazado_24689_4_);}
	.st171{fill:url(#Trazado_24690_4_);}
	.st172{fill:url(#Rectángulo_1733_4_);}
	.st173{fill:url(#Rectángulo_1734_4_);}
	.st174{fill:url(#Rectángulo_1735_4_);}
	.st175{fill:url(#Trazado_24687_5_);}
	.st176{fill:url(#Trazado_24688_5_);}
	.st177{fill:url(#Trazado_24689_5_);}
	.st178{fill:url(#Trazado_24690_5_);}
	.st179{fill:url(#Rectángulo_1733_5_);}
	.st180{fill:url(#Rectángulo_1734_5_);}
	.st181{fill:url(#Rectángulo_1735_5_);}
	.st182{fill:url(#Trazado_24566_11_);}
	.st183{fill:url(#Trazado_24567_11_);}
	.st184{fill:url(#Trazado_24568_11_);}
	.st185{fill:url(#Trazado_24569_11_);}
	.st186{fill:url(#Trazado_24570_11_);}
	.st187{fill:url(#Trazado_24571_11_);}
	.st188{fill:url(#Trazado_24572_11_);}
	.st189{fill:url(#Trazado_26237_4_);}
	.st190{fill:url(#Trazado_26238_4_);}
	.st191{fill:url(#Trazado_26242_4_);}
	.st192{fill:url(#Trazado_26243_4_);}
	.st193{fill:url(#Trazado_26244_4_);}
	.st194{fill:url(#Trazado_26245_4_);}
	.st195{fill:url(#Trazado_26246_4_);}
	.st196{fill:url(#Trazado_26247_4_);}
	.st197{fill:url(#Trazado_26248_4_);}
	.st198{fill:url(#Trazado_26249_4_);}
	.st199{fill:url(#Trazado_26250_4_);}
	.st200{fill:url(#Trazado_26251_4_);}
	.st201{fill:url(#Trazado_26252_4_);}
	.st202{fill:url(#Trazado_26253_4_);}
	.st203{fill:url(#Trazado_26254_4_);}
	.st204{fill:url(#Trazado_26255_4_);}
	.st205{fill:url(#Trazado_26256_4_);}
	.st206{fill:url(#Trazado_26257_4_);}
	.st207{fill:url(#Trazado_26258_4_);}
	.st208{fill:url(#Trazado_26259_4_);}
	.st209{fill:url(#Trazado_26260_4_);}
	.st210{fill:url(#Trazado_26261_4_);}
	.st211{fill:url(#Trazado_26262_4_);}
	.st212{fill:url(#Trazado_26263_4_);}
	.st213{fill:url(#Trazado_26264_4_);}
	.st214{fill:url(#Trazado_26265_4_);}
	.st215{fill:url(#Trazado_26266_4_);}
	.st216{fill:url(#Trazado_26267_4_);}
	.st217{fill:url(#Trazado_26268_4_);}
	.st218{fill:url(#Trazado_26269_4_);}
	.st219{fill:url(#Trazado_26270_4_);}
	.st220{fill:url(#Trazado_26271_4_);}
	.st221{fill:url(#Trazado_26272_4_);}
	.st222{fill:url(#Trazado_26273_4_);}
	.st223{fill:url(#Trazado_26274_4_);}
	.st224{fill:url(#Trazado_26275_4_);}
	.st225{fill:url(#Trazado_26276_4_);}
	.st226{fill:url(#Trazado_26277_4_);}
	.st227{fill:url(#Trazado_26278_4_);}
	.st228{fill:url(#Trazado_26279_4_);}
	.st229{fill:url(#Trazado_26284_3_);}
	.st230{fill:url(#Trazado_26285_3_);}
	.st231{fill:url(#Trazado_26230_4_);}
	.st232{fill:url(#Trazado_26231_4_);}
	.st233{fill:url(#Trazado_26232_4_);}
	.st234{fill:url(#Rectángulo_3918_4_);}
	.st235{fill:url(#Rectángulo_3919_4_);}
	.st236{fill:url(#Rectángulo_3920_4_);}
	.st237{fill:url(#Rectángulo_3921_4_);}
	.st238{fill:url(#Rectángulo_3922_4_);}
	.st239{fill:url(#Rectángulo_3923_4_);}
	.st240{fill:url(#Rectángulo_3924_4_);}
	.st241{fill:url(#Rectángulo_3925_4_);}
	.st242{fill:url(#Rectángulo_3928_3_);}
	.st243{fill:url(#Trazado_24566_12_);}
	.st244{fill:url(#Trazado_24567_12_);}
	.st245{fill:url(#Trazado_24568_12_);}
	.st246{fill:url(#Trazado_24569_12_);}
	.st247{fill:url(#Trazado_24570_12_);}
	.st248{fill:url(#Trazado_24571_12_);}
	.st249{fill:url(#Trazado_24572_12_);}
	.st250{fill:url(#Trazado_26233_2_);}
	.st251{fill:url(#Trazado_26234_2_);}
	.st252{fill:url(#Trazado_26235_2_);}
	.st253{fill:url(#Trazado_26236_2_);}
	.st254{fill:url(#Trazado_26237_5_);}
	.st255{fill:url(#Trazado_26238_5_);}
	.st256{fill:url(#Trazado_26242_5_);}
	.st257{fill:url(#Trazado_26243_5_);}
	.st258{fill:url(#Trazado_26244_5_);}
	.st259{fill:url(#Trazado_26245_5_);}
	.st260{fill:url(#Trazado_26246_5_);}
	.st261{fill:url(#Trazado_26247_5_);}
	.st262{fill:url(#Trazado_26248_5_);}
	.st263{fill:url(#Trazado_26249_5_);}
	.st264{fill:url(#Trazado_26250_5_);}
	.st265{fill:url(#Trazado_26251_5_);}
	.st266{fill:url(#Trazado_26252_5_);}
	.st267{fill:url(#Trazado_26253_5_);}
	.st268{fill:url(#Trazado_26254_5_);}
	.st269{fill:url(#Trazado_26255_5_);}
	.st270{fill:url(#Trazado_26256_5_);}
	.st271{fill:url(#Trazado_26257_5_);}
	.st272{fill:url(#Trazado_26258_5_);}
	.st273{fill:url(#Trazado_26259_5_);}
	.st274{fill:url(#Trazado_26260_5_);}
	.st275{fill:url(#Trazado_26261_5_);}
	.st276{fill:url(#Trazado_26262_5_);}
	.st277{fill:url(#Trazado_26263_5_);}
	.st278{fill:url(#Trazado_26264_5_);}
	.st279{fill:url(#Trazado_26265_5_);}
	.st280{fill:url(#Trazado_26266_5_);}
	.st281{fill:url(#Trazado_26267_5_);}
	.st282{fill:url(#Trazado_26268_5_);}
	.st283{fill:url(#Trazado_26269_5_);}
	.st284{fill:url(#Trazado_26270_5_);}
	.st285{fill:url(#Trazado_26271_5_);}
	.st286{fill:url(#Trazado_26272_5_);}
	.st287{fill:url(#Trazado_26273_5_);}
	.st288{fill:url(#Trazado_26274_5_);}
	.st289{fill:url(#Trazado_26275_5_);}
	.st290{fill:url(#Trazado_26276_5_);}
	.st291{fill:url(#Trazado_26277_5_);}
	.st292{fill:url(#Trazado_26278_5_);}
	.st293{fill:url(#Trazado_26279_5_);}
	.st294{fill:url(#Trazado_26284_4_);}
	.st295{fill:url(#Trazado_26285_4_);}
	.st296{fill:url(#Trazado_26230_5_);}
	.st297{fill:url(#Trazado_26231_5_);}
	.st298{fill:url(#Trazado_26232_5_);}
	.st299{fill:url(#Rectángulo_3918_5_);}
	.st300{fill:url(#Rectángulo_3919_5_);}
	.st301{fill:url(#Rectángulo_3920_5_);}
	.st302{fill:url(#Rectángulo_3921_5_);}
	.st303{fill:url(#Rectángulo_3922_5_);}
	.st304{fill:url(#Rectángulo_3923_5_);}
	.st305{fill:url(#Rectángulo_3924_5_);}
	.st306{fill:url(#Rectángulo_3925_5_);}
	.st307{fill:none;stroke:#006495;stroke-linecap:square;stroke-miterlimit:10;stroke-dasharray:2,2;}
	.st308{fill:#262944;}
	.st309{fill:none;stroke:#FFFFFF;stroke-miterlimit:10;}
	.st310{fill:url(#Trazado_24869_4_);}
	.st311{fill:url(#Trazado_26191_5_);}
	.st312{fill:url(#Trazado_26192_5_);}
	.st313{fill:url(#Trazado_26193_5_);}
	.st314{fill:url(#Trazado_26194_5_);}
	.st315{fill:url(#Trazado_26195_5_);}
	.st316{fill:url(#Trazado_26196_5_);}
	.st317{fill:url(#Trazado_26197_5_);}
	.st318{fill:url(#Trazado_26198_6_);}
	.st319{fill:url(#Trazado_26199_6_);}
	.st320{fill:url(#Trazado_26200_6_);}
	.st321{fill:url(#Trazado_26201_6_);}
	.st322{fill:url(#Trazado_26202_6_);}
	.st323{fill:url(#Trazado_26203_6_);}
	.st324{fill:url(#Trazado_26204_6_);}
	.st325{fill:url(#Trazado_26205_6_);}
	.st326{fill:url(#Trazado_26206_6_);}
	.st327{fill:url(#Trazado_26207_6_);}
	.st328{fill:url(#Trazado_26208_6_);}
	.st329{fill:url(#Trazado_26209_6_);}
	.st330{fill:url(#Trazado_26210_6_);}
	.st331{fill:url(#Trazado_26211_6_);}
	.st332{fill:url(#Trazado_26212_6_);}
	.st333{fill:url(#Trazado_26213_6_);}
	.st334{fill:url(#Trazado_26214_6_);}
	.st335{fill:url(#Trazado_26215_6_);}
	.st336{fill:url(#Trazado_26216_6_);}
	.st337{fill:url(#Trazado_26217_6_);}
	.st338{fill:url(#Trazado_26218_6_);}
	.st339{fill:url(#Trazado_24566_13_);}
	.st340{fill:url(#Trazado_24567_13_);}
	.st341{fill:url(#Trazado_24568_13_);}
	.st342{fill:url(#Trazado_24569_13_);}
	.st343{fill:url(#Trazado_24570_13_);}
	.st344{fill:url(#Trazado_24571_13_);}
	.st345{fill:url(#Trazado_24572_13_);}
	.st346{fill:url(#Trazado_26354_3_);}
	.st347{fill:url(#Trazado_904_6_);}
	.st348{fill:url(#Trazado_905_6_);}
	.st349{fill:url(#Trazado_906_6_);}
	.st350{fill:url(#Trazado_24631_6_);}
	.st351{fill:url(#Trazado_24632_6_);}
	.st352{fill:url(#Trazado_24633_6_);}
	.st353{fill:url(#Trazado_24634_6_);}
	.st354{fill:url(#Trazado_24635_6_);}
	.st355{fill:url(#Trazado_24636_6_);}
	.st356{fill:url(#Trazado_24637_6_);}
	.st357{fill:url(#Trazado_24638_6_);}
	.st358{fill:url(#Trazado_24639_6_);}
	.st359{fill:url(#Trazado_24640_6_);}
	.st360{fill:url(#Trazado_884_4_);}
	.st361{fill:url(#Trazado_24616_4_);}
	.st362{fill:url(#Trazado_24617_4_);}
	.st363{fill:url(#Trazado_24618_4_);}
	.st364{fill:url(#Trazado_24619_4_);}
	.st365{fill:url(#Trazado_24620_4_);}
	.st366{fill:url(#Trazado_24621_4_);}
	.st367{fill:url(#Trazado_24622_4_);}
	.st368{fill:#FF6161;}
	.st369{fill:url(#Trazado_26233_5_);}
	.st370{fill:url(#Trazado_26234_5_);}
	.st371{fill:url(#Trazado_26235_5_);}
	.st372{fill:url(#Trazado_26236_5_);}
	.st373{fill:url(#Trazado_24566_14_);}
	.st374{fill:url(#Trazado_24567_14_);}
	.st375{fill:url(#Trazado_24568_14_);}
	.st376{fill:url(#Trazado_24569_14_);}
	.st377{fill:url(#Trazado_24570_14_);}
	.st378{fill:url(#Trazado_24571_14_);}
	.st379{fill:url(#Trazado_24572_14_);}
	.st380{fill:url(#Trazado_24566_15_);}
	.st381{fill:url(#Trazado_24567_15_);}
	.st382{fill:url(#Trazado_24568_15_);}
	.st383{fill:url(#Trazado_24569_15_);}
	.st384{fill:url(#Trazado_24570_15_);}
	.st385{fill:url(#Trazado_24571_15_);}
	.st386{fill:url(#Trazado_24572_15_);}
	.st387{fill:url(#Trazado_26237_6_);}
	.st388{fill:url(#Trazado_26238_6_);}
	.st389{fill:url(#Trazado_26242_6_);}
	.st390{fill:url(#Trazado_26243_6_);}
	.st391{fill:url(#Trazado_26244_6_);}
	.st392{fill:url(#Trazado_26245_6_);}
	.st393{fill:url(#Trazado_26246_6_);}
	.st394{fill:url(#Trazado_26247_6_);}
	.st395{fill:url(#Trazado_26248_6_);}
	.st396{fill:url(#Trazado_26249_6_);}
	.st397{fill:url(#Trazado_26250_6_);}
	.st398{fill:url(#Trazado_26251_6_);}
	.st399{fill:url(#Trazado_26252_6_);}
	.st400{fill:url(#Trazado_26253_6_);}
	.st401{fill:url(#Trazado_26254_6_);}
	.st402{fill:url(#Trazado_26255_6_);}
	.st403{fill:url(#Trazado_26256_6_);}
	.st404{fill:url(#Trazado_26257_6_);}
	.st405{fill:url(#Trazado_26258_6_);}
	.st406{fill:url(#Trazado_26259_6_);}
	.st407{fill:url(#Trazado_26260_6_);}
	.st408{fill:url(#Trazado_26261_6_);}
	.st409{fill:url(#Trazado_26262_6_);}
	.st410{fill:url(#Trazado_26263_6_);}
	.st411{fill:url(#Trazado_26264_6_);}
	.st412{fill:url(#Trazado_26265_6_);}
	.st413{fill:url(#Trazado_26266_6_);}
	.st414{fill:url(#Trazado_26267_6_);}
	.st415{fill:url(#Trazado_26268_6_);}
	.st416{fill:url(#Trazado_26269_6_);}
	.st417{fill:url(#Trazado_26270_6_);}
	.st418{fill:url(#Trazado_26271_6_);}
	.st419{fill:url(#Trazado_26272_6_);}
	.st420{fill:url(#Trazado_26273_6_);}
	.st421{fill:url(#Trazado_26274_6_);}
	.st422{fill:url(#Trazado_26275_6_);}
	.st423{fill:url(#Trazado_26276_6_);}
	.st424{fill:url(#Trazado_26277_6_);}
	.st425{fill:url(#Trazado_26278_6_);}
	.st426{fill:url(#Trazado_26279_6_);}
	.st427{fill:url(#Trazado_26284_6_);}
	.st428{fill:url(#Trazado_26285_6_);}
	.st429{fill:url(#Trazado_26230_6_);}
	.st430{fill:url(#Trazado_26231_6_);}
	.st431{fill:url(#Trazado_26232_6_);}
	.st432{fill:url(#Rectángulo_3918_6_);}
	.st433{fill:url(#Rectángulo_3919_6_);}
	.st434{fill:url(#Rectángulo_3920_6_);}
	.st435{fill:url(#Rectángulo_3921_6_);}
	.st436{fill:url(#Rectángulo_3922_6_);}
	.st437{fill:url(#Rectángulo_3923_6_);}
	.st438{fill:url(#Rectángulo_3924_6_);}
	.st439{fill:url(#Rectángulo_3925_6_);}
	.st440{opacity:0.1;fill:#FF2929;}
	.st441{fill:#CCF0F8;}
	.st442{opacity:0.2;fill:#D31A1A;}
	.st443{fill:#E2E7EB;}
	.st444{fill:none;stroke:#BEC8D2;}
	.st445{fill:#D5F4E6;}
	.st446{fill-rule:evenodd;clip-rule:evenodd;fill:#262944;}
</style>
<g id="_002-agregar-usuario_1_" transform="translate(25.996 490)">
	
		<linearGradient id="Trazado_26254_4_" gradientUnits="userSpaceOnUse" x1="-2369.1353" y1="4858.4258" x2="-2369.1353" y2="4857.4258" gradientTransform="matrix(4.5 0 0 -1.25 10663.0303 5614.9468)">
		<stop  offset="0" style="stop-color:#41D78C"/>
		<stop  offset="1" style="stop-color:#00B4DC"/>
	</linearGradient>
	<path id="Trazado_26254_2_" class="st203" d="M3.55-456.84H0.3c-0.35,0-0.62-0.28-0.62-0.62s0.28-0.62,0.62-0.62h3.25
		c0.35,0,0.62,0.28,0.62,0.62S3.89-456.84,3.55-456.84z"/>
	
		<linearGradient id="Trazado_26255_4_" gradientUnits="userSpaceOnUse" x1="-2485.3528" y1="3079.8169" x2="-2485.3528" y2="3078.8169" gradientTransform="matrix(5.625 0 0 -5.625 13967.5908 16865.8848)">
		<stop  offset="0" style="stop-color:#41D78C"/>
		<stop  offset="1" style="stop-color:#00B4DC"/>
	</linearGradient>
	<path id="Trazado_26255_2_" class="st204" d="M-14.7-452.46c-0.34,0-0.63-0.27-0.63-0.62c0,0,0,0,0-0.01c0-2.76,2.24-5,5-5
		c0.35,0,0.62,0.28,0.62,0.62s-0.28,0.62-0.62,0.62c-2.07,0-3.75,1.68-3.75,3.75C-14.08-452.74-14.36-452.46-14.7-452.46z"/>
	
		<linearGradient id="Trazado_26256_4_" gradientUnits="userSpaceOnUse" x1="-2352.5327" y1="4858.4258" x2="-2352.5327" y2="4857.4258" gradientTransform="matrix(4.375 0 0 -1.25 10283.5664 5614.9468)">
		<stop  offset="0" style="stop-color:#41D78C"/>
		<stop  offset="1" style="stop-color:#00B4DC"/>
	</linearGradient>
	<path id="Trazado_26256_2_" class="st205" d="M-7.2-456.84h-3.12c-0.35,0-0.62-0.28-0.62-0.62s0.28-0.62,0.62-0.62h3.12
		c0.35,0,0.62,0.28,0.62,0.62S-6.86-456.84-7.2-456.84z"/>
	
		<linearGradient id="Trazado_26257_4_" gradientUnits="userSpaceOnUse" x1="-858.3065" y1="4172.1255" x2="-858.3065" y2="4171.1255" gradientTransform="matrix(1.25 0 0 -1.786 1058.1808 6997.8398)">
		<stop  offset="0" style="stop-color:#41D78C"/>
		<stop  offset="1" style="stop-color:#00B4DC"/>
	</linearGradient>
	<path id="Trazado_26257_2_" class="st206" d="M-14.7-451.83c-0.34,0-0.62-0.28-0.62-0.62c0,0,0,0,0,0V-453
		c0-0.35,0.28-0.62,0.62-0.62s0.62,0.28,0.62,0.62v0.54C-14.08-452.12-14.36-451.84-14.7-451.83
		C-14.7-451.83-14.7-451.83-14.7-451.83z"/>
	
		<linearGradient id="Trazado_26258_4_" gradientUnits="userSpaceOnUse" x1="-858.3065" y1="3292.2053" x2="-858.3065" y2="3291.2053" gradientTransform="matrix(1.25 0 0 -3.967 1065.6808 12599.4102)">
		<stop  offset="0" style="stop-color:#41D78C"/>
		<stop  offset="1" style="stop-color:#00B4DC"/>
	</linearGradient>
	<path id="Trazado_26258_2_" class="st207" d="M-7.2-456.84c-0.34,0-0.62-0.28-0.62-0.62c0,0,0,0,0,0v-2.72
		c0-0.35,0.28-0.62,0.62-0.62s0.62,0.28,0.62,0.62v2.72C-6.58-457.12-6.86-456.84-7.2-456.84C-7.2-456.84-7.2-456.84-7.2-456.84z"/>
	
		<linearGradient id="Trazado_26259_4_" gradientUnits="userSpaceOnUse" x1="-858.3065" y1="3292.2053" x2="-858.3065" y2="3291.2053" gradientTransform="matrix(1.25 0 0 -3.967 1073.1808 12599.4102)">
		<stop  offset="0" style="stop-color:#41D78C"/>
		<stop  offset="1" style="stop-color:#00B4DC"/>
	</linearGradient>
	<path id="Trazado_26259_2_" class="st208" d="M0.3-456.84c-0.34,0-0.62-0.28-0.62-0.62c0,0,0,0,0,0v-2.72
		c0-0.35,0.28-0.62,0.62-0.62s0.62,0.28,0.62,0.62v2.72C0.92-457.12,0.64-456.84,0.3-456.84C0.3-456.84,0.3-456.84,0.3-456.84z"/>
	
		<linearGradient id="Trazado_26260_4_" gradientUnits="userSpaceOnUse" x1="-2810.7622" y1="2857.4907" x2="-2810.7622" y2="2856.4907" gradientTransform="matrix(18.75 0 0 -10 52698.3359 28106.1973)">
		<stop  offset="0" style="stop-color:#41D78C"/>
		<stop  offset="1" style="stop-color:#00B4DC"/>
	</linearGradient>
	<path id="Trazado_26260_2_" class="st209" d="M-3.45-458.71c-5.18,0-9.37-4.2-9.38-9.38c0-0.35,0.28-0.62,0.62-0.62
		s0.62,0.28,0.62,0.62c0,4.49,3.64,8.12,8.12,8.12s8.12-3.64,8.12-8.12c0-0.35,0.28-0.62,0.62-0.62s0.62,0.28,0.62,0.62
		C5.91-462.91,1.72-458.72-3.45-458.71z"/>
	
		<linearGradient id="Trazado_26261_4_" gradientUnits="userSpaceOnUse" x1="-858.3065" y1="2953.4866" x2="-858.3065" y2="2952.4866" gradientTransform="matrix(1.25 0 0 -7.486 1060.6808 21634.8184)">
		<stop  offset="0" style="stop-color:#41D78C"/>
		<stop  offset="1" style="stop-color:#00B4DC"/>
	</linearGradient>
	<path id="Trazado_26261_2_" class="st210" d="M-12.2-467.47c-0.35,0-0.62-0.28-0.62-0.62v-6.24c0-0.35,0.28-0.62,0.62-0.62
		s0.62,0.28,0.62,0.62v6.24C-11.58-467.75-11.86-467.47-12.2-467.47z"/>
	
		<linearGradient id="Trazado_26262_4_" gradientUnits="userSpaceOnUse" x1="-858.3065" y1="2923.4558" x2="-858.3065" y2="2922.4558" gradientTransform="matrix(1.25 0 0 -8.125 1078.1808 23277.4922)">
		<stop  offset="0" style="stop-color:#41D78C"/>
		<stop  offset="1" style="stop-color:#00B4DC"/>
	</linearGradient>
	<path id="Trazado_26262_2_" class="st211" d="M5.3-467.46c-0.35,0-0.62-0.28-0.62-0.62v-6.88c0-0.35,0.28-0.62,0.62-0.62
		s0.62,0.28,0.62,0.62v6.88C5.92-467.74,5.64-467.46,5.3-467.46z"/>
	
		<linearGradient id="Trazado_26263_4_" gradientUnits="userSpaceOnUse" x1="-2426.8257" y1="3143.3386" x2="-2426.8257" y2="3142.3386" gradientTransform="matrix(4.996 0 0 -5 12127.8467 15237.3574)">
		<stop  offset="0" style="stop-color:#41D78C"/>
		<stop  offset="1" style="stop-color:#00B4DC"/>
	</linearGradient>
	<path id="Trazado_26263_2_" class="st212" d="M5.3-474.34c-0.35,0-0.62-0.28-0.62-0.62c0-1.72-1.4-3.12-3.12-3.12
		c-0.35,0-0.62-0.28-0.62-0.62s0.28-0.62,0.62-0.62c2.41,0,4.37,1.96,4.37,4.38C5.92-474.62,5.64-474.34,5.3-474.34z"/>
	
		<linearGradient id="Trazado_26264_4_" gradientUnits="userSpaceOnUse" x1="-858.3065" y1="3225.0078" x2="-858.3065" y2="3224.0078" gradientTransform="matrix(1.25 0 0 -4.375 1074.4268 13626.9854)">
		<stop  offset="0" style="stop-color:#41D78C"/>
		<stop  offset="1" style="stop-color:#00B4DC"/>
	</linearGradient>
	<path id="Trazado_26264_2_" class="st213" d="M1.55-478.09c-0.35,0-0.63-0.28-0.63-0.62c0,0,0,0,0,0v-3.12
		c0-0.35,0.28-0.62,0.62-0.62s0.62,0.28,0.62,0.62v3.12C2.17-478.37,1.89-478.09,1.55-478.09z"/>
	
		<linearGradient id="Trazado_26265_4_" gradientUnits="userSpaceOnUse" x1="-2651.3779" y1="2898.3262" x2="-2651.3779" y2="2897.3262" gradientTransform="matrix(8.75 0 0 -8.75 23191.1055 24877.8945)">
		<stop  offset="0" style="stop-color:#41D78C"/>
		<stop  offset="1" style="stop-color:#00B4DC"/>
	</linearGradient>
	<path id="Trazado_26265_2_" class="st214" d="M-12.2-473.71c-0.35,0-0.62-0.28-0.62-0.62c0-4.49,3.64-8.12,8.12-8.12
		c0.35,0,0.62,0.28,0.62,0.62s-0.28,0.62-0.62,0.62c-3.8,0-6.87,3.08-6.88,6.88C-11.58-473.99-11.86-473.71-12.2-473.71z"/>
	
		<linearGradient id="Trazado_26266_4_" gradientUnits="userSpaceOnUse" x1="-2252.9575" y1="3333.8853" x2="-2252.9575" y2="3332.8853" gradientTransform="matrix(3.7502 0 0 -3.7501 8453.1191 12028.0391)">
		<stop  offset="0" style="stop-color:#41D78C"/>
		<stop  offset="1" style="stop-color:#00B4DC"/>
	</linearGradient>
	<path id="Trazado_26266_2_" class="st215" d="M5.3-470.59c-0.17,0-0.32-0.07-0.44-0.18l-2.5-2.5c-0.24-0.24-0.24-0.64,0-0.88
		s0.64-0.24,0.88,0l2.5,2.5c0.24,0.24,0.24,0.64,0,0.88C5.62-470.65,5.46-470.59,5.3-470.59L5.3-470.59z"/>
	
		<linearGradient id="Trazado_26267_4_" gradientUnits="userSpaceOnUse" x1="-2760.2976" y1="3712.1594" x2="-2760.2976" y2="3711.1594" gradientTransform="matrix(13.768 0 0 -2.5063 38000.3516 8829.4541)">
		<stop  offset="0" style="stop-color:#41D78C"/>
		<stop  offset="1" style="stop-color:#00B4DC"/>
	</linearGradient>
	<path id="Trazado_26267_2_" class="st216" d="M-3.45-471.83c-2.23-0.02-4.43-0.47-6.5-1.3c-0.32-0.14-0.46-0.51-0.32-0.82
		c0.14-0.32,0.51-0.46,0.82-0.32c3.84,1.6,8.16,1.6,12,0c0.31-0.15,0.68-0.01,0.83,0.3s0.01,0.68-0.3,0.83
		c-0.01,0.01-0.02,0.01-0.04,0.02C0.98-472.3-1.22-471.86-3.45-471.83z"/>
	
		<linearGradient id="Trazado_26268_4_" gradientUnits="userSpaceOnUse" x1="-2253.0481" y1="3335.4143" x2="-2253.0481" y2="3334.4143" gradientTransform="matrix(3.7507 0 0 -3.7426 8439.5596 12008.7324)">
		<stop  offset="0" style="stop-color:#41D78C"/>
		<stop  offset="1" style="stop-color:#00B4DC"/>
	</linearGradient>
	<path id="Trazado_26268_2_" class="st217" d="M-12.2-470.59c-0.35,0-0.63-0.28-0.63-0.62c0-0.17,0.07-0.33,0.18-0.44l2.5-2.49
		c0.24-0.24,0.64-0.24,0.88,0c0.24,0.24,0.24,0.64,0,0.88l0,0l-2.5,2.49C-11.88-470.66-12.04-470.59-12.2-470.59z"/>
	
		<linearGradient id="Trazado_26269_4_" gradientUnits="userSpaceOnUse" x1="-2113.5996" y1="3714.9368" x2="-2113.5996" y2="3713.9368" gradientTransform="matrix(3.1255 0 0 -2.5002 6599.8647 8830.0547)">
		<stop  offset="0" style="stop-color:#41D78C"/>
		<stop  offset="1" style="stop-color:#00B4DC"/>
	</linearGradient>
	<path id="Trazado_26269_2_" class="st218" d="M-5.33-455.59c-0.12,0-0.24-0.03-0.35-0.1l-1.88-1.25c-0.29-0.19-0.36-0.58-0.17-0.87
		s0.58-0.36,0.87-0.17l1.88,1.25c0.29,0.19,0.36,0.58,0.17,0.87C-4.92-455.68-5.12-455.58-5.33-455.59L-5.33-455.59z"/>
	
		<linearGradient id="Trazado_26270_4_" gradientUnits="userSpaceOnUse" x1="-2114.4033" y1="4095.3713" x2="-2114.4033" y2="4094.3713" gradientTransform="matrix(3.1285 0 0 -1.876 6610.604 7225.3589)">
		<stop  offset="0" style="stop-color:#41D78C"/>
		<stop  offset="1" style="stop-color:#00B4DC"/>
	</linearGradient>
	<path id="Trazado_26270_2_" class="st219" d="M-5.33-455.59c-0.35,0-0.63-0.28-0.63-0.62c0-0.27,0.17-0.51,0.43-0.6l1.88-0.62
		c0.33-0.11,0.68,0.07,0.79,0.39s-0.07,0.68-0.39,0.79l-1.88,0.62C-5.19-455.6-5.26-455.59-5.33-455.59z"/>
	
		<linearGradient id="Trazado_26271_4_" gradientUnits="userSpaceOnUse" x1="-2113.5874" y1="3714.9368" x2="-2113.5874" y2="3713.9368" gradientTransform="matrix(3.1255 0 0 -2.5002 6605.3516 8830.0498)">
		<stop  offset="0" style="stop-color:#41D78C"/>
		<stop  offset="1" style="stop-color:#00B4DC"/>
	</linearGradient>
	<path id="Trazado_26271_2_" class="st220" d="M-1.58-455.59c-0.35,0-0.63-0.28-0.63-0.62c0-0.21,0.1-0.41,0.28-0.52l1.88-1.25
		c0.29-0.19,0.68-0.11,0.87,0.17s0.11,0.68-0.17,0.87l-1.88,1.25C-1.33-455.62-1.45-455.59-1.58-455.59z"/>
	
		<linearGradient id="Trazado_26272_4_" gradientUnits="userSpaceOnUse" x1="-2114.4482" y1="4095.3464" x2="-2114.4482" y2="4094.3464" gradientTransform="matrix(3.1287 0 0 -1.876 6612.9771 7225.4375)">
		<stop  offset="0" style="stop-color:#41D78C"/>
		<stop  offset="1" style="stop-color:#00B4DC"/>
	</linearGradient>
	<path id="Trazado_26272_2_" class="st221" d="M-1.58-455.59c-0.07,0-0.14-0.01-0.2-0.03l-1.88-0.62c-0.33-0.11-0.5-0.47-0.39-0.79
		c0.11-0.33,0.47-0.5,0.79-0.39l1.88,0.62c0.33,0.11,0.5,0.46,0.4,0.79C-1.07-455.76-1.31-455.58-1.58-455.59L-1.58-455.59z"/>
	
		<linearGradient id="Trazado_26273_4_" gradientUnits="userSpaceOnUse" x1="-864.1634" y1="4858.4258" x2="-864.1634" y2="4857.4258" gradientTransform="matrix(1.2535 0 0 -1.25 1079.8009 5618.6968)">
		<stop  offset="0" style="stop-color:#41D78C"/>
		<stop  offset="1" style="stop-color:#00B4DC"/>
	</linearGradient>
	<path id="Trazado_26273_2_" class="st222" d="M-3.43-453.09c-0.35,0-0.63-0.28-0.63-0.62c0-0.35,0.28-0.63,0.62-0.63l0,0h0.01
		c0.35,0,0.62,0.28,0.62,0.62S-3.09-453.09-3.43-453.09z"/>
	
		<linearGradient id="Trazado_26274_4_" gradientUnits="userSpaceOnUse" x1="-864.1888" y1="4858.4258" x2="-864.1888" y2="4857.4258" gradientTransform="matrix(1.2535 0 0 -1.25 1079.8459 5621.1968)">
		<stop  offset="0" style="stop-color:#41D78C"/>
		<stop  offset="1" style="stop-color:#00B4DC"/>
	</linearGradient>
	<path id="Trazado_26274_2_" class="st223" d="M-3.43-450.59c-0.35,0-0.63-0.28-0.63-0.62c0-0.35,0.28-0.63,0.62-0.63h0.01
		c0.35,0,0.62,0.28,0.62,0.62S-3.09-450.59-3.43-450.59z"/>
	
		<linearGradient id="Trazado_26275_4_" gradientUnits="userSpaceOnUse" x1="-2601.5706" y1="4858.4258" x2="-2601.5706" y2="4857.4258" gradientTransform="matrix(7.5 0 0 -1.25 19510.2012 5590.5718)">
		<stop  offset="0" style="stop-color:#41D78C"/>
		<stop  offset="1" style="stop-color:#00B4DC"/>
	</linearGradient>
	<path id="Trazado_26275_2_" class="st224" d="M1.55-481.21H-4.7c-0.35,0-0.62-0.28-0.62-0.62s0.28-0.62,0.62-0.62h6.25
		c0.35,0,0.62,0.28,0.62,0.62S1.89-481.21,1.55-481.21z"/>
	
		<linearGradient id="Trazado_26276_4_" gradientUnits="userSpaceOnUse" x1="-2882.6934" y1="2645.4634" x2="-2882.6934" y2="2644.4634" gradientTransform="matrix(38.722 0 0 -38.7221 111620.2109 101950.9688)">
		<stop  offset="0" style="stop-color:#41D78C"/>
		<stop  offset="1" style="stop-color:#00B4DC"/>
	</linearGradient>
	<path id="Trazado_26276_2_" class="st225" d="M-3.45-448.09c-10.69-0.01-19.35-8.68-19.35-19.38c0.01-10.69,8.68-19.35,19.38-19.35
		s19.35,8.68,19.35,19.38c0,2.68-0.56,5.33-1.64,7.79c-0.15,0.31-0.53,0.44-0.84,0.28c-0.29-0.14-0.42-0.48-0.31-0.78
		c4.03-9.15-0.12-19.84-9.28-23.87c-9.15-4.03-19.84,0.12-23.87,9.28s0.12,19.84,9.28,23.87c4.65,2.05,9.94,2.05,14.59,0
		c0.31-0.15,0.68-0.03,0.84,0.28c0.15,0.31,0.03,0.68-0.28,0.84c-0.02,0.01-0.04,0.02-0.06,0.02C1.9-448.64-0.76-448.08-3.45-448.09
		z"/>
	
		<linearGradient id="Trazado_26277_4_" gradientUnits="userSpaceOnUse" x1="-2775.8972" y1="2762.2078" x2="-2775.8972" y2="2761.2078" gradientTransform="matrix(15 0 0 -15 41648.207 40971.3672)">
		<stop  offset="0" style="stop-color:#41D78C"/>
		<stop  offset="1" style="stop-color:#00B4DC"/>
	</linearGradient>
	<path id="Trazado_26277_2_" class="st226" d="M9.67-446.84c-4.14,0-7.5-3.35-7.51-7.49c0-4.14,3.35-7.5,7.49-7.51
		c4.14,0,7.5,3.35,7.51,7.49c0,1.99-0.79,3.9-2.19,5.31C13.57-447.62,11.66-446.83,9.67-446.84z M9.67-460.59
		c-3.45,0-6.25,2.8-6.26,6.25c0,3.45,2.8,6.25,6.25,6.26c3.45,0,6.25-2.8,6.26-6.25c0-1.66-0.66-3.25-1.83-4.42
		C12.92-459.93,11.33-460.59,9.67-460.59L9.67-460.59z"/>
	
		<linearGradient id="Trazado_26278_4_" gradientUnits="userSpaceOnUse" x1="-2601.5706" y1="4858.4258" x2="-2601.5706" y2="4857.4258" gradientTransform="matrix(7.5 0 0 -1.25 19521.4512 5618.0718)">
		<stop  offset="0" style="stop-color:#41D78C"/>
		<stop  offset="1" style="stop-color:#00B4DC"/>
	</linearGradient>
	<path id="Trazado_26278_2_" class="st227" d="M12.8-453.71H6.55c-0.35,0-0.62-0.28-0.62-0.62s0.28-0.62,0.62-0.62h6.25
		c0.35,0,0.62,0.28,0.62,0.62S13.14-453.71,12.8-453.71z"/>
	
		<linearGradient id="Trazado_26279_4_" gradientUnits="userSpaceOnUse" x1="-858.3065" y1="2952.7734" x2="-858.3065" y2="2951.7734" gradientTransform="matrix(1.25 0 0 -7.5 1082.5558 21687.7148)">
		<stop  offset="0" style="stop-color:#41D78C"/>
		<stop  offset="1" style="stop-color:#00B4DC"/>
	</linearGradient>
	<path id="Trazado_26279_2_" class="st228" d="M9.67-450.59c-0.34,0-0.62-0.28-0.62-0.62c0,0,0,0,0,0v-6.25
		c0-0.35,0.28-0.62,0.62-0.62s0.62,0.28,0.62,0.62v6.25C10.3-450.87,10.02-450.59,9.67-450.59C9.67-450.59,9.67-450.59,9.67-450.59z
		"/>
</g>
</svg>
