<?xml version="1.0" encoding="utf-8"?>
<!-- Generator: Adobe Illustrator 25.2.1, SVG Export Plug-In . SVG Version: 6.00 Build 0)  -->
<svg version="1.1" id="Capa_1" xmlns="http://www.w3.org/2000/svg" xmlns:xlink="http://www.w3.org/1999/xlink" x="0px" y="0px"
	 viewBox="0 0 132.54 132.54" style="enable-background:new 0 0 132.54 132.54;" xml:space="preserve">
<style type="text/css">
	.st0{fill:url(#SVGID_1_);}
	.st1{fill:#FFFFFF;}
	.st2{fill:url(#Trazado_26237_1_);}
	.st3{fill:url(#Trazado_26238_1_);}
	.st4{fill:url(#Trazado_26242_1_);}
	.st5{fill:url(#Trazado_26243_1_);}
	.st6{fill:url(#Trazado_26244_1_);}
	.st7{fill:url(#Trazado_26245_1_);}
	.st8{fill:url(#Trazado_26246_1_);}
	.st9{fill:url(#Trazado_26247_1_);}
	.st10{fill:url(#Trazado_26248_1_);}
	.st11{fill:url(#Trazado_26249_1_);}
	.st12{fill:url(#Trazado_26250_1_);}
	.st13{fill:url(#Trazado_26251_1_);}
	.st14{fill:url(#Trazado_26252_1_);}
	.st15{fill:url(#Trazado_26253_1_);}
</style>
<g>
	<g id="Grupo_6035" transform="translate(19.198 38.438)">
		<g id="Grupo_6034">
			<path id="Trazado_26237" class="st1" d="M48.71,85.3c-0.94-0.94-2.46-0.94-3.4,0c-0.94,0.94-0.94,2.46,0,3.4
				c0.94,0.94,2.46,0.94,3.4,0c0.45-0.45,0.7-1.06,0.7-1.7C49.41,86.36,49.16,85.75,48.71,85.3z"/>
		</g>
	</g>
	<g id="Grupo_6037" transform="translate(0 8.237)">
		<g id="Grupo_6036">
			<path id="Trazado_26238" class="st1" d="M114.99,75.13l-8.02-1.92v-3.17c4.61-2.9,7.42-7.97,7.42-13.43v-8.96
				c0.01-8.76-7.09-15.87-15.85-15.87c-4.55,0-8.88,1.95-11.9,5.36c-2.62-9.06-10.91-15.29-20.34-15.3l0,0
				c-9.44,0.01-17.74,6.27-20.35,15.34c-5.78-6.58-15.8-7.24-22.39-1.46c-3.43,3.01-5.4,7.36-5.4,11.93v8.96
				c0,5.45,2.8,10.52,7.42,13.43v3.18l-8.02,1.92C10.01,76.91,4.68,83.66,4.7,91.41v16.17c0,1.33,1.08,2.4,2.4,2.4c0,0,0,0,0,0
				h19.23v7.22c0,1.33,1.08,2.4,2.4,2.4c0,0,0,0,0,0h26.39c1.33,0,2.4-1.08,2.4-2.41c0-1.32-1.08-2.4-2.4-2.4H44.39v-10.58
				c0-1.33-1.08-2.4-2.4-2.4s-2.4,1.08-2.4,2.4v10.58h-8.43v-10.85c-0.02-8.13,5.56-15.21,13.47-17.08l11.83-2.84l7.61,17.32
				c0.38,0.87,1.25,1.44,2.2,1.44l0,0c0.95,0,1.82-0.56,2.2-1.44l7.6-17.29l11.79,2.82c7.92,1.87,13.51,8.95,13.48,17.09v2.68
				c-0.25,0.6-0.25,1.28,0,1.88v6.27h-8.38v-10.58c0-1.33-1.08-2.4-2.4-2.4c-1.33,0-2.4,1.08-2.4,2.4v10.58H76.37
				c-1.33,0-2.41,1.08-2.41,2.41c0,1.33,1.08,2.41,2.41,2.41h27.38c1.33,0,2.4-1.08,2.4-2.4l0,0v-7.22h19.28
				c1.33,0,2.4-1.08,2.4-2.4l0,0V91.42C127.86,83.66,122.54,76.91,114.99,75.13z M98.51,36.58c6.11,0.01,11.05,4.96,11.06,11.06
				v0.84h-6.88c-5.19,0-10.3-1.36-14.8-3.95C89.28,39.82,93.6,36.58,98.51,36.58z M87.44,56.21c0-0.25,0-6.46,0-6.46
				c4.74,2.33,9.95,3.54,15.24,3.54h6.88v3.32c0,6.11-4.96,11.06-11.07,11.06c-6.11,0-11.06-4.95-11.06-11.06v-0.39L87.44,56.21z
				 M49.94,42.97c0.12-9.03,7.55-16.25,16.58-16.13c8.86,0.12,16.01,7.27,16.13,16.13v0.31l-8.93-5.23
				c-1.01-0.6-2.31-0.37-3.06,0.53c-3.45,4.14-8.56,6.53-13.95,6.53h-6.75L49.94,42.97z M22.96,48.21v-0.6
				c0-6.11,4.95-11.06,11.06-11.07c4.91,0,9.24,3.24,10.62,7.95c-4.5,2.6-9.6,3.98-14.8,3.99h-6.88L22.96,48.21z M22.96,56.58v-3.32
				h6.88c5.29,0,10.5-1.21,15.25-3.55v6.87c0,6.11-4.95,11.06-11.06,11.06C27.92,67.64,22.96,62.69,22.96,56.58z M26.34,103.91v1.23
				h-7.2V94.46c0-1.33-1.08-2.4-2.4-2.4c-1.33,0-2.4,1.08-2.4,2.4v10.69H9.51V91.38c-0.01-5.53,3.78-10.34,9.16-11.61l7.62-1.82
				l4.97,11.92c-3.21,3.99-4.95,8.95-4.93,14.07L26.34,103.91z M34.03,84l-3.65-8.73c0-0.06,0-0.11,0-0.17v-3.06
				c2.39,0.57,4.88,0.57,7.27,0v2.9c0,0.05,0,0.09,0,0.14c0,0.05,0,0.15,0,0.23L34.03,84z M43.5,82.15c-1.4,0.34-2.76,0.8-4.07,1.4
				l2.34-5.61l7.63,1.83c0.59,0.14,1.16,0.33,1.72,0.56L43.5,82.15z M55.44,77.14c-1.52-0.94-3.18-1.64-4.93-2.05l-8.05-1.93v-3.12
				c2-1.26,3.7-2.96,4.97-4.96c1.82,3.54,4.59,6.5,8,8.55V77.14z M72.27,80.71l-6,13.68l-6.02-13.68v-4.96
				c3.92,1.16,8.09,1.17,12.01,0.02v4.97L72.27,80.71z M66.29,71.79c-9.03-0.01-16.35-7.33-16.36-16.36v-5.52h6.77
				c6.1,0.01,11.94-2.41,16.25-6.72l9.67,5.68v7.16c-0.31,8.8-7.53,15.78-16.34,15.79V71.79z M77.07,73.63L77.07,73.63
				c3.43-2.04,6.22-5,8.05-8.55c1.27,1.99,2.95,3.67,4.94,4.93v3.16l-8.05,1.93c-1.75,0.42-3.42,1.12-4.94,2.07v-3.51L77.07,73.63z
				 M88.97,82.15l-7.61-1.82c0.57-0.24,1.17-0.43,1.77-0.58l7.61-1.82l2.35,5.63c-1.32-0.59-2.7-1.05-4.12-1.38L88.97,82.15z
				 M94.86,75.31c0.01-0.09,0.02-0.17,0.02-0.26c0-0.02,0-0.05,0-0.07v-2.97c2.39,0.57,4.88,0.57,7.27,0v3.06c0,0.04,0,0.09,0,0.13
				l-3.67,8.79L94.86,75.31z M123.03,105.13h-4.81V94.44c0-1.33-1.08-2.4-2.4-2.4c-1.33,0-2.4,1.08-2.4,2.4v10.69h-7.26v-1.23
				c0.01-5.1-1.73-10.05-4.93-14.02l4.99-11.95l7.64,1.83c5.38,1.27,9.18,6.08,9.16,11.61L123.03,105.13z"/>
		</g>
	</g>
	<g id="Grupo_6045" transform="translate(30.986 4.219)">
		<g id="Grupo_6044">
			<path id="Trazado_26242" class="st1" d="M73.16,13.47h-1.65c-1.33,0-2.41,1.08-2.41,2.41c0,1.33,1.08,2.41,2.41,2.41h1.65
				c1.33,0,2.4-1.08,2.4-2.4C75.56,14.55,74.48,13.47,73.16,13.47L73.16,13.47z"/>
		</g>
	</g>
	<g id="Grupo_6047" transform="translate(34.777 4.219)">
		<g id="Grupo_6046">
			<path id="Trazado_26243" class="st1" d="M81.04,13.47h-1.65c-1.33,0-2.41,1.08-2.41,2.41c0,1.33,1.08,2.41,2.41,2.41h1.65
				c1.33,0,2.4-1.08,2.4-2.4C83.44,14.55,82.37,13.47,81.04,13.47L81.04,13.47z"/>
		</g>
	</g>
	<g id="Grupo_6049" transform="translate(33.149 5.846)">
		<g id="Grupo_6048">
			<path id="Trazado_26244" class="st1" d="M76,16.85c-1.33,0-2.4,1.08-2.4,2.4c0,0,0,0,0,0v1.65c0,1.33,1.08,2.41,2.41,2.41
				s2.41-1.08,2.41-2.41v-1.65C78.41,17.93,77.34,16.85,76,16.85C76.01,16.85,76.01,16.85,76,16.85z"/>
		</g>
	</g>
	<g id="Grupo_6051" transform="translate(33.149 2.055)">
		<g id="Grupo_6050">
			<path id="Trazado_26245" class="st1" d="M76,8.97c-1.33,0-2.4,1.08-2.4,2.4c0,0,0,0,0,0v1.65c0,1.33,1.08,2.41,2.41,2.41
				s2.41-1.08,2.41-2.41v-1.65C78.41,10.05,77.34,8.97,76,8.97C76.01,8.97,76.01,8.97,76,8.97z"/>
		</g>
	</g>
	<g id="Grupo_6053" transform="translate(3.082 4.219)">
		<g id="Grupo_6052">
			<path id="Trazado_26246" class="st1" d="M15.16,13.47h-1.65c-1.33,0-2.41,1.08-2.41,2.41c0,1.33,1.08,2.41,2.41,2.41h1.65
				c1.33,0,2.4-1.08,2.4-2.4C17.56,14.55,16.49,13.47,15.16,13.47L15.16,13.47L15.16,13.47z"/>
		</g>
	</g>
	<g id="Grupo_6055" transform="translate(6.872 4.219)">
		<g id="Grupo_6054">
			<path id="Trazado_26247" class="st1" d="M23.04,13.47h-1.65c-1.33,0-2.41,1.08-2.41,2.41c0,1.33,1.08,2.41,2.41,2.41h1.65
				c1.33,0,2.4-1.08,2.4-2.4C25.44,14.55,24.37,13.47,23.04,13.47L23.04,13.47z"/>
		</g>
	</g>
	<g id="Grupo_6057" transform="translate(5.245 5.846)">
		<g id="Grupo_6056">
			<path id="Trazado_26248" class="st1" d="M18.01,16.85c-1.33,0-2.4,1.08-2.4,2.4v1.65c0,1.33,1.08,2.41,2.41,2.41
				c1.33,0,2.41-1.08,2.41-2.41l0,0v-1.65C20.41,17.93,19.34,16.85,18.01,16.85C18.01,16.85,18.01,16.85,18.01,16.85z"/>
		</g>
	</g>
	<g id="Grupo_6059" transform="translate(5.245 2.055)">
		<g id="Grupo_6058">
			<path id="Trazado_26249" class="st1" d="M18.01,8.97c-1.33,0-2.4,1.08-2.4,2.4v1.65c0,1.33,1.08,2.41,2.41,2.41
				c1.33,0,2.41-1.08,2.41-2.41l0,0v-1.65C20.41,10.05,19.34,8.97,18.01,8.97C18.01,8.97,18.01,8.97,18.01,8.97z"/>
		</g>
	</g>
	<g id="Grupo_6061" transform="translate(19.219 2.976)">
		<g id="Grupo_6060">
			<path id="Trazado_26250" class="st1" d="M47.05,10.89c-1.33,0-2.4,1.08-2.4,2.4v0v6.33c0,1.33,1.08,2.41,2.41,2.41
				c1.33,0,2.41-1.08,2.41-2.41l0,0v-6.33C49.46,11.96,48.38,10.89,47.05,10.89C47.05,10.89,47.05,10.89,47.05,10.89z"/>
		</g>
	</g>
	<g id="Grupo_6063" transform="translate(19.219)">
		<g id="Grupo_6062">
			<path id="Trazado_26251" class="st1" d="M48.75,5.41c-0.94-0.94-2.46-0.94-3.4,0c-0.45,0.45-0.71,1.06-0.71,1.7
				c0,1.33,1.08,2.4,2.41,2.4c1.33,0,2.4-1.08,2.4-2.41C49.45,6.47,49.2,5.86,48.75,5.41z"/>
		</g>
	</g>
	<g id="Grupo_6065" transform="translate(14.785 1.762)">
		<g id="Grupo_6064">
			<path id="Trazado_26252" class="st1" d="M43.06,12.59l-3.52-3.52C38.52,8.22,37,8.36,36.15,9.38c-0.74,0.89-0.74,2.19,0,3.08
				l3.52,3.52c0.85,1.02,2.37,1.16,3.39,0.31c1.02-0.85,1.16-2.37,0.31-3.39C43.27,12.78,43.17,12.68,43.06,12.59z"/>
		</g>
	</g>
	<g id="Grupo_6067" transform="translate(22.471 1.719)">
		<g id="Grupo_6066">
			<path id="Trazado_26253" class="st1" d="M59.15,8.98c-0.94-0.93-2.45-0.93-3.39,0l-3.64,3.64c-0.85,1.02-0.71,2.54,0.31,3.39
				c0.89,0.74,2.19,0.74,3.08,0l3.64-3.64C60.08,11.43,60.08,9.92,59.15,8.98z"/>
		</g>
	</g>
</g>
</svg>
