<?xml version="1.0" encoding="utf-8"?>
<!-- Generator: Adobe Illustrator 25.2.1, SVG Export Plug-In . SVG Version: 6.00 Build 0)  -->
<svg version="1.1" id="Capa_1" xmlns="http://www.w3.org/2000/svg" xmlns:xlink="http://www.w3.org/1999/xlink" x="0px" y="0px"
	 viewBox="0 0 46.36 46.36" style="enable-background:new 0 0 46.36 46.36;" xml:space="preserve">
<style type="text/css">
	.st0{fill:#F6F7F9;}
	.st1{fill:#6E6E6E;}
	.st2{fill:#FFFFFF;}
	.st3{fill:#DCDCDC;}
	.st4{fill:url(#Trazado_26198_4_);}
	.st5{fill:url(#Trazado_26199_4_);}
	.st6{fill:url(#Trazado_26200_4_);}
	.st7{fill:url(#Trazado_26201_4_);}
	.st8{fill:url(#Trazado_26202_4_);}
	.st9{fill:url(#Trazado_26203_4_);}
	.st10{fill:url(#Trazado_26204_4_);}
	.st11{fill:url(#Trazado_26205_4_);}
	.st12{fill:url(#Trazado_26206_4_);}
	.st13{fill:url(#Trazado_26207_4_);}
	.st14{fill:url(#Trazado_26208_4_);}
	.st15{fill:url(#Trazado_26209_4_);}
	.st16{fill:url(#Trazado_26210_4_);}
	.st17{fill:url(#Trazado_26211_4_);}
	.st18{fill:url(#Trazado_26212_4_);}
	.st19{fill:url(#Trazado_26213_4_);}
	.st20{fill:url(#Trazado_26214_4_);}
	.st21{fill:url(#Trazado_26215_4_);}
	.st22{fill:url(#Trazado_24566_9_);}
	.st23{fill:url(#Trazado_24567_9_);}
	.st24{fill:url(#Trazado_24568_9_);}
	.st25{fill:url(#Trazado_24569_9_);}
	.st26{fill:url(#Trazado_24570_9_);}
	.st27{fill:url(#Trazado_24571_9_);}
	.st28{fill:url(#Trazado_24572_9_);}
	.st29{fill:url(#Trazado_26216_4_);}
	.st30{fill:url(#Trazado_26217_4_);}
	.st31{fill:url(#Trazado_26218_4_);}
	.st32{fill:url(#Trazado_26336_1_);}
	.st33{fill:url(#Unión_52_1_);}
	.st34{fill:url(#Trazado_904_4_);}
	.st35{fill:url(#Trazado_905_4_);}
	.st36{fill:url(#Trazado_906_4_);}
	.st37{fill:url(#Trazado_24631_4_);}
	.st38{fill:url(#Trazado_24632_4_);}
	.st39{fill:url(#Trazado_24633_4_);}
	.st40{fill:url(#Trazado_24634_4_);}
	.st41{fill:url(#Trazado_24635_4_);}
	.st42{fill:url(#Trazado_24636_4_);}
	.st43{fill:url(#Trazado_24637_4_);}
	.st44{fill:url(#Trazado_24638_4_);}
	.st45{fill:url(#Trazado_24639_4_);}
	.st46{fill:url(#Trazado_24640_4_);}
	.st47{fill:url(#Trazado_884_3_);}
	.st48{fill:url(#Trazado_24616_3_);}
	.st49{fill:url(#Trazado_24617_3_);}
	.st50{fill:url(#Trazado_24618_3_);}
	.st51{fill:url(#Trazado_24619_3_);}
	.st52{fill:url(#Trazado_24620_3_);}
	.st53{fill:url(#Trazado_24621_3_);}
	.st54{fill:url(#Trazado_24622_3_);}
	.st55{fill:none;stroke:#CCCCCC;}
	.st56{fill:url(#Trazado_904-2_2_);}
	.st57{fill:url(#Trazado_905-2_2_);}
	.st58{fill:url(#Trazado_906-2_2_);}
	.st59{fill:url(#Trazado_24631-2_2_);}
	.st60{fill:url(#Trazado_24632-2_2_);}
	.st61{fill:url(#Trazado_24633-2_2_);}
	.st62{fill:url(#Trazado_24634-2_2_);}
	.st63{fill:url(#Trazado_24635-2_2_);}
	.st64{fill:url(#Trazado_24636-2_2_);}
	.st65{fill:url(#Trazado_24637-2_2_);}
	.st66{fill:url(#Trazado_24638-2_2_);}
	.st67{fill:url(#Trazado_24639-2_2_);}
	.st68{fill:url(#Trazado_24640-2_2_);}
	.st69{fill:url(#Trazado_884-2_1_);}
	.st70{fill:url(#Trazado_24616-2_1_);}
	.st71{fill:url(#Trazado_24617-2_1_);}
	.st72{fill:url(#Trazado_24618-2_1_);}
	.st73{fill:url(#Trazado_24619-2_1_);}
	.st74{fill:url(#Trazado_24620-2_1_);}
	.st75{fill:url(#Trazado_24621-2_1_);}
	.st76{fill:url(#Trazado_24622-2_1_);}
	.st77{fill:url(#Trazado_26355_1_);}
	.st78{opacity:0.2;fill:#26F70F;}
	.st79{fill:#F90D0D;}
	.st80{fill:none;stroke:#F90D0D;stroke-miterlimit:10;}
	.st81{fill:none;stroke:#FF2929;stroke-miterlimit:10;}
	.st82{opacity:0.2;}
	.st83{fill:#FF2929;}
	.st84{opacity:0.2;fill:#FF2929;}
	.st85{fill:#3366CC;}
	.st86{fill:none;stroke:#FFFFFF;}
	.st87{fill:#0070BA;}
	.st88{fill:#E3134D;}
	.st89{fill:#FEC20A;}
	.st90{fill:#70AF3D;}
	.st91{fill:#9B156E;}
	.st92{fill:#FBD015;}
	.st93{fill:#05569E;}
	.st94{fill:#D11F3E;}
	.st95{fill:none;}
	.st96{fill-rule:evenodd;clip-rule:evenodd;fill:#3366CC;}
	.st97{fill:none;stroke:#707070;}
	.st98{stroke:#FF2929;stroke-width:4;stroke-miterlimit:10;}
	.st99{fill:none;stroke:#FF2929;stroke-width:4;stroke-miterlimit:10;}
	.st100{fill:none;stroke:#000000;stroke-miterlimit:10;}
	.st101{fill:#41D78C;}
	.st102{fill:url(#Trazado_24869_3_);}
	.st103{fill:url(#Trazado_26191_3_);}
	.st104{fill:url(#Trazado_26192_3_);}
	.st105{fill:url(#Trazado_26193_3_);}
	.st106{fill:url(#Trazado_26194_3_);}
	.st107{fill:url(#Trazado_26195_3_);}
	.st108{fill:url(#Trazado_26196_3_);}
	.st109{fill:url(#Trazado_26197_3_);}
	.st110{fill:url(#Trazado_26198_5_);}
	.st111{fill:url(#Trazado_26199_5_);}
	.st112{fill:url(#Trazado_26200_5_);}
	.st113{fill:url(#Trazado_26201_5_);}
	.st114{fill:url(#Trazado_26202_5_);}
	.st115{fill:url(#Trazado_26203_5_);}
	.st116{fill:url(#Trazado_26204_5_);}
	.st117{fill:url(#Trazado_26205_5_);}
	.st118{fill:url(#Trazado_26206_5_);}
	.st119{fill:url(#Trazado_26207_5_);}
	.st120{fill:url(#Trazado_26208_5_);}
	.st121{fill:url(#Trazado_26209_5_);}
	.st122{fill:url(#Trazado_26210_5_);}
	.st123{fill:url(#Trazado_26211_5_);}
	.st124{fill:url(#Trazado_26212_5_);}
	.st125{fill:url(#Trazado_26213_5_);}
	.st126{fill:url(#Trazado_26214_5_);}
	.st127{fill:url(#Trazado_26215_5_);}
	.st128{fill:url(#Trazado_26216_5_);}
	.st129{fill:url(#Trazado_26217_5_);}
	.st130{fill:url(#Trazado_26218_5_);}
	.st131{fill:url(#Trazado_24566_10_);}
	.st132{fill:url(#Trazado_24567_10_);}
	.st133{fill:url(#Trazado_24568_10_);}
	.st134{fill:url(#Trazado_24569_10_);}
	.st135{fill:url(#Trazado_24570_10_);}
	.st136{fill:url(#Trazado_24571_10_);}
	.st137{fill:url(#Trazado_24572_10_);}
	.st138{fill:url(#Unión_55_1_);}
	.st139{fill:url(#Trazado_904_5_);}
	.st140{fill:url(#Trazado_905_5_);}
	.st141{fill:url(#Trazado_906_5_);}
	.st142{fill:url(#Trazado_24631_5_);}
	.st143{fill:url(#Trazado_24632_5_);}
	.st144{fill:url(#Trazado_24633_5_);}
	.st145{fill:url(#Trazado_24634_5_);}
	.st146{fill:url(#Trazado_24635_5_);}
	.st147{fill:url(#Trazado_24636_5_);}
	.st148{fill:url(#Trazado_24637_5_);}
	.st149{fill:url(#Trazado_24638_5_);}
	.st150{fill:url(#Trazado_24639_5_);}
	.st151{fill:url(#Trazado_24640_5_);}
	.st152{fill:url(#Rectángulo_3914-2_1_);}
	.st153{clip-path:url(#SVGID_6_);fill:#EBEEF0;}
	.st154{clip-path:url(#SVGID_6_);}
	.st155{opacity:0.2;clip-path:url(#SVGID_6_);fill:#26F70F;}
	.st156{opacity:0.1;clip-path:url(#SVGID_6_);}
	.st157{opacity:0.2;fill:#F90D0D;}
	.st158{fill:none;stroke:#FF0000;stroke-width:5;stroke-miterlimit:10;}
	.st159{clip-path:url(#SVGID_14_);fill:#EBEEF0;}
	.st160{clip-path:url(#SVGID_14_);}
	.st161{opacity:0.2;clip-path:url(#SVGID_14_);fill:#26F70F;}
	.st162{fill:none;stroke:#26F70F;stroke-width:7;stroke-miterlimit:10;}
	.st163{fill:url(#Rectángulo_3928_2_);}
	.st164{fill:#F0F2F4;}
	.st165{opacity:0.28;fill:none;stroke:#BEC8D2;enable-background:new    ;}
	.st166{fill:none;stroke:#E2E7EB;}
	.st167{fill:#00B4DC;}
	.st168{fill:url(#Trazado_24687_4_);}
	.st169{fill:url(#Trazado_24688_4_);}
	.st170{fill:url(#Trazado_24689_4_);}
	.st171{fill:url(#Trazado_24690_4_);}
	.st172{fill:url(#Rectángulo_1733_4_);}
	.st173{fill:url(#Rectángulo_1734_4_);}
	.st174{fill:url(#Rectángulo_1735_4_);}
	.st175{fill:url(#Trazado_24687_5_);}
	.st176{fill:url(#Trazado_24688_5_);}
	.st177{fill:url(#Trazado_24689_5_);}
	.st178{fill:url(#Trazado_24690_5_);}
	.st179{fill:url(#Rectángulo_1733_5_);}
	.st180{fill:url(#Rectángulo_1734_5_);}
	.st181{fill:url(#Rectángulo_1735_5_);}
	.st182{fill:url(#Trazado_24566_11_);}
	.st183{fill:url(#Trazado_24567_11_);}
	.st184{fill:url(#Trazado_24568_11_);}
	.st185{fill:url(#Trazado_24569_11_);}
	.st186{fill:url(#Trazado_24570_11_);}
	.st187{fill:url(#Trazado_24571_11_);}
	.st188{fill:url(#Trazado_24572_11_);}
	.st189{fill:url(#Trazado_26237_4_);}
	.st190{fill:url(#Trazado_26238_4_);}
	.st191{fill:url(#Trazado_26242_4_);}
	.st192{fill:url(#Trazado_26243_4_);}
	.st193{fill:url(#Trazado_26244_4_);}
	.st194{fill:url(#Trazado_26245_4_);}
	.st195{fill:url(#Trazado_26246_4_);}
	.st196{fill:url(#Trazado_26247_4_);}
	.st197{fill:url(#Trazado_26248_4_);}
	.st198{fill:url(#Trazado_26249_4_);}
	.st199{fill:url(#Trazado_26250_4_);}
	.st200{fill:url(#Trazado_26251_4_);}
	.st201{fill:url(#Trazado_26252_4_);}
	.st202{fill:url(#Trazado_26253_4_);}
	.st203{fill:url(#Trazado_26254_4_);}
	.st204{fill:url(#Trazado_26255_4_);}
	.st205{fill:url(#Trazado_26256_4_);}
	.st206{fill:url(#Trazado_26257_4_);}
	.st207{fill:url(#Trazado_26258_4_);}
	.st208{fill:url(#Trazado_26259_4_);}
	.st209{fill:url(#Trazado_26260_4_);}
	.st210{fill:url(#Trazado_26261_4_);}
	.st211{fill:url(#Trazado_26262_4_);}
	.st212{fill:url(#Trazado_26263_4_);}
	.st213{fill:url(#Trazado_26264_4_);}
	.st214{fill:url(#Trazado_26265_4_);}
	.st215{fill:url(#Trazado_26266_4_);}
	.st216{fill:url(#Trazado_26267_4_);}
	.st217{fill:url(#Trazado_26268_4_);}
	.st218{fill:url(#Trazado_26269_4_);}
	.st219{fill:url(#Trazado_26270_4_);}
	.st220{fill:url(#Trazado_26271_4_);}
	.st221{fill:url(#Trazado_26272_4_);}
	.st222{fill:url(#Trazado_26273_4_);}
	.st223{fill:url(#Trazado_26274_4_);}
	.st224{fill:url(#Trazado_26275_4_);}
	.st225{fill:url(#Trazado_26276_4_);}
	.st226{fill:url(#Trazado_26277_4_);}
	.st227{fill:url(#Trazado_26278_4_);}
	.st228{fill:url(#Trazado_26279_4_);}
	.st229{fill:url(#Trazado_26284_3_);}
	.st230{fill:url(#Trazado_26285_3_);}
	.st231{fill:url(#Trazado_26230_4_);}
	.st232{fill:url(#Trazado_26231_4_);}
	.st233{fill:url(#Trazado_26232_4_);}
	.st234{fill:url(#Rectángulo_3918_4_);}
	.st235{fill:url(#Rectángulo_3919_4_);}
	.st236{fill:url(#Rectángulo_3920_4_);}
	.st237{fill:url(#Rectángulo_3921_4_);}
	.st238{fill:url(#Rectángulo_3922_4_);}
	.st239{fill:url(#Rectángulo_3923_4_);}
	.st240{fill:url(#Rectángulo_3924_4_);}
	.st241{fill:url(#Rectángulo_3925_4_);}
	.st242{fill:url(#Rectángulo_3928_3_);}
	.st243{fill:url(#Trazado_24566_12_);}
	.st244{fill:url(#Trazado_24567_12_);}
	.st245{fill:url(#Trazado_24568_12_);}
	.st246{fill:url(#Trazado_24569_12_);}
	.st247{fill:url(#Trazado_24570_12_);}
	.st248{fill:url(#Trazado_24571_12_);}
	.st249{fill:url(#Trazado_24572_12_);}
	.st250{fill:url(#Trazado_26233_2_);}
	.st251{fill:url(#Trazado_26234_2_);}
	.st252{fill:url(#Trazado_26235_2_);}
	.st253{fill:url(#Trazado_26236_2_);}
	.st254{fill:url(#Trazado_26237_5_);}
	.st255{fill:url(#Trazado_26238_5_);}
	.st256{fill:url(#Trazado_26242_5_);}
	.st257{fill:url(#Trazado_26243_5_);}
	.st258{fill:url(#Trazado_26244_5_);}
	.st259{fill:url(#Trazado_26245_5_);}
	.st260{fill:url(#Trazado_26246_5_);}
	.st261{fill:url(#Trazado_26247_5_);}
	.st262{fill:url(#Trazado_26248_5_);}
	.st263{fill:url(#Trazado_26249_5_);}
	.st264{fill:url(#Trazado_26250_5_);}
	.st265{fill:url(#Trazado_26251_5_);}
	.st266{fill:url(#Trazado_26252_5_);}
	.st267{fill:url(#Trazado_26253_5_);}
	.st268{fill:url(#Trazado_26254_5_);}
	.st269{fill:url(#Trazado_26255_5_);}
	.st270{fill:url(#Trazado_26256_5_);}
	.st271{fill:url(#Trazado_26257_5_);}
	.st272{fill:url(#Trazado_26258_5_);}
	.st273{fill:url(#Trazado_26259_5_);}
	.st274{fill:url(#Trazado_26260_5_);}
	.st275{fill:url(#Trazado_26261_5_);}
	.st276{fill:url(#Trazado_26262_5_);}
	.st277{fill:url(#Trazado_26263_5_);}
	.st278{fill:url(#Trazado_26264_5_);}
	.st279{fill:url(#Trazado_26265_5_);}
	.st280{fill:url(#Trazado_26266_5_);}
	.st281{fill:url(#Trazado_26267_5_);}
	.st282{fill:url(#Trazado_26268_5_);}
	.st283{fill:url(#Trazado_26269_5_);}
	.st284{fill:url(#Trazado_26270_5_);}
	.st285{fill:url(#Trazado_26271_5_);}
	.st286{fill:url(#Trazado_26272_5_);}
	.st287{fill:url(#Trazado_26273_5_);}
	.st288{fill:url(#Trazado_26274_5_);}
	.st289{fill:url(#Trazado_26275_5_);}
	.st290{fill:url(#Trazado_26276_5_);}
	.st291{fill:url(#Trazado_26277_5_);}
	.st292{fill:url(#Trazado_26278_5_);}
	.st293{fill:url(#Trazado_26279_5_);}
	.st294{fill:url(#Trazado_26284_4_);}
	.st295{fill:url(#Trazado_26285_4_);}
	.st296{fill:url(#Trazado_26230_5_);}
	.st297{fill:url(#Trazado_26231_5_);}
	.st298{fill:url(#Trazado_26232_5_);}
	.st299{fill:url(#Rectángulo_3918_5_);}
	.st300{fill:url(#Rectángulo_3919_5_);}
	.st301{fill:url(#Rectángulo_3920_5_);}
	.st302{fill:url(#Rectángulo_3921_5_);}
	.st303{fill:url(#Rectángulo_3922_5_);}
	.st304{fill:url(#Rectángulo_3923_5_);}
	.st305{fill:url(#Rectángulo_3924_5_);}
	.st306{fill:url(#Rectángulo_3925_5_);}
	.st307{fill:none;stroke:#006495;stroke-linecap:square;stroke-miterlimit:10;stroke-dasharray:2,2;}
	.st308{fill:#262944;}
	.st309{fill:none;stroke:#FFFFFF;stroke-miterlimit:10;}
	.st310{fill:url(#Trazado_24869_4_);}
	.st311{fill:url(#Trazado_26191_5_);}
	.st312{fill:url(#Trazado_26192_5_);}
	.st313{fill:url(#Trazado_26193_5_);}
	.st314{fill:url(#Trazado_26194_5_);}
	.st315{fill:url(#Trazado_26195_5_);}
	.st316{fill:url(#Trazado_26196_5_);}
	.st317{fill:url(#Trazado_26197_5_);}
	.st318{fill:url(#Trazado_26198_6_);}
	.st319{fill:url(#Trazado_26199_6_);}
	.st320{fill:url(#Trazado_26200_6_);}
	.st321{fill:url(#Trazado_26201_6_);}
	.st322{fill:url(#Trazado_26202_6_);}
	.st323{fill:url(#Trazado_26203_6_);}
	.st324{fill:url(#Trazado_26204_6_);}
	.st325{fill:url(#Trazado_26205_6_);}
	.st326{fill:url(#Trazado_26206_6_);}
	.st327{fill:url(#Trazado_26207_6_);}
	.st328{fill:url(#Trazado_26208_6_);}
	.st329{fill:url(#Trazado_26209_6_);}
	.st330{fill:url(#Trazado_26210_6_);}
	.st331{fill:url(#Trazado_26211_6_);}
	.st332{fill:url(#Trazado_26212_6_);}
	.st333{fill:url(#Trazado_26213_6_);}
	.st334{fill:url(#Trazado_26214_6_);}
	.st335{fill:url(#Trazado_26215_6_);}
	.st336{fill:url(#Trazado_26216_6_);}
	.st337{fill:url(#Trazado_26217_6_);}
	.st338{fill:url(#Trazado_26218_6_);}
	.st339{fill:url(#Trazado_24566_13_);}
	.st340{fill:url(#Trazado_24567_13_);}
	.st341{fill:url(#Trazado_24568_13_);}
	.st342{fill:url(#Trazado_24569_13_);}
	.st343{fill:url(#Trazado_24570_13_);}
	.st344{fill:url(#Trazado_24571_13_);}
	.st345{fill:url(#Trazado_24572_13_);}
	.st346{fill:url(#Trazado_26354_3_);}
	.st347{fill:url(#Trazado_904_6_);}
	.st348{fill:url(#Trazado_905_6_);}
	.st349{fill:url(#Trazado_906_6_);}
	.st350{fill:url(#Trazado_24631_6_);}
	.st351{fill:url(#Trazado_24632_6_);}
	.st352{fill:url(#Trazado_24633_6_);}
	.st353{fill:url(#Trazado_24634_6_);}
	.st354{fill:url(#Trazado_24635_6_);}
	.st355{fill:url(#Trazado_24636_6_);}
	.st356{fill:url(#Trazado_24637_6_);}
	.st357{fill:url(#Trazado_24638_6_);}
	.st358{fill:url(#Trazado_24639_6_);}
	.st359{fill:url(#Trazado_24640_6_);}
	.st360{fill:url(#Trazado_884_4_);}
	.st361{fill:url(#Trazado_24616_4_);}
	.st362{fill:url(#Trazado_24617_4_);}
	.st363{fill:url(#Trazado_24618_4_);}
	.st364{fill:url(#Trazado_24619_4_);}
	.st365{fill:url(#Trazado_24620_4_);}
	.st366{fill:url(#Trazado_24621_4_);}
	.st367{fill:url(#Trazado_24622_4_);}
	.st368{fill:#FF6161;}
	.st369{fill:url(#Trazado_26233_5_);}
	.st370{fill:url(#Trazado_26234_5_);}
	.st371{fill:url(#Trazado_26235_5_);}
	.st372{fill:url(#Trazado_26236_5_);}
	.st373{fill:url(#Trazado_24566_14_);}
	.st374{fill:url(#Trazado_24567_14_);}
	.st375{fill:url(#Trazado_24568_14_);}
	.st376{fill:url(#Trazado_24569_14_);}
	.st377{fill:url(#Trazado_24570_14_);}
	.st378{fill:url(#Trazado_24571_14_);}
	.st379{fill:url(#Trazado_24572_14_);}
	.st380{fill:url(#Trazado_24566_15_);}
	.st381{fill:url(#Trazado_24567_15_);}
	.st382{fill:url(#Trazado_24568_15_);}
	.st383{fill:url(#Trazado_24569_15_);}
	.st384{fill:url(#Trazado_24570_15_);}
	.st385{fill:url(#Trazado_24571_15_);}
	.st386{fill:url(#Trazado_24572_15_);}
	.st387{fill:url(#Trazado_26237_6_);}
	.st388{fill:url(#Trazado_26238_6_);}
	.st389{fill:url(#Trazado_26242_6_);}
	.st390{fill:url(#Trazado_26243_6_);}
	.st391{fill:url(#Trazado_26244_6_);}
	.st392{fill:url(#Trazado_26245_6_);}
	.st393{fill:url(#Trazado_26246_6_);}
	.st394{fill:url(#Trazado_26247_6_);}
	.st395{fill:url(#Trazado_26248_6_);}
	.st396{fill:url(#Trazado_26249_6_);}
	.st397{fill:url(#Trazado_26250_6_);}
	.st398{fill:url(#Trazado_26251_6_);}
	.st399{fill:url(#Trazado_26252_6_);}
	.st400{fill:url(#Trazado_26253_6_);}
	.st401{fill:url(#Trazado_26254_6_);}
	.st402{fill:url(#Trazado_26255_6_);}
	.st403{fill:url(#Trazado_26256_6_);}
	.st404{fill:url(#Trazado_26257_6_);}
	.st405{fill:url(#Trazado_26258_6_);}
	.st406{fill:url(#Trazado_26259_6_);}
	.st407{fill:url(#Trazado_26260_6_);}
	.st408{fill:url(#Trazado_26261_6_);}
	.st409{fill:url(#Trazado_26262_6_);}
	.st410{fill:url(#Trazado_26263_6_);}
	.st411{fill:url(#Trazado_26264_6_);}
	.st412{fill:url(#Trazado_26265_6_);}
	.st413{fill:url(#Trazado_26266_6_);}
	.st414{fill:url(#Trazado_26267_6_);}
	.st415{fill:url(#Trazado_26268_6_);}
	.st416{fill:url(#Trazado_26269_6_);}
	.st417{fill:url(#Trazado_26270_6_);}
	.st418{fill:url(#Trazado_26271_6_);}
	.st419{fill:url(#Trazado_26272_6_);}
	.st420{fill:url(#Trazado_26273_6_);}
	.st421{fill:url(#Trazado_26274_6_);}
	.st422{fill:url(#Trazado_26275_6_);}
	.st423{fill:url(#Trazado_26276_6_);}
	.st424{fill:url(#Trazado_26277_6_);}
	.st425{fill:url(#Trazado_26278_6_);}
	.st426{fill:url(#Trazado_26279_6_);}
	.st427{fill:url(#Trazado_26284_6_);}
	.st428{fill:url(#Trazado_26285_6_);}
	.st429{fill:url(#Trazado_26230_6_);}
	.st430{fill:url(#Trazado_26231_6_);}
	.st431{fill:url(#Trazado_26232_6_);}
	.st432{fill:url(#Rectángulo_3918_6_);}
	.st433{fill:url(#Rectángulo_3919_6_);}
	.st434{fill:url(#Rectángulo_3920_6_);}
	.st435{fill:url(#Rectángulo_3921_6_);}
	.st436{fill:url(#Rectángulo_3922_6_);}
	.st437{fill:url(#Rectángulo_3923_6_);}
	.st438{fill:url(#Rectángulo_3924_6_);}
	.st439{fill:url(#Rectángulo_3925_6_);}
	.st440{opacity:0.1;fill:#FF2929;}
	.st441{fill:#CCF0F8;}
	.st442{opacity:0.2;fill:#D31A1A;}
	.st443{fill:#E2E7EB;}
	.st444{fill:none;stroke:#BEC8D2;}
	.st445{fill:#D5F4E6;}
	.st446{fill-rule:evenodd;clip-rule:evenodd;fill:#262944;}
</style>
<g id="_001-grupo_1_" transform="translate(26 397)">
	<g id="Grupo_6035_2_" transform="translate(19.198 38.438)">
		<g id="Grupo_6034_2_">
			
				<linearGradient id="Trazado_26237_4_" gradientUnits="userSpaceOnUse" x1="-1277.0128" y1="4396.6558" x2="-1277.0128" y2="4395.6558" gradientTransform="matrix(1.562 0 0 -1.562 1972.6692 6473.8062)">
				<stop  offset="0" style="stop-color:#41D78C"/>
				<stop  offset="1" style="stop-color:#00B4DC"/>
			</linearGradient>
			<path id="Trazado_26237_2_" class="st189" d="M-21.49-393.59c-0.31-0.3-0.8-0.3-1.1,0c-0.3,0.31-0.3,0.8,0,1.1
				c0.31,0.3,0.8,0.3,1.1,0c0.15-0.15,0.23-0.35,0.23-0.55C-21.26-393.25-21.34-393.45-21.49-393.59z"/>
		</g>
	</g>
	<g id="Grupo_6037_2_" transform="translate(0 8.237)">
		<g id="Grupo_6036_2_">
			
				<linearGradient id="Trazado_26238_4_" gradientUnits="userSpaceOnUse" x1="-2835.1282" y1="2743.4797" x2="-2835.1282" y2="2742.4797" gradientTransform="matrix(39.999 0 0 -31.76 113399.5547 86739.125)">
				<stop  offset="0" style="stop-color:#41D78C"/>
				<stop  offset="1" style="stop-color:#00B4DC"/>
			</linearGradient>
			<path id="Trazado_26238_2_" class="st190" d="M13-376.51l-2.61-0.62v-1.03c1.5-0.94,2.41-2.59,2.41-4.36v-2.91
				c0-2.85-2.3-5.15-5.15-5.16c-1.48,0-2.89,0.63-3.86,1.74c-0.85-2.94-3.54-4.97-6.61-4.97l0,0c-3.07,0-5.76,2.04-6.61,4.98
				c-1.88-2.14-5.13-2.35-7.27-0.47c-1.12,0.98-1.75,2.39-1.75,3.87v2.91c0,1.77,0.91,3.42,2.41,4.36v1.03l-2.61,0.62
				c-2.45,0.58-4.18,2.77-4.18,5.29v5.25c0,0.43,0.35,0.78,0.78,0.78h0h6.25v2.34c0,0.43,0.35,0.78,0.78,0.78h0h8.57
				c0.43,0,0.78-0.35,0.78-0.78c0-0.43-0.35-0.78-0.78-0.78h-3.49v-3.44c0-0.43-0.35-0.78-0.78-0.78s-0.78,0.35-0.78,0.78v3.44
				h-2.74v-3.52c-0.01-2.64,1.81-4.94,4.38-5.55l3.84-0.92l2.47,5.62c0.12,0.28,0.41,0.47,0.72,0.47l0,0c0.31,0,0.59-0.18,0.72-0.47
				l2.47-5.62l3.83,0.92c2.57,0.61,4.39,2.91,4.38,5.55v0.87c-0.08,0.2-0.08,0.42,0,0.61v2.04H5.85v-3.44
				c0-0.43-0.35-0.78-0.78-0.78s-0.78,0.35-0.78,0.78v3.44H0.46c-0.43,0-0.78,0.35-0.78,0.78c0,0.43,0.35,0.78,0.78,0.78h8.89
				c0.43,0,0.78-0.35,0.78-0.78l0,0v-2.34h6.26c0.43,0,0.78-0.35,0.78-0.78l0,0v-5.25C17.18-373.74,15.45-375.93,13-376.51z
				 M7.65-389.03c1.98,0,3.59,1.61,3.59,3.59v0.27H9.01c-1.69,0-3.35-0.44-4.81-1.28C4.65-387.98,6.06-389.03,7.65-389.03z
				 M4.06-382.65c0-0.08,0-2.1,0-2.1c1.54,0.76,3.23,1.15,4.95,1.15h2.24v1.08c0,1.98-1.61,3.59-3.6,3.59
				c-1.98,0-3.59-1.61-3.59-3.59L4.06-382.65L4.06-382.65z M-8.13-386.95c0.04-2.93,2.45-5.28,5.39-5.24
				c2.88,0.04,5.2,2.36,5.24,5.24v0.1l-2.9-1.7c-0.33-0.19-0.75-0.12-1,0.17c-1.12,1.34-2.78,2.12-4.53,2.12h-2.19L-8.13-386.95z
				 M-16.89-385.25v-0.19c0-1.98,1.61-3.59,3.59-3.59c1.6,0,3,1.05,3.45,2.58c-1.46,0.85-3.12,1.29-4.81,1.3h-2.23L-16.89-385.25z
				 M-16.89-382.53v-1.08h2.23c1.72,0,3.41-0.39,4.95-1.15v2.23c0,1.98-1.61,3.59-3.59,3.59
				C-15.28-378.94-16.89-380.55-16.89-382.53z M-15.79-367.16v0.4h-2.34v-3.47c0-0.43-0.35-0.78-0.78-0.78
				c-0.43,0-0.78,0.35-0.78,0.78v3.47h-1.56v-4.47c0-1.8,1.23-3.36,2.98-3.77l2.48-0.59l1.62,3.87
				C-15.23-370.42-15.8-368.81-15.79-367.16L-15.79-367.16z M-13.29-373.62l-1.19-2.83c0-0.02,0-0.04,0-0.06v-0.99
				c0.78,0.18,1.59,0.18,2.36,0v0.94c0,0.01,0,0.03,0,0.04c0,0.02,0,0.05,0,0.07L-13.29-373.62z M-10.22-374.22
				c-0.45,0.11-0.9,0.26-1.32,0.45l0.76-1.82L-8.3-375c0.19,0.05,0.38,0.11,0.56,0.18L-10.22-374.22z M-6.34-375.85
				c-0.49-0.31-1.03-0.53-1.6-0.67l-2.61-0.63v-1.01c0.65-0.41,1.2-0.96,1.61-1.61c0.59,1.15,1.49,2.11,2.6,2.78V-375.85z
				 M-0.87-374.69l-1.95,4.44l-1.95-4.44v-1.61c1.27,0.38,2.63,0.38,3.9,0.01L-0.87-374.69L-0.87-374.69z M-2.81-377.59
				c-2.93,0-5.31-2.38-5.31-5.31v-1.79h2.2c1.98,0,3.88-0.78,5.28-2.18l3.14,1.85v2.33c-0.1,2.86-2.45,5.13-5.31,5.13L-2.81-377.59z
				 M0.69-376.99L0.69-376.99c1.11-0.66,2.02-1.63,2.61-2.78c0.41,0.64,0.96,1.19,1.61,1.6v1.02l-2.61,0.63
				c-0.57,0.14-1.11,0.36-1.61,0.67L0.69-376.99L0.69-376.99z M4.55-374.23l-2.47-0.59c0.19-0.08,0.38-0.14,0.58-0.19l2.47-0.59
				l0.76,1.83c-0.43-0.19-0.88-0.34-1.34-0.45L4.55-374.23z M6.47-376.45c0-0.03,0-0.06,0-0.08c0-0.01,0-0.02,0-0.02v-0.96
				c0.78,0.18,1.59,0.18,2.36,0v0.99c0,0.01,0,0.03,0,0.04l-1.19,2.86L6.47-376.45z M15.61-366.76h-1.56v-3.47
				c0-0.43-0.35-0.78-0.78-0.78c-0.43,0-0.78,0.35-0.78,0.78v3.47h-2.36v-0.4c0-1.66-0.56-3.26-1.6-4.55l1.62-3.88l2.48,0.59
				c1.75,0.41,2.98,1.97,2.98,3.77L15.61-366.76z"/>
		</g>
	</g>
	<g id="Grupo_6045_2_" transform="translate(30.986 4.219)">
		<g id="Grupo_6044_2_">
			
				<linearGradient id="Trazado_26242_4_" gradientUnits="userSpaceOnUse" x1="-1708.4395" y1="4429.7559" x2="-1708.4395" y2="4428.7559" gradientTransform="matrix(2.0985 0 0 -1.563 3563.4045 6529.8848)">
				<stop  offset="0" style="stop-color:#41D78C"/>
				<stop  offset="1" style="stop-color:#00B4DC"/>
			</linearGradient>
			<path id="Trazado_26242_2_" class="st191" d="M-21.5-393.82h-0.54c-0.43,0-0.78,0.35-0.78,0.78s0.35,0.78,0.78,0.78h0.54
				c0.43,0,0.78-0.35,0.78-0.78S-21.07-393.82-21.5-393.82L-21.5-393.82z"/>
		</g>
	</g>
	<g id="Grupo_6047_2_" transform="translate(34.777 4.219)">
		<g id="Grupo_6046_2_">
			
				<linearGradient id="Trazado_26243_4_" gradientUnits="userSpaceOnUse" x1="-1712.2305" y1="4429.7559" x2="-1712.2305" y2="4428.7559" gradientTransform="matrix(2.0985 0 0 -1.563 3571.3611 6529.8848)">
				<stop  offset="0" style="stop-color:#41D78C"/>
				<stop  offset="1" style="stop-color:#00B4DC"/>
			</linearGradient>
			<path id="Trazado_26243_2_" class="st192" d="M-21.5-393.82h-0.54c-0.43,0-0.78,0.35-0.78,0.78s0.35,0.78,0.78,0.78h0.54
				c0.43,0,0.78-0.35,0.78-0.78S-21.07-393.82-21.5-393.82L-21.5-393.82z"/>
		</g>
	</g>
	<g id="Grupo_6049_2_" transform="translate(33.149 5.846)">
		<g id="Grupo_6048_2_">
			
				<linearGradient id="Trazado_26244_4_" gradientUnits="userSpaceOnUse" x1="-1291.9894" y1="3976.6292" x2="-1291.9894" y2="3975.6292" gradientTransform="matrix(1.563 0 0 -2.0985 1997.324 7951.1162)">
				<stop  offset="0" style="stop-color:#41D78C"/>
				<stop  offset="1" style="stop-color:#00B4DC"/>
			</linearGradient>
			<path id="Trazado_26244_2_" class="st193" d="M-22.04-393.82c-0.43,0-0.78,0.35-0.78,0.78v0v0.54c0,0.43,0.35,0.78,0.78,0.78
				s0.78-0.35,0.78-0.78v-0.54C-21.26-393.47-21.61-393.82-22.04-393.82C-22.04-393.82-22.04-393.82-22.04-393.82z"/>
		</g>
	</g>
	<g id="Grupo_6051_2_" transform="translate(33.149 2.055)">
		<g id="Grupo_6050_2_">
			
				<linearGradient id="Trazado_26245_4_" gradientUnits="userSpaceOnUse" x1="-1292.0215" y1="3980.4214" x2="-1292.0215" y2="3979.4214" gradientTransform="matrix(1.563 0 0 -2.0985 1997.4135 7959.0664)">
				<stop  offset="0" style="stop-color:#41D78C"/>
				<stop  offset="1" style="stop-color:#00B4DC"/>
			</linearGradient>
			<path id="Trazado_26245_2_" class="st194" d="M-22.04-393.82c-0.43,0-0.78,0.35-0.78,0.78v0v0.54c0,0.43,0.35,0.78,0.78,0.78
				s0.78-0.35,0.78-0.78v-0.54C-21.26-393.47-21.61-393.82-22.04-393.82C-22.04-393.82-22.04-393.82-22.04-393.82z"/>
		</g>
	</g>
	<g id="Grupo_6053_2_" transform="translate(3.082 4.219)">
		<g id="Grupo_6052_2_">
			
				<linearGradient id="Trazado_26246_4_" gradientUnits="userSpaceOnUse" x1="-1680.5288" y1="4429.7559" x2="-1680.5288" y2="4428.7559" gradientTransform="matrix(2.0985 0 0 -1.563 3504.8154 6529.8848)">
				<stop  offset="0" style="stop-color:#41D78C"/>
				<stop  offset="1" style="stop-color:#00B4DC"/>
			</linearGradient>
			<path id="Trazado_26246_2_" class="st195" d="M-21.5-393.82h-0.54c-0.43,0-0.78,0.35-0.78,0.78s0.35,0.78,0.78,0.78h0.54
				c0.43,0,0.78-0.35,0.78-0.78S-21.07-393.82-21.5-393.82L-21.5-393.82L-21.5-393.82z"/>
		</g>
	</g>
	<g id="Grupo_6055_2_" transform="translate(6.872 4.219)">
		<g id="Grupo_6054_2_">
			
				<linearGradient id="Trazado_26247_4_" gradientUnits="userSpaceOnUse" x1="-1684.321" y1="4429.7559" x2="-1684.321" y2="4428.7559" gradientTransform="matrix(2.0985 0 0 -1.563 3512.7798 6529.8848)">
				<stop  offset="0" style="stop-color:#41D78C"/>
				<stop  offset="1" style="stop-color:#00B4DC"/>
			</linearGradient>
			<path id="Trazado_26247_2_" class="st196" d="M-21.5-393.82h-0.54c-0.43,0-0.78,0.35-0.78,0.78s0.35,0.78,0.78,0.78h0.54
				c0.43,0,0.78-0.35,0.78-0.78S-21.07-393.82-21.5-393.82L-21.5-393.82z"/>
		</g>
	</g>
	<g id="Grupo_6057_2_" transform="translate(5.245 5.846)">
		<g id="Grupo_6056_2_">
			
				<linearGradient id="Trazado_26248_4_" gradientUnits="userSpaceOnUse" x1="-1264.1014" y1="3976.6243" x2="-1264.1014" y2="3975.6243" gradientTransform="matrix(1.563 0 0 -2.0985 1953.7546 7951.1367)">
				<stop  offset="0" style="stop-color:#41D78C"/>
				<stop  offset="1" style="stop-color:#00B4DC"/>
			</linearGradient>
			<path id="Trazado_26248_2_" class="st197" d="M-22.04-393.82c-0.43,0-0.78,0.35-0.78,0.78v0.54c0,0.43,0.35,0.78,0.78,0.78
				s0.78-0.35,0.78-0.78l0,0v-0.54C-21.26-393.47-21.61-393.82-22.04-393.82C-22.04-393.82-22.04-393.82-22.04-393.82z"/>
		</g>
	</g>
	<g id="Grupo_6059_2_" transform="translate(5.245 2.055)">
		<g id="Grupo_6058_2_">
			
				<linearGradient id="Trazado_26249_4_" gradientUnits="userSpaceOnUse" x1="-1264.1014" y1="3980.4165" x2="-1264.1014" y2="3979.4165" gradientTransform="matrix(1.563 0 0 -2.0985 1953.7546 7959.0869)">
				<stop  offset="0" style="stop-color:#41D78C"/>
				<stop  offset="1" style="stop-color:#00B4DC"/>
			</linearGradient>
			<path id="Trazado_26249_2_" class="st198" d="M-22.04-393.82c-0.43,0-0.78,0.35-0.78,0.78v0.54c0,0.43,0.35,0.78,0.78,0.78
				s0.78-0.35,0.78-0.78l0,0v-0.54C-21.26-393.47-21.61-393.82-22.04-393.82C-22.04-393.82-22.04-393.82-22.04-393.82z"/>
		</g>
	</g>
	<g id="Grupo_6061_2_" transform="translate(19.219 2.976)">
		<g id="Grupo_6060_2_">
			
				<linearGradient id="Trazado_26250_4_" gradientUnits="userSpaceOnUse" x1="-1278.0914" y1="3426.1355" x2="-1278.0914" y2="3425.1355" gradientTransform="matrix(1.563 0 0 -3.6175 1975.6406 12000.2236)">
				<stop  offset="0" style="stop-color:#41D78C"/>
				<stop  offset="1" style="stop-color:#00B4DC"/>
			</linearGradient>
			<path id="Trazado_26250_2_" class="st199" d="M-22.04-393.82c-0.43,0-0.78,0.35-0.78,0.78v0v2.05c0,0.43,0.35,0.78,0.78,0.78
				c0.43,0,0.78-0.35,0.78-0.78l0,0v-2.05C-21.26-393.47-21.61-393.82-22.04-393.82C-22.04-393.82-22.04-393.82-22.04-393.82z"/>
		</g>
	</g>
	<g id="Grupo_6063_2_" transform="translate(19.219)">
		<g id="Grupo_6062_2_">
			
				<linearGradient id="Trazado_26251_4_" gradientUnits="userSpaceOnUse" x1="-1277.0338" y1="4435.1069" x2="-1277.0338" y2="4434.1069" gradientTransform="matrix(1.562 0 0 -1.562 1972.701 6533.8145)">
				<stop  offset="0" style="stop-color:#41D78C"/>
				<stop  offset="1" style="stop-color:#00B4DC"/>
			</linearGradient>
			<path id="Trazado_26251_2_" class="st200" d="M-21.49-393.59c-0.3-0.31-0.8-0.31-1.1,0c-0.15,0.15-0.23,0.35-0.23,0.55
				c0,0.43,0.35,0.78,0.78,0.78s0.78-0.35,0.78-0.78C-21.26-393.25-21.34-393.45-21.49-393.59z"/>
		</g>
	</g>
	<g id="Grupo_6065_2_" transform="translate(14.785 1.762)">
		<g id="Grupo_6064_2_">
			
				<linearGradient id="Trazado_26252_4_" gradientUnits="userSpaceOnUse" x1="-1966.179" y1="3685.2195" x2="-1966.179" y2="3684.2195" gradientTransform="matrix(2.705 0 0 -2.705 5297.1309 9574.8848)">
				<stop  offset="0" style="stop-color:#41D78C"/>
				<stop  offset="1" style="stop-color:#00B4DC"/>
			</linearGradient>
			<path id="Trazado_26252_2_" class="st201" d="M-20.34-392.45l-1.14-1.14c-0.33-0.28-0.82-0.23-1.1,0.1c-0.24,0.29-0.24,0.71,0,1
				l1.14,1.14c0.28,0.33,0.77,0.38,1.1,0.1c0.33-0.28,0.38-0.77,0.1-1.1C-20.28-392.39-20.31-392.42-20.34-392.45z"/>
		</g>
	</g>
	<g id="Grupo_6067_2_" transform="translate(22.471 1.719)">
		<g id="Grupo_6066_2_">
			
				<linearGradient id="Trazado_26253_4_" gradientUnits="userSpaceOnUse" x1="-1968.1309" y1="3691.4656" x2="-1968.1309" y2="3690.4656" gradientTransform="matrix(2.6888 0 0 -2.6887 5270.3896 9531.5146)">
				<stop  offset="0" style="stop-color:#41D78C"/>
				<stop  offset="1" style="stop-color:#00B4DC"/>
			</linearGradient>
			<path id="Trazado_26253_2_" class="st202" d="M-20.31-393.59c-0.3-0.3-0.8-0.3-1.1,0l-1.18,1.18c-0.28,0.33-0.23,0.82,0.1,1.1
				c0.29,0.24,0.71,0.24,1,0l1.18-1.18C-20-392.8-20-393.29-20.31-393.59z"/>
		</g>
	</g>
</g>
</svg>
