<?xml version="1.0" encoding="utf-8"?>
<!-- Generator: Adobe Illustrator 25.2.1, SVG Export Plug-In . SVG Version: 6.00 Build 0)  -->
<svg version="1.1" id="Capa_1" xmlns="http://www.w3.org/2000/svg" xmlns:xlink="http://www.w3.org/1999/xlink" x="0px" y="0px"
	 viewBox="0 0 143.18 143.19" style="enable-background:new 0 0 143.18 143.19;" xml:space="preserve">
<style type="text/css">
	.st0{fill:#F6F7F9;}
	.st1{fill:#6E6E6E;}
	.st2{fill:#FFFFFF;}
	.st3{fill:#DCDCDC;}
	.st4{fill:url(#Trazado_26198_4_);}
	.st5{fill:url(#Trazado_26199_4_);}
	.st6{fill:url(#Trazado_26200_4_);}
	.st7{fill:url(#Trazado_26201_4_);}
	.st8{fill:url(#Trazado_26202_4_);}
	.st9{fill:url(#Trazado_26203_4_);}
	.st10{fill:url(#Trazado_26204_4_);}
	.st11{fill:url(#Trazado_26205_4_);}
	.st12{fill:url(#Trazado_26206_4_);}
	.st13{fill:url(#Trazado_26207_4_);}
	.st14{fill:url(#Trazado_26208_4_);}
	.st15{fill:url(#Trazado_26209_4_);}
	.st16{fill:url(#Trazado_26210_4_);}
	.st17{fill:url(#Trazado_26211_4_);}
	.st18{fill:url(#Trazado_26212_4_);}
	.st19{fill:url(#Trazado_26213_4_);}
	.st20{fill:url(#Trazado_26214_4_);}
	.st21{fill:url(#Trazado_26215_4_);}
	.st22{fill:url(#Trazado_24566_9_);}
	.st23{fill:url(#Trazado_24567_9_);}
	.st24{fill:url(#Trazado_24568_9_);}
	.st25{fill:url(#Trazado_24569_9_);}
	.st26{fill:url(#Trazado_24570_9_);}
	.st27{fill:url(#Trazado_24571_9_);}
	.st28{fill:url(#Trazado_24572_9_);}
	.st29{fill:url(#Trazado_26216_4_);}
	.st30{fill:url(#Trazado_26217_4_);}
	.st31{fill:url(#Trazado_26218_4_);}
	.st32{fill:url(#Trazado_26336_1_);}
	.st33{fill:url(#Unión_52_1_);}
	.st34{fill:url(#Trazado_904_4_);}
	.st35{fill:url(#Trazado_905_4_);}
	.st36{fill:url(#Trazado_906_4_);}
	.st37{fill:url(#Trazado_24631_4_);}
	.st38{fill:url(#Trazado_24632_4_);}
	.st39{fill:url(#Trazado_24633_4_);}
	.st40{fill:url(#Trazado_24634_4_);}
	.st41{fill:url(#Trazado_24635_4_);}
	.st42{fill:url(#Trazado_24636_4_);}
	.st43{fill:url(#Trazado_24637_4_);}
	.st44{fill:url(#Trazado_24638_4_);}
	.st45{fill:url(#Trazado_24639_4_);}
	.st46{fill:url(#Trazado_24640_4_);}
	.st47{fill:url(#Trazado_884_3_);}
	.st48{fill:url(#Trazado_24616_3_);}
	.st49{fill:url(#Trazado_24617_3_);}
	.st50{fill:url(#Trazado_24618_3_);}
	.st51{fill:url(#Trazado_24619_3_);}
	.st52{fill:url(#Trazado_24620_3_);}
	.st53{fill:url(#Trazado_24621_3_);}
	.st54{fill:url(#Trazado_24622_3_);}
	.st55{fill:none;stroke:#CCCCCC;}
	.st56{fill:url(#Trazado_904-2_2_);}
	.st57{fill:url(#Trazado_905-2_2_);}
	.st58{fill:url(#Trazado_906-2_2_);}
	.st59{fill:url(#Trazado_24631-2_2_);}
	.st60{fill:url(#Trazado_24632-2_2_);}
	.st61{fill:url(#Trazado_24633-2_2_);}
	.st62{fill:url(#Trazado_24634-2_2_);}
	.st63{fill:url(#Trazado_24635-2_2_);}
	.st64{fill:url(#Trazado_24636-2_2_);}
	.st65{fill:url(#Trazado_24637-2_2_);}
	.st66{fill:url(#Trazado_24638-2_2_);}
	.st67{fill:url(#Trazado_24639-2_2_);}
	.st68{fill:url(#Trazado_24640-2_2_);}
	.st69{fill:url(#Trazado_884-2_1_);}
	.st70{fill:url(#Trazado_24616-2_1_);}
	.st71{fill:url(#Trazado_24617-2_1_);}
	.st72{fill:url(#Trazado_24618-2_1_);}
	.st73{fill:url(#Trazado_24619-2_1_);}
	.st74{fill:url(#Trazado_24620-2_1_);}
	.st75{fill:url(#Trazado_24621-2_1_);}
	.st76{fill:url(#Trazado_24622-2_1_);}
	.st77{fill:url(#Trazado_26355_1_);}
	.st78{opacity:0.2;fill:#26F70F;}
	.st79{fill:#F90D0D;}
	.st80{fill:none;stroke:#F90D0D;stroke-miterlimit:10;}
	.st81{fill:none;stroke:#FF2929;stroke-miterlimit:10;}
	.st82{opacity:0.2;}
	.st83{fill:#FF2929;}
	.st84{opacity:0.2;fill:#FF2929;}
	.st85{fill:#3366CC;}
	.st86{fill:none;stroke:#FFFFFF;}
	.st87{fill:#0070BA;}
	.st88{fill:#E3134D;}
	.st89{fill:#FEC20A;}
	.st90{fill:#70AF3D;}
	.st91{fill:#9B156E;}
	.st92{fill:#FBD015;}
	.st93{fill:#05569E;}
	.st94{fill:#D11F3E;}
	.st95{fill:none;}
	.st96{fill-rule:evenodd;clip-rule:evenodd;fill:#3366CC;}
	.st97{fill:none;stroke:#707070;}
	.st98{stroke:#FF2929;stroke-width:4;stroke-miterlimit:10;}
	.st99{fill:none;stroke:#FF2929;stroke-width:4;stroke-miterlimit:10;}
	.st100{fill:none;stroke:#000000;stroke-miterlimit:10;}
	.st101{fill:#41D78C;}
	.st102{fill:url(#Trazado_24869_3_);}
	.st103{fill:url(#Trazado_26191_3_);}
	.st104{fill:url(#Trazado_26192_3_);}
	.st105{fill:url(#Trazado_26193_3_);}
	.st106{fill:url(#Trazado_26194_3_);}
	.st107{fill:url(#Trazado_26195_3_);}
	.st108{fill:url(#Trazado_26196_3_);}
	.st109{fill:url(#Trazado_26197_3_);}
	.st110{fill:url(#Trazado_26198_5_);}
	.st111{fill:url(#Trazado_26199_5_);}
	.st112{fill:url(#Trazado_26200_5_);}
	.st113{fill:url(#Trazado_26201_5_);}
	.st114{fill:url(#Trazado_26202_5_);}
	.st115{fill:url(#Trazado_26203_5_);}
	.st116{fill:url(#Trazado_26204_5_);}
	.st117{fill:url(#Trazado_26205_5_);}
	.st118{fill:url(#Trazado_26206_5_);}
	.st119{fill:url(#Trazado_26207_5_);}
	.st120{fill:url(#Trazado_26208_5_);}
	.st121{fill:url(#Trazado_26209_5_);}
	.st122{fill:url(#Trazado_26210_5_);}
	.st123{fill:url(#Trazado_26211_5_);}
	.st124{fill:url(#Trazado_26212_5_);}
	.st125{fill:url(#Trazado_26213_5_);}
	.st126{fill:url(#Trazado_26214_5_);}
	.st127{fill:url(#Trazado_26215_5_);}
	.st128{fill:url(#Trazado_26216_5_);}
	.st129{fill:url(#Trazado_26217_5_);}
	.st130{fill:url(#Trazado_26218_5_);}
	.st131{fill:url(#Trazado_24566_11_);}
	.st132{fill:url(#Trazado_24567_11_);}
	.st133{fill:url(#Trazado_24568_11_);}
	.st134{fill:url(#Trazado_24569_11_);}
	.st135{fill:url(#Trazado_24570_11_);}
	.st136{fill:url(#Trazado_24571_11_);}
	.st137{fill:url(#Trazado_24572_11_);}
	.st138{fill:url(#Unión_55_1_);}
	.st139{fill:url(#Trazado_904_5_);}
	.st140{fill:url(#Trazado_905_5_);}
	.st141{fill:url(#Trazado_906_5_);}
	.st142{fill:url(#Trazado_24631_5_);}
	.st143{fill:url(#Trazado_24632_5_);}
	.st144{fill:url(#Trazado_24633_5_);}
	.st145{fill:url(#Trazado_24634_5_);}
	.st146{fill:url(#Trazado_24635_5_);}
	.st147{fill:url(#Trazado_24636_5_);}
	.st148{fill:url(#Trazado_24637_5_);}
	.st149{fill:url(#Trazado_24638_5_);}
	.st150{fill:url(#Trazado_24639_5_);}
	.st151{fill:url(#Trazado_24640_5_);}
	.st152{fill:url(#Rectángulo_3914-2_1_);}
	.st153{clip-path:url(#SVGID_6_);fill:#EBEEF0;}
	.st154{clip-path:url(#SVGID_6_);}
	.st155{opacity:0.2;clip-path:url(#SVGID_6_);fill:#26F70F;}
	.st156{opacity:0.1;clip-path:url(#SVGID_6_);}
	.st157{opacity:0.2;fill:#F90D0D;}
	.st158{fill:none;stroke:#FF0000;stroke-width:5;stroke-miterlimit:10;}
	.st159{clip-path:url(#SVGID_14_);fill:#EBEEF0;}
	.st160{clip-path:url(#SVGID_14_);}
	.st161{opacity:0.2;clip-path:url(#SVGID_14_);fill:#26F70F;}
	.st162{fill:none;stroke:#26F70F;stroke-width:7;stroke-miterlimit:10;}
	.st163{fill:url(#Rectángulo_3928_2_);}
	.st164{fill:#F0F2F4;}
	.st165{opacity:0.28;fill:none;stroke:#BEC8D2;enable-background:new    ;}
	.st166{fill:none;stroke:#E2E7EB;}
	.st167{fill:#00B4DC;}
	.st168{fill:url(#Trazado_24687_4_);}
	.st169{fill:url(#Trazado_24688_4_);}
	.st170{fill:url(#Trazado_24689_4_);}
	.st171{fill:url(#Trazado_24690_4_);}
	.st172{fill:url(#Rectángulo_1733_4_);}
	.st173{fill:url(#Rectángulo_1734_4_);}
	.st174{fill:url(#Rectángulo_1735_4_);}
	.st175{fill:url(#Trazado_24687_5_);}
	.st176{fill:url(#Trazado_24688_5_);}
	.st177{fill:url(#Trazado_24689_5_);}
	.st178{fill:url(#Trazado_24690_5_);}
	.st179{fill:url(#Rectángulo_1733_5_);}
	.st180{fill:url(#Rectángulo_1734_5_);}
	.st181{fill:url(#Rectángulo_1735_5_);}
	.st182{fill:url(#Trazado_24566_12_);}
	.st183{fill:url(#Trazado_24567_12_);}
	.st184{fill:url(#Trazado_24568_12_);}
	.st185{fill:url(#Trazado_24569_12_);}
	.st186{fill:url(#Trazado_24570_12_);}
	.st187{fill:url(#Trazado_24571_12_);}
	.st188{fill:url(#Trazado_24572_12_);}
	.st189{fill:url(#Trazado_26237_4_);}
	.st190{fill:url(#Trazado_26238_4_);}
	.st191{fill:url(#Trazado_26242_4_);}
	.st192{fill:url(#Trazado_26243_4_);}
	.st193{fill:url(#Trazado_26244_4_);}
	.st194{fill:url(#Trazado_26245_4_);}
	.st195{fill:url(#Trazado_26246_4_);}
	.st196{fill:url(#Trazado_26247_4_);}
	.st197{fill:url(#Trazado_26248_4_);}
	.st198{fill:url(#Trazado_26249_4_);}
	.st199{fill:url(#Trazado_26250_4_);}
	.st200{fill:url(#Trazado_26251_4_);}
	.st201{fill:url(#Trazado_26252_4_);}
	.st202{fill:url(#Trazado_26253_4_);}
	.st203{fill:url(#Trazado_26254_4_);}
	.st204{fill:url(#Trazado_26255_4_);}
	.st205{fill:url(#Trazado_26256_4_);}
	.st206{fill:url(#Trazado_26257_4_);}
	.st207{fill:url(#Trazado_26258_4_);}
	.st208{fill:url(#Trazado_26259_4_);}
	.st209{fill:url(#Trazado_26260_4_);}
	.st210{fill:url(#Trazado_26261_4_);}
	.st211{fill:url(#Trazado_26262_4_);}
	.st212{fill:url(#Trazado_26263_4_);}
	.st213{fill:url(#Trazado_26264_4_);}
	.st214{fill:url(#Trazado_26265_4_);}
	.st215{fill:url(#Trazado_26266_4_);}
	.st216{fill:url(#Trazado_26267_4_);}
	.st217{fill:url(#Trazado_26268_4_);}
	.st218{fill:url(#Trazado_26269_4_);}
	.st219{fill:url(#Trazado_26270_4_);}
	.st220{fill:url(#Trazado_26271_4_);}
	.st221{fill:url(#Trazado_26272_4_);}
	.st222{fill:url(#Trazado_26273_4_);}
	.st223{fill:url(#Trazado_26274_4_);}
	.st224{fill:url(#Trazado_26275_4_);}
	.st225{fill:url(#Trazado_26276_4_);}
	.st226{fill:url(#Trazado_26277_4_);}
	.st227{fill:url(#Trazado_26278_4_);}
	.st228{fill:url(#Trazado_26279_4_);}
	.st229{fill:url(#Trazado_26284_3_);}
	.st230{fill:url(#Trazado_26285_3_);}
	.st231{fill:url(#Trazado_26230_5_);}
	.st232{fill:url(#Trazado_26231_5_);}
	.st233{fill:url(#Trazado_26232_5_);}
	.st234{fill:url(#Rectángulo_3918_5_);}
	.st235{fill:url(#Rectángulo_3919_5_);}
	.st236{fill:url(#Rectángulo_3920_5_);}
	.st237{fill:url(#Rectángulo_3921_5_);}
	.st238{fill:url(#Rectángulo_3922_5_);}
	.st239{fill:url(#Rectángulo_3923_5_);}
	.st240{fill:url(#Rectángulo_3924_5_);}
	.st241{fill:url(#Rectángulo_3925_5_);}
	.st242{fill:url(#Rectángulo_3928_3_);}
	.st243{fill:url(#Trazado_24566_13_);}
	.st244{fill:url(#Trazado_24567_13_);}
	.st245{fill:url(#Trazado_24568_13_);}
	.st246{fill:url(#Trazado_24569_13_);}
	.st247{fill:url(#Trazado_24570_13_);}
	.st248{fill:url(#Trazado_24571_13_);}
	.st249{fill:url(#Trazado_24572_13_);}
	.st250{fill:url(#Trazado_26233_2_);}
	.st251{fill:url(#Trazado_26234_2_);}
	.st252{fill:url(#Trazado_26235_2_);}
	.st253{fill:url(#Trazado_26236_2_);}
	.st254{fill:url(#Trazado_26237_5_);}
	.st255{fill:url(#Trazado_26238_5_);}
	.st256{fill:url(#Trazado_26242_5_);}
	.st257{fill:url(#Trazado_26243_5_);}
	.st258{fill:url(#Trazado_26244_5_);}
	.st259{fill:url(#Trazado_26245_5_);}
	.st260{fill:url(#Trazado_26246_5_);}
	.st261{fill:url(#Trazado_26247_5_);}
	.st262{fill:url(#Trazado_26248_5_);}
	.st263{fill:url(#Trazado_26249_5_);}
	.st264{fill:url(#Trazado_26250_5_);}
	.st265{fill:url(#Trazado_26251_5_);}
	.st266{fill:url(#Trazado_26252_5_);}
	.st267{fill:url(#Trazado_26253_5_);}
	.st268{fill:url(#Trazado_26254_5_);}
	.st269{fill:url(#Trazado_26255_5_);}
	.st270{fill:url(#Trazado_26256_5_);}
	.st271{fill:url(#Trazado_26257_5_);}
	.st272{fill:url(#Trazado_26258_5_);}
	.st273{fill:url(#Trazado_26259_5_);}
	.st274{fill:url(#Trazado_26260_5_);}
	.st275{fill:url(#Trazado_26261_5_);}
	.st276{fill:url(#Trazado_26262_5_);}
	.st277{fill:url(#Trazado_26263_5_);}
	.st278{fill:url(#Trazado_26264_5_);}
	.st279{fill:url(#Trazado_26265_5_);}
	.st280{fill:url(#Trazado_26266_5_);}
	.st281{fill:url(#Trazado_26267_5_);}
	.st282{fill:url(#Trazado_26268_5_);}
	.st283{fill:url(#Trazado_26269_5_);}
	.st284{fill:url(#Trazado_26270_5_);}
	.st285{fill:url(#Trazado_26271_5_);}
	.st286{fill:url(#Trazado_26272_5_);}
	.st287{fill:url(#Trazado_26273_5_);}
	.st288{fill:url(#Trazado_26274_5_);}
	.st289{fill:url(#Trazado_26275_5_);}
	.st290{fill:url(#Trazado_26276_5_);}
	.st291{fill:url(#Trazado_26277_5_);}
	.st292{fill:url(#Trazado_26278_5_);}
	.st293{fill:url(#Trazado_26279_5_);}
	.st294{fill:url(#Trazado_26284_4_);}
	.st295{fill:url(#Trazado_26285_4_);}
	.st296{fill:url(#Trazado_26230_6_);}
	.st297{fill:url(#Trazado_26231_6_);}
	.st298{fill:url(#Trazado_26232_6_);}
	.st299{fill:url(#Rectángulo_3918_6_);}
	.st300{fill:url(#Rectángulo_3919_6_);}
	.st301{fill:url(#Rectángulo_3920_6_);}
	.st302{fill:url(#Rectángulo_3921_6_);}
	.st303{fill:url(#Rectángulo_3922_6_);}
	.st304{fill:url(#Rectángulo_3923_6_);}
	.st305{fill:url(#Rectángulo_3924_6_);}
	.st306{fill:url(#Rectángulo_3925_6_);}
	.st307{fill:none;stroke:#006495;stroke-linecap:square;stroke-miterlimit:10;stroke-dasharray:2,2;}
	.st308{fill:#262944;}
	.st309{fill:none;stroke:#FFFFFF;stroke-miterlimit:10;}
	.st310{fill:url(#Trazado_24869_4_);}
	.st311{fill:url(#Trazado_26191_5_);}
	.st312{fill:url(#Trazado_26192_5_);}
	.st313{fill:url(#Trazado_26193_5_);}
	.st314{fill:url(#Trazado_26194_5_);}
	.st315{fill:url(#Trazado_26195_5_);}
	.st316{fill:url(#Trazado_26196_5_);}
	.st317{fill:url(#Trazado_26197_5_);}
	.st318{fill:url(#Trazado_26198_6_);}
	.st319{fill:url(#Trazado_26199_6_);}
	.st320{fill:url(#Trazado_26200_6_);}
	.st321{fill:url(#Trazado_26201_6_);}
	.st322{fill:url(#Trazado_26202_6_);}
	.st323{fill:url(#Trazado_26203_6_);}
	.st324{fill:url(#Trazado_26204_6_);}
	.st325{fill:url(#Trazado_26205_6_);}
	.st326{fill:url(#Trazado_26206_6_);}
	.st327{fill:url(#Trazado_26207_6_);}
	.st328{fill:url(#Trazado_26208_6_);}
	.st329{fill:url(#Trazado_26209_6_);}
	.st330{fill:url(#Trazado_26210_6_);}
	.st331{fill:url(#Trazado_26211_6_);}
	.st332{fill:url(#Trazado_26212_6_);}
	.st333{fill:url(#Trazado_26213_6_);}
	.st334{fill:url(#Trazado_26214_6_);}
	.st335{fill:url(#Trazado_26215_6_);}
	.st336{fill:url(#Trazado_26216_6_);}
	.st337{fill:url(#Trazado_26217_6_);}
	.st338{fill:url(#Trazado_26218_6_);}
	.st339{fill:url(#Trazado_24566_14_);}
	.st340{fill:url(#Trazado_24567_14_);}
	.st341{fill:url(#Trazado_24568_14_);}
	.st342{fill:url(#Trazado_24569_14_);}
	.st343{fill:url(#Trazado_24570_14_);}
	.st344{fill:url(#Trazado_24571_14_);}
	.st345{fill:url(#Trazado_24572_14_);}
	.st346{fill:url(#Trazado_26354_3_);}
	.st347{fill:url(#Trazado_904_6_);}
	.st348{fill:url(#Trazado_905_6_);}
	.st349{fill:url(#Trazado_906_6_);}
	.st350{fill:url(#Trazado_24631_6_);}
	.st351{fill:url(#Trazado_24632_6_);}
	.st352{fill:url(#Trazado_24633_6_);}
	.st353{fill:url(#Trazado_24634_6_);}
	.st354{fill:url(#Trazado_24635_6_);}
	.st355{fill:url(#Trazado_24636_6_);}
	.st356{fill:url(#Trazado_24637_6_);}
	.st357{fill:url(#Trazado_24638_6_);}
	.st358{fill:url(#Trazado_24639_6_);}
	.st359{fill:url(#Trazado_24640_6_);}
	.st360{fill:url(#Trazado_884_5_);}
	.st361{fill:url(#Trazado_24616_4_);}
	.st362{fill:url(#Trazado_24617_4_);}
	.st363{fill:url(#Trazado_24618_4_);}
	.st364{fill:url(#Trazado_24619_4_);}
	.st365{fill:url(#Trazado_24620_4_);}
	.st366{fill:url(#Trazado_24621_4_);}
	.st367{fill:url(#Trazado_24622_4_);}
	.st368{fill:#FF6161;}
	.st369{fill:url(#Trazado_26233_5_);}
	.st370{fill:url(#Trazado_26234_5_);}
	.st371{fill:url(#Trazado_26235_5_);}
	.st372{fill:url(#Trazado_26236_5_);}
	.st373{fill:url(#Trazado_24566_15_);}
	.st374{fill:url(#Trazado_24567_15_);}
	.st375{fill:url(#Trazado_24568_15_);}
	.st376{fill:url(#Trazado_24569_15_);}
	.st377{fill:url(#Trazado_24570_15_);}
	.st378{fill:url(#Trazado_24571_15_);}
	.st379{fill:url(#Trazado_24572_15_);}
	.st380{fill:url(#Trazado_24566_16_);}
	.st381{fill:url(#Trazado_24567_16_);}
	.st382{fill:url(#Trazado_24568_16_);}
	.st383{fill:url(#Trazado_24569_16_);}
	.st384{fill:url(#Trazado_24570_16_);}
	.st385{fill:url(#Trazado_24571_16_);}
	.st386{fill:url(#Trazado_24572_16_);}
	.st387{fill:url(#Trazado_26237_6_);}
	.st388{fill:url(#Trazado_26238_6_);}
	.st389{fill:url(#Trazado_26242_6_);}
	.st390{fill:url(#Trazado_26243_6_);}
	.st391{fill:url(#Trazado_26244_6_);}
	.st392{fill:url(#Trazado_26245_6_);}
	.st393{fill:url(#Trazado_26246_6_);}
	.st394{fill:url(#Trazado_26247_6_);}
	.st395{fill:url(#Trazado_26248_6_);}
	.st396{fill:url(#Trazado_26249_6_);}
	.st397{fill:url(#Trazado_26250_6_);}
	.st398{fill:url(#Trazado_26251_6_);}
	.st399{fill:url(#Trazado_26252_6_);}
	.st400{fill:url(#Trazado_26253_6_);}
	.st401{fill:url(#Trazado_26254_6_);}
	.st402{fill:url(#Trazado_26255_6_);}
	.st403{fill:url(#Trazado_26256_6_);}
	.st404{fill:url(#Trazado_26257_6_);}
	.st405{fill:url(#Trazado_26258_6_);}
	.st406{fill:url(#Trazado_26259_6_);}
	.st407{fill:url(#Trazado_26260_6_);}
	.st408{fill:url(#Trazado_26261_6_);}
	.st409{fill:url(#Trazado_26262_6_);}
	.st410{fill:url(#Trazado_26263_6_);}
	.st411{fill:url(#Trazado_26264_6_);}
	.st412{fill:url(#Trazado_26265_6_);}
	.st413{fill:url(#Trazado_26266_6_);}
	.st414{fill:url(#Trazado_26267_6_);}
	.st415{fill:url(#Trazado_26268_6_);}
	.st416{fill:url(#Trazado_26269_6_);}
	.st417{fill:url(#Trazado_26270_6_);}
	.st418{fill:url(#Trazado_26271_6_);}
	.st419{fill:url(#Trazado_26272_6_);}
	.st420{fill:url(#Trazado_26273_6_);}
	.st421{fill:url(#Trazado_26274_6_);}
	.st422{fill:url(#Trazado_26275_6_);}
	.st423{fill:url(#Trazado_26276_6_);}
	.st424{fill:url(#Trazado_26277_6_);}
	.st425{fill:url(#Trazado_26278_6_);}
	.st426{fill:url(#Trazado_26279_6_);}
	.st427{fill:url(#Trazado_26284_6_);}
	.st428{fill:url(#Trazado_26285_6_);}
	.st429{fill:url(#Trazado_26230_7_);}
	.st430{fill:url(#Trazado_26231_7_);}
	.st431{fill:url(#Trazado_26232_7_);}
	.st432{fill:url(#Rectángulo_3918_7_);}
	.st433{fill:url(#Rectángulo_3919_7_);}
	.st434{fill:url(#Rectángulo_3920_7_);}
	.st435{fill:url(#Rectángulo_3921_7_);}
	.st436{fill:url(#Rectángulo_3922_7_);}
	.st437{fill:url(#Rectángulo_3923_7_);}
	.st438{fill:url(#Rectángulo_3924_7_);}
	.st439{fill:url(#Rectángulo_3925_7_);}
	.st440{opacity:0.1;fill:#FF2929;}
	.st441{fill:#CCF0F8;}
	.st442{opacity:0.2;fill:#D31A1A;}
	.st443{fill:#E2E7EB;}
	.st444{fill:none;stroke:#BEC8D2;}
	.st445{fill:#D5F4E6;}
	.st446{fill-rule:evenodd;clip-rule:evenodd;fill:#262944;}
	.st447{fill:url(#Trazado_26409_3_);}
	.st448{fill:url(#Trazado_26410_1_);}
	.st449{fill:url(#Trazado_26411_1_);}
	.st450{fill:url(#Trazado_26412_1_);}
	.st451{fill:url(#Trazado_26413_1_);}
	.st452{fill:url(#Trazado_26414_1_);}
	.st453{fill:url(#Trazado_26415_1_);}
	.st454{fill:url(#Trazado_26416_2_);}
	.st455{fill:url(#Trazado_26417_2_);}
	.st456{fill:url(#Trazado_26418_2_);}
	.st457{fill:url(#Trazado_26419_2_);}
	.st458{fill:url(#Trazado_26420_2_);}
	.st459{fill:url(#Trazado_26421_2_);}
	.st460{fill:url(#Trazado_26516_3_);}
	.st461{fill:url(#Trazado_26517_3_);}
	.st462{fill:url(#Trazado_26518_3_);}
	.st463{fill:url(#Trazado_26519_3_);}
	.st464{fill:url(#Trazado_26520_3_);}
	.st465{fill:url(#Trazado_26521_3_);}
	.st466{fill:url(#Trazado_26522_3_);}
	.st467{fill:url(#Trazado_24566_17_);}
	.st468{fill:url(#Trazado_24567_17_);}
	.st469{fill:url(#Trazado_24568_17_);}
	.st470{fill:url(#Trazado_24569_17_);}
	.st471{fill:url(#Trazado_24570_17_);}
	.st472{fill:url(#Trazado_24571_17_);}
	.st473{fill:url(#Trazado_24572_17_);}
	.st474{fill:url(#Trazado_884_6_);}
	.st475{fill:url(#Trazado_26366_2_);}
	.st476{fill:url(#Trazado_26367_2_);}
	.st477{fill:url(#Trazado_26368_1_);}
	.st478{fill:url(#Trazado_26369_1_);}
	.st479{fill:url(#Trazado_26370_1_);}
	.st480{fill:url(#Trazado_1691_3_);}
	.st481{fill:url(#Trazado_1692_2_);}
	.st482{fill:url(#Trazado_1691_4_);}
	.st483{fill:url(#Trazado_1692_3_);}
</style>
<linearGradient id="Trazado_26366_2_" gradientUnits="userSpaceOnUse" x1="-3216.134" y1="4004.2141" x2="-3216.134" y2="4003.1541" gradientTransform="matrix(132.2118 0 0 -130.3326 425281.9688 521882.4688)">
	<stop  offset="0" style="stop-color:#41D78C"/>
	<stop  offset="1" style="stop-color:#00B4DC"/>
</linearGradient>
<path id="Trazado_26366_1_" class="st475" d="M13.45,96.27c3.68-0.85,5.98-4.53,5.12-8.22c-0.13-0.58-0.34-1.14-0.62-1.66l5.37-5.37
	h22.05l0.49-0.24c0.94-0.46,1.33-1.6,0.87-2.54c-0.21-0.44-0.59-0.77-1.04-0.94l0,0l-5.48-0.31H22.49c-0.53,0-1.05,0.21-1.43,0.59
	l-5.96,5.96c-3.34-1.77-7.49-0.5-9.27,2.84c-1.77,3.34-0.5,7.49,2.84,9.27C10.15,96.43,11.84,96.65,13.45,96.27L13.45,96.27z
	 M11.9,86.77c1.56,0,2.82,1.26,2.82,2.82s-1.26,2.82-2.82,2.82c-1.56,0-2.82-1.26-2.82-2.82C9.08,88.04,10.35,86.77,11.9,86.77
	L11.9,86.77z M120.8,103.69c-0.02-1.2-0.05-2.34-0.05-3.44c0-0.86-0.7-1.56-1.56-1.56c0,0,0,0,0,0c-6.67,0-11.74-1.91-15.97-6.03
	c-0.6-0.59-1.57-0.59-2.17,0c-4.23,4.11-9.31,6.03-15.97,6.03c-0.86,0-1.56,0.7-1.56,1.56c0,1.1-0.02,2.24-0.05,3.44
	c-0.21,11.19-0.51,26.52,18.15,32.99c0.33,0.11,0.69,0.11,1.02,0C121.31,130.21,121.02,114.89,120.8,103.69L120.8,103.69z
	 M102.14,133.55c-16-5.81-15.76-18.55-15.55-29.8c0.01-0.68,0.03-1.33,0.03-1.97c5.7-0.06,11.2-2.14,15.51-5.88
	c4.31,3.74,9.81,5.82,15.51,5.88c0.01,0.64,0.02,1.3,0.03,1.97C117.9,115,118.14,127.74,102.14,133.55L102.14,133.55z
	 M107.51,109.08l-7.53,7.52l-3.21-3.21c-0.63-0.58-1.62-0.54-2.2,0.09c-0.55,0.6-0.55,1.52,0,2.11l4.31,4.31
	c0.61,0.61,1.59,0.61,2.2,0l8.63-8.63c0.58-0.63,0.55-1.62-0.09-2.2C109.03,108.53,108.11,108.53,107.51,109.08L107.51,109.08z
	 M13.82,48.94c0.84,0,1.66-0.21,2.4-0.6l4.47,4.47c0.28,0.28,0.67,0.44,1.07,0.44h11.02c0.83,0,1.51-0.68,1.51-1.51
	s-0.68-1.51-1.51-1.51H22.39l-4.03-4.03c1.33-2.51,0.37-5.62-2.14-6.94s-5.62-0.37-6.94,2.14c-1.33,2.51-0.37,5.62,2.14,6.94
	C12.16,48.74,12.98,48.94,13.82,48.94L13.82,48.94z M13.82,41.69c1.17,0,2.11,0.95,2.11,2.12c0,1.17-0.95,2.11-2.12,2.11
	s-2.11-0.95-2.11-2.12c0,0,0,0,0,0C11.71,42.64,12.66,41.69,13.82,41.69L13.82,41.69z M25.1,66.76c0,2.84,2.3,5.14,5.14,5.14
	c2.26,0,4.25-1.47,4.91-3.63h4.46c0.83,0,1.51-0.68,1.51-1.51c0-0.83-0.68-1.51-1.51-1.51h-4.46c-0.83-2.71-3.71-4.23-6.42-3.4
	C26.57,62.51,25.1,64.5,25.1,66.76z M28.12,66.76c0-1.17,0.95-2.12,2.11-2.12c1.17,0,2.12,0.95,2.12,2.11
	c0,1.17-0.95,2.12-2.11,2.12c0,0,0,0,0,0C29.07,68.87,28.12,67.92,28.12,66.76L28.12,66.76z M107,51.82c-0.07,0-0.15,0-0.22-0.01
	c-1.39-0.12-2.42-1.34-2.3-2.72c0,0,0,0,0,0c0.09-1,0.13-2.01,0.13-2.98C104.59,26.99,89.1,11.5,69.98,11.48
	c-1.39,0-2.52-1.13-2.52-2.52s1.13-2.52,2.52-2.52c0,0,0,0,0,0c21.9,0.02,39.65,17.77,39.67,39.67c0,1.12-0.05,2.26-0.15,3.41
	C109.4,50.82,108.31,51.82,107,51.82z M96.86,51.82c-0.1,0-0.2-0.01-0.3-0.02c-1.38-0.16-2.37-1.41-2.21-2.8c0,0,0,0,0,0
	c0.11-0.96,0.17-1.93,0.17-2.9c-0.02-13.55-11-24.53-24.55-24.54c-1.39,0-2.52-1.13-2.52-2.52c0-1.39,1.13-2.52,2.52-2.52
	c16.34,0,29.59,13.25,29.59,29.59c0,1.16-0.07,2.33-0.21,3.49C99.22,50.86,98.14,51.82,96.86,51.82L96.86,51.82z M93.76,87.61
	l-0.18-0.15l-15.56-4.31v-4.17c5.13-3.57,8.2-9.43,8.2-15.69v-2.65c0,0,2.44-1.21,2.34-2.71v-8.14c0.09-11.98-4.69-20.86-21.6-22.03
	c-6.16-0.43-24.7,0-24.7,0c-2.95,0.04-5.31,2.47-5.27,5.43v13.56c-0.07,6.09,3.96,11.47,9.83,13.11c0.23,0.07,0.48,0.1,0.71,0.15
	v3.29c0,6.26,3.07,12.11,8.2,15.69v4.17l-15.57,4.31c-8.15,2.36-13.75,9.83-13.73,18.32v28.26c0,1.5,1.21,2.71,2.71,2.71
	c0,0,0,0,0,0H82.7c1.62-0.81,2.27-2.78,1.47-4.39c-0.32-0.63-0.83-1.15-1.47-1.47H45.2v-24.61h-5.86v24.61H32.3v-25.56
	c0.01-6.1,4.09-11.45,9.96-13.09l12.76-3.48l10.7,8.95c1.01,0.84,2.47,0.84,3.48,0l10.7-8.95l12.75,3.48
	c1.43-0.32,2.33-1.74,2.01-3.18C94.53,88.5,94.22,87.99,93.76,87.61L93.76,87.61z M50.69,55.89c-0.58-0.5-1.29-0.83-2.05-0.94
	c-3.6-0.84-6.05-4.18-5.79-7.87V33.62h24.61c9.02-0.03,16.36,7.25,16.41,16.28v4.82h-2.43c-2.44,0.42-4.77-1.17-5.26-3.6l-1.16-4.69
	c-0.26-1.02-1.07-1.79-2.1-2c-0.18-0.04-0.36-0.06-0.54-0.05c-0.85,0-1.66,0.4-2.17,1.08l-1.62,2.17c-0.97,1.28-2.09,2.43-3.34,3.43
	c-3.46,2.62-7.55,4.28-11.85,4.83L50.69,55.89z M66.88,92.24l-6.19-5.16c0.57-0.49,0.91-1.21,0.92-1.96v-3.43
	c3.44,1.05,7.11,1.05,10.55,0v3.43c0.01,0.75,0.34,1.47,0.92,1.96L66.88,92.24z M67.09,76.84c-7.44,0.12-13.57-5.82-13.69-13.26
	c0-0.07,0-0.14,0-0.22l0,0v-2.69c5.52,0,10.87-1.89,15.18-5.35c0.85-0.69,1.65-1.43,2.41-2.22c1.32,4.16,5.02,7.12,9.38,7.49v2.29
	C80.36,70.32,74.54,76.73,67.09,76.84L67.09,76.84z M93.82,66.49c0.9-0.82,1.98-1.41,3.16-1.71l1.05-3.03h2.63l1.05,3.03
	c1.15,0.36,2.23,0.94,3.16,1.71l3.16-0.66l1.31,2.37l-2.1,2.37c0.11,0.56,0.15,1.14,0.13,1.71c0,0.52-0.13,1.18-0.13,1.71l2.1,2.37
	l-1.31,2.37l-3.16-0.66c-0.9,0.82-1.98,1.41-3.16,1.71l-1.05,3.02h-2.63l-1.05-3.02c-1.15-0.36-2.23-0.94-3.16-1.71l-3.16,0.66
	l-1.31-2.37l2.1-2.37c-0.11-0.56-0.15-1.14-0.13-1.71c0-0.53,0.13-1.18,0.13-1.71l-2.1-2.37l1.31-2.37L93.82,66.49z M99.21,74.9
	c1.45,0,2.63-1.18,2.63-2.63c0-1.45-1.18-2.63-2.63-2.63c-1.45,0-2.63,1.18-2.63,2.63c0,0,0,0,0,0
	C96.59,73.73,97.77,74.9,99.21,74.9L99.21,74.9z M123.46,64.86c1.59,0.07,3.14,0.53,4.52,1.34l3.79-1.83l2.44,2.44l-1.83,3.78
	c0.74,1.4,1.2,2.94,1.34,4.52l3.54,2.32l-0.98,3.42l-4.15,0.24c-0.42,0.62-0.91,1.2-1.46,1.71c-0.49,0.49-1.22,0.98-1.71,1.46
	l-0.24,4.15l-3.42,0.98l-2.32-3.54c-1.59-0.07-3.14-0.53-4.52-1.34l-3.78,1.83l-2.44-2.44l1.83-3.78c-0.74-1.4-1.2-2.94-1.34-4.52
	l-3.54-2.32l0.98-3.42l4.15-0.24c0.42-0.62,0.91-1.2,1.46-1.71c0.49-0.49,1.22-0.98,1.71-1.46l0.24-4.15l3.42-0.98L123.46,64.86z
	 M120.65,77.68c1.35,1.35,3.53,1.35,4.88,0s1.35-3.53,0-4.88c-1.35-1.35-3.53-1.35-4.88,0C119.31,74.14,119.31,76.33,120.65,77.68
	L120.65,77.68z"/>
</svg>
