<?xml version="1.0" encoding="utf-8"?>
<!-- Generator: Adobe Illustrator 25.2.1, SVG Export Plug-In . SVG Version: 6.00 Build 0)  -->
<svg version="1.1" id="Capa_1" xmlns="http://www.w3.org/2000/svg" xmlns:xlink="http://www.w3.org/1999/xlink" x="0px" y="0px"
	 viewBox="0 0 143.18 143.19" style="enable-background:new 0 0 143.18 143.19;" xml:space="preserve">
<style type="text/css">
	.st0{fill:#F6F7F9;}
	.st1{fill:#6E6E6E;}
	.st2{fill:#FFFFFF;}
	.st3{fill:#DCDCDC;}
	.st4{fill:url(#Trazado_26198_4_);}
	.st5{fill:url(#Trazado_26199_4_);}
	.st6{fill:url(#Trazado_26200_4_);}
	.st7{fill:url(#Trazado_26201_4_);}
	.st8{fill:url(#Trazado_26202_4_);}
	.st9{fill:url(#Trazado_26203_4_);}
	.st10{fill:url(#Trazado_26204_4_);}
	.st11{fill:url(#Trazado_26205_4_);}
	.st12{fill:url(#Trazado_26206_4_);}
	.st13{fill:url(#Trazado_26207_4_);}
	.st14{fill:url(#Trazado_26208_4_);}
	.st15{fill:url(#Trazado_26209_4_);}
	.st16{fill:url(#Trazado_26210_4_);}
	.st17{fill:url(#Trazado_26211_4_);}
	.st18{fill:url(#Trazado_26212_4_);}
	.st19{fill:url(#Trazado_26213_4_);}
	.st20{fill:url(#Trazado_26214_4_);}
	.st21{fill:url(#Trazado_26215_4_);}
	.st22{fill:url(#Trazado_24566_9_);}
	.st23{fill:url(#Trazado_24567_9_);}
	.st24{fill:url(#Trazado_24568_9_);}
	.st25{fill:url(#Trazado_24569_9_);}
	.st26{fill:url(#Trazado_24570_9_);}
	.st27{fill:url(#Trazado_24571_9_);}
	.st28{fill:url(#Trazado_24572_9_);}
	.st29{fill:url(#Trazado_26216_4_);}
	.st30{fill:url(#Trazado_26217_4_);}
	.st31{fill:url(#Trazado_26218_4_);}
	.st32{fill:url(#Trazado_26336_1_);}
	.st33{fill:url(#Unión_52_1_);}
	.st34{fill:url(#Trazado_904_4_);}
	.st35{fill:url(#Trazado_905_4_);}
	.st36{fill:url(#Trazado_906_4_);}
	.st37{fill:url(#Trazado_24631_4_);}
	.st38{fill:url(#Trazado_24632_4_);}
	.st39{fill:url(#Trazado_24633_4_);}
	.st40{fill:url(#Trazado_24634_4_);}
	.st41{fill:url(#Trazado_24635_4_);}
	.st42{fill:url(#Trazado_24636_4_);}
	.st43{fill:url(#Trazado_24637_4_);}
	.st44{fill:url(#Trazado_24638_4_);}
	.st45{fill:url(#Trazado_24639_4_);}
	.st46{fill:url(#Trazado_24640_4_);}
	.st47{fill:url(#Trazado_884_3_);}
	.st48{fill:url(#Trazado_24616_3_);}
	.st49{fill:url(#Trazado_24617_3_);}
	.st50{fill:url(#Trazado_24618_3_);}
	.st51{fill:url(#Trazado_24619_3_);}
	.st52{fill:url(#Trazado_24620_3_);}
	.st53{fill:url(#Trazado_24621_3_);}
	.st54{fill:url(#Trazado_24622_3_);}
	.st55{fill:none;stroke:#CCCCCC;}
	.st56{fill:url(#Trazado_904-2_2_);}
	.st57{fill:url(#Trazado_905-2_2_);}
	.st58{fill:url(#Trazado_906-2_2_);}
	.st59{fill:url(#Trazado_24631-2_2_);}
	.st60{fill:url(#Trazado_24632-2_2_);}
	.st61{fill:url(#Trazado_24633-2_2_);}
	.st62{fill:url(#Trazado_24634-2_2_);}
	.st63{fill:url(#Trazado_24635-2_2_);}
	.st64{fill:url(#Trazado_24636-2_2_);}
	.st65{fill:url(#Trazado_24637-2_2_);}
	.st66{fill:url(#Trazado_24638-2_2_);}
	.st67{fill:url(#Trazado_24639-2_2_);}
	.st68{fill:url(#Trazado_24640-2_2_);}
	.st69{fill:url(#Trazado_884-2_1_);}
	.st70{fill:url(#Trazado_24616-2_1_);}
	.st71{fill:url(#Trazado_24617-2_1_);}
	.st72{fill:url(#Trazado_24618-2_1_);}
	.st73{fill:url(#Trazado_24619-2_1_);}
	.st74{fill:url(#Trazado_24620-2_1_);}
	.st75{fill:url(#Trazado_24621-2_1_);}
	.st76{fill:url(#Trazado_24622-2_1_);}
	.st77{fill:url(#Trazado_26355_1_);}
	.st78{opacity:0.2;fill:#26F70F;}
	.st79{fill:#F90D0D;}
	.st80{fill:none;stroke:#F90D0D;stroke-miterlimit:10;}
	.st81{fill:none;stroke:#FF2929;stroke-miterlimit:10;}
	.st82{opacity:0.2;}
	.st83{fill:#FF2929;}
	.st84{opacity:0.2;fill:#FF2929;}
	.st85{fill:#3366CC;}
	.st86{fill:none;stroke:#FFFFFF;}
	.st87{fill:#0070BA;}
	.st88{fill:#E3134D;}
	.st89{fill:#FEC20A;}
	.st90{fill:#70AF3D;}
	.st91{fill:#9B156E;}
	.st92{fill:#FBD015;}
	.st93{fill:#05569E;}
	.st94{fill:#D11F3E;}
	.st95{fill:none;}
	.st96{fill-rule:evenodd;clip-rule:evenodd;fill:#3366CC;}
	.st97{fill:none;stroke:#707070;}
	.st98{stroke:#FF2929;stroke-width:4;stroke-miterlimit:10;}
	.st99{fill:none;stroke:#FF2929;stroke-width:4;stroke-miterlimit:10;}
	.st100{fill:none;stroke:#000000;stroke-miterlimit:10;}
	.st101{fill:#41D78C;}
	.st102{fill:url(#Trazado_24869_3_);}
	.st103{fill:url(#Trazado_26191_3_);}
	.st104{fill:url(#Trazado_26192_3_);}
	.st105{fill:url(#Trazado_26193_3_);}
	.st106{fill:url(#Trazado_26194_3_);}
	.st107{fill:url(#Trazado_26195_3_);}
	.st108{fill:url(#Trazado_26196_3_);}
	.st109{fill:url(#Trazado_26197_3_);}
	.st110{fill:url(#Trazado_26198_5_);}
	.st111{fill:url(#Trazado_26199_5_);}
	.st112{fill:url(#Trazado_26200_5_);}
	.st113{fill:url(#Trazado_26201_5_);}
	.st114{fill:url(#Trazado_26202_5_);}
	.st115{fill:url(#Trazado_26203_5_);}
	.st116{fill:url(#Trazado_26204_5_);}
	.st117{fill:url(#Trazado_26205_5_);}
	.st118{fill:url(#Trazado_26206_5_);}
	.st119{fill:url(#Trazado_26207_5_);}
	.st120{fill:url(#Trazado_26208_5_);}
	.st121{fill:url(#Trazado_26209_5_);}
	.st122{fill:url(#Trazado_26210_5_);}
	.st123{fill:url(#Trazado_26211_5_);}
	.st124{fill:url(#Trazado_26212_5_);}
	.st125{fill:url(#Trazado_26213_5_);}
	.st126{fill:url(#Trazado_26214_5_);}
	.st127{fill:url(#Trazado_26215_5_);}
	.st128{fill:url(#Trazado_26216_5_);}
	.st129{fill:url(#Trazado_26217_5_);}
	.st130{fill:url(#Trazado_26218_5_);}
	.st131{fill:url(#Trazado_24566_11_);}
	.st132{fill:url(#Trazado_24567_11_);}
	.st133{fill:url(#Trazado_24568_11_);}
	.st134{fill:url(#Trazado_24569_11_);}
	.st135{fill:url(#Trazado_24570_11_);}
	.st136{fill:url(#Trazado_24571_11_);}
	.st137{fill:url(#Trazado_24572_11_);}
	.st138{fill:url(#Unión_55_1_);}
	.st139{fill:url(#Trazado_904_5_);}
	.st140{fill:url(#Trazado_905_5_);}
	.st141{fill:url(#Trazado_906_5_);}
	.st142{fill:url(#Trazado_24631_5_);}
	.st143{fill:url(#Trazado_24632_5_);}
	.st144{fill:url(#Trazado_24633_5_);}
	.st145{fill:url(#Trazado_24634_5_);}
	.st146{fill:url(#Trazado_24635_5_);}
	.st147{fill:url(#Trazado_24636_5_);}
	.st148{fill:url(#Trazado_24637_5_);}
	.st149{fill:url(#Trazado_24638_5_);}
	.st150{fill:url(#Trazado_24639_5_);}
	.st151{fill:url(#Trazado_24640_5_);}
	.st152{fill:url(#Rectángulo_3914-2_1_);}
	.st153{clip-path:url(#SVGID_6_);fill:#EBEEF0;}
	.st154{clip-path:url(#SVGID_6_);}
	.st155{opacity:0.2;clip-path:url(#SVGID_6_);fill:#26F70F;}
	.st156{opacity:0.1;clip-path:url(#SVGID_6_);}
	.st157{opacity:0.2;fill:#F90D0D;}
	.st158{fill:none;stroke:#FF0000;stroke-width:5;stroke-miterlimit:10;}
	.st159{clip-path:url(#SVGID_14_);fill:#EBEEF0;}
	.st160{clip-path:url(#SVGID_14_);}
	.st161{opacity:0.2;clip-path:url(#SVGID_14_);fill:#26F70F;}
	.st162{fill:none;stroke:#26F70F;stroke-width:7;stroke-miterlimit:10;}
	.st163{fill:url(#Rectángulo_3928_2_);}
	.st164{fill:#F0F2F4;}
	.st165{opacity:0.28;fill:none;stroke:#BEC8D2;enable-background:new    ;}
	.st166{fill:none;stroke:#E2E7EB;}
	.st167{fill:#00B4DC;}
	.st168{fill:url(#Trazado_24687_4_);}
	.st169{fill:url(#Trazado_24688_4_);}
	.st170{fill:url(#Trazado_24689_4_);}
	.st171{fill:url(#Trazado_24690_4_);}
	.st172{fill:url(#Rectángulo_1733_4_);}
	.st173{fill:url(#Rectángulo_1734_4_);}
	.st174{fill:url(#Rectángulo_1735_4_);}
	.st175{fill:url(#Trazado_24687_5_);}
	.st176{fill:url(#Trazado_24688_5_);}
	.st177{fill:url(#Trazado_24689_5_);}
	.st178{fill:url(#Trazado_24690_5_);}
	.st179{fill:url(#Rectángulo_1733_5_);}
	.st180{fill:url(#Rectángulo_1734_5_);}
	.st181{fill:url(#Rectángulo_1735_5_);}
	.st182{fill:url(#Trazado_24566_12_);}
	.st183{fill:url(#Trazado_24567_12_);}
	.st184{fill:url(#Trazado_24568_12_);}
	.st185{fill:url(#Trazado_24569_12_);}
	.st186{fill:url(#Trazado_24570_12_);}
	.st187{fill:url(#Trazado_24571_12_);}
	.st188{fill:url(#Trazado_24572_12_);}
	.st189{fill:url(#Trazado_26237_4_);}
	.st190{fill:url(#Trazado_26238_4_);}
	.st191{fill:url(#Trazado_26242_4_);}
	.st192{fill:url(#Trazado_26243_4_);}
	.st193{fill:url(#Trazado_26244_4_);}
	.st194{fill:url(#Trazado_26245_4_);}
	.st195{fill:url(#Trazado_26246_4_);}
	.st196{fill:url(#Trazado_26247_4_);}
	.st197{fill:url(#Trazado_26248_4_);}
	.st198{fill:url(#Trazado_26249_4_);}
	.st199{fill:url(#Trazado_26250_4_);}
	.st200{fill:url(#Trazado_26251_4_);}
	.st201{fill:url(#Trazado_26252_4_);}
	.st202{fill:url(#Trazado_26253_4_);}
	.st203{fill:url(#Trazado_26254_4_);}
	.st204{fill:url(#Trazado_26255_4_);}
	.st205{fill:url(#Trazado_26256_4_);}
	.st206{fill:url(#Trazado_26257_4_);}
	.st207{fill:url(#Trazado_26258_4_);}
	.st208{fill:url(#Trazado_26259_4_);}
	.st209{fill:url(#Trazado_26260_4_);}
	.st210{fill:url(#Trazado_26261_4_);}
	.st211{fill:url(#Trazado_26262_4_);}
	.st212{fill:url(#Trazado_26263_4_);}
	.st213{fill:url(#Trazado_26264_4_);}
	.st214{fill:url(#Trazado_26265_4_);}
	.st215{fill:url(#Trazado_26266_4_);}
	.st216{fill:url(#Trazado_26267_4_);}
	.st217{fill:url(#Trazado_26268_4_);}
	.st218{fill:url(#Trazado_26269_4_);}
	.st219{fill:url(#Trazado_26270_4_);}
	.st220{fill:url(#Trazado_26271_4_);}
	.st221{fill:url(#Trazado_26272_4_);}
	.st222{fill:url(#Trazado_26273_4_);}
	.st223{fill:url(#Trazado_26274_4_);}
	.st224{fill:url(#Trazado_26275_4_);}
	.st225{fill:url(#Trazado_26276_4_);}
	.st226{fill:url(#Trazado_26277_4_);}
	.st227{fill:url(#Trazado_26278_4_);}
	.st228{fill:url(#Trazado_26279_4_);}
	.st229{fill:url(#Trazado_26284_3_);}
	.st230{fill:url(#Trazado_26285_3_);}
	.st231{fill:url(#Trazado_26230_5_);}
	.st232{fill:url(#Trazado_26231_5_);}
	.st233{fill:url(#Trazado_26232_5_);}
	.st234{fill:url(#Rectángulo_3918_5_);}
	.st235{fill:url(#Rectángulo_3919_5_);}
	.st236{fill:url(#Rectángulo_3920_5_);}
	.st237{fill:url(#Rectángulo_3921_5_);}
	.st238{fill:url(#Rectángulo_3922_5_);}
	.st239{fill:url(#Rectángulo_3923_5_);}
	.st240{fill:url(#Rectángulo_3924_5_);}
	.st241{fill:url(#Rectángulo_3925_5_);}
	.st242{fill:url(#Rectángulo_3928_3_);}
	.st243{fill:url(#Trazado_24566_13_);}
	.st244{fill:url(#Trazado_24567_13_);}
	.st245{fill:url(#Trazado_24568_13_);}
	.st246{fill:url(#Trazado_24569_13_);}
	.st247{fill:url(#Trazado_24570_13_);}
	.st248{fill:url(#Trazado_24571_13_);}
	.st249{fill:url(#Trazado_24572_13_);}
	.st250{fill:url(#Trazado_26233_2_);}
	.st251{fill:url(#Trazado_26234_2_);}
	.st252{fill:url(#Trazado_26235_2_);}
	.st253{fill:url(#Trazado_26236_2_);}
	.st254{fill:url(#Trazado_26237_5_);}
	.st255{fill:url(#Trazado_26238_5_);}
	.st256{fill:url(#Trazado_26242_5_);}
	.st257{fill:url(#Trazado_26243_5_);}
	.st258{fill:url(#Trazado_26244_5_);}
	.st259{fill:url(#Trazado_26245_5_);}
	.st260{fill:url(#Trazado_26246_5_);}
	.st261{fill:url(#Trazado_26247_5_);}
	.st262{fill:url(#Trazado_26248_5_);}
	.st263{fill:url(#Trazado_26249_5_);}
	.st264{fill:url(#Trazado_26250_5_);}
	.st265{fill:url(#Trazado_26251_5_);}
	.st266{fill:url(#Trazado_26252_5_);}
	.st267{fill:url(#Trazado_26253_5_);}
	.st268{fill:url(#Trazado_26254_5_);}
	.st269{fill:url(#Trazado_26255_5_);}
	.st270{fill:url(#Trazado_26256_5_);}
	.st271{fill:url(#Trazado_26257_5_);}
	.st272{fill:url(#Trazado_26258_5_);}
	.st273{fill:url(#Trazado_26259_5_);}
	.st274{fill:url(#Trazado_26260_5_);}
	.st275{fill:url(#Trazado_26261_5_);}
	.st276{fill:url(#Trazado_26262_5_);}
	.st277{fill:url(#Trazado_26263_5_);}
	.st278{fill:url(#Trazado_26264_5_);}
	.st279{fill:url(#Trazado_26265_5_);}
	.st280{fill:url(#Trazado_26266_5_);}
	.st281{fill:url(#Trazado_26267_5_);}
	.st282{fill:url(#Trazado_26268_5_);}
	.st283{fill:url(#Trazado_26269_5_);}
	.st284{fill:url(#Trazado_26270_5_);}
	.st285{fill:url(#Trazado_26271_5_);}
	.st286{fill:url(#Trazado_26272_5_);}
	.st287{fill:url(#Trazado_26273_5_);}
	.st288{fill:url(#Trazado_26274_5_);}
	.st289{fill:url(#Trazado_26275_5_);}
	.st290{fill:url(#Trazado_26276_5_);}
	.st291{fill:url(#Trazado_26277_5_);}
	.st292{fill:url(#Trazado_26278_5_);}
	.st293{fill:url(#Trazado_26279_5_);}
	.st294{fill:url(#Trazado_26284_4_);}
	.st295{fill:url(#Trazado_26285_4_);}
	.st296{fill:url(#Trazado_26230_6_);}
	.st297{fill:url(#Trazado_26231_6_);}
	.st298{fill:url(#Trazado_26232_6_);}
	.st299{fill:url(#Rectángulo_3918_6_);}
	.st300{fill:url(#Rectángulo_3919_6_);}
	.st301{fill:url(#Rectángulo_3920_6_);}
	.st302{fill:url(#Rectángulo_3921_6_);}
	.st303{fill:url(#Rectángulo_3922_6_);}
	.st304{fill:url(#Rectángulo_3923_6_);}
	.st305{fill:url(#Rectángulo_3924_6_);}
	.st306{fill:url(#Rectángulo_3925_6_);}
	.st307{fill:none;stroke:#006495;stroke-linecap:square;stroke-miterlimit:10;stroke-dasharray:2,2;}
	.st308{fill:#262944;}
	.st309{fill:none;stroke:#FFFFFF;stroke-miterlimit:10;}
	.st310{fill:url(#Trazado_24869_4_);}
	.st311{fill:url(#Trazado_26191_5_);}
	.st312{fill:url(#Trazado_26192_5_);}
	.st313{fill:url(#Trazado_26193_5_);}
	.st314{fill:url(#Trazado_26194_5_);}
	.st315{fill:url(#Trazado_26195_5_);}
	.st316{fill:url(#Trazado_26196_5_);}
	.st317{fill:url(#Trazado_26197_5_);}
	.st318{fill:url(#Trazado_26198_6_);}
	.st319{fill:url(#Trazado_26199_6_);}
	.st320{fill:url(#Trazado_26200_6_);}
	.st321{fill:url(#Trazado_26201_6_);}
	.st322{fill:url(#Trazado_26202_6_);}
	.st323{fill:url(#Trazado_26203_6_);}
	.st324{fill:url(#Trazado_26204_6_);}
	.st325{fill:url(#Trazado_26205_6_);}
	.st326{fill:url(#Trazado_26206_6_);}
	.st327{fill:url(#Trazado_26207_6_);}
	.st328{fill:url(#Trazado_26208_6_);}
	.st329{fill:url(#Trazado_26209_6_);}
	.st330{fill:url(#Trazado_26210_6_);}
	.st331{fill:url(#Trazado_26211_6_);}
	.st332{fill:url(#Trazado_26212_6_);}
	.st333{fill:url(#Trazado_26213_6_);}
	.st334{fill:url(#Trazado_26214_6_);}
	.st335{fill:url(#Trazado_26215_6_);}
	.st336{fill:url(#Trazado_26216_6_);}
	.st337{fill:url(#Trazado_26217_6_);}
	.st338{fill:url(#Trazado_26218_6_);}
	.st339{fill:url(#Trazado_24566_14_);}
	.st340{fill:url(#Trazado_24567_14_);}
	.st341{fill:url(#Trazado_24568_14_);}
	.st342{fill:url(#Trazado_24569_14_);}
	.st343{fill:url(#Trazado_24570_14_);}
	.st344{fill:url(#Trazado_24571_14_);}
	.st345{fill:url(#Trazado_24572_14_);}
	.st346{fill:url(#Trazado_26354_3_);}
	.st347{fill:url(#Trazado_904_6_);}
	.st348{fill:url(#Trazado_905_6_);}
	.st349{fill:url(#Trazado_906_6_);}
	.st350{fill:url(#Trazado_24631_6_);}
	.st351{fill:url(#Trazado_24632_6_);}
	.st352{fill:url(#Trazado_24633_6_);}
	.st353{fill:url(#Trazado_24634_6_);}
	.st354{fill:url(#Trazado_24635_6_);}
	.st355{fill:url(#Trazado_24636_6_);}
	.st356{fill:url(#Trazado_24637_6_);}
	.st357{fill:url(#Trazado_24638_6_);}
	.st358{fill:url(#Trazado_24639_6_);}
	.st359{fill:url(#Trazado_24640_6_);}
	.st360{fill:url(#Trazado_884_5_);}
	.st361{fill:url(#Trazado_24616_4_);}
	.st362{fill:url(#Trazado_24617_4_);}
	.st363{fill:url(#Trazado_24618_4_);}
	.st364{fill:url(#Trazado_24619_4_);}
	.st365{fill:url(#Trazado_24620_4_);}
	.st366{fill:url(#Trazado_24621_4_);}
	.st367{fill:url(#Trazado_24622_4_);}
	.st368{fill:#FF6161;}
	.st369{fill:url(#Trazado_26233_5_);}
	.st370{fill:url(#Trazado_26234_5_);}
	.st371{fill:url(#Trazado_26235_5_);}
	.st372{fill:url(#Trazado_26236_5_);}
	.st373{fill:url(#Trazado_24566_15_);}
	.st374{fill:url(#Trazado_24567_15_);}
	.st375{fill:url(#Trazado_24568_15_);}
	.st376{fill:url(#Trazado_24569_15_);}
	.st377{fill:url(#Trazado_24570_15_);}
	.st378{fill:url(#Trazado_24571_15_);}
	.st379{fill:url(#Trazado_24572_15_);}
	.st380{fill:url(#Trazado_24566_16_);}
	.st381{fill:url(#Trazado_24567_16_);}
	.st382{fill:url(#Trazado_24568_16_);}
	.st383{fill:url(#Trazado_24569_16_);}
	.st384{fill:url(#Trazado_24570_16_);}
	.st385{fill:url(#Trazado_24571_16_);}
	.st386{fill:url(#Trazado_24572_16_);}
	.st387{fill:url(#Trazado_26237_6_);}
	.st388{fill:url(#Trazado_26238_6_);}
	.st389{fill:url(#Trazado_26242_6_);}
	.st390{fill:url(#Trazado_26243_6_);}
	.st391{fill:url(#Trazado_26244_6_);}
	.st392{fill:url(#Trazado_26245_6_);}
	.st393{fill:url(#Trazado_26246_6_);}
	.st394{fill:url(#Trazado_26247_6_);}
	.st395{fill:url(#Trazado_26248_6_);}
	.st396{fill:url(#Trazado_26249_6_);}
	.st397{fill:url(#Trazado_26250_6_);}
	.st398{fill:url(#Trazado_26251_6_);}
	.st399{fill:url(#Trazado_26252_6_);}
	.st400{fill:url(#Trazado_26253_6_);}
	.st401{fill:url(#Trazado_26254_6_);}
	.st402{fill:url(#Trazado_26255_6_);}
	.st403{fill:url(#Trazado_26256_6_);}
	.st404{fill:url(#Trazado_26257_6_);}
	.st405{fill:url(#Trazado_26258_6_);}
	.st406{fill:url(#Trazado_26259_6_);}
	.st407{fill:url(#Trazado_26260_6_);}
	.st408{fill:url(#Trazado_26261_6_);}
	.st409{fill:url(#Trazado_26262_6_);}
	.st410{fill:url(#Trazado_26263_6_);}
	.st411{fill:url(#Trazado_26264_6_);}
	.st412{fill:url(#Trazado_26265_6_);}
	.st413{fill:url(#Trazado_26266_6_);}
	.st414{fill:url(#Trazado_26267_6_);}
	.st415{fill:url(#Trazado_26268_6_);}
	.st416{fill:url(#Trazado_26269_6_);}
	.st417{fill:url(#Trazado_26270_6_);}
	.st418{fill:url(#Trazado_26271_6_);}
	.st419{fill:url(#Trazado_26272_6_);}
	.st420{fill:url(#Trazado_26273_6_);}
	.st421{fill:url(#Trazado_26274_6_);}
	.st422{fill:url(#Trazado_26275_6_);}
	.st423{fill:url(#Trazado_26276_6_);}
	.st424{fill:url(#Trazado_26277_6_);}
	.st425{fill:url(#Trazado_26278_6_);}
	.st426{fill:url(#Trazado_26279_6_);}
	.st427{fill:url(#Trazado_26284_6_);}
	.st428{fill:url(#Trazado_26285_6_);}
	.st429{fill:url(#Trazado_26230_7_);}
	.st430{fill:url(#Trazado_26231_7_);}
	.st431{fill:url(#Trazado_26232_7_);}
	.st432{fill:url(#Rectángulo_3918_7_);}
	.st433{fill:url(#Rectángulo_3919_7_);}
	.st434{fill:url(#Rectángulo_3920_7_);}
	.st435{fill:url(#Rectángulo_3921_7_);}
	.st436{fill:url(#Rectángulo_3922_7_);}
	.st437{fill:url(#Rectángulo_3923_7_);}
	.st438{fill:url(#Rectángulo_3924_7_);}
	.st439{fill:url(#Rectángulo_3925_7_);}
	.st440{opacity:0.1;fill:#FF2929;}
	.st441{fill:#CCF0F8;}
	.st442{opacity:0.2;fill:#D31A1A;}
	.st443{fill:#E2E7EB;}
	.st444{fill:none;stroke:#BEC8D2;}
	.st445{fill:#D5F4E6;}
	.st446{fill-rule:evenodd;clip-rule:evenodd;fill:#262944;}
	.st447{fill:url(#Trazado_26409_3_);}
	.st448{fill:url(#Trazado_26410_1_);}
	.st449{fill:url(#Trazado_26411_1_);}
	.st450{fill:url(#Trazado_26412_1_);}
	.st451{fill:url(#Trazado_26413_1_);}
	.st452{fill:url(#Trazado_26414_1_);}
	.st453{fill:url(#Trazado_26415_1_);}
	.st454{fill:url(#Trazado_26416_2_);}
	.st455{fill:url(#Trazado_26417_2_);}
	.st456{fill:url(#Trazado_26418_2_);}
	.st457{fill:url(#Trazado_26419_2_);}
	.st458{fill:url(#Trazado_26420_2_);}
	.st459{fill:url(#Trazado_26421_2_);}
	.st460{fill:url(#Trazado_26516_3_);}
	.st461{fill:url(#Trazado_26517_3_);}
	.st462{fill:url(#Trazado_26518_3_);}
	.st463{fill:url(#Trazado_26519_3_);}
	.st464{fill:url(#Trazado_26520_3_);}
	.st465{fill:url(#Trazado_26521_3_);}
	.st466{fill:url(#Trazado_26522_3_);}
	.st467{fill:url(#Trazado_24566_17_);}
	.st468{fill:url(#Trazado_24567_17_);}
	.st469{fill:url(#Trazado_24568_17_);}
	.st470{fill:url(#Trazado_24569_17_);}
	.st471{fill:url(#Trazado_24570_17_);}
	.st472{fill:url(#Trazado_24571_17_);}
	.st473{fill:url(#Trazado_24572_17_);}
	.st474{fill:url(#Trazado_884_6_);}
	.st475{fill:url(#Trazado_26366_3_);}
	.st476{fill:url(#Trazado_26367_2_);}
	.st477{fill:url(#Trazado_26368_1_);}
	.st478{fill:url(#Trazado_26369_1_);}
	.st479{fill:url(#Trazado_26370_1_);}
	.st480{fill:url(#Trazado_1691_3_);}
	.st481{fill:url(#Trazado_1692_2_);}
	.st482{fill:url(#Trazado_1691_4_);}
	.st483{fill:url(#Trazado_1692_3_);}
</style>
<path id="Trazado_26367" class="st2" d="M73.66,136.65c0,1.1-0.9,2-2,2c-1.1,0-2-0.9-2-2s0.9-2,2-2c0.53,0,1.04,0.21,1.41,0.58
	C73.44,135.61,73.66,136.12,73.66,136.65z M122.76,115.34v13.49c0,1.1-0.89,1.99-1.99,2h-15.77v5.87l0,0c0,1.08-0.88,1.96-1.96,1.96
	c0,0,0,0,0,0H79.64c-1.04,0.09-1.96-0.67-2.05-1.71c-0.02-0.23,0-0.47,0.06-0.69c0.3-0.77,1.05-1.27,1.88-1.25h10.34v-8.04l0,0
	c0.1-1.12,1.08-1.94,2.2-1.84c0.1,0.01,0.19,0.02,0.29,0.05c1,0.19,1.71,1.07,1.69,2.08V135h6.79v-5.59c-0.09-0.52-0.09-1.05,0-1.57
	v-2.24c0.12-6.78-4.52-12.72-11.12-14.25l-9.84-2.35l-6.34,14.42c-0.32,0.73-1.04,1.2-1.84,1.2l0,0c-0.8,0-1.52-0.47-1.84-1.2
	l-6.35-14.44l-9.87,2.36c-6.6,1.58-11.26,7.46-11.29,14.25v8.89h6.79v-9.19c-0.02-1.15,0.9-2.1,2.06-2.12
	c1.15-0.02,2.1,0.9,2.12,2.06c0,0.03,0,0.06,0,0.09v9.17h9.32c1.15-0.02,2.1,0.9,2.12,2.06c0.02,1.15-0.9,2.1-2.06,2.12
	c-0.03,0-0.06,0-0.09,0H40.7c-1.11,0-2.01-0.9-2.01-2c0,0,0,0,0,0v-5.83H22.43c-1.11,0-2.01-0.9-2.01-2.01v-13.77
	c-0.02-6.4,4.38-11.97,10.61-13.44l6.62-1.58v-2.66c-3.9-2.45-6.26-6.73-6.27-11.34v-7.39c0-7.32,5.93-13.26,13.25-13.26
	c3.82,0,7.45,1.64,9.97,4.51c2.18-7.59,9.12-12.81,17.01-12.82l0,0c7.88,0.01,14.8,5.22,16.99,12.79c4.85-5.49,13.23-6,18.71-1.15
	c2.85,2.52,4.48,6.14,4.48,9.94v7.39c0,4.6-2.37,8.88-6.27,11.34v2.78l6.62,1.6C118.41,103.28,122.8,108.9,122.76,115.34z
	 M89.53,75.84c3.76,2.16,8.01,3.3,12.35,3.29h5.74v-0.7c0-5.1-4.13-9.23-9.23-9.23C94.29,69.21,90.69,71.91,89.53,75.84L89.53,75.84
	z M89.34,85.75v0.33c0,5.05,4.09,9.14,9.14,9.14c5.05,0,9.14-4.09,9.14-9.14v-2.77h-5.68c-4.37,0-8.67-1.01-12.58-2.96
	C89.35,80.36,89.35,85.55,89.34,85.75z M58.02,76.53h5.62c4.48,0,8.72-1.99,11.58-5.43c0.62-0.75,1.7-0.94,2.54-0.44l7.41,4.37
	v-0.05c0.06-7.18-5.41-13.19-12.56-13.81c-7.49-0.54-14.01,5.09-14.56,12.58c-0.02,0.34-0.04,0.68-0.04,1.02L58.02,76.53z
	 M36.09,79.14h5.23c4.33,0.16,8.61-0.91,12.35-3.1c-1.45-4.89-6.59-7.69-11.48-6.24c-3.92,1.16-6.61,4.75-6.62,8.84L36.09,79.14
	L36.09,79.14z M44.61,95.22c5.07,0.02,9.2-4.07,9.22-9.14c0,0,0,0,0,0v-5.73c-3.91,1.95-8.22,2.96-12.59,2.96h-5.68v2.77
	C35.59,91.08,39.61,95.15,44.61,95.22L44.61,95.22z M38.17,125.61c-0.01-4.32,1.45-8.52,4.13-11.9l-4.17-10.11l-6.39,1.54
	c-4.53,1.11-7.7,5.18-7.67,9.84v11.67h4.18v-8.91c0.03-1.15,0.99-2.07,2.14-2.04s2.07,0.99,2.04,2.14v8.81h5.74L38.17,125.61
	L38.17,125.61z M48.11,101.64c-0.01-0.07-0.01-0.13-0.01-0.2v-2.62c-2.06,0.49-4.21,0.49-6.27,0v2.63c0,0.05-0.01,0.1-0.01,0.15
	l3.15,7.54L48.11,101.64z M59.07,105.93c-0.47-0.19-0.95-0.35-1.44-0.46l-6.36-1.53l-1.95,4.68c1.09-0.5,2.23-0.89,3.4-1.17
	L59.07,105.93z M62.71,100.34c-2.88-1.73-5.23-4.23-6.76-7.23c-1.07,1.69-2.51,3.12-4.2,4.19v2.67l6.81,1.63
	c1.47,0.35,2.87,0.94,4.16,1.73L62.71,100.34z M76.81,106.29v-4.14c-3.24,0.96-6.69,0.96-9.92-0.02v4.14l4.96,11.41L76.81,106.29
	L76.81,106.29z M71.6,98.99c7.33-0.03,13.32-5.84,13.57-13.17v-5.98l-8.03-4.74c-3.57,3.59-8.43,5.61-13.5,5.6h-5.62v4.64
	C58.01,92.86,64.09,98.96,71.6,98.99L71.6,98.99z M80.47,100.39v2.96c1.29-0.8,2.7-1.39,4.17-1.74l6.79-1.63v-2.66
	c-1.68-1.06-3.1-2.47-4.17-4.15C85.72,96.16,83.37,98.66,80.47,100.39L80.47,100.39L80.47,100.39z M90.64,107.33
	c1.18,0.28,2.33,0.68,3.44,1.18l-1.96-4.7l-6.34,1.52c-0.5,0.12-1,0.28-1.48,0.48L90.64,107.33L90.64,107.33z M98.72,109.16
	l3.16-7.57c0-0.04-0.01-0.07-0.01-0.11v-2.63c-2.06,0.49-4.21,0.49-6.27,0v2.61c0,0.08,0,0.15-0.01,0.23L98.72,109.16z
	 M119.11,115.17c0.01-4.61-3.16-8.62-7.65-9.68l-6.39-1.52l-4.17,9.97c2.67,3.32,4.12,7.44,4.11,11.7v1.02h5.74v-8.91
	c0.03-1.15,0.99-2.07,2.14-2.04s2.07,0.99,2.04,2.14v8.81h4.18L119.11,115.17z M31.79,65.33c1.68-1.48,3.68-2.55,5.84-3.13
	c-0.08-0.01-0.17-0.02-0.25-0.02h-9.97c-1.22,0-2.22-0.99-2.22-2.22v-8.88c0-1.22,0.99-2.22,2.22-2.22h9.96
	c1.02,0,1.91-0.69,2.16-1.67c0.78-3.01,1.97-5.9,3.55-8.58c0.52-0.87,0.38-1.98-0.34-2.7l-7.05-7.05c-0.87-0.87-0.87-2.27,0-3.14
	l6.28-6.28c0.87-0.87,2.27-0.87,3.14,0l7.05,7.05c0.72,0.72,1.83,0.86,2.7,0.34c2.68-1.58,5.57-2.78,8.58-3.55
	c0.98-0.25,1.67-1.14,1.67-2.16v-9.96c0-1.22,0.99-2.21,2.22-2.22h8.87c1.22,0,2.22,0.99,2.22,2.22v8.53c0,1.01,0.67,1.89,1.64,2.15
	c3.03,0.83,5.93,2.09,8.6,3.76c0.87,0.55,2,0.4,2.7-0.36l7.05-7.45c0.84-0.87,2.23-0.89,3.1-0.04c0.01,0.01,0.03,0.03,0.04,0.04
	l6.28,6.63c0.86,0.94,0.86,2.38,0,3.32l-7.14,7.54c-0.67,0.71-0.81,1.77-0.33,2.62c1.64,2.91,2.86,6.02,3.65,9.27
	c0.24,1,1.14,1.69,2.16,1.69h9.94c1.26,0.04,2.25,1.08,2.22,2.34v9.36c0.03,1.26-0.96,2.3-2.22,2.34h-8.5
	c1.93,0.86,3.66,2.12,5.06,3.7h3.44c3.67-0.01,6.65-2.98,6.65-6.66v-8.87c0-3.67-2.98-6.65-6.65-6.65h-8.3
	c-0.69-2.27-1.6-4.46-2.71-6.56l5.87-5.86c2.6-2.6,2.6-6.81,0-9.41l-6.28-6.28c-2.63-2.51-6.78-2.51-9.41,0l-5.86,5.86
	c-2.1-1.11-4.29-2.02-6.56-2.72v-8.3c0-3.67-2.98-6.65-6.65-6.65h-8.87c-3.67,0-6.65,2.98-6.65,6.65v8.3
	c-2.27,0.7-4.46,1.61-6.56,2.72l-5.87-5.87c-2.6-2.6-6.81-2.6-9.41,0l-6.27,6.28c-2.59,2.6-2.59,6.81,0,9.41l5.86,5.87
	c-1.11,2.1-2.02,4.29-2.71,6.56h-8.3c-3.67,0-6.65,2.98-6.65,6.65v8.87c0.01,3.67,2.98,6.65,6.65,6.65h3.1
	C30.91,66.16,31.34,65.73,31.79,65.33L31.79,65.33z M56.04,55.84c-0.04-8.63,6.91-15.65,15.54-15.7c8.63-0.04,15.65,6.91,15.7,15.54
	c0.01,1.3-0.15,2.6-0.47,3.87c1.22,1.48,2.22,3.14,2.96,4.91c4.78-10.01,0.54-21.99-9.46-26.77c-10.01-4.78-21.99-0.54-26.77,9.46
	c-2.6,5.44-2.62,11.77-0.04,17.22c0.75-1.77,1.76-3.41,2.99-4.89C56.19,58.29,56.04,57.07,56.04,55.84L56.04,55.84z"/>
</svg>
