<?xml version="1.0" encoding="utf-8"?>
<!-- Generator: Adobe Illustrator 25.2.1, SVG Export Plug-In . SVG Version: 6.00 Build 0)  -->
<svg version="1.1" id="Capa_1" xmlns="http://www.w3.org/2000/svg" xmlns:xlink="http://www.w3.org/1999/xlink" x="0px" y="0px"
	 viewBox="0 0 229.59 205.54" style="enable-background:new 0 0 229.59 205.54;" xml:space="preserve">
<style type="text/css">
	.st0{fill:#FFFFFF;}
	.st1{fill:#F6F8F9;}
	.st2{fill:none;stroke:#707070;}
	.st3{fill:#6E6E6E;}
	.st4{opacity:0.9;fill:#FFFFFF;enable-background:new    ;}
	.st5{fill:#272944;}
	.st6{fill:#62B883;}
	.st7{fill:none;stroke:#62B883;stroke-width:5;}
	.st8{fill:none;stroke:#00B3DC;stroke-width:2;}
	.st9{fill:url(#);}
	.st10{clip-path:url(#SVGID_2_);}
	.st11{fill:url(#Rectangle_6_6_);}
	.st12{fill:url(#Path_57_6_);}
	.st13{fill:url(#Rectangle_7_6_);}
	.st14{fill:url(#Path_58_6_);}
	.st15{fill:#03B2DC;}
	.st16{fill:#6F6E6E;}
	.st17{fill:#3C63AB;}
	.st18{fill:#FBD016;}
	.st19{fill:#06579E;}
	.st20{fill:#D21E3F;}
	.st21{opacity:0.58;fill:none;stroke:#A5ADB4;enable-background:new    ;}
	.st22{clip-path:url(#SVGID_4_);}
	.st23{fill:#F6F7F9;}
	.st24{opacity:0.19;fill:#FFFFFF;enable-background:new    ;}
	.st25{fill:#FCEAE9;}
	.st26{fill:#EFF2F4;}
	.st27{fill:#E2E7EB;}
	.st28{fill:none;stroke:#CCCBCB;}
	.st29{fill:#262944;}
	.st30{fill:none;}
	.st31{fill:#CCCBCB;}
	.st32{fill:#00B3DC;}
	.st33{opacity:0.45;fill:#E42320;enable-background:new    ;}
	.st34{fill:#EE7F80;}
	.st35{fill:#E42320;}
	.st36{fill-rule:evenodd;clip-rule:evenodd;fill:#272944;}
	.st37{opacity:0.11;fill:#E95044;enable-background:new    ;}
	.st38{clip-path:url(#SVGID_6_);}
	.st39{fill:url(#Rectangle_6_7_);}
	.st40{fill:url(#Path_57_7_);}
	.st41{fill:url(#Rectangle_7_7_);}
	.st42{fill:url(#Path_58_7_);}
	.st43{clip-path:url(#SVGID_8_);}
	.st44{fill-rule:evenodd;clip-rule:evenodd;fill:#62B883;}
	.st45{clip-path:url(#SVGID_10_);}
	.st46{fill:url(#Rectangle_6_8_);}
	.st47{fill:url(#Path_57_8_);}
	.st48{fill:url(#Rectangle_7_8_);}
	.st49{fill:url(#Path_58_8_);}
	.st50{clip-path:url(#SVGID_12_);}
	.st51{fill:#E95044;}
	.st52{fill:#41D78C;}
	.st53{fill:none;stroke:#CCCCCC;}
	.st54{fill:#666666;}
	.st55{opacity:0.8;}
	.st56{opacity:0.75;fill:#41D78C;enable-background:new    ;}
	.st57{opacity:0.5;fill:#41D78C;enable-background:new    ;}
	.st58{fill-rule:evenodd;clip-rule:evenodd;fill:#41D78C;}
	.st59{fill:none;stroke:#41D78C;stroke-width:2;}
	.st60{opacity:0.39;fill:#FF0000;enable-background:new    ;}
	.st61{fill:#FF9C9C;}
	.st62{fill:none;stroke:#0DB4DC;stroke-width:2;}
	.st63{fill:#FFA2A2;}
	.st64{fill:#FFFFFF;stroke:#0DB4DC;stroke-width:2;}
	.st65{clip-path:url(#SVGID_14_);}
	.st66{clip-path:url(#SVGID_16_);}
	.st67{opacity:0.898;fill:none;stroke:#CCCCCC;stroke-miterlimit:10;enable-background:new    ;}
	.st68{opacity:0.898;fill:#FFFFFF;stroke:#CCCCCC;enable-background:new    ;}
	.st69{fill:url(#Path_24603_3_);}
	.st70{fill:url(#Path_24607_3_);}
	.st71{fill:url(#Path_24609_3_);}
	.st72{opacity:0.5;fill:#41D78C;}
	.st73{fill:#FF0000;}
	.st74{opacity:0.15;fill:#262944;}
	.st75{opacity:0.5;fill:none;stroke:#41D78C;stroke-miterlimit:10;}
	.st76{fill:none;stroke:#FF0000;stroke-miterlimit:10;}
	.st77{opacity:0.5;fill:#FFFFFF;}
	.st78{fill:#CCCCCC;}
	.st79{opacity:0.25;fill:#FFFFFF;}
	.st80{fill:#F54E41;}
	.st81{fill:#2240EF;}
	.st82{fill:#F0F2F4;}
	.st83{fill:none;stroke:#BEC8D2;}
	.st84{fill:#20A861;}
	.st85{fill:url(#Path_24853_1_);}
	.st86{fill:url(#Path_24852_1_);}
	.st87{fill:url(#Path_24865_1_);}
	.st88{fill:#CCF0F8;}
	.st89{fill-rule:evenodd;clip-rule:evenodd;fill:url(#Path_24778_2_);}
	.st90{fill:url(#Trazado_1691_2_);}
	.st91{fill:url(#Path_24928_2_);}
	.st92{fill:url(#Path_24929_2_);}
	.st93{fill:#2B323D;}
	.st94{opacity:0.349;fill:#BEC8D2;enable-background:new    ;}
	.st95{opacity:0.349;fill:#F6F7F9;enable-background:new    ;}
	.st96{clip-path:url(#SVGID_18_);}
	.st97{clip-path:url(#SVGID_20_);}
	.st98{opacity:0.898;fill:none;stroke:#CCCCCC;enable-background:new    ;}
	.st99{fill:#D5F4E6;}
	.st100{clip-path:url(#SVGID_22_);}
	.st101{clip-path:url(#SVGID_24_);}
	.st102{clip-path:url(#SVGID_26_);}
	.st103{fill:url(#Trazado_1691_5_);}
	.st104{fill:url(#Trazado_1692_3_);}
	.st105{fill:url(#SVGID_27_);}
	.st106{fill:url(#SVGID_28_);}
	.st107{fill:url(#SVGID_29_);}
	.st108{fill:url(#Path_24915_1_);}
	.st109{fill:url(#Path_24916_1_);}
	.st110{fill:url(#Path_24917_1_);}
	.st111{fill:url(#Path_24918_1_);}
	.st112{fill:url(#SVGID_30_);}
	.st113{fill:url(#SVGID_31_);}
	.st114{fill:url(#SVGID_32_);}
	.st115{fill:#F9F9F9;}
	.st116{fill:#00B4DC;}
	.st117{fill:#ED1111;}
	.st118{fill:#FED064;}
	.st119{fill:#C98802;}
	.st120{fill:#FCD5D3;}
	.st121{fill:none;stroke:#41D78C;stroke-width:5;}
	.st122{fill:none;stroke:#00B4DC;stroke-width:2;}
	.st123{clip-path:url(#SVGID_34_);}
	.st124{fill:url(#Rectangle_6_9_);}
	.st125{fill:url(#Path_57_9_);}
	.st126{fill:url(#Rectangle_7_9_);}
	.st127{fill:url(#Path_58_9_);}
	.st128{fill:#0DB3DC;}
	.st129{fill:#3366CC;}
	.st130{fill:#FBD015;}
	.st131{fill:#05569E;}
	.st132{fill:#D11F3E;}
	.st133{opacity:0.58;fill:none;stroke:#A6ADB4;enable-background:new    ;}
	.st134{clip-path:url(#SVGID_36_);}
	.st135{fill:none;stroke:#F54E41;stroke-width:2;}
	.st136{clip-path:url(#SVGID_38_);}
	.st137{clip-path:url(#SVGID_40_);}
	.st138{clip-path:url(#SVGID_42_);}
	.st139{fill:url(#Rectangle_6_10_);}
	.st140{fill:url(#Path_57_10_);}
	.st141{fill:url(#Rectangle_7_10_);}
	.st142{fill:url(#Path_58_10_);}
	.st143{clip-path:url(#SVGID_44_);}
	.st144{clip-path:url(#SVGID_46_);}
	.st145{clip-path:url(#SVGID_48_);}
	.st146{clip-path:url(#SVGID_50_);}
	.st147{fill:#FFFFFF;stroke:#0DB4DC;stroke-width:2;stroke-miterlimit:10;}
	.st148{fill:url(#Path_24603_4_);}
	.st149{fill:url(#Path_24607_4_);}
	.st150{fill:url(#Path_24609_4_);}
	.st151{fill-rule:evenodd;clip-rule:evenodd;fill:#262944;}
	.st152{fill:url(#Path_24603_5_);}
	.st153{fill:url(#Path_24607_5_);}
	.st154{fill:url(#Path_24609_5_);}
	.st155{clip-path:url(#SVGID_52_);}
	.st156{clip-path:url(#SVGID_54_);}
	.st157{clip-path:url(#SVGID_56_);}
	.st158{fill-rule:evenodd;clip-rule:evenodd;fill:url(#Path_24778_3_);}
	.st159{fill:url(#Trazado_1691_6_);}
	.st160{fill:url(#Trazado_1692_4_);}
	.st161{fill:#FBF0D7;}
	.st162{clip-path:url(#SVGID_58_);}
	.st163{clip-path:url(#SVGID_60_);}
	.st164{clip-path:url(#SVGID_62_);}
	.st165{clip-path:url(#SVGID_64_);}
	.st166{clip-path:url(#SVGID_66_);}
	.st167{clip-path:url(#SVGID_68_);}
	.st168{clip-path:url(#SVGID_70_);}
	.st169{clip-path:url(#SVGID_72_);}
	.st170{clip-path:url(#SVGID_74_);}
	.st171{clip-path:url(#SVGID_76_);}
	.st172{fill:url(#Rectangle_6_11_);}
	.st173{fill:url(#Path_57_11_);}
	.st174{fill:url(#Rectangle_7_11_);}
	.st175{fill:url(#Path_58_11_);}
	.st176{clip-path:url(#SVGID_78_);}
	.st177{fill:url(#Trazado_1691_7_);}
	.st178{fill:url(#Trazado_1692_5_);}
	.st179{fill:url(#peligro_8_);}
	.st180{fill:url(#peligro_10_);}
	.st181{fill:#FFFFFF;stroke:#CCCCCC;}
	.st182{fill:#F40C0C;}
	.st183{fill:url(#peligro_11_);}
	.st184{fill:url(#SVGID_79_);}
	.st185{fill:url(#SVGID_80_);}
	.st186{fill:#00AC57;}
	.st187{fill:url(#peligro_12_);}
</style>
<linearGradient id="peligro_8_" gradientUnits="userSpaceOnUse" x1="651.1896" y1="7165.6182" x2="651.1896" y2="7164.6182" gradientTransform="matrix(190.1455 0 0 -170.2292 -123705.9922 1219815.5)">
	<stop  offset="0" style="stop-color:#41D78C"/>
	<stop  offset="1" style="stop-color:#0DB4DC"/>
</linearGradient>
<path id="peligro_9_" class="st179" d="M207.04,156.23l-74-128.02c-5.81-10.08-18.7-13.55-28.78-7.73c0,0,0,0,0,0
	c-3.21,1.85-5.88,4.52-7.73,7.73L22.55,156.23c-5.83,10.09-2.37,23,7.72,28.82c0,0,0,0,0,0c3.2,1.85,6.82,2.82,10.51,2.83h23.27
	c1.54,0,2.79-1.25,2.79-2.78c0,0,0,0,0,0c0-1.54-1.25-2.79-2.79-2.79H40.79c-8.58,0-15.53-6.95-15.53-15.53
	c0-2.73,0.72-5.4,2.08-7.77l74.01-128.02c4.29-7.43,13.78-9.97,21.21-5.69c0,0,0,0,0,0c2.36,1.36,4.32,3.32,5.69,5.69l74,128.02
	c4.29,7.43,1.74,16.93-5.69,21.21c-2.36,1.36-5.04,2.08-7.76,2.08H77.09c-1.54,0-2.79,1.25-2.79,2.79c0,1.54,1.25,2.79,2.79,2.79
	h111.68c11.65,0,21.1-9.45,21.1-21.1v0C209.87,163.08,208.89,159.44,207.04,156.23z M173.82,160.73h-15.89
	c-1.55,0-2.8,1.26-2.8,2.81c0,0,0,0,0,0c0,1.55,1.25,2.8,2.8,2.8l0,0h15.89c2.93,0.02,5.64-1.56,7.07-4.11
	c1.48-2.56,1.48-5.71,0-8.26L121.87,50.82c-2.23-3.91-7.2-5.27-11.11-3.04c-1.27,0.72-2.32,1.77-3.04,3.04L48.66,153.96
	c-1.48,2.56-1.48,5.71,0,8.26c1.43,2.56,4.14,4.13,7.07,4.11h89.25c1.55,0,2.8-1.25,2.8-2.8c0,0,0-0.01,0-0.01
	c0-1.55-1.25-2.8-2.8-2.8H55.74c-0.94,0.01-1.8-0.5-2.26-1.31c-0.47-0.82-0.47-1.83,0-2.66l59.06-103.14
	c0.71-1.25,2.3-1.68,3.55-0.97c0,0,0,0,0.01,0c0.4,0.23,0.73,0.56,0.97,0.96l59.06,103.14c0.73,1.26,0.31,2.87-0.95,3.61
	C174.76,160.61,174.29,160.73,173.82,160.73L173.82,160.73z M124.86,83.91c0-5.56-4.51-10.06-10.06-10.06
	c-5.56,0-10.06,4.5-10.06,10.06v12.3c-0.01,1.55,1.24,2.8,2.79,2.81c0,0,0.01,0,0.01,0c1.55,0.01,2.8-1.24,2.81-2.79
	c0,0,0-0.01,0-0.01V83.91c0-2.46,1.99-4.45,4.45-4.45c0,0,0,0,0,0c2.46,0,4.45,1.99,4.45,4.45l0,0v39.9c0,2.46-1.99,4.45-4.45,4.45
	c-2.46,0-4.45-1.99-4.45-4.45c0,0,0,0,0,0V109.3c0-1.55-1.25-2.8-2.8-2.8c0,0-0.01,0-0.01,0c-1.55,0-2.8,1.25-2.8,2.8l0,0v14.51
	c0,5.56,4.5,10.06,10.06,10.06c0,0,0,0,0,0c5.56,0,10.06-4.5,10.06-10.06V83.91z M114.8,136.14c-5.56,0-10.06,4.5-10.06,10.06
	s4.5,10.06,10.06,10.06c0,0,0,0,0,0c5.56,0,10.06-4.5,10.06-10.06l0,0l0,0C124.84,140.65,120.35,136.15,114.8,136.14L114.8,136.14z
	 M114.8,150.65c-2.46,0-4.45-1.99-4.45-4.45c0,0,0,0,0,0c0-2.46,1.99-4.45,4.45-4.45c2.46,0,4.45,1.99,4.45,4.45l0,0
	c0.01,2.45-1.97,4.44-4.42,4.45H114.8z"/>
</svg>
